G75*
%MOIN*%
%OFA0B0*%
%FSLAX24Y24*%
%IPPOS*%
%LPD*%
%AMOC8*
5,1,8,0,0,1.08239X$1,22.5*
%
%ADD10C,0.0600*%
%ADD11R,0.0591X0.0591*%
%ADD12R,0.0551X0.0394*%
%ADD13R,0.0630X0.0710*%
%ADD14C,0.0160*%
%ADD15C,0.0396*%
D10*
X001080Y001080D03*
X002080Y001080D03*
X003080Y001080D03*
D11*
X004591Y001180D03*
X005969Y001180D03*
X009280Y004491D03*
X009280Y005869D03*
X005969Y009180D03*
X004591Y009180D03*
X001280Y005869D03*
X001280Y004491D03*
D12*
X003547Y004580D03*
X004413Y004206D03*
X004413Y004954D03*
X006347Y005606D03*
X006347Y006354D03*
X007213Y005980D03*
D13*
X007220Y004780D03*
X008340Y004780D03*
X006540Y003480D03*
X006540Y002480D03*
X005420Y002480D03*
X005420Y003480D03*
X003540Y005880D03*
X002420Y005880D03*
D14*
X002420Y005869D01*
X001280Y005869D01*
X001735Y006109D02*
X001735Y006231D01*
X001642Y006324D01*
X000918Y006324D01*
X000825Y006231D01*
X000825Y005507D01*
X000918Y005414D01*
X001642Y005414D01*
X001735Y005507D01*
X001735Y005629D01*
X001945Y005629D01*
X001945Y005459D01*
X002039Y005365D01*
X002801Y005365D01*
X002895Y005459D01*
X002895Y006301D01*
X002801Y006395D01*
X002039Y006395D01*
X001945Y006301D01*
X001945Y006109D01*
X001735Y006109D01*
X001735Y006203D02*
X001945Y006203D01*
X002006Y006362D02*
X000760Y006362D01*
X000760Y006203D02*
X000825Y006203D01*
X000825Y006045D02*
X000760Y006045D01*
X000760Y005886D02*
X000825Y005886D01*
X000825Y005728D02*
X000760Y005728D01*
X000760Y005569D02*
X000825Y005569D01*
X000760Y005411D02*
X001993Y005411D01*
X001945Y005569D02*
X001735Y005569D01*
X001642Y004946D02*
X000918Y004946D01*
X000825Y004853D01*
X000825Y004129D01*
X000918Y004036D01*
X001642Y004036D01*
X001735Y004129D01*
X001735Y004251D01*
X002170Y004251D01*
X004785Y001635D01*
X004564Y001635D01*
X004438Y001761D01*
X004438Y001851D01*
X004384Y001983D01*
X004283Y002084D01*
X004151Y002138D01*
X004009Y002138D01*
X003877Y002084D01*
X003776Y001983D01*
X003722Y001851D01*
X003722Y001709D01*
X003776Y001577D01*
X003877Y001476D01*
X004009Y001422D01*
X004099Y001422D01*
X004136Y001385D01*
X004136Y001064D01*
X003732Y000660D01*
X003313Y000660D01*
X003332Y000669D01*
X003393Y000714D01*
X003446Y000767D01*
X003491Y000828D01*
X003525Y000896D01*
X003548Y000968D01*
X003560Y001042D01*
X003560Y001060D01*
X003100Y001060D01*
X003100Y001100D01*
X003060Y001100D01*
X003060Y001560D01*
X003042Y001560D01*
X002968Y001548D01*
X002896Y001525D01*
X002828Y001491D01*
X002767Y001446D01*
X002714Y001393D01*
X002669Y001332D01*
X002635Y001264D01*
X002612Y001192D01*
X002600Y001118D01*
X002600Y001100D01*
X003060Y001100D01*
X003060Y001060D01*
X002600Y001060D01*
X002600Y001042D01*
X002612Y000968D01*
X002635Y000896D01*
X002669Y000828D01*
X002714Y000767D01*
X002767Y000714D01*
X002828Y000669D01*
X002847Y000660D01*
X002639Y000660D01*
X002473Y000827D01*
X002540Y000988D01*
X002540Y001171D01*
X002470Y001341D01*
X002341Y001470D01*
X002171Y001540D01*
X001988Y001540D01*
X001819Y001470D01*
X001690Y001341D01*
X001620Y001171D01*
X001620Y000988D01*
X001690Y000819D01*
X001819Y000690D01*
X001892Y000660D01*
X001268Y000660D01*
X001341Y000690D01*
X001470Y000819D01*
X001540Y000988D01*
X001540Y001171D01*
X001489Y001295D01*
X002594Y002622D01*
X002651Y002622D01*
X002783Y002676D01*
X002884Y002777D01*
X002938Y002909D01*
X002938Y003051D01*
X002884Y003183D01*
X002783Y003284D01*
X002651Y003338D01*
X002509Y003338D01*
X002377Y003284D01*
X002276Y003183D01*
X002222Y003051D01*
X002222Y002925D01*
X001068Y001540D01*
X000988Y001540D01*
X000819Y001470D01*
X000760Y001411D01*
X000760Y007633D01*
X000910Y007483D01*
X000910Y007483D01*
X001323Y007272D01*
X001780Y007200D01*
X002237Y007272D01*
X002237Y007272D01*
X002650Y007483D01*
X002977Y007810D01*
X003188Y008223D01*
X003260Y008680D01*
X003188Y009137D01*
X003188Y009137D01*
X002977Y009550D01*
X002827Y009700D01*
X009800Y009700D01*
X009800Y002727D01*
X009650Y002877D01*
X009237Y003088D01*
X008780Y003160D01*
X008323Y003088D01*
X007910Y002877D01*
X007583Y002550D01*
X007372Y002137D01*
X007300Y001680D01*
X007300Y001680D01*
X007372Y001223D01*
X007583Y000810D01*
X007733Y000660D01*
X004410Y000660D01*
X004475Y000725D01*
X004953Y000725D01*
X005046Y000818D01*
X005046Y001374D01*
X005514Y000907D01*
X005514Y000818D01*
X005607Y000725D01*
X006331Y000725D01*
X006424Y000818D01*
X006424Y001542D01*
X006331Y001635D01*
X005607Y001635D01*
X005536Y001564D01*
X005134Y001965D01*
X005801Y001965D01*
X005895Y002059D01*
X005895Y002901D01*
X005826Y002970D01*
X005846Y002981D01*
X005879Y003015D01*
X005903Y003056D01*
X005915Y003101D01*
X005915Y003403D01*
X005498Y003403D01*
X005498Y003557D01*
X005915Y003557D01*
X005915Y003859D01*
X005903Y003904D01*
X005879Y003945D01*
X005859Y003966D01*
X006130Y003966D01*
X006065Y003901D01*
X006065Y003059D01*
X006144Y002980D01*
X006065Y002901D01*
X006065Y002059D01*
X006159Y001965D01*
X006921Y001965D01*
X007015Y002059D01*
X007015Y002901D01*
X006936Y002980D01*
X007015Y003059D01*
X007015Y003901D01*
X006921Y003995D01*
X006720Y003995D01*
X006720Y004028D01*
X006683Y004116D01*
X006616Y004183D01*
X006390Y004409D01*
X006302Y004446D01*
X005620Y004446D01*
X005620Y005981D01*
X005753Y006114D01*
X005911Y006114D01*
X005911Y006091D01*
X006005Y005997D01*
X006689Y005997D01*
X006777Y006086D01*
X006777Y005894D01*
X006767Y005913D01*
X006733Y005947D01*
X006692Y005971D01*
X006646Y005983D01*
X006365Y005983D01*
X006365Y005624D01*
X006803Y005624D01*
X006803Y005692D01*
X006871Y005623D01*
X006980Y005623D01*
X006980Y005295D01*
X006839Y005295D01*
X006745Y005201D01*
X006745Y004359D01*
X006839Y004265D01*
X007601Y004265D01*
X007695Y004359D01*
X007695Y005201D01*
X007601Y005295D01*
X007460Y005295D01*
X007460Y005623D01*
X007555Y005623D01*
X007649Y005717D01*
X007649Y006243D01*
X007555Y006337D01*
X006871Y006337D01*
X006783Y006248D01*
X006783Y006617D01*
X006689Y006711D01*
X006005Y006711D01*
X005911Y006617D01*
X005911Y006594D01*
X005606Y006594D01*
X005518Y006557D01*
X005244Y006283D01*
X005177Y006216D01*
X005140Y006128D01*
X005140Y004446D01*
X004849Y004446D01*
X004849Y004469D01*
X004755Y004563D01*
X004071Y004563D01*
X003983Y004474D01*
X003983Y004666D01*
X003993Y004647D01*
X004027Y004613D01*
X004068Y004589D01*
X004114Y004577D01*
X004395Y004577D01*
X004395Y004936D01*
X003957Y004936D01*
X003957Y004868D01*
X003889Y004937D01*
X003780Y004937D01*
X003780Y005365D01*
X003921Y005365D01*
X004015Y005459D01*
X004015Y006301D01*
X003921Y006395D01*
X003159Y006395D01*
X003065Y006301D01*
X003065Y005459D01*
X003159Y005365D01*
X003300Y005365D01*
X003300Y004937D01*
X003205Y004937D01*
X003111Y004843D01*
X003111Y004317D01*
X003205Y004223D01*
X003889Y004223D01*
X003977Y004312D01*
X003977Y003943D01*
X004071Y003849D01*
X004755Y003849D01*
X004849Y003943D01*
X004849Y003966D01*
X004982Y003966D01*
X004961Y003945D01*
X004937Y003904D01*
X004925Y003859D01*
X004925Y003557D01*
X005343Y003557D01*
X005343Y003403D01*
X004925Y003403D01*
X004925Y003220D01*
X004746Y003220D01*
X004683Y003284D01*
X004551Y003338D01*
X004409Y003338D01*
X004277Y003284D01*
X004176Y003183D01*
X004122Y003051D01*
X004122Y002978D01*
X002405Y004694D01*
X002317Y004731D01*
X001735Y004731D01*
X001735Y004853D01*
X001642Y004946D01*
X001653Y004935D02*
X003203Y004935D01*
X003300Y005094D02*
X000760Y005094D01*
X000760Y004935D02*
X000907Y004935D01*
X000825Y004777D02*
X000760Y004777D01*
X000760Y004618D02*
X000825Y004618D01*
X000825Y004460D02*
X000760Y004460D01*
X000760Y004301D02*
X000825Y004301D01*
X000825Y004143D02*
X000760Y004143D01*
X000760Y003984D02*
X002437Y003984D01*
X002595Y003826D02*
X000760Y003826D01*
X000760Y003667D02*
X002754Y003667D01*
X002912Y003509D02*
X000760Y003509D01*
X000760Y003350D02*
X003071Y003350D01*
X003229Y003192D02*
X002875Y003192D01*
X002938Y003033D02*
X003388Y003033D01*
X003546Y002875D02*
X002924Y002875D01*
X002822Y002716D02*
X003705Y002716D01*
X003863Y002558D02*
X002540Y002558D01*
X002408Y002399D02*
X004022Y002399D01*
X004180Y002241D02*
X002276Y002241D01*
X002144Y002082D02*
X003876Y002082D01*
X003752Y001924D02*
X002012Y001924D01*
X001880Y001765D02*
X003722Y001765D01*
X003764Y001607D02*
X001748Y001607D01*
X001797Y001448D02*
X001616Y001448D01*
X001669Y001290D02*
X001491Y001290D01*
X001540Y001131D02*
X001620Y001131D01*
X001627Y000973D02*
X001533Y000973D01*
X001465Y000814D02*
X001695Y000814D01*
X002080Y000880D02*
X002080Y001080D01*
X002080Y000880D02*
X002580Y000380D01*
X003791Y000380D01*
X004591Y001180D01*
X004591Y001269D01*
X004080Y001780D01*
X004284Y002082D02*
X004339Y002082D01*
X004408Y001924D02*
X004497Y001924D01*
X004438Y001765D02*
X004656Y001765D01*
X005046Y001290D02*
X005131Y001290D01*
X005046Y001131D02*
X005290Y001131D01*
X005448Y000973D02*
X005046Y000973D01*
X005042Y000814D02*
X005518Y000814D01*
X005780Y000980D02*
X005780Y000991D01*
X005969Y001180D01*
X005780Y000980D02*
X002269Y004491D01*
X001280Y004491D01*
X001735Y004777D02*
X003111Y004777D01*
X003111Y004618D02*
X002481Y004618D01*
X002640Y004460D02*
X003111Y004460D01*
X003127Y004301D02*
X002798Y004301D01*
X002957Y004143D02*
X003977Y004143D01*
X003977Y003984D02*
X003115Y003984D01*
X003274Y003826D02*
X004925Y003826D01*
X004925Y003667D02*
X003432Y003667D01*
X003591Y003509D02*
X005343Y003509D01*
X005498Y003509D02*
X006065Y003509D01*
X006065Y003350D02*
X005915Y003350D01*
X005915Y003192D02*
X006065Y003192D01*
X006091Y003033D02*
X005890Y003033D01*
X005895Y002875D02*
X006065Y002875D01*
X006065Y002716D02*
X005895Y002716D01*
X005895Y002558D02*
X006065Y002558D01*
X006065Y002399D02*
X005895Y002399D01*
X005895Y002241D02*
X006065Y002241D01*
X006065Y002082D02*
X005895Y002082D01*
X005579Y001607D02*
X005493Y001607D01*
X005334Y001765D02*
X007313Y001765D01*
X007312Y001607D02*
X006359Y001607D01*
X006424Y001448D02*
X007337Y001448D01*
X007362Y001290D02*
X006424Y001290D01*
X006424Y001131D02*
X007419Y001131D01*
X007372Y001223D02*
X007372Y001223D01*
X007500Y000973D02*
X006424Y000973D01*
X006420Y000814D02*
X007581Y000814D01*
X007583Y000810D02*
X007583Y000810D01*
X007339Y001924D02*
X005176Y001924D01*
X005420Y002480D02*
X004920Y002980D01*
X004480Y002980D01*
X004122Y003033D02*
X004066Y003033D01*
X004185Y003192D02*
X003908Y003192D01*
X003749Y003350D02*
X004925Y003350D01*
X005280Y004206D02*
X004413Y004206D01*
X004431Y004577D02*
X004712Y004577D01*
X004758Y004589D01*
X004799Y004613D01*
X004833Y004647D01*
X004856Y004688D01*
X004869Y004733D01*
X004869Y004936D01*
X004432Y004936D01*
X004432Y004972D01*
X004869Y004972D01*
X004869Y005175D01*
X004856Y005220D01*
X004833Y005261D01*
X004799Y005295D01*
X004758Y005319D01*
X004712Y005331D01*
X004431Y005331D01*
X004431Y004972D01*
X004395Y004972D01*
X004395Y004936D01*
X004431Y004936D01*
X004431Y004577D01*
X004431Y004618D02*
X004395Y004618D01*
X004395Y004777D02*
X004431Y004777D01*
X004431Y004935D02*
X004395Y004935D01*
X004395Y004972D02*
X003957Y004972D01*
X003957Y005175D01*
X003970Y005220D01*
X003993Y005261D01*
X004027Y005295D01*
X004068Y005319D01*
X004114Y005331D01*
X004395Y005331D01*
X004395Y004972D01*
X004395Y005094D02*
X004431Y005094D01*
X004431Y005252D02*
X004395Y005252D01*
X004015Y005569D02*
X005140Y005569D01*
X005140Y005728D02*
X004015Y005728D01*
X004015Y005886D02*
X005140Y005886D01*
X005140Y006045D02*
X004015Y006045D01*
X004015Y006203D02*
X005171Y006203D01*
X005244Y006283D02*
X005244Y006283D01*
X005322Y006362D02*
X003954Y006362D01*
X003540Y005880D02*
X003540Y004580D01*
X003547Y004580D01*
X003983Y004618D02*
X004022Y004618D01*
X003977Y004301D02*
X003967Y004301D01*
X003957Y004935D02*
X003891Y004935D01*
X003957Y005094D02*
X003780Y005094D01*
X003780Y005252D02*
X003988Y005252D01*
X003967Y005411D02*
X005140Y005411D01*
X005140Y005252D02*
X004838Y005252D01*
X004869Y005094D02*
X005140Y005094D01*
X005140Y004935D02*
X004869Y004935D01*
X004869Y004777D02*
X005140Y004777D01*
X005140Y004618D02*
X004804Y004618D01*
X004849Y004460D02*
X005140Y004460D01*
X005380Y004306D02*
X005280Y004206D01*
X006254Y004206D01*
X006480Y003980D01*
X006480Y003540D01*
X006540Y003480D01*
X006540Y002480D01*
X007015Y002558D02*
X007590Y002558D01*
X007583Y002550D02*
X007583Y002550D01*
X007506Y002399D02*
X007015Y002399D01*
X007015Y002241D02*
X007425Y002241D01*
X007372Y002137D02*
X007372Y002137D01*
X007364Y002082D02*
X007015Y002082D01*
X007015Y002716D02*
X007749Y002716D01*
X007907Y002875D02*
X007015Y002875D01*
X006989Y003033D02*
X008216Y003033D01*
X008323Y003088D02*
X008323Y003088D01*
X007910Y002877D02*
X007910Y002877D01*
X007015Y003192D02*
X009800Y003192D01*
X009800Y003033D02*
X009344Y003033D01*
X009237Y003088D02*
X009237Y003088D01*
X008780Y003160D02*
X008780Y003160D01*
X008918Y004036D02*
X009642Y004036D01*
X009735Y004129D01*
X009735Y004853D01*
X009642Y004946D01*
X008918Y004946D01*
X008825Y004853D01*
X008825Y004731D01*
X008815Y004731D01*
X008815Y005201D01*
X008721Y005295D01*
X007959Y005295D01*
X007865Y005201D01*
X007865Y004359D01*
X007959Y004265D01*
X008547Y004265D01*
X008581Y004251D01*
X008825Y004251D01*
X008825Y004129D01*
X008918Y004036D01*
X008825Y004143D02*
X006657Y004143D01*
X006803Y004301D02*
X006498Y004301D01*
X006745Y004460D02*
X005620Y004460D01*
X005620Y004618D02*
X006745Y004618D01*
X006745Y004777D02*
X005620Y004777D01*
X005620Y004935D02*
X006745Y004935D01*
X006745Y005094D02*
X005620Y005094D01*
X005620Y005252D02*
X005983Y005252D01*
X006002Y005241D02*
X006048Y005229D01*
X006329Y005229D01*
X006329Y005588D01*
X006365Y005588D01*
X006365Y005624D01*
X006329Y005624D01*
X006328Y005624D02*
X006328Y005588D01*
X005891Y005588D01*
X005891Y005385D01*
X005904Y005340D01*
X005927Y005299D01*
X005961Y005265D01*
X006002Y005241D01*
X005891Y005411D02*
X005620Y005411D01*
X005620Y005569D02*
X005891Y005569D01*
X005891Y005624D02*
X006328Y005624D01*
X006329Y005624D02*
X006329Y005983D01*
X006048Y005983D01*
X006002Y005971D01*
X005961Y005947D01*
X005927Y005913D01*
X005904Y005872D01*
X005891Y005827D01*
X005891Y005624D01*
X005891Y005728D02*
X005620Y005728D01*
X005620Y005886D02*
X005912Y005886D01*
X005958Y006045D02*
X005684Y006045D01*
X005380Y006080D02*
X005654Y006354D01*
X006347Y006354D01*
X006721Y006679D02*
X008742Y006679D01*
X008584Y006837D02*
X000760Y006837D01*
X000760Y006996D02*
X008425Y006996D01*
X008267Y007154D02*
X000760Y007154D01*
X000760Y007313D02*
X001244Y007313D01*
X001323Y007272D02*
X001323Y007272D01*
X000933Y007471D02*
X000760Y007471D01*
X000760Y007630D02*
X000763Y007630D01*
X001780Y007200D02*
X001780Y007200D01*
X002316Y007313D02*
X008108Y007313D01*
X007950Y007471D02*
X002627Y007471D01*
X002650Y007483D02*
X002650Y007483D01*
X002797Y007630D02*
X007791Y007630D01*
X007633Y007788D02*
X002955Y007788D01*
X002977Y007810D02*
X002977Y007810D01*
X003047Y007947D02*
X007474Y007947D01*
X007316Y008105D02*
X003128Y008105D01*
X003188Y008223D02*
X003188Y008223D01*
X003194Y008264D02*
X004290Y008264D01*
X004276Y008277D02*
X004377Y008176D01*
X004509Y008122D01*
X004651Y008122D01*
X004783Y008176D01*
X004884Y008277D01*
X004938Y008409D01*
X004938Y008551D01*
X004884Y008683D01*
X004842Y008725D01*
X004953Y008725D01*
X005046Y008818D01*
X005046Y009542D01*
X004953Y009635D01*
X004229Y009635D01*
X004136Y009542D01*
X004136Y008818D01*
X004229Y008725D01*
X004318Y008725D01*
X004276Y008683D01*
X004222Y008551D01*
X004222Y008409D01*
X004276Y008277D01*
X004222Y008422D02*
X003219Y008422D01*
X003244Y008581D02*
X004234Y008581D01*
X004215Y008739D02*
X003251Y008739D01*
X003226Y008898D02*
X004136Y008898D01*
X004136Y009056D02*
X003200Y009056D01*
X003148Y009215D02*
X004136Y009215D01*
X004136Y009373D02*
X003067Y009373D01*
X002987Y009532D02*
X004136Y009532D01*
X004580Y009169D02*
X004591Y009180D01*
X004580Y009169D02*
X004580Y008480D01*
X004926Y008581D02*
X006840Y008581D01*
X006682Y008739D02*
X006345Y008739D01*
X006331Y008725D02*
X006424Y008818D01*
X006424Y008940D01*
X006481Y008940D01*
X009040Y006381D01*
X009040Y006324D01*
X008918Y006324D01*
X008825Y006231D01*
X008825Y005507D01*
X008918Y005414D01*
X009642Y005414D01*
X009735Y005507D01*
X009735Y006231D01*
X009642Y006324D01*
X009520Y006324D01*
X009520Y006528D01*
X009483Y006616D01*
X009416Y006683D01*
X006716Y009383D01*
X006628Y009420D01*
X006424Y009420D01*
X006424Y009542D01*
X006331Y009635D01*
X005607Y009635D01*
X005514Y009542D01*
X005514Y008818D01*
X005607Y008725D01*
X006331Y008725D01*
X006424Y008898D02*
X006523Y008898D01*
X006580Y009180D02*
X009280Y006480D01*
X009280Y005869D01*
X008825Y005886D02*
X007649Y005886D01*
X007649Y006045D02*
X008825Y006045D01*
X008825Y006203D02*
X007649Y006203D01*
X007220Y005973D02*
X007213Y005980D01*
X007220Y005973D02*
X007220Y004780D01*
X007695Y004777D02*
X007865Y004777D01*
X007865Y004618D02*
X007695Y004618D01*
X007695Y004460D02*
X007865Y004460D01*
X007923Y004301D02*
X007637Y004301D01*
X007695Y004935D02*
X007865Y004935D01*
X007865Y005094D02*
X007695Y005094D01*
X007644Y005252D02*
X007916Y005252D01*
X007460Y005411D02*
X009800Y005411D01*
X009800Y005252D02*
X008764Y005252D01*
X008815Y005094D02*
X009800Y005094D01*
X009800Y004935D02*
X009653Y004935D01*
X009735Y004777D02*
X009800Y004777D01*
X009800Y004618D02*
X009735Y004618D01*
X009735Y004460D02*
X009800Y004460D01*
X009800Y004301D02*
X009735Y004301D01*
X009735Y004143D02*
X009800Y004143D01*
X009800Y003984D02*
X006932Y003984D01*
X007015Y003826D02*
X009800Y003826D01*
X009800Y003667D02*
X007015Y003667D01*
X007015Y003509D02*
X009800Y003509D01*
X009800Y003350D02*
X007015Y003350D01*
X006065Y003667D02*
X005915Y003667D01*
X005915Y003826D02*
X006065Y003826D01*
X005380Y004306D02*
X005380Y006080D01*
X005481Y006520D02*
X000760Y006520D01*
X000760Y006679D02*
X005973Y006679D01*
X006329Y005886D02*
X006365Y005886D01*
X006365Y005728D02*
X006329Y005728D01*
X006365Y005588D02*
X006803Y005588D01*
X006803Y005385D01*
X006790Y005340D01*
X006767Y005299D01*
X006733Y005265D01*
X006692Y005241D01*
X006646Y005229D01*
X006365Y005229D01*
X006365Y005588D01*
X006365Y005569D02*
X006329Y005569D01*
X006329Y005411D02*
X006365Y005411D01*
X006365Y005252D02*
X006329Y005252D01*
X006710Y005252D02*
X006796Y005252D01*
X006803Y005411D02*
X006980Y005411D01*
X006980Y005569D02*
X006803Y005569D01*
X006777Y006045D02*
X006736Y006045D01*
X006783Y006362D02*
X009040Y006362D01*
X008901Y006520D02*
X006783Y006520D01*
X007649Y005728D02*
X008825Y005728D01*
X008825Y005569D02*
X007460Y005569D01*
X008340Y004780D02*
X008629Y004491D01*
X009280Y004491D01*
X008825Y004777D02*
X008815Y004777D01*
X008815Y004935D02*
X008907Y004935D01*
X009735Y005569D02*
X009800Y005569D01*
X009800Y005728D02*
X009735Y005728D01*
X009735Y005886D02*
X009800Y005886D01*
X009800Y006045D02*
X009735Y006045D01*
X009735Y006203D02*
X009800Y006203D01*
X009800Y006362D02*
X009520Y006362D01*
X009520Y006520D02*
X009800Y006520D01*
X009800Y006679D02*
X009421Y006679D01*
X009262Y006837D02*
X009800Y006837D01*
X009800Y006996D02*
X009104Y006996D01*
X008945Y007154D02*
X009800Y007154D01*
X009800Y007313D02*
X008787Y007313D01*
X008628Y007471D02*
X009800Y007471D01*
X009800Y007630D02*
X008470Y007630D01*
X008311Y007788D02*
X009800Y007788D01*
X009800Y007947D02*
X008153Y007947D01*
X007994Y008105D02*
X009800Y008105D01*
X009800Y008264D02*
X007836Y008264D01*
X007677Y008422D02*
X009800Y008422D01*
X009800Y008581D02*
X007519Y008581D01*
X007360Y008739D02*
X009800Y008739D01*
X009800Y008898D02*
X007202Y008898D01*
X007043Y009056D02*
X009800Y009056D01*
X009800Y009215D02*
X006885Y009215D01*
X006726Y009373D02*
X009800Y009373D01*
X009800Y009532D02*
X006424Y009532D01*
X006580Y009180D02*
X005969Y009180D01*
X005514Y009215D02*
X005046Y009215D01*
X005046Y009373D02*
X005514Y009373D01*
X005514Y009532D02*
X005046Y009532D01*
X005046Y009056D02*
X005514Y009056D01*
X005514Y008898D02*
X005046Y008898D01*
X004967Y008739D02*
X005593Y008739D01*
X004938Y008422D02*
X006999Y008422D01*
X007157Y008264D02*
X004870Y008264D01*
X002977Y009550D02*
X002977Y009550D01*
X002837Y009690D02*
X009800Y009690D01*
X003300Y005252D02*
X000760Y005252D01*
X001735Y004143D02*
X002278Y004143D01*
X002285Y003192D02*
X000760Y003192D01*
X000760Y003033D02*
X002222Y003033D01*
X002180Y002875D02*
X000760Y002875D01*
X000760Y002716D02*
X002048Y002716D01*
X001916Y002558D02*
X000760Y002558D01*
X000760Y002399D02*
X001783Y002399D01*
X001651Y002241D02*
X000760Y002241D01*
X000760Y002082D02*
X001519Y002082D01*
X001387Y001924D02*
X000760Y001924D01*
X000760Y001765D02*
X001255Y001765D01*
X001123Y001607D02*
X000760Y001607D01*
X000760Y001448D02*
X000797Y001448D01*
X001080Y001180D02*
X001080Y001080D01*
X001080Y001180D02*
X002580Y002980D01*
X003100Y001560D02*
X003100Y001100D01*
X003560Y001100D01*
X003560Y001118D01*
X003548Y001192D01*
X003525Y001264D01*
X003491Y001332D01*
X003446Y001393D01*
X003393Y001446D01*
X003332Y001491D01*
X003264Y001525D01*
X003192Y001548D01*
X003118Y001560D01*
X003100Y001560D01*
X003100Y001448D02*
X003060Y001448D01*
X003060Y001290D02*
X003100Y001290D01*
X003100Y001131D02*
X003060Y001131D01*
X002770Y001448D02*
X002363Y001448D01*
X002491Y001290D02*
X002648Y001290D01*
X002602Y001131D02*
X002540Y001131D01*
X002533Y000973D02*
X002611Y000973D01*
X002680Y000814D02*
X002485Y000814D01*
X003480Y000814D02*
X003886Y000814D01*
X004044Y000973D02*
X003549Y000973D01*
X003558Y001131D02*
X004136Y001131D01*
X004136Y001290D02*
X003512Y001290D01*
X003390Y001448D02*
X003946Y001448D01*
X003113Y005411D02*
X002847Y005411D01*
X002895Y005569D02*
X003065Y005569D01*
X003065Y005728D02*
X002895Y005728D01*
X002895Y005886D02*
X003065Y005886D01*
X003065Y006045D02*
X002895Y006045D01*
X002895Y006203D02*
X003065Y006203D01*
X003125Y006362D02*
X002835Y006362D01*
X009650Y002877D02*
X009650Y002877D01*
X009653Y002875D02*
X009800Y002875D01*
D15*
X004480Y002980D03*
X004080Y001780D03*
X002580Y002980D03*
X004580Y008480D03*
M02*
