G75*
%MOIN*%
%OFA0B0*%
%FSLAX24Y24*%
%IPPOS*%
%LPD*%
%AMOC8*
5,1,8,0,0,1.08239X$1,22.5*
%
%ADD10C,0.0000*%
D10*
X000280Y000180D02*
X000280Y010180D01*
X010280Y010180D01*
X010280Y000180D01*
X000280Y000180D01*
X008229Y001680D02*
X008231Y001727D01*
X008237Y001773D01*
X008247Y001819D01*
X008260Y001864D01*
X008278Y001907D01*
X008299Y001949D01*
X008323Y001989D01*
X008351Y002026D01*
X008382Y002061D01*
X008416Y002094D01*
X008452Y002123D01*
X008491Y002149D01*
X008532Y002172D01*
X008575Y002191D01*
X008619Y002207D01*
X008664Y002219D01*
X008710Y002227D01*
X008757Y002231D01*
X008803Y002231D01*
X008850Y002227D01*
X008896Y002219D01*
X008941Y002207D01*
X008985Y002191D01*
X009028Y002172D01*
X009069Y002149D01*
X009108Y002123D01*
X009144Y002094D01*
X009178Y002061D01*
X009209Y002026D01*
X009237Y001989D01*
X009261Y001949D01*
X009282Y001907D01*
X009300Y001864D01*
X009313Y001819D01*
X009323Y001773D01*
X009329Y001727D01*
X009331Y001680D01*
X009329Y001633D01*
X009323Y001587D01*
X009313Y001541D01*
X009300Y001496D01*
X009282Y001453D01*
X009261Y001411D01*
X009237Y001371D01*
X009209Y001334D01*
X009178Y001299D01*
X009144Y001266D01*
X009108Y001237D01*
X009069Y001211D01*
X009028Y001188D01*
X008985Y001169D01*
X008941Y001153D01*
X008896Y001141D01*
X008850Y001133D01*
X008803Y001129D01*
X008757Y001129D01*
X008710Y001133D01*
X008664Y001141D01*
X008619Y001153D01*
X008575Y001169D01*
X008532Y001188D01*
X008491Y001211D01*
X008452Y001237D01*
X008416Y001266D01*
X008382Y001299D01*
X008351Y001334D01*
X008323Y001371D01*
X008299Y001411D01*
X008278Y001453D01*
X008260Y001496D01*
X008247Y001541D01*
X008237Y001587D01*
X008231Y001633D01*
X008229Y001680D01*
X001229Y008680D02*
X001231Y008727D01*
X001237Y008773D01*
X001247Y008819D01*
X001260Y008864D01*
X001278Y008907D01*
X001299Y008949D01*
X001323Y008989D01*
X001351Y009026D01*
X001382Y009061D01*
X001416Y009094D01*
X001452Y009123D01*
X001491Y009149D01*
X001532Y009172D01*
X001575Y009191D01*
X001619Y009207D01*
X001664Y009219D01*
X001710Y009227D01*
X001757Y009231D01*
X001803Y009231D01*
X001850Y009227D01*
X001896Y009219D01*
X001941Y009207D01*
X001985Y009191D01*
X002028Y009172D01*
X002069Y009149D01*
X002108Y009123D01*
X002144Y009094D01*
X002178Y009061D01*
X002209Y009026D01*
X002237Y008989D01*
X002261Y008949D01*
X002282Y008907D01*
X002300Y008864D01*
X002313Y008819D01*
X002323Y008773D01*
X002329Y008727D01*
X002331Y008680D01*
X002329Y008633D01*
X002323Y008587D01*
X002313Y008541D01*
X002300Y008496D01*
X002282Y008453D01*
X002261Y008411D01*
X002237Y008371D01*
X002209Y008334D01*
X002178Y008299D01*
X002144Y008266D01*
X002108Y008237D01*
X002069Y008211D01*
X002028Y008188D01*
X001985Y008169D01*
X001941Y008153D01*
X001896Y008141D01*
X001850Y008133D01*
X001803Y008129D01*
X001757Y008129D01*
X001710Y008133D01*
X001664Y008141D01*
X001619Y008153D01*
X001575Y008169D01*
X001532Y008188D01*
X001491Y008211D01*
X001452Y008237D01*
X001416Y008266D01*
X001382Y008299D01*
X001351Y008334D01*
X001323Y008371D01*
X001299Y008411D01*
X001278Y008453D01*
X001260Y008496D01*
X001247Y008541D01*
X001237Y008587D01*
X001231Y008633D01*
X001229Y008680D01*
M02*
