G75*
%MOIN*%
%OFA0B0*%
%FSLAX24Y24*%
%IPPOS*%
%LPD*%
%AMOC8*
5,1,8,0,0,1.08239X$1,22.5*
%
%ADD10C,0.0600*%
%ADD11C,0.0396*%
%ADD12C,0.0160*%
D10*
X001080Y001080D03*
X002080Y001080D03*
X003080Y001080D03*
D11*
X004080Y001780D03*
X004480Y002980D03*
X002580Y002980D03*
X004580Y008480D03*
D12*
X004980Y008080D01*
X004980Y002680D01*
X004080Y001780D01*
X003876Y002082D02*
X000760Y002082D01*
X000760Y001924D02*
X003752Y001924D01*
X003776Y001983D02*
X003722Y001851D01*
X003722Y001709D01*
X003776Y001577D01*
X003877Y001476D01*
X004009Y001422D01*
X004151Y001422D01*
X004283Y001476D01*
X004384Y001577D01*
X004438Y001709D01*
X004438Y001799D01*
X005116Y002477D01*
X005183Y002544D01*
X005220Y002632D01*
X005220Y008128D01*
X005183Y008216D01*
X004938Y008461D01*
X004938Y008551D01*
X004884Y008683D01*
X004783Y008784D01*
X004651Y008838D01*
X004509Y008838D01*
X004377Y008784D01*
X004276Y008683D01*
X004222Y008551D01*
X004222Y008409D01*
X004276Y008277D01*
X004377Y008176D01*
X004509Y008122D01*
X004599Y008122D01*
X004740Y007981D01*
X004740Y003226D01*
X004683Y003284D01*
X004551Y003338D01*
X004409Y003338D01*
X004277Y003284D01*
X004214Y003220D01*
X002846Y003220D01*
X002783Y003284D01*
X002651Y003338D01*
X002509Y003338D01*
X002377Y003284D01*
X002276Y003183D01*
X002222Y003051D01*
X002222Y002909D01*
X002276Y002777D01*
X002377Y002676D01*
X002509Y002622D01*
X002651Y002622D01*
X002783Y002676D01*
X002846Y002740D01*
X004214Y002740D01*
X004277Y002676D01*
X004409Y002622D01*
X004551Y002622D01*
X004605Y002644D01*
X004099Y002138D01*
X004009Y002138D01*
X003877Y002084D01*
X003776Y001983D01*
X003722Y001765D02*
X000760Y001765D01*
X000760Y001607D02*
X003764Y001607D01*
X003946Y001448D02*
X003390Y001448D01*
X003393Y001446D02*
X003332Y001491D01*
X003264Y001525D01*
X003192Y001548D01*
X003118Y001560D01*
X003100Y001560D01*
X003100Y001100D01*
X003060Y001100D01*
X003060Y001560D01*
X003042Y001560D01*
X002968Y001548D01*
X002896Y001525D01*
X002828Y001491D01*
X002767Y001446D01*
X002714Y001393D01*
X002669Y001332D01*
X002635Y001264D01*
X002612Y001192D01*
X002600Y001118D01*
X002600Y001100D01*
X003060Y001100D01*
X003060Y001060D01*
X002600Y001060D01*
X002600Y001042D01*
X002612Y000968D01*
X002635Y000896D01*
X002669Y000828D01*
X002714Y000767D01*
X002767Y000714D01*
X002828Y000669D01*
X002847Y000660D01*
X002268Y000660D01*
X002341Y000690D01*
X002470Y000819D01*
X002540Y000988D01*
X002540Y001171D01*
X002470Y001341D01*
X002341Y001470D01*
X002171Y001540D01*
X001988Y001540D01*
X001819Y001470D01*
X001690Y001341D01*
X001620Y001171D01*
X001620Y000988D01*
X001690Y000819D01*
X001819Y000690D01*
X001892Y000660D01*
X001268Y000660D01*
X001341Y000690D01*
X001470Y000819D01*
X001540Y000988D01*
X001540Y001171D01*
X001470Y001341D01*
X001341Y001470D01*
X001171Y001540D01*
X000988Y001540D01*
X000819Y001470D01*
X000760Y001411D01*
X000760Y007633D01*
X000910Y007483D01*
X001323Y007272D01*
X001780Y007200D01*
X002237Y007272D01*
X002237Y007272D01*
X002650Y007483D01*
X002977Y007810D01*
X003188Y008223D01*
X003260Y008680D01*
X003188Y009137D01*
X003188Y009137D01*
X002977Y009550D01*
X002827Y009700D01*
X009800Y009700D01*
X009800Y002727D01*
X009650Y002877D01*
X009237Y003088D01*
X008780Y003160D01*
X008323Y003088D01*
X007910Y002877D01*
X007583Y002550D01*
X007372Y002137D01*
X007300Y001680D01*
X007300Y001680D01*
X007372Y001223D01*
X007583Y000810D01*
X007733Y000660D01*
X003313Y000660D01*
X003332Y000669D01*
X003393Y000714D01*
X003446Y000767D01*
X003491Y000828D01*
X003525Y000896D01*
X003548Y000968D01*
X003560Y001042D01*
X003560Y001060D01*
X003100Y001060D01*
X003100Y001100D01*
X003560Y001100D01*
X003560Y001118D01*
X003548Y001192D01*
X003525Y001264D01*
X003491Y001332D01*
X003446Y001393D01*
X003393Y001446D01*
X003512Y001290D02*
X007362Y001290D01*
X007372Y001223D02*
X007372Y001223D01*
X007419Y001131D02*
X003558Y001131D01*
X003549Y000973D02*
X007500Y000973D01*
X007581Y000814D02*
X003480Y000814D01*
X003100Y001131D02*
X003060Y001131D01*
X003060Y001290D02*
X003100Y001290D01*
X003100Y001448D02*
X003060Y001448D01*
X002770Y001448D02*
X002363Y001448D01*
X002491Y001290D02*
X002648Y001290D01*
X002602Y001131D02*
X002540Y001131D01*
X002533Y000973D02*
X002611Y000973D01*
X002680Y000814D02*
X002465Y000814D01*
X001797Y001448D02*
X001363Y001448D01*
X001491Y001290D02*
X001669Y001290D01*
X001620Y001131D02*
X001540Y001131D01*
X001533Y000973D02*
X001627Y000973D01*
X001695Y000814D02*
X001465Y000814D01*
X000797Y001448D02*
X000760Y001448D01*
X000760Y002241D02*
X004201Y002241D01*
X004360Y002399D02*
X000760Y002399D01*
X000760Y002558D02*
X004518Y002558D01*
X004238Y002716D02*
X002822Y002716D01*
X002580Y002980D02*
X004480Y002980D01*
X004740Y003350D02*
X000760Y003350D01*
X000760Y003509D02*
X004740Y003509D01*
X004740Y003667D02*
X000760Y003667D01*
X000760Y003826D02*
X004740Y003826D01*
X004740Y003984D02*
X000760Y003984D01*
X000760Y004143D02*
X004740Y004143D01*
X004740Y004301D02*
X000760Y004301D01*
X000760Y004460D02*
X004740Y004460D01*
X004740Y004618D02*
X000760Y004618D01*
X000760Y004777D02*
X004740Y004777D01*
X004740Y004935D02*
X000760Y004935D01*
X000760Y005094D02*
X004740Y005094D01*
X004740Y005252D02*
X000760Y005252D01*
X000760Y005411D02*
X004740Y005411D01*
X004740Y005569D02*
X000760Y005569D01*
X000760Y005728D02*
X004740Y005728D01*
X004740Y005886D02*
X000760Y005886D01*
X000760Y006045D02*
X004740Y006045D01*
X004740Y006203D02*
X000760Y006203D01*
X000760Y006362D02*
X004740Y006362D01*
X004740Y006520D02*
X000760Y006520D01*
X000760Y006679D02*
X004740Y006679D01*
X004740Y006837D02*
X000760Y006837D01*
X000760Y006996D02*
X004740Y006996D01*
X004740Y007154D02*
X000760Y007154D01*
X000760Y007313D02*
X001244Y007313D01*
X000933Y007471D02*
X000760Y007471D01*
X000760Y007630D02*
X000763Y007630D01*
X001780Y007200D02*
X001780Y007200D01*
X002316Y007313D02*
X004740Y007313D01*
X004740Y007471D02*
X002627Y007471D01*
X002650Y007483D02*
X002650Y007483D01*
X002797Y007630D02*
X004740Y007630D01*
X004740Y007788D02*
X002955Y007788D01*
X002977Y007810D02*
X002977Y007810D01*
X003047Y007947D02*
X004740Y007947D01*
X004616Y008105D02*
X003128Y008105D01*
X003188Y008223D02*
X003188Y008223D01*
X003194Y008264D02*
X004290Y008264D01*
X004222Y008422D02*
X003219Y008422D01*
X003244Y008581D02*
X004234Y008581D01*
X004333Y008739D02*
X003251Y008739D01*
X003226Y008898D02*
X009800Y008898D01*
X009800Y009056D02*
X003200Y009056D01*
X003148Y009215D02*
X009800Y009215D01*
X009800Y009373D02*
X003067Y009373D01*
X002987Y009532D02*
X009800Y009532D01*
X009800Y009690D02*
X002837Y009690D01*
X002977Y009550D02*
X002977Y009550D01*
X004827Y008739D02*
X009800Y008739D01*
X009800Y008581D02*
X004926Y008581D01*
X004977Y008422D02*
X009800Y008422D01*
X009800Y008264D02*
X005136Y008264D01*
X005220Y008105D02*
X009800Y008105D01*
X009800Y007947D02*
X005220Y007947D01*
X005220Y007788D02*
X009800Y007788D01*
X009800Y007630D02*
X005220Y007630D01*
X005220Y007471D02*
X009800Y007471D01*
X009800Y007313D02*
X005220Y007313D01*
X005220Y007154D02*
X009800Y007154D01*
X009800Y006996D02*
X005220Y006996D01*
X005220Y006837D02*
X009800Y006837D01*
X009800Y006679D02*
X005220Y006679D01*
X005220Y006520D02*
X009800Y006520D01*
X009800Y006362D02*
X005220Y006362D01*
X005220Y006203D02*
X009800Y006203D01*
X009800Y006045D02*
X005220Y006045D01*
X005220Y005886D02*
X009800Y005886D01*
X009800Y005728D02*
X005220Y005728D01*
X005220Y005569D02*
X009800Y005569D01*
X009800Y005411D02*
X005220Y005411D01*
X005220Y005252D02*
X009800Y005252D01*
X009800Y005094D02*
X005220Y005094D01*
X005220Y004935D02*
X009800Y004935D01*
X009800Y004777D02*
X005220Y004777D01*
X005220Y004618D02*
X009800Y004618D01*
X009800Y004460D02*
X005220Y004460D01*
X005220Y004301D02*
X009800Y004301D01*
X009800Y004143D02*
X005220Y004143D01*
X005220Y003984D02*
X009800Y003984D01*
X009800Y003826D02*
X005220Y003826D01*
X005220Y003667D02*
X009800Y003667D01*
X009800Y003509D02*
X005220Y003509D01*
X005220Y003350D02*
X009800Y003350D01*
X009800Y003192D02*
X005220Y003192D01*
X005220Y003033D02*
X008216Y003033D01*
X008323Y003088D02*
X008323Y003088D01*
X007910Y002877D02*
X007910Y002877D01*
X007907Y002875D02*
X005220Y002875D01*
X005220Y002716D02*
X007749Y002716D01*
X007590Y002558D02*
X005189Y002558D01*
X005038Y002399D02*
X007506Y002399D01*
X007425Y002241D02*
X004880Y002241D01*
X004721Y002082D02*
X007364Y002082D01*
X007372Y002137D02*
X007372Y002137D01*
X007339Y001924D02*
X004563Y001924D01*
X004438Y001765D02*
X007313Y001765D01*
X007312Y001607D02*
X004396Y001607D01*
X004214Y001448D02*
X007337Y001448D01*
X007583Y000810D02*
X007583Y000810D01*
X007583Y002550D02*
X007583Y002550D01*
X008780Y003160D02*
X008780Y003160D01*
X009237Y003088D02*
X009237Y003088D01*
X009344Y003033D02*
X009800Y003033D01*
X009800Y002875D02*
X009653Y002875D01*
X009650Y002877D02*
X009650Y002877D01*
X002338Y002716D02*
X000760Y002716D01*
X000760Y002875D02*
X002236Y002875D01*
X002222Y003033D02*
X000760Y003033D01*
X000760Y003192D02*
X002285Y003192D01*
M02*
