G75*
%MOIN*%
%OFA0B0*%
%FSLAX24Y24*%
%IPPOS*%
%LPD*%
%AMOC8*
5,1,8,0,0,1.08239X$1,22.5*
%
%ADD10C,0.0040*%
D10*
X005078Y004585D02*
X005029Y004644D01*
X005039Y004752D01*
X005332Y004999D01*
X005480Y004822D01*
X005471Y004714D01*
X005353Y004616D01*
X005245Y004625D01*
X005097Y004801D01*
X005393Y004449D02*
X005570Y004597D01*
X005678Y004587D01*
X005826Y004411D01*
X005591Y004214D01*
X005748Y004145D02*
X005739Y004037D01*
X005837Y003920D01*
X005945Y003910D01*
X006063Y004009D01*
X006072Y004117D01*
X005974Y004234D01*
X005866Y004244D01*
X005748Y004145D01*
X006260Y003774D02*
X006359Y003656D01*
X006535Y003804D02*
X006338Y004039D01*
X006535Y003804D02*
X006182Y003508D01*
X004703Y005272D02*
X004506Y005507D01*
X004466Y005674D02*
X004358Y005683D01*
X004210Y005859D01*
X004386Y006007D01*
X004494Y005998D01*
X004593Y005880D01*
X004475Y005782D02*
X004327Y005958D01*
X004111Y005977D02*
X003963Y006153D01*
X003972Y006261D01*
X004090Y006360D01*
X004198Y006351D01*
X004346Y006174D01*
X004464Y006273D02*
X004111Y005977D01*
X003815Y006330D02*
X003667Y006506D01*
X003676Y006614D01*
X003785Y006605D01*
X003883Y006487D01*
X003991Y006478D01*
X004001Y006586D01*
X003853Y006762D01*
X004475Y005782D02*
X004466Y005674D01*
X004703Y005272D02*
X005055Y005568D01*
M02*
