G75*
%MOIN*%
%OFA0B0*%
%FSLAX24Y24*%
%IPPOS*%
%LPD*%
%AMOC8*
5,1,8,0,0,1.08239X$1,22.5*
%
%ADD10C,0.0060*%
%ADD11C,0.0030*%
%ADD12R,0.0256X0.0551*%
%ADD13R,0.0551X0.0256*%
D10*
X002594Y004245D02*
X002488Y004352D01*
X002594Y004459D01*
X002808Y004459D01*
X002915Y004565D01*
X002808Y004672D01*
X002488Y004672D01*
X002594Y004245D02*
X002915Y004245D01*
X003132Y004245D02*
X003452Y004245D01*
X003559Y004352D01*
X003559Y004565D01*
X003452Y004672D01*
X003132Y004672D01*
X003775Y004245D02*
X003989Y004245D01*
X003882Y004245D02*
X003882Y004672D01*
X003989Y004672D01*
X004205Y004672D02*
X004419Y004672D01*
X004312Y004779D02*
X004312Y004352D01*
X004205Y004245D01*
X004636Y004352D02*
X004636Y004565D01*
X004743Y004672D01*
X004956Y004672D01*
X005063Y004565D01*
X005063Y004352D01*
X004956Y004245D01*
X004743Y004245D01*
X004636Y004352D01*
X005281Y004352D02*
X005281Y004565D01*
X005387Y004672D01*
X005708Y004672D01*
X005708Y004886D02*
X005708Y004245D01*
X005387Y004245D01*
X005281Y004352D01*
X005925Y004352D02*
X005925Y004565D01*
X006032Y004672D01*
X006245Y004672D01*
X006352Y004565D01*
X006352Y004352D01*
X006245Y004245D01*
X006032Y004245D01*
X005925Y004352D01*
X006570Y004245D02*
X006783Y004459D01*
X006676Y004459D02*
X006997Y004459D01*
X006676Y004459D02*
X006570Y004565D01*
X006570Y004779D01*
X006676Y004886D01*
X006997Y004886D01*
X006997Y004245D01*
X006610Y005345D02*
X006610Y005986D01*
X006290Y005986D01*
X006183Y005879D01*
X006183Y005665D01*
X006290Y005559D01*
X006610Y005559D01*
X006396Y005559D02*
X006183Y005345D01*
X005752Y005345D02*
X005752Y005986D01*
X005965Y005986D02*
X005538Y005986D01*
X005321Y005986D02*
X005321Y005345D01*
X004894Y005345D01*
X004676Y005345D02*
X004676Y005772D01*
X004463Y005986D01*
X004249Y005772D01*
X004249Y005345D01*
X004032Y005345D02*
X004032Y005986D01*
X003818Y005772D01*
X003605Y005986D01*
X003605Y005345D01*
X003882Y004992D02*
X003882Y004886D01*
X004249Y005665D02*
X004676Y005665D01*
X004894Y005986D02*
X005321Y005986D01*
X005321Y005665D02*
X005107Y005665D01*
X006004Y008485D02*
X005898Y008592D01*
X006004Y008485D02*
X006218Y008485D01*
X006325Y008592D01*
X006325Y009019D01*
X006218Y009126D01*
X006004Y009126D01*
X005898Y009019D01*
X007187Y008912D02*
X007400Y008485D01*
X007614Y008912D01*
X007831Y008805D02*
X007831Y008699D01*
X008258Y008699D01*
X008258Y008805D02*
X008151Y008912D01*
X007938Y008912D01*
X007831Y008805D01*
X007938Y008485D02*
X008151Y008485D01*
X008258Y008592D01*
X008258Y008805D01*
X008475Y008912D02*
X008582Y008912D01*
X008795Y008699D01*
X008795Y008912D02*
X008795Y008485D01*
D11*
X003135Y007697D02*
X003135Y007483D01*
X003081Y007430D01*
X002974Y007430D01*
X002921Y007483D01*
X002812Y007430D02*
X002599Y007430D01*
X002706Y007430D02*
X002706Y007750D01*
X002812Y007644D01*
X002921Y007697D02*
X002974Y007750D01*
X003081Y007750D01*
X003135Y007697D01*
X001915Y006895D02*
X001915Y006575D01*
X001915Y006682D02*
X001755Y006682D01*
X001701Y006735D01*
X001701Y006842D01*
X001755Y006895D01*
X001915Y006895D01*
X001808Y006682D02*
X001701Y006575D01*
X001593Y006628D02*
X001539Y006575D01*
X001433Y006575D01*
X001379Y006628D01*
X001379Y006682D01*
X001433Y006735D01*
X001486Y006735D01*
X001433Y006735D02*
X001379Y006789D01*
X001379Y006842D01*
X001433Y006895D01*
X001539Y006895D01*
X001593Y006842D01*
X001635Y008780D02*
X001635Y009100D01*
X001474Y009100D01*
X001421Y009047D01*
X001421Y008940D01*
X001474Y008887D01*
X001635Y008887D01*
X001528Y008887D02*
X001421Y008780D01*
X001312Y008940D02*
X001099Y008940D01*
X001152Y008780D02*
X001152Y009100D01*
X001312Y008940D01*
D12*
X001332Y006166D03*
X001912Y006166D03*
D13*
X001431Y007638D03*
X001431Y008218D03*
M02*
