G75*
%MOIN*%
%OFA0B0*%
%FSLAX24Y24*%
%IPPOS*%
%LPD*%
%AMOC8*
5,1,8,0,0,1.08239X$1,22.5*
%
%ADD10C,0.1080*%
%ADD11R,0.0592X0.0671*%
%ADD12R,0.0631X0.0474*%
%ADD13R,0.0946X0.0316*%
%ADD14C,0.0680*%
%ADD15OC8,0.0840*%
%ADD16R,0.0631X0.0513*%
%ADD17R,0.0513X0.0631*%
%ADD18C,0.0740*%
%ADD19C,0.0476*%
D10*
X009930Y001680D03*
X009930Y008767D03*
D11*
X008425Y007270D03*
X007755Y007270D03*
X004860Y001940D03*
X004190Y001940D03*
D12*
X006703Y007666D03*
X006703Y008414D03*
X005837Y008040D03*
D13*
X005454Y005805D03*
X005454Y005305D03*
X005454Y004805D03*
X005454Y004305D03*
X003406Y004305D03*
X003406Y004805D03*
X003406Y005305D03*
X003406Y005805D03*
D14*
X007545Y006210D03*
X007545Y005210D03*
X007545Y004210D03*
D15*
X001430Y001930D03*
X002930Y001930D03*
D16*
X001265Y004126D03*
X001265Y004914D03*
D17*
X001236Y003060D03*
X002024Y003060D03*
X004616Y003240D03*
X005404Y003240D03*
X005951Y001480D03*
X006739Y001480D03*
D18*
X003930Y007930D03*
X002930Y008930D03*
X004930Y008930D03*
D19*
X005420Y007130D03*
X002280Y005220D03*
X003410Y003600D03*
X003560Y002850D03*
X006260Y003780D03*
X006870Y003030D03*
X007270Y002350D03*
X008620Y004420D03*
X009510Y004020D03*
M02*
