G75*
%MOIN*%
%OFA0B0*%
%FSLAX24Y24*%
%IPPOS*%
%LPD*%
%AMOC8*
5,1,8,0,0,1.08239X$1,22.5*
%
%ADD10C,0.0000*%
D10*
X000250Y000250D02*
X000250Y017750D01*
X017750Y017750D01*
X017750Y000250D01*
X000250Y000250D01*
X000620Y001250D02*
X000622Y001300D01*
X000628Y001350D01*
X000638Y001399D01*
X000652Y001447D01*
X000669Y001494D01*
X000690Y001539D01*
X000715Y001583D01*
X000743Y001624D01*
X000775Y001663D01*
X000809Y001700D01*
X000846Y001734D01*
X000886Y001764D01*
X000928Y001791D01*
X000972Y001815D01*
X001018Y001836D01*
X001065Y001852D01*
X001113Y001865D01*
X001163Y001874D01*
X001212Y001879D01*
X001263Y001880D01*
X001313Y001877D01*
X001362Y001870D01*
X001411Y001859D01*
X001459Y001844D01*
X001505Y001826D01*
X001550Y001804D01*
X001593Y001778D01*
X001634Y001749D01*
X001673Y001717D01*
X001709Y001682D01*
X001741Y001644D01*
X001771Y001604D01*
X001798Y001561D01*
X001821Y001517D01*
X001840Y001471D01*
X001856Y001423D01*
X001868Y001374D01*
X001876Y001325D01*
X001880Y001275D01*
X001880Y001225D01*
X001876Y001175D01*
X001868Y001126D01*
X001856Y001077D01*
X001840Y001029D01*
X001821Y000983D01*
X001798Y000939D01*
X001771Y000896D01*
X001741Y000856D01*
X001709Y000818D01*
X001673Y000783D01*
X001634Y000751D01*
X001593Y000722D01*
X001550Y000696D01*
X001505Y000674D01*
X001459Y000656D01*
X001411Y000641D01*
X001362Y000630D01*
X001313Y000623D01*
X001263Y000620D01*
X001212Y000621D01*
X001163Y000626D01*
X001113Y000635D01*
X001065Y000648D01*
X001018Y000664D01*
X000972Y000685D01*
X000928Y000709D01*
X000886Y000736D01*
X000846Y000766D01*
X000809Y000800D01*
X000775Y000837D01*
X000743Y000876D01*
X000715Y000917D01*
X000690Y000961D01*
X000669Y001006D01*
X000652Y001053D01*
X000638Y001101D01*
X000628Y001150D01*
X000622Y001200D01*
X000620Y001250D01*
X000620Y016750D02*
X000622Y016800D01*
X000628Y016850D01*
X000638Y016899D01*
X000652Y016947D01*
X000669Y016994D01*
X000690Y017039D01*
X000715Y017083D01*
X000743Y017124D01*
X000775Y017163D01*
X000809Y017200D01*
X000846Y017234D01*
X000886Y017264D01*
X000928Y017291D01*
X000972Y017315D01*
X001018Y017336D01*
X001065Y017352D01*
X001113Y017365D01*
X001163Y017374D01*
X001212Y017379D01*
X001263Y017380D01*
X001313Y017377D01*
X001362Y017370D01*
X001411Y017359D01*
X001459Y017344D01*
X001505Y017326D01*
X001550Y017304D01*
X001593Y017278D01*
X001634Y017249D01*
X001673Y017217D01*
X001709Y017182D01*
X001741Y017144D01*
X001771Y017104D01*
X001798Y017061D01*
X001821Y017017D01*
X001840Y016971D01*
X001856Y016923D01*
X001868Y016874D01*
X001876Y016825D01*
X001880Y016775D01*
X001880Y016725D01*
X001876Y016675D01*
X001868Y016626D01*
X001856Y016577D01*
X001840Y016529D01*
X001821Y016483D01*
X001798Y016439D01*
X001771Y016396D01*
X001741Y016356D01*
X001709Y016318D01*
X001673Y016283D01*
X001634Y016251D01*
X001593Y016222D01*
X001550Y016196D01*
X001505Y016174D01*
X001459Y016156D01*
X001411Y016141D01*
X001362Y016130D01*
X001313Y016123D01*
X001263Y016120D01*
X001212Y016121D01*
X001163Y016126D01*
X001113Y016135D01*
X001065Y016148D01*
X001018Y016164D01*
X000972Y016185D01*
X000928Y016209D01*
X000886Y016236D01*
X000846Y016266D01*
X000809Y016300D01*
X000775Y016337D01*
X000743Y016376D01*
X000715Y016417D01*
X000690Y016461D01*
X000669Y016506D01*
X000652Y016553D01*
X000638Y016601D01*
X000628Y016650D01*
X000622Y016700D01*
X000620Y016750D01*
X016120Y016750D02*
X016122Y016800D01*
X016128Y016850D01*
X016138Y016899D01*
X016152Y016947D01*
X016169Y016994D01*
X016190Y017039D01*
X016215Y017083D01*
X016243Y017124D01*
X016275Y017163D01*
X016309Y017200D01*
X016346Y017234D01*
X016386Y017264D01*
X016428Y017291D01*
X016472Y017315D01*
X016518Y017336D01*
X016565Y017352D01*
X016613Y017365D01*
X016663Y017374D01*
X016712Y017379D01*
X016763Y017380D01*
X016813Y017377D01*
X016862Y017370D01*
X016911Y017359D01*
X016959Y017344D01*
X017005Y017326D01*
X017050Y017304D01*
X017093Y017278D01*
X017134Y017249D01*
X017173Y017217D01*
X017209Y017182D01*
X017241Y017144D01*
X017271Y017104D01*
X017298Y017061D01*
X017321Y017017D01*
X017340Y016971D01*
X017356Y016923D01*
X017368Y016874D01*
X017376Y016825D01*
X017380Y016775D01*
X017380Y016725D01*
X017376Y016675D01*
X017368Y016626D01*
X017356Y016577D01*
X017340Y016529D01*
X017321Y016483D01*
X017298Y016439D01*
X017271Y016396D01*
X017241Y016356D01*
X017209Y016318D01*
X017173Y016283D01*
X017134Y016251D01*
X017093Y016222D01*
X017050Y016196D01*
X017005Y016174D01*
X016959Y016156D01*
X016911Y016141D01*
X016862Y016130D01*
X016813Y016123D01*
X016763Y016120D01*
X016712Y016121D01*
X016663Y016126D01*
X016613Y016135D01*
X016565Y016148D01*
X016518Y016164D01*
X016472Y016185D01*
X016428Y016209D01*
X016386Y016236D01*
X016346Y016266D01*
X016309Y016300D01*
X016275Y016337D01*
X016243Y016376D01*
X016215Y016417D01*
X016190Y016461D01*
X016169Y016506D01*
X016152Y016553D01*
X016138Y016601D01*
X016128Y016650D01*
X016122Y016700D01*
X016120Y016750D01*
X016120Y001250D02*
X016122Y001300D01*
X016128Y001350D01*
X016138Y001399D01*
X016152Y001447D01*
X016169Y001494D01*
X016190Y001539D01*
X016215Y001583D01*
X016243Y001624D01*
X016275Y001663D01*
X016309Y001700D01*
X016346Y001734D01*
X016386Y001764D01*
X016428Y001791D01*
X016472Y001815D01*
X016518Y001836D01*
X016565Y001852D01*
X016613Y001865D01*
X016663Y001874D01*
X016712Y001879D01*
X016763Y001880D01*
X016813Y001877D01*
X016862Y001870D01*
X016911Y001859D01*
X016959Y001844D01*
X017005Y001826D01*
X017050Y001804D01*
X017093Y001778D01*
X017134Y001749D01*
X017173Y001717D01*
X017209Y001682D01*
X017241Y001644D01*
X017271Y001604D01*
X017298Y001561D01*
X017321Y001517D01*
X017340Y001471D01*
X017356Y001423D01*
X017368Y001374D01*
X017376Y001325D01*
X017380Y001275D01*
X017380Y001225D01*
X017376Y001175D01*
X017368Y001126D01*
X017356Y001077D01*
X017340Y001029D01*
X017321Y000983D01*
X017298Y000939D01*
X017271Y000896D01*
X017241Y000856D01*
X017209Y000818D01*
X017173Y000783D01*
X017134Y000751D01*
X017093Y000722D01*
X017050Y000696D01*
X017005Y000674D01*
X016959Y000656D01*
X016911Y000641D01*
X016862Y000630D01*
X016813Y000623D01*
X016763Y000620D01*
X016712Y000621D01*
X016663Y000626D01*
X016613Y000635D01*
X016565Y000648D01*
X016518Y000664D01*
X016472Y000685D01*
X016428Y000709D01*
X016386Y000736D01*
X016346Y000766D01*
X016309Y000800D01*
X016275Y000837D01*
X016243Y000876D01*
X016215Y000917D01*
X016190Y000961D01*
X016169Y001006D01*
X016152Y001053D01*
X016138Y001101D01*
X016128Y001150D01*
X016122Y001200D01*
X016120Y001250D01*
M02*
