%
M48
M72
T01C0.0120
T02C0.0197
T03C0.0400
T04C0.0472
T05C0.1260
%
T01
X6970Y5710
X6130Y7030
X8710Y9910
X9130Y9190
X9490Y7990
X10270Y7090
X10510Y6790
X10150Y6130
X10930Y6070
X11770Y6130
X10570Y8470
X9250Y6790
X10750Y10990
X10690Y11350
X14650Y14890
X5530Y14470
T02
X5550Y13150
X4050Y12450
X8550Y8550
X9550Y9350
X10150Y9650
X13850Y6850
X16450Y12950
T03
X16650Y12150
X16650Y11150
X16650Y10150
X16650Y9150
X16650Y8150
X16650Y7150
X16650Y5150
X16650Y4150
X16650Y3150
X15650Y3150
X15650Y4150
X15650Y5150
X3150Y5950
X3150Y6950
X3150Y7950
X3150Y8950
X3150Y9950
X3150Y10950
X2150Y10950
X2150Y9950
X1150Y9950
X1150Y10950
X1150Y8950
X1150Y7950
X2150Y7950
X2150Y8950
X2150Y6950
X2150Y5950
X1150Y5950
X1150Y6950
T04
X1750Y12902
X1750Y14420
T05
X1250Y1250
X16750Y1250
X16750Y16750
X1250Y16750
M30
