G75*
%MOIN*%
%OFA0B0*%
%FSLAX24Y24*%
%IPPOS*%
%LPD*%
%AMOC8*
5,1,8,0,0,1.08239X$1,22.5*
%
%ADD10C,0.1300*%
%ADD11OC8,0.0780*%
%ADD12C,0.0780*%
%ADD13R,0.0840X0.0840*%
%ADD14C,0.0840*%
%ADD15R,0.0434X0.0473*%
%ADD16R,0.0473X0.0434*%
D10*
X001250Y001250D03*
X016750Y001250D03*
X016750Y016750D03*
X001250Y016750D03*
D11*
X015650Y005150D03*
X015650Y004150D03*
X015650Y003150D03*
X016650Y003150D03*
X016650Y004150D03*
X016650Y005150D03*
D12*
X016650Y007150D03*
X016650Y008150D03*
X016650Y009150D03*
X016650Y010150D03*
X016650Y011150D03*
X016650Y012150D03*
X003150Y010950D03*
X003150Y009950D03*
X003150Y008950D03*
X003150Y007950D03*
X003150Y006950D03*
X003150Y005950D03*
X002150Y005950D03*
X002150Y006950D03*
X001150Y006950D03*
X001150Y005950D03*
X001150Y007950D03*
X001150Y008950D03*
X002150Y008950D03*
X002150Y007950D03*
X002150Y009950D03*
X002150Y010950D03*
X001150Y010950D03*
X001150Y009950D03*
D13*
X001750Y014420D03*
D14*
X001750Y012902D03*
D15*
X004550Y012485D03*
X004550Y011815D03*
X005350Y011815D03*
X005350Y012485D03*
D16*
X006915Y008850D03*
X007585Y008850D03*
X007585Y007950D03*
X006915Y007950D03*
X006915Y007050D03*
X007585Y007050D03*
M02*
