G75*
%MOIN*%
%OFA0B0*%
%FSLAX24Y24*%
%IPPOS*%
%LPD*%
%AMOC8*
5,1,8,0,0,1.08239X$1,22.5*
%
%ADD10C,0.0020*%
D10*
X007972Y007143D02*
X008119Y006997D01*
X008119Y006960D01*
X008193Y006997D02*
X008230Y006960D01*
X008303Y006960D01*
X008340Y006997D01*
X008340Y007143D01*
X008303Y007180D01*
X008230Y007180D01*
X008193Y007143D01*
X008119Y007180D02*
X007972Y007180D01*
X007972Y007143D01*
X008009Y007860D02*
X007972Y007897D01*
X007972Y008043D01*
X008009Y008080D01*
X008082Y008080D01*
X008119Y008043D01*
X008119Y008007D01*
X008082Y007970D01*
X007972Y007970D01*
X008009Y007860D02*
X008082Y007860D01*
X008119Y007897D01*
X008193Y007897D02*
X008230Y007860D01*
X008303Y007860D01*
X008340Y007897D01*
X008340Y008043D01*
X008303Y008080D01*
X008230Y008080D01*
X008193Y008043D01*
X008230Y008760D02*
X008193Y008797D01*
X008230Y008760D02*
X008303Y008760D01*
X008340Y008797D01*
X008340Y008943D01*
X008303Y008980D01*
X008230Y008980D01*
X008193Y008943D01*
X008119Y008943D02*
X008119Y008907D01*
X008082Y008870D01*
X008009Y008870D01*
X007972Y008833D01*
X007972Y008797D01*
X008009Y008760D01*
X008082Y008760D01*
X008119Y008797D01*
X008119Y008833D01*
X008082Y008870D01*
X008009Y008870D02*
X007972Y008907D01*
X007972Y008943D01*
X008009Y008980D01*
X008082Y008980D01*
X008119Y008943D01*
X005640Y011260D02*
X005640Y011480D01*
X005530Y011480D01*
X005493Y011443D01*
X005493Y011370D01*
X005530Y011333D01*
X005640Y011333D01*
X005567Y011333D02*
X005493Y011260D01*
X005419Y011260D02*
X005272Y011260D01*
X005346Y011260D02*
X005346Y011480D01*
X005419Y011407D01*
X005198Y011443D02*
X005161Y011480D01*
X005088Y011480D01*
X005051Y011443D01*
X005051Y011407D01*
X005088Y011370D01*
X005051Y011333D01*
X005051Y011297D01*
X005088Y011260D01*
X005161Y011260D01*
X005198Y011297D01*
X005125Y011370D02*
X005088Y011370D01*
X004840Y011333D02*
X004730Y011333D01*
X004693Y011370D01*
X004693Y011443D01*
X004730Y011480D01*
X004840Y011480D01*
X004840Y011260D01*
X004767Y011333D02*
X004693Y011260D01*
X004619Y011260D02*
X004472Y011260D01*
X004546Y011260D02*
X004546Y011480D01*
X004619Y011407D01*
X004398Y011443D02*
X004361Y011480D01*
X004288Y011480D01*
X004251Y011443D01*
X004251Y011407D01*
X004398Y011260D01*
X004251Y011260D01*
M02*
