G75*
%MOIN*%
%OFA0B0*%
%FSLAX24Y24*%
%IPPOS*%
%LPD*%
%AMOC8*
5,1,8,0,0,1.08239X$1,22.5*
%
%ADD10R,0.0220X0.0500*%
%ADD11R,0.0500X0.0220*%
%ADD12R,0.0430X0.0790*%
%ADD13R,0.0433X0.0394*%
%ADD14R,0.0394X0.0433*%
%ADD15R,0.0500X0.0579*%
%ADD16R,0.0315X0.0315*%
%ADD17R,0.0669X0.0335*%
%ADD18R,0.0480X0.0880*%
%ADD19R,0.1417X0.0866*%
%ADD20R,0.0748X0.0433*%
D10*
X008248Y007560D03*
X008563Y007560D03*
X008878Y007560D03*
X009193Y007560D03*
X009507Y007560D03*
X009822Y007560D03*
X010137Y007560D03*
X010452Y007560D03*
X010452Y010940D03*
X010137Y010940D03*
X009822Y010940D03*
X009507Y010940D03*
X009193Y010940D03*
X008878Y010940D03*
X008563Y010940D03*
X008248Y010940D03*
D11*
X007660Y010352D03*
X007660Y010037D03*
X007660Y009722D03*
X007660Y009407D03*
X007660Y009093D03*
X007660Y008778D03*
X007660Y008463D03*
X007660Y008148D03*
X011040Y008148D03*
X011040Y008463D03*
X011040Y008778D03*
X011040Y009093D03*
X011040Y009407D03*
X011040Y009722D03*
X011040Y010037D03*
X011040Y010352D03*
D12*
X005250Y001180D03*
X006250Y001180D03*
X007250Y001180D03*
X008250Y001180D03*
X009250Y001180D03*
X010250Y001180D03*
X011250Y001180D03*
X012250Y001180D03*
X012250Y004720D03*
X011250Y004720D03*
X010250Y004720D03*
X009250Y004720D03*
X008250Y004720D03*
X007250Y004720D03*
X006250Y004720D03*
X005250Y004720D03*
D13*
X005085Y014650D03*
X004415Y014650D03*
X004415Y015550D03*
X005085Y015550D03*
X016215Y014450D03*
X016885Y014450D03*
X016885Y013550D03*
X016215Y013550D03*
D14*
X015050Y015315D03*
X015050Y015985D03*
X013850Y015985D03*
X013850Y015315D03*
X012050Y015185D03*
X012050Y014515D03*
X010550Y012985D03*
X010550Y012315D03*
X007250Y012115D03*
X007250Y012785D03*
X007350Y006385D03*
X007350Y005715D03*
X008150Y005715D03*
X008150Y006385D03*
X008950Y006385D03*
X008950Y005715D03*
X009750Y005715D03*
X009750Y006385D03*
X010550Y006385D03*
X010550Y005715D03*
X011350Y005715D03*
X011350Y006385D03*
X012150Y006385D03*
X012150Y005715D03*
X006550Y005715D03*
X006550Y006385D03*
D15*
X005096Y016650D03*
X003404Y016650D03*
D16*
X013850Y016655D03*
X013850Y017245D03*
X015050Y017245D03*
X015050Y016655D03*
D17*
X013090Y013424D03*
X014271Y012637D03*
X013090Y011849D03*
X014271Y011062D03*
X013090Y010274D03*
X014271Y009487D03*
X013090Y008700D03*
X014271Y007912D03*
X013090Y007125D03*
X014271Y006337D03*
X005610Y006337D03*
X004429Y007125D03*
X005610Y007912D03*
X004429Y008700D03*
X005610Y009487D03*
X004429Y010274D03*
X005610Y011062D03*
X004429Y011849D03*
X005610Y012637D03*
X004429Y013424D03*
D18*
X006040Y014430D03*
X006950Y014430D03*
X007860Y014430D03*
X009040Y014430D03*
X009950Y014430D03*
X010860Y014430D03*
D19*
X009950Y016870D03*
X006950Y016870D03*
D20*
X008222Y013003D03*
X008222Y012097D03*
X009678Y012097D03*
X009678Y013003D03*
M02*
