**ABCDEFGHIJKLMNOPQRSTUVWXYZabcdefghijklmnopqrstuvwxyz**************************
**PARASOLID !"#$%&'()*+,-./:;<=>?@[\]^_`{|}~0123456789**************************
**PART1;
MC=AMD64;
MC_MODEL=Intel64 Family 6 Model 94 Stepping 3, GenuineIntel;
MC_ID=unknown;
OS=Windows_NT;
OS_RELEASE=unknown;
FRU=Parasolid Version 28.0, build 204, 11- 9-2015;
APPL=SOLIDWORKS 2016-2016040;
SITE=;
USER=unknown;
FORMAT=text;
GUISE=transmit;
KEY=Back Bracket V2 2.3mm;
FILE=Back Bracket V2 2.3mm.x_t;
DATE=Sat Jul 29 22:51:12 2017;
**PART2;
SCH=SCH_2800204_28002;
USFLD_SIZE=0;
**PART3;
**END_OF_HEADER*****************************************************************
T51 : TRANSMIT FILE created by modeller version 280020423 SCH_2800204_28002_1300
6200 0 12 30 CCCCCCCCCCCCCDI5 owner1040 0 CCCCCCCCCA13 boundary_mesh1006 0 A16 i
ndex_map_offset0 0 1 dA9 index_map82 0 A17 node_id_index_map82 0 A20 schema_embe
dding_map82 0 A5 child12 0 A14 lowest_node_id0 0 1 dZ1 715 0 2 0 0 0 0 1e3 1e-8
 0 3 0 1 0 1 1 4 5 6 7 8 9 10 0 0 0 0 0 0 0 70 11 CI9 list_type0 0 1 uI10 notran
smit0 0 1 lCCCDCCDI12 finger_index0 0 1 dI12 finger_block1012 0 CZ2 0 4 T1 0 0 2
 20 1 11 11 13 255 4 414 0 1 0 12 0 0 13 0 50 255 5 393 0 12 14 0 0 +0 .0023 0 0
 0 -1 -1 0 0 30 255 6 413 0 9 15 0 0 +.015 .0023 0 0 -1 0 29 255 7 294 0 16 17 0
 0 0 0 19 8 CCCCCCCA5 owner12 0 Z8 124 0 1 13 0 18 V0 16 255 9 333 0 ?19 0 20 6
 0 0 1 18 255 10 121 0 21 0 22 23 ?1 17 255 21 0 24 25 26 10 27 28 0 29 +18 22 1
18 0 26 10 30 31 ?1 29 23 123 0 10 31 32 0 .0023 0 29 31 120 0 22 33 23 0 .0023
 -.022 29 32 313 0 34 23 35 .015 0 0 18 34 272 0 36 37 0 32 ?1 29 35 312 0 37 32
 38 .015 0 .0043 18 37 271 0 39 40 34 35 ?1 29 38 311 0 40 35 41 .025 0 .0043 18
 40 270 0 42 43 37 38 ?1 29 41 310 0 43 38 44 .025 0 0 18 43 269 0 45 46 40 41 ?
1 29 44 309 0 46 41 47 .045 0 0 18 46 268 0 48 49 43 44 ?1 29 47 308 0 49 44 50
 .045 0 .0043 18 49 267 0 51 52 46 47 ?1 29 50 307 0 52 47 53 .055 0 .0043 18 52
 266 0 54 55 49 50 ?1 29 53 306 0 55 50 56 .055 0 0 18 55 265 0 57 58 52 53 ?1 2
9 56 305 0 58 53 59 .07 0 0 18 58 264 0 60 61 55 56 ?1 29 59 304 0 61 56 62 .07
 0 -.022 18 61 263 0 63 64 58 59 ?1 29 62 303 0 64 59 65 .055 0 -.022 18 64 262
 0 66 67 61 62 ?1 29 65 302 0 67 62 68 .055 0 -.0243 18 67 261 0 69 70 64 65 ?1
 29 68 301 0 70 65 71 .045 0 -.0243 18 70 260 0 72 73 67 68 ?1 29 71 300 0 73 68
 74 .045 0 -.022 18 73 259 0 75 76 70 71 ?1 29 74 299 0 76 71 77 .025 0 -.022 18
 76 258 0 78 79 73 74 ?1 29 77 298 0 79 74 80 .025 0 -.0243 18 79 257 0 81 82 76
 77 ?1 29 80 297 0 82 77 83 .015 0 -.0243 18 82 256 0 84 85 79 80 ?1 29 83 296 0
 85 80 17 .015 0 -.022 18 85 255 0 86 87 82 83 ?1 29 17 295 0 87 83 7 0 0 -.022
 18 87 254 0 88 16 85 17 ?1 17 88 0 89 90 91 87 92 93 0 94 +18 16 253 0 95 96 87
 7 ?1 17 95 0 97 29 94 16 98 99 0 100 +18 96 64 0 101 102 16 103 ?1 17 101 0 104
 19 105 96 106 107 0 25 -18 102 67 0 106 108 96 109 ?1 29 103 66 0 96 0 109 .015
 .0023 0 29 109 69 0 102 103 110 .015 .0023 .0043 29 110 72 0 108 109 111 .025 .
0023 .0043 18 108 70 0 112 113 102 110 ?1 29 111 75 0 113 110 114 .025 .0023 0 1
8 113 73 0 115 116 108 111 ?1 29 114 78 0 116 111 117 .045 .0023 0 18 116 76 0 1
18 119 113 114 ?1 29 117 81 0 119 114 120 .045 .0023 .0043 18 119 79 0 121 122 1
16 117 ?1 29 120 84 0 122 117 123 .055 .0023 .0043 18 122 82 0 124 125 119 120 ?
1 29 123 87 0 125 120 126 .055 .0023 0 18 125 85 0 127 128 122 123 ?1 29 126 90
 0 128 123 129 .07 .0023 0 18 128 88 0 130 131 125 126 ?1 29 129 93 0 131 126 13
2 .07 .0023 -.022 18 131 91 0 133 134 128 129 ?1 29 132 96 0 134 129 135 .055 .0
023 -.022 18 134 94 0 136 137 131 132 ?1 29 135 99 0 137 132 138 .055 .0023 -.02
43 18 137 97 0 139 140 134 135 ?1 29 138 102 0 140 135 141 .045 .0023 -.0243 18
 140 100 0 142 143 137 138 ?1 29 141 105 0 143 138 144 .045 .0023 -.022 18 143 1
03 0 145 146 140 141 ?1 29 144 108 0 146 141 147 .025 .0023 -.022 18 146 106 0 1
48 149 143 144 ?1 29 147 111 0 149 144 150 .025 .0023 -.0243 18 149 109 0 151 15
2 146 147 ?1 29 150 114 0 152 147 33 .015 .0023 -.0243 18 152 112 0 153 30 149 1
50 ?1 29 33 117 0 30 150 31 .015 .0023 -.022 18 30 115 0 154 22 152 33 ?1 17 154
 0 24 26 153 30 155 156 0 157 +15 255 24 3 0 25 158 0 17 26 0 24 21 154 22 159 1
60 0 90 +17 153 0 24 154 151 152 161 162 0 163 +17 155 0 164 165 157 152 154 156
 0 0 -16 156 55 0 ?154 160 162 166 0 0 1 17 157 0 164 155 86 30 91 167 0 159 -15
 164 338 0 86 168 0 17 86 0 164 157 165 85 169 170 0 91 +17 91 0 89 88 159 85 15
7 167 0 92 +16 167 316 0 ?91 171 172 173 0 0 1 17 159 0 89 91 90 30 26 160 0 0 -
15 89 336 0 88 174 0 17 90 0 89 159 88 22 94 172 0 27 -16 160 58 0 ?26 28 156 17
5 0 0 1 16 28 61 0 ?21 176 160 177 0 0 1 30 175 59 0 160 166 177 0 +0 .0023 -.02
2 -1 0 0 30 166 56 0 156 178 175 0 +.015 .0023 -.022 0 0 1 30 177 62 0 28 175 17
9 0 +0 .0023 0 0 0 1 30 179 293 0 180 177 181 0 +0 0 0 1 0 0 16 180 249 0 ?182 1
83 0 179 0 0 1 30 181 292 0 183 179 184 0 +.015 0 0 0 0 1 16 183 245 0 ?39 185 1
80 181 0 0 1 30 184 291 0 185 181 186 0 +.015 0 .0043 1 0 0 16 185 241 0 ?42 187
 183 184 0 0 1 30 186 290 0 187 184 188 0 +.025 0 .0043 0 0 -1 16 187 237 0 ?45
 189 185 186 0 0 1 30 188 289 0 189 186 190 0 +.025 0 0 1 0 0 16 189 233 0 ?48 1
91 187 188 0 0 1 30 190 288 0 191 188 192 0 +.045 0 0 0 0 1 16 191 229 0 ?51 193
 189 190 0 0 1 30 192 287 0 193 190 194 0 +.045 0 .0043 1 0 -867361737988404e-31
 16 193 225 0 ?54 195 191 192 0 0 1 30 194 286 0 195 192 196 0 +.055 0 .0043 0 0
 -1 16 195 221 0 ?57 197 193 194 0 0 1 30 196 285 0 197 194 198 0 +.055 0 0 1 0
 0 16 197 217 0 ?60 199 195 196 0 0 1 30 198 284 0 199 196 200 0 +.07 0 -.022 0
 0 -1 16 199 213 0 ?63 201 197 198 0 0 1 30 200 283 0 201 198 202 0 +.055 0 -.02
2 -1 0 0 16 201 209 0 ?66 203 199 200 0 0 1 30 202 282 0 203 200 204 0 +.055 0 -
.0243 0 0 -1 16 203 205 0 ?69 205 201 202 0 0 1 30 204 281 0 205 202 206 0 +.045
 0 -.0243 -1 0 0 16 205 201 0 ?72 207 203 204 0 0 1 30 206 280 0 207 204 208 0 +
.045 0 -.022 0 0 1 16 207 197 0 ?75 209 205 206 0 0 1 30 208 279 0 209 206 210 0
 +.025 0 -.022 -1 0 0 16 209 193 0 ?78 211 207 208 0 0 1 30 210 278 0 211 208 21
2 0 +.025 0 -.0243 0 0 -1 16 211 189 0 ?81 213 209 210 0 0 1 30 212 277 0 213 21
0 214 0 +.015 0 -.0243 -1 0 -3469446951953615e-31 16 213 185 0 ?84 170 211 212 0
 0 1 30 214 276 0 170 212 215 0 +.015 0 -.022 0 0 1 16 170 181 0 ?86 93 213 214
 0 0 1 30 215 275 0 93 214 216 0 +0 0 -.022 -1 0 0 16 93 177 0 ?88 99 170 215 0
 0 1 30 216 274 0 99 215 217 0 +0 0 0 0 0 1 16 99 173 0 ?95 218 93 216 0 0 1 30
 217 394 0 176 216 219 0 +0 .0023 0 0 -1 0 16 176 314 0 ?100 172 28 217 0 0 1 30
 219 395 0 172 217 173 0 +0 .0023 -.022 0 -1 0 16 172 315 0 ?94 167 176 219 0 0
 1 30 173 396 0 167 219 220 0 +.015 .0023 -.022 0 -1 0 30 220 397 0 171 173 221
 0 +.015 .0023 -.0243 0 -1 0 16 171 317 0 ?165 222 167 220 0 0 1 30 221 398 0 22
2 220 223 0 +.025 .0023 -.0243 0 -1 0 16 222 318 0 ?224 225 171 221 0 0 1 30 223
 399 0 225 221 226 0 +.025 .0023 -.022 0 -1 0 16 225 319 0 ?227 228 222 223 0 0
 1 30 226 400 0 228 223 229 0 +.045 .0023 -.022 0 -1 0 16 228 320 0 ?230 231 225
 226 0 0 1 30 229 401 0 231 226 232 0 +.045 .0023 -.0243 0 -1 0 16 231 321 0 ?23
3 234 228 229 0 0 1 30 232 402 0 234 229 235 0 +.055 .0023 -.0243 0 -1 0 16 234
 322 0 ?236 237 231 232 0 0 1 30 235 403 0 237 232 238 0 +.055 .0023 -.022 0 -1
 0 16 237 323 0 ?239 240 234 235 0 0 1 30 238 404 0 240 235 241 0 +.07 .0023 -.0
22 0 -1 0 16 240 324 0 ?242 243 237 238 0 0 1 30 241 405 0 243 238 244 0 +.07 .0
023 0 0 -1 0 16 243 325 0 ?245 246 240 241 0 0 1 30 244 406 0 246 241 247 0 +.05
5 .0023 0 0 -1 0 16 246 326 0 ?248 249 243 244 0 0 1 30 247 407 0 249 244 250 0
 +.055 .0023 .0043 0 -1 0 16 249 327 0 ?251 252 246 247 0 0 1 30 250 408 0 252 2
47 253 0 +.045 .0023 .0043 0 -1 0 16 252 328 0 ?254 255 249 250 0 0 1 30 253 409
 0 255 250 256 0 +.045 .0023 0 0 -1 0 16 255 329 0 ?257 258 252 253 0 0 1 30 256
 410 0 258 253 259 0 +.025 .0023 0 0 -1 0 16 258 330 0 ?260 261 255 256 0 0 1 30
 259 411 0 261 256 15 0 +.025 .0023 .0043 0 -1 0 16 261 331 0 ?262 20 258 259 0
 0 1 30 15 412 0 20 259 6 0 +.015 .0023 .0043 0 -1 0 16 20 332 0 ?263 9 261 15 0
 0 1 17 263 0 264 42 265 37 105 20 0 266 +15 264 368 0 42 267 0 17 42 0 264 268
 263 40 266 185 0 262 +17 265 0 264 263 268 102 112 269 0 0 -17 105 0 104 101 39
 102 263 20 0 265 -17 266 0 270 36 271 37 42 185 0 0 -15 270 172 0 272 273 0 17
 36 0 270 272 266 34 39 183 0 19 -17 271 0 270 266 274 40 45 187 0 0 -17 274 0 2
70 271 275 43 48 189 0 0 -17 45 0 276 277 262 43 271 187 0 260 +15 276 366 0 45
 278 0 17 277 0 276 279 45 113 260 258 0 280 -17 262 0 276 45 279 40 268 261 0 2
71 +17 260 0 281 48 280 43 277 258 0 274 +15 281 364 0 48 282 0 17 48 0 281 283
 260 46 274 189 0 257 +17 280 0 281 260 283 113 118 284 0 0 -17 283 0 281 280 48
 116 257 255 0 285 -17 118 0 24 121 115 116 280 284 0 283 +16 284 16 0 ?118 286
 287 288 0 0 1 16 286 19 0 ?121 289 284 290 0 0 1 16 287 13 0 ?115 284 269 291 0
 0 1 30 288 17 0 284 291 290 0 +.025 .0023 0 1 0 0 30 291 14 0 287 292 288 0 +.0
25 .0023 .0043 0 0 -1 30 290 20 0 286 288 293 0 +.045 .0023 0 0 0 1 30 293 23 0
 289 290 294 0 +.045 .0023 .0043 1 0 -867361737988404e-31 16 289 22 0 ?124 295 2
86 293 0 0 1 30 294 26 0 295 293 296 0 +.055 .0023 .0043 0 0 -1 16 295 25 0 ?127
 297 289 294 0 0 1 30 296 29 0 297 294 298 0 +.055 .0023 0 1 0 0 16 297 28 0 ?13
0 299 295 296 0 0 1 30 298 32 0 299 296 300 0 +.07 .0023 -.022 0 0 -1 16 299 31
 0 ?133 301 297 298 0 0 1 30 300 35 0 301 298 302 0 +.055 .0023 -.022 -1 0 0 16
 301 34 0 ?136 303 299 300 0 0 1 30 302 38 0 303 300 304 0 +.055 .0023 -.0243 0
 0 -1 16 303 37 0 ?139 305 301 302 0 0 1 30 304 41 0 305 302 306 0 +.045 .0023 -
.0243 -1 0 0 16 305 40 0 ?142 307 303 304 0 0 1 30 306 44 0 307 304 308 0 +.045
 .0023 -.022 0 0 1 16 307 43 0 ?145 309 305 306 0 0 1 30 308 47 0 309 306 310 0
 +.025 .0023 -.022 -1 0 0 16 309 46 0 ?148 311 307 308 0 0 1 30 310 50 0 311 308
 178 0 +.025 .0023 -.0243 0 0 -1 16 311 49 0 ?151 162 309 310 0 0 1 30 178 53 0
 162 310 166 0 +.015 .0023 -.0243 -1 0 -3469446951953615e-31 16 162 52 0 ?153 15
6 311 178 0 0 1 17 151 0 24 153 148 149 312 311 0 313 +17 148 0 24 151 145 146 3
14 309 0 315 +17 312 0 316 227 313 146 151 311 0 0 -17 313 0 316 312 81 149 224
 222 0 161 -15 316 342 0 81 317 0 17 81 0 316 313 227 79 318 211 0 224 +17 224 0
 319 84 161 79 313 222 0 320 +17 161 0 319 224 163 149 153 162 0 0 -15 319 340 0
 84 321 0 17 163 0 319 161 84 152 165 171 0 155 -17 84 0 319 163 224 82 320 213
 0 165 +17 165 0 164 86 155 82 163 171 0 169 +17 169 0 270 320 92 82 86 170 0 0
 -17 320 0 270 318 169 79 84 213 0 0 -17 92 0 270 169 98 85 88 93 0 0 -17 98 0 2
70 92 272 87 95 99 0 0 -17 272 0 270 98 36 16 182 180 0 0 -17 182 0 322 323 100
 34 272 180 0 0 +15 322 372 0 182 12 0 17 323 0 322 324 182 96 19 9 0 0 -17 100
 0 322 182 324 16 29 176 0 272 +17 324 0 322 100 323 10 25 218 0 0 -17 29 0 97 2
7 95 10 100 176 0 324 -15 97 334 0 95 325 0 17 27 0 97 94 29 22 21 28 0 0 -17 94
 0 97 95 27 87 90 172 0 98 +14 255 325 335 326 ?158 174 97 4 327 -0 0 158 174 18
 81 255 1 326 694 328 325 329 0 0 330 331 14 158 1 330 ?273 325 24 4 332 -0 0 27
3 325 18 14 174 337 333 ?325 168 89 4 334 -0 0 325 168 18 50 327 374 0 325 335 3
34 0 +0 .0023 0 1 0 0 0 0 -1 13 18 125 0 0 0 0 0 0 8 12 14 12 373 336 ?337 0 322
 4 5 -0 0 337 0 18 81 1 336 697 328 12 338 0 333 339 340 14 337 371 339 ?267 12
 104 4 14 -0 0 267 12 18 81 1 339 698 328 337 341 0 336 342 343 14 267 369 342 ?
278 337 264 4 344 -0 0 278 337 18 15 104 370 0 39 337 0 50 14 392 0 337 344 5 0
 +.015 .0023 0 1 0 0 0 0 -1 50 344 391 0 267 345 14 0 +.015 .0023 .0043 0 0 -1 -
1 0 0 50 345 390 0 278 346 344 0 +.025 .0023 .0043 -1 0 0 0 0 1 14 278 367 347 ?
282 267 276 4 345 -0 0 282 267 18 50 346 389 0 282 348 345 0 +.025 .0023 0 0 0 -
1 -1 0 0 14 282 365 349 ?350 278 281 4 346 -0 0 350 278 18 50 348 388 0 350 351
 346 0 +.045 .0023 0 1 0 0 0 0 -1 14 350 363 352 ?353 282 354 4 348 -0 0 353 282
 18 50 351 387 0 353 355 348 0 +.045 .0023 .0043 -867361737988404e-31 0 -1 -1 0
 867361737988404e-31 14 353 361 356 ?357 350 358 4 351 -0 0 357 350 18 50 355 38
6 0 357 359 351 0 +.055 .0023 .0043 -1 0 0 0 0 1 14 357 359 360 ?361 353 362 4 3
55 -0 0 361 353 18 50 359 385 0 361 363 355 0 +.055 .0023 0 0 0 -1 -1 0 0 14 361
 357 364 ?365 357 366 4 359 -0 0 365 357 18 50 363 384 0 365 367 359 0 +.07 .002
3 -.022 -1 0 0 0 0 1 14 365 355 368 ?369 361 370 4 363 -0 0 369 361 18 50 367 38
3 0 369 371 363 0 +.055 .0023 -.022 0 0 1 1 0 0 14 369 353 372 ?373 365 374 4 36
7 -0 0 373 365 18 50 371 382 0 373 375 367 0 +.055 .0023 -.0243 -1 0 0 0 0 1 14
 373 351 376 ?377 369 378 4 371 -0 0 377 369 18 50 375 381 0 377 379 371 0 +.045
 .0023 -.0243 0 0 1 1 0 0 14 377 349 380 ?381 373 382 4 375 -0 0 381 373 18 50 3
79 380 0 381 383 375 0 +.045 .0023 -.022 1 0 0 0 0 -1 14 381 347 384 ?385 377 38
6 4 379 -0 0 385 377 18 50 383 379 0 385 387 379 0 +.025 .0023 -.022 0 0 1 1 0 0
 14 385 345 388 ?317 381 389 4 383 -0 0 317 381 18 50 387 378 0 317 390 383 0 +.
025 .0023 -.0243 -1 0 0 0 0 1 14 317 343 391 ?321 385 316 4 387 -0 0 321 385 18
 50 390 377 0 321 392 387 0 +.015 .0023 -.0243 -3469446951953615e-31 0 1 1 0 346
9446951953615e-31 14 321 341 393 ?168 317 319 4 390 -0 0 168 317 18 50 392 376 0
 168 334 390 0 +.015 .0023 -.022 1 0 0 0 0 -1 14 168 339 394 ?174 321 164 4 392
 -0 0 174 321 18 50 334 375 0 174 327 392 0 +0 .0023 -.022 0 0 1 1 0 0 81 1 394
 714 328 168 395 0 393 396 397 80 255 1 328 398 399 9000 1 1 1 1 1 1 1 1 0 FFFFT
FTFFFFFFF1 81 1 395 643 400 168 0 394 401 402 403 81 1 393 713 328 321 401 0 391
 394 404 81 1 396 715 328 273 405 0 394 0 406 82 255 1 397 -155254674 14 273 171
 396 ?0 158 270 4 335 +0 0 0 158 18 81 1 405 647 400 273 0 396 407 0 408 82 1 40
6 -159842194 80 1 400 0 409 8001 0 0 0 0 3 5 0 0 0 FFFFTFTFFFFFFF2 81 1 407 646
 400 158 0 330 329 405 410 83 255 3 408 .792156862745098 .819607843137255 .93333
3333333333 81 1 330 695 328 158 407 0 326 333 411 81 1 329 645 400 325 0 326 402
 407 412 83 3 410 .792156862745098 .819607843137255 .933333333333333 81 1 402 64
4 400 174 0 333 395 329 413 83 3 412 .792156862745098 .819607843137255 .93333333
3333333 81 1 333 696 328 174 402 0 330 336 414 83 3 413 .792156862745098 .819607
843137255 .933333333333333 82 1 414 -155516818 82 1 411 -184352658 79 255 15 409
 SDL/TYSA_COLOUR50 335 273 0 273 332 327 0 +0 0 0 0 -1 0 0 0 -1 50 332 2 0 158 0
 335 0 +0 .0023 0 0 -1 0 0 0 -1 81 1 401 642 400 321 0 393 415 395 416 81 1 391
 712 328 317 415 0 388 393 417 82 1 404 -154992530 81 1 415 641 400 317 0 391 41
8 401 419 81 1 388 711 328 385 418 0 384 391 420 82 1 417 -154730386 81 1 418 64
0 400 385 0 388 421 415 422 81 1 384 710 328 381 421 0 380 388 423 82 1 420 -154
468242 81 1 421 639 400 381 0 384 424 418 425 81 1 380 709 328 377 424 0 376 384
 426 82 1 423 -154206098 81 1 424 638 400 377 0 380 427 421 428 81 1 376 708 328
 373 427 0 372 380 429 82 1 426 -153943954 81 1 427 637 400 373 0 376 430 424 43
1 81 1 372 707 328 369 430 0 368 376 432 82 1 429 -153681810 81 1 430 636 400 36
9 0 372 433 427 434 81 1 368 706 328 365 433 0 364 372 435 82 1 432 -153419666 8
1 1 433 635 400 365 0 368 436 430 437 81 1 364 705 328 361 436 0 360 368 438 82
 1 435 -153157522 81 1 436 634 400 361 0 364 439 433 440 81 1 360 704 328 357 43
9 0 356 364 441 82 1 438 -152895378 81 1 439 633 400 357 0 360 442 436 443 81 1
 356 703 328 353 442 0 352 360 444 82 1 441 -152633234 81 1 442 632 400 353 0 35
6 445 439 446 81 1 352 702 328 350 445 0 349 356 447 82 1 444 -152371090 81 1 44
5 631 400 350 0 352 448 442 449 81 1 349 701 328 282 448 0 347 352 450 82 1 447
 -152108946 81 1 448 630 400 282 0 349 451 445 452 81 1 347 700 328 278 451 0 34
2 349 453 82 1 450 -151846802 81 1 451 629 400 278 0 347 454 448 455 81 1 342 69
9 328 267 454 0 339 347 456 82 1 453 -151584658 81 1 454 628 400 267 0 342 341 4
51 457 82 1 456 -151322514 81 1 341 627 400 337 0 339 338 454 458 83 3 457 .7921
56862745098 .819607843137255 .933333333333333 81 1 338 626 400 12 0 336 0 341 45
9 83 3 458 .792156862745098 .819607843137255 .933333333333333 83 3 459 .79215686
2745098 .819607843137255 .933333333333333 83 3 455 .792156862745098 .81960784313
7255 .933333333333333 83 3 452 .792156862745098 .819607843137255 .93333333333333
3 83 3 449 .792156862745098 .819607843137255 .933333333333333 83 3 446 .79215686
2745098 .819607843137255 .933333333333333 83 3 443 .792156862745098 .81960784313
7255 .933333333333333 83 3 440 .792156862745098 .819607843137255 .93333333333333
3 83 3 437 .792156862745098 .819607843137255 .933333333333333 83 3 434 .79215686
2745098 .819607843137255 .933333333333333 83 3 431 .792156862745098 .81960784313
7255 .933333333333333 83 3 428 .792156862745098 .819607843137255 .93333333333333
3 83 3 425 .792156862745098 .819607843137255 .933333333333333 83 3 422 .79215686
2745098 .819607843137255 .933333333333333 83 3 419 .792156862745098 .81960784313
7255 .933333333333333 83 3 416 .792156862745098 .819607843137255 .93333333333333
3 83 3 403 .792156862745098 .819607843137255 .933333333333333 79 14 399 SWEntUnc
hanged15 389 344 0 78 385 0 17 78 0 389 315 230 76 460 209 0 227 +17 315 0 389 3
14 78 146 227 225 0 312 -17 230 0 389 78 314 73 461 228 0 460 +17 460 0 270 462
 318 73 78 209 0 0 -17 227 0 316 81 312 76 315 225 0 318 +17 318 0 270 460 320 7
6 81 211 0 0 -17 462 0 270 463 460 70 75 207 0 0 -17 463 0 270 464 462 67 72 205
 0 0 -17 75 0 386 461 233 73 462 207 0 230 +15 386 346 0 75 381 0 17 461 0 386 4
65 75 143 230 228 0 314 -17 233 0 386 75 465 70 466 231 0 462 +17 465 0 386 233
 461 140 145 307 0 0 -17 466 0 382 467 72 140 233 231 0 465 -15 382 348 0 72 377
 0 17 467 0 382 236 466 137 142 305 0 0 -17 72 0 382 466 236 70 463 205 0 233 +1
7 236 0 382 72 467 67 468 234 0 463 +17 468 0 378 469 69 137 236 234 0 467 -15 3
78 350 0 69 373 0 17 469 0 378 239 468 134 139 303 0 0 -17 69 0 378 468 239 67 4
64 203 0 236 +17 239 0 378 69 469 64 470 237 0 464 +17 464 0 270 471 463 64 69 2
03 0 0 -17 471 0 270 472 464 61 66 201 0 0 -17 472 0 270 473 471 58 63 199 0 0 -
17 66 0 374 470 242 64 471 201 0 239 +15 374 352 0 66 369 0 17 470 0 374 474 66
 134 239 237 0 469 -17 242 0 374 66 474 61 475 240 0 471 +17 474 0 374 242 470 1
31 136 301 0 0 -17 475 0 370 476 63 131 242 240 0 474 -15 370 354 0 63 365 0 17
 476 0 370 245 475 128 133 299 0 0 -17 63 0 370 475 245 61 472 199 0 242 +17 245
 0 370 63 476 58 477 243 0 472 +17 477 0 366 478 60 128 245 243 0 476 -15 366 35
6 0 60 361 0 17 478 0 366 248 477 125 130 297 0 0 -17 60 0 366 477 248 58 473 19
7 0 245 +17 248 0 366 60 478 55 479 246 0 473 +17 473 0 270 480 472 55 60 197 0
 0 -17 480 0 270 481 473 52 57 195 0 0 -17 481 0 270 275 480 49 54 193 0 0 -17 5
7 0 362 479 251 55 480 195 0 248 +15 362 358 0 57 357 0 17 479 0 362 482 57 125
 248 246 0 478 -17 251 0 362 57 482 52 483 249 0 480 +17 482 0 362 251 479 122 1
27 295 0 0 -17 483 0 358 484 54 122 251 249 0 482 -15 358 360 0 54 353 0 17 484
 0 358 254 483 119 124 289 0 0 -17 54 0 358 483 254 52 481 193 0 251 +17 254 0 3
58 54 484 49 485 252 0 481 +17 485 0 354 285 51 119 254 252 0 484 -15 354 362 0
 51 350 0 17 285 0 354 257 485 116 121 286 0 0 -17 51 0 354 485 257 49 275 191 0
 254 +17 257 0 354 51 285 46 283 255 0 275 +17 275 0 270 274 481 46 51 191 0 0 -
17 121 0 24 124 118 119 285 286 0 485 +17 124 0 24 127 121 122 484 289 0 483 +17
 127 0 24 130 124 125 482 295 0 479 +17 130 0 24 133 127 128 478 297 0 477 +17 1
33 0 24 136 130 131 476 299 0 475 +17 136 0 24 139 133 134 474 301 0 470 +17 139
 0 24 142 136 137 469 303 0 468 +17 142 0 24 145 139 140 467 305 0 466 +17 145 0
 24 148 142 143 465 307 0 461 +17 314 0 389 230 315 143 148 309 0 0 -17 39 0 104
 105 19 37 36 183 0 263 +17 19 0 104 39 101 34 323 9 0 182 +82 1 343 -151060370
 82 1 340 -150798226 82 1 331 -155778962 17 25 0 24 106 21 96 324 218 0 323 +16
 218 4 0 ?25 107 99 486 0 0 1 16 107 7 0 ?106 269 218 487 0 0 1 30 486 5 0 218 0
 487 0 +0 .0023 0 1 0 0 30 487 8 0 107 486 292 0 +.015 .0023 0 0 0 1 30 292 11 0
 269 487 291 0 +.015 .0023 .0043 1 0 0 16 269 10 0 ?112 287 107 292 0 0 1 17 112
 0 24 115 106 108 265 269 0 268 +17 115 0 24 118 112 113 279 287 0 277 +17 106 0
 24 112 25 102 101 107 0 105 +17 268 0 264 265 42 108 262 261 0 279 -17 279 0 27
6 262 277 108 115 287 0 0 -19 13 415 0 1 0 8 4 S0 74 4 CI16 index_map_offset0 0
 1 dCCZ20 11 2 0 0 396 405 0 0 0 0 0 0 0 0 0 0 0 0 0 0 0 0 0 0 1 0 
