**ABCDEFGHIJKLMNOPQRSTUVWXYZabcdefghijklmnopqrstuvwxyz**************************
**PARASOLID !"#$%&'()*+,-./:;<=>?@[\]^_`{|}~0123456789**************************
**PART1;
MC=AMD64;
MC_MODEL=Intel64 Family 6 Model 94 Stepping 3, GenuineIntel;
MC_ID=unknown;
OS=Windows_NT;
OS_RELEASE=unknown;
FRU=Parasolid Version 28.0, build 204, 11- 9-2015;
APPL=SOLIDWORKS 2016-2016040;
SITE=;
USER=unknown;
FORMAT=text;
GUISE=transmit;
KEY=Bottom Plate V2.1 2.3mm;
FILE=Bottom Plate V2.1 2.3mm.x_t;
DATE=Wed Aug 02 22:19:08 2017;
**PART2;
SCH=SCH_2800204_28002;
USFLD_SIZE=0;
**PART3;
**END_OF_HEADER*****************************************************************
T51 : TRANSMIT FILE created by modeller version 280020423 SCH_2800204_28002_1300
6200 0 12 30 CCCCCCCCCCCCCDI5 owner1040 0 CCCCCCCCCA13 boundary_mesh1006 0 A16 i
ndex_map_offset0 0 1 dA9 index_map82 0 A17 node_id_index_map82 0 A20 schema_embe
dding_map82 0 A5 child12 0 A14 lowest_node_id0 0 1 dZ1 2251 0 2 0 0 0 0 1e3 1e-8
 0 3 0 1 0 1 1 4 5 6 7 8 9 10 0 0 0 0 0 0 0 70 11 CI9 list_type0 0 1 uI10 notran
smit0 0 1 lCCCDCCDI12 finger_index0 0 1 dI12 finger_block1012 0 CZ2 0 4 T1 0 0 2
 20 1 11 11 13 255 4 174 0 1 0 12 0 0 13 0 51 255 5 2001 0 14 15 0 0 +-.023 0 -.
01 0 -1 0 .002 0 0 -1 31 255 6 1909 0 9 16 0 0 +-.023 0 -.01 0 1 0 0 0 1 .002 29
 255 7 1857 0 10 17 0 .023 0 -.008 19 8 CCCCCCCA5 owner12 0 Z8 52 0 1 13 0 18 V0
 16 255 9 1898 0 ?19 0 20 6 0 0 1 18 255 10 1855 0 21 0 22 7 ?1 17 255 21 0 23 2
4 25 10 26 27 0 28 +18 22 1852 0 19 10 29 17 ?1 17 19 0 30 28 31 22 32 9 0 24 +1
8 29 1849 0 33 22 34 35 ?1 29 17 1854 0 22 35 7 -.023 0 -.008 29 35 1851 0 29 36
 17 .023 .0023 -.008 29 36 1848 0 34 37 35 -.023 .0023 -.008 18 34 1846 0 38 29
 39 36 ?1 29 37 1835 0 39 40 36 .025 0 -.021 18 39 1833 0 41 34 42 37 ?1 29 40 1
832 0 42 43 37 .025 0 -.01 18 42 1830 0 44 39 45 40 ?1 29 43 1829 0 45 46 40 .02
5 .0023 -.021 18 45 1827 0 47 42 48 43 ?1 29 46 1826 0 48 49 43 .025 .0023 -.01
 18 48 1824 0 50 45 51 46 ?1 29 49 1813 0 51 52 46 -.023 0 -.023 18 51 1811 0 53
 48 54 49 ?1 29 52 1810 0 54 55 49 .023 0 -.023 18 54 1808 0 56 51 57 52 ?1 29 5
5 1807 0 57 58 52 -.023 .0023 -.023 18 57 1805 0 59 54 60 55 ?1 29 58 1804 0 60
 61 55 .023 .0023 -.023 18 60 1802 0 62 57 63 58 ?1 29 61 1791 0 63 64 58 -.025
 0 -.01 18 63 1789 0 65 60 66 61 ?1 29 64 1788 0 66 67 61 -.025 0 -.021 18 66 17
86 0 68 63 69 64 ?1 29 67 1785 0 69 70 64 -.025 .0023 -.01 18 69 1783 0 71 66 72
 67 ?1 29 70 1782 0 72 73 67 -.025 .0023 -.021 18 72 1780 0 74 69 75 70 ?1 29 73
 1452 0 75 76 70 .01 .0023 .045 18 75 1450 0 77 72 78 73 ?1 29 76 1435 0 78 79 7
3 .02 0 .045 18 78 1433 0 80 75 81 76 ?1 29 79 1322 0 81 82 76 -.01 .0023 .0427
 18 81 1320 0 83 78 84 79 ?1 29 82 1305 0 84 85 79 -.02 0 .0427 18 84 1303 0 86
 81 87 82 ?1 29 85 428 0 87 88 82 .0415 0 -.032 18 87 426 0 89 84 90 85 ?1 29 88
 415 0 90 91 85 -.0265 0 .031 18 90 413 0 92 87 93 88 ?1 29 91 402 0 93 94 88 .0
265 0 -.001 18 93 400 0 95 90 96 91 ?1 29 94 260 0 96 97 91 -.0415 0 -.032 18 96
 258 0 98 93 99 94 ?1 29 97 127 0 100 101 94 .0495 0 .05 18 100 110 0 102 103 10
4 97 ?1 29 101 129 0 104 105 97 -.0495 0 .05 18 104 112 0 106 100 107 101 ?1 29
 105 48 0 99 108 101 .0495 .0023 .05 18 99 46 0 109 96 103 105 ?1 29 108 42 0 10
3 110 105 -.0495 .0023 .05 18 103 40 0 111 99 100 108 ?1 29 110 374 0 112 113 10
8 -.0415 .0023 -.035 18 112 328 0 114 115 116 110 ?1 29 113 375 0 116 117 110 -.
0415 .0023 -.032 18 116 330 0 118 112 119 113 ?1 29 117 376 0 119 120 113 -.0495
 .0023 -.032 18 119 324 0 121 116 122 117 ?1 29 120 378 0 107 123 117 -.0415 0 -
.035 18 107 325 0 124 104 115 120 ?1 29 123 380 0 115 125 120 -.0495 0 -.032 18
 115 329 0 126 107 112 123 ?1 29 125 761 0 127 128 123 .0495 .0023 .031 18 127 6
74 0 129 130 131 125 ?1 29 128 762 0 131 132 125 .0265 .0023 .031 18 131 676 0 1
33 127 134 128 ?1 29 132 763 0 134 135 128 .0265 .0023 -.001 18 134 678 0 136 13
1 137 132 ?1 29 135 764 0 137 138 132 .0495 .0023 -.001 18 137 672 0 139 134 140
 135 ?1 29 138 765 0 141 142 135 .0495 0 .031 18 141 671 0 143 144 145 138 ?1 29
 142 766 0 145 146 138 .0265 0 .031 18 145 673 0 147 141 130 142 ?1 29 146 768 0
 130 148 142 .0495 0 -.001 18 130 677 0 149 145 127 146 ?1 29 148 769 0 150 151
 146 -.0495 .0023 -.001 18 150 615 0 152 153 154 148 ?1 29 151 770 0 154 155 148
 -.0265 .0023 -.001 18 154 617 0 156 150 157 151 ?1 29 155 771 0 157 158 151 -.0
265 .0023 .031 18 157 619 0 159 154 144 155 ?1 29 158 772 0 144 160 155 -.0495 .
0023 .031 18 144 613 0 161 157 141 158 ?1 29 160 773 0 162 163 158 -.0495 0 -.00
1 18 162 612 0 164 165 166 160 ?1 29 163 774 0 166 167 160 -.0265 0 -.001 18 166
 614 0 168 162 153 163 ?1 29 167 776 0 153 169 163 -.0495 0 .031 18 153 618 0 17
0 166 150 167 ?1 29 169 777 0 171 172 167 .0495 .0023 -.032 18 171 556 0 173 174
 175 169 ?1 29 172 778 0 175 176 169 .0415 .0023 -.032 18 175 558 0 177 171 165
 172 ?1 29 176 779 0 165 178 172 .0415 .0023 -.035 18 165 560 0 179 175 162 176
 ?1 29 178 781 0 122 180 176 .0495 0 -.032 18 122 553 0 181 119 174 178 ?1 29 18
0 783 0 174 182 178 .0415 0 -.035 18 174 557 0 183 122 171 180 ?1 29 182 1419 0
 184 185 180 -.01 .0023 .045 18 184 1372 0 186 187 188 182 ?1 29 185 1420 0 188
 189 182 -.02 .0023 .045 18 188 1374 0 190 184 191 185 ?1 29 189 1421 0 191 192
 185 -.02 .0023 .0427 18 191 1376 0 193 188 194 189 ?1 29 192 1423 0 140 195 189
 -.01 0 .045 18 140 1369 0 196 137 197 192 ?1 29 195 1424 0 197 198 192 -.02 0 .
045 18 197 1371 0 199 140 187 195 ?1 29 198 1426 0 187 200 195 -.01 0 .0427 18 1
87 1375 0 201 197 184 198 ?1 29 200 1549 0 202 203 198 .01 .0023 .0427 18 202 15
02 0 204 205 206 200 ?1 29 203 1550 0 206 207 200 .02 .0023 .0427 18 206 1504 0
 208 202 209 203 ?1 29 207 1551 0 209 210 203 .02 .0023 .045 18 209 1506 0 211 2
06 0 207 ?1 29 210 1553 0 194 212 207 .01 0 .0427 18 194 1499 0 213 191 214 210
 ?1 29 212 1554 0 214 215 210 .02 0 .0427 18 214 1501 0 216 194 205 212 ?1 29 21
5 1556 0 205 0 212 .01 0 .045 18 205 1505 0 217 214 202 215 ?1 17 217 0 218 219
 77 205 220 221 0 222 -15 255 218 1510 0 77 223 0 17 219 0 218 204 217 194 224 2
25 0 226 -17 77 0 218 217 204 75 227 228 0 220 +17 220 0 229 230 222 75 217 221
 0 231 +16 221 1474 0 ?220 232 233 234 0 0 1 17 222 0 229 220 235 205 236 237 0
 224 -15 229 1522 0 230 238 0 17 235 0 229 222 230 78 211 232 0 236 -17 236 0 23
9 240 224 78 222 237 0 0 +16 237 1483 0 ?236 241 225 242 0 0 1 17 224 0 239 236
 226 205 219 225 0 0 +15 239 1431 0 226 243 244 17 226 0 239 224 240 194 245 233
 0 0 +16 225 1471 0 ?224 237 246 247 0 0 1 16 246 1496 0 ?248 225 249 250 0 0 1
 30 255 247 1548 0 225 251 242 0 +.01 0 .045 0 0 1 30 251 1738 0 252 253 247 0 +
-.025 .0023 -.023 0 0 1 30 242 1547 0 237 247 254 0 +.01 0 .045 1 0 0 30 254 154
6 0 241 242 255 0 +.02 0 .0427 150845519650157e-29 0 -1 16 241 1479 0 ?240 233 2
37 254 0 0 1 30 255 1545 0 233 254 256 0 +.01 0 .0427 -1 0 0 16 233 1475 0 ?226
 221 241 255 0 0 1 30 256 1544 0 228 255 257 0 +.01 .0023 .045 0 0 1 16 228 1487
 0 ?77 258 259 256 0 0 1 30 257 1543 0 258 256 260 0 +.01 .0023 .045 1 0 0 16 25
8 1490 0 ?230 249 228 257 0 0 1 30 260 1542 0 249 257 250 0 +.02 .0023 .0427 150
845519650157e-29 0 -1 16 249 1493 0 ?261 246 258 260 0 0 1 30 250 1541 0 246 260
 262 0 +.01 .0023 .0427 -1 0 0 30 262 1540 0 263 250 264 0 +.01 0 .0427 0 1 0 16
 263 1478 0 ?204 265 266 262 0 0 1 30 264 1539 0 266 262 267 0 +.02 0 .0427 0 1
 0 16 266 1482 0 ?208 263 232 264 0 0 1 30 267 1538 0 232 264 234 0 +.02 0 .045
 0 1 0 16 232 1486 0 ?211 266 221 267 0 0 1 30 234 1537 0 221 267 268 0 +.01 0 .
045 0 1 0 30 268 1418 0 269 234 270 0 +-.01 0 .0427 -754227598250785e-30 0 -1 16
 269 1341 0 ?271 272 273 268 0 0 1 30 270 1417 0 272 268 274 0 +-.02 0 .0427 -1
 0 0 16 272 1353 0 ?275 276 269 270 0 0 1 30 274 1416 0 276 270 277 0 +-.02 0 .0
45 0 0 1 16 276 1349 0 ?278 279 272 274 0 0 1 30 277 1415 0 279 274 280 0 +-.01
 0 .045 1 0 0 16 279 1345 0 ?281 282 276 277 0 0 1 30 280 1414 0 265 277 283 0 +
-.01 .0023 .0427 -754227598250785e-30 0 -1 16 265 1357 0 ?83 284 263 280 0 0 1 3
0 283 1413 0 284 280 285 0 +-.02 .0023 .0427 -1 0 0 16 284 1360 0 ?286 287 265 2
83 0 0 1 30 285 1412 0 287 283 288 0 +-.02 .0023 .045 0 0 1 16 287 1363 0 ?289 2
73 284 285 0 0 1 30 288 1411 0 273 285 290 0 +-.01 .0023 .045 1 0 0 16 273 1366
 0 ?291 269 287 288 0 0 1 30 290 1410 0 292 288 293 0 +-.01 0 .045 0 1 0 16 292
 1348 0 ?186 294 295 290 0 0 1 30 293 1409 0 295 290 296 0 +-.02 0 .045 0 1 0 16
 295 1352 0 ?190 292 297 293 0 0 1 30 296 1408 0 297 293 298 0 +-.02 0 .0427 0 1
 0 16 297 1356 0 ?193 295 282 296 0 0 1 30 298 1407 0 282 296 299 0 +-.01 0 .042
7 0 1 0 16 282 1344 0 ?300 297 279 298 0 0 1 31 299 1262 0 301 298 302 0 +.035 0
 -.032 0 1 0 0 0 1 .001 16 301 1239 0 ?303 304 294 299 0 0 1 31 302 1261 0 294 2
99 305 0 +.035 .0023 -.032 0 1 0 0 0 1 .001 16 294 1242 0 ?306 301 292 302 0 0 1
 31 305 1224 0 307 302 308 0 +-.035 0 -.032 0 1 0 0 0 1 .001 16 307 1201 0 ?309
 310 304 305 0 0 1 31 308 1223 0 304 305 311 0 +-.035 .0023 -.032 0 1 0 0 0 1 .0
01 16 304 1204 0 ?312 307 301 308 0 0 1 31 311 1137 0 313 308 314 0 +-.01875 0 .
004825 0 1 0 0 0 1 .00115 16 313 1039 0 ?315 316 317 311 0 0 1 31 314 1136 0 317
 311 318 0 +-.01875 .0023 .004825 0 1 0 0 0 1 .00115 16 317 1042 0 ?319 313 320
 314 0 0 1 31 318 1135 0 320 314 321 0 +-.01875 0 .025175 0 1 0 0 0 1 .00115 16
 320 1057 0 ?322 317 323 318 0 0 1 31 321 1134 0 323 318 324 0 +-.01875 .0023 .0
25175 0 1 0 0 0 1 .00115 16 323 1060 0 ?325 320 326 321 0 0 1 31 324 1133 0 326
 321 327 0 +.01875 0 .004825 0 1 0 0 0 1 .00115 16 326 1075 0 ?328 323 329 324 0
 0 1 31 327 1132 0 329 324 330 0 +.01875 .0023 .004825 0 1 0 0 0 1 .00115 16 329
 1078 0 ?331 326 332 327 0 0 1 31 330 1131 0 332 327 333 0 +.01875 0 .025175 0 1
 0 0 0 1 .00115 16 332 1093 0 ?334 329 310 330 0 0 1 31 333 1130 0 310 330 335 0
 +.01875 .0023 .025175 0 1 0 0 0 1 .00115 16 310 1096 0 ?336 332 307 333 0 0 1 3
1 335 988 0 337 333 338 0 +-3469446951953615e-33 0 .015 0 1 0 0 0 1 .00115 16 33
7 965 0 ?339 340 316 335 0 0 1 31 338 987 0 316 335 341 0 +-3469446951953615e-33
 .0023 .015 0 1 0 0 0 1 .00115 16 316 968 0 ?342 337 313 338 0 0 1 31 341 921 0
 343 338 344 0 +.0455 0 -.024 0 1 0 0 0 1 .001 16 343 898 0 ?345 346 340 341 0 0
 1 31 344 920 0 340 341 347 0 +.0455 .0023 -.024 0 1 0 0 0 1 .001 16 340 901 0 ?
348 343 337 344 0 0 1 31 347 883 0 349 344 350 0 +-.0455 0 -.024 0 1 0 0 0 1 .00
1 16 349 860 0 ?351 352 346 347 0 0 1 31 350 882 0 346 347 353 0 +-.0455 .0023 -
.024 0 1 0 0 0 1 .001 16 346 863 0 ?354 349 343 350 0 0 1 30 353 758 0 355 350 3
56 0 +.0415 0 -.035 0 0 1 16 355 533 0 ?357 358 359 353 0 0 1 30 356 757 0 358 3
53 360 0 +.0415 0 -.032 1 0 867361737988404e-30 16 358 529 0 ?361 362 355 356 0
 0 1 30 360 754 0 363 356 364 0 +.0415 .0023 -.035 0 0 1 16 363 547 0 ?365 359 3
66 360 0 0 1 30 364 753 0 359 360 367 0 +.0415 .0023 -.032 1 0 867361737988404e-
30 16 359 550 0 ?173 355 363 364 0 0 1 30 367 752 0 368 364 369 0 +.0495 0 -.032
 0 1 0 16 368 532 0 ?370 371 372 367 0 0 1 30 369 751 0 372 367 373 0 +.0415 0 -
.032 0 1 0 16 372 536 0 ?177 368 362 369 0 0 1 30 373 750 0 362 369 374 0 +.0415
 0 -.035 0 1 0 16 362 540 0 ?179 372 358 373 0 0 1 30 374 747 0 375 373 376 0 +-
.0265 0 .031 1 0 0 16 375 596 0 ?377 378 379 374 0 0 1 30 376 746 0 378 374 380
 0 +-.0265 0 -.001 -1084202172485504e-31 0 -1 16 378 592 0 ?381 382 375 376 0 0
 1 30 380 745 0 382 376 383 0 +-.0495 0 -.001 -1 0 0 16 382 588 0 ?384 385 378 3
80 0 0 1 30 383 743 0 386 380 387 0 +-.0265 .0023 .031 1 0 0 16 386 603 0 ?388 3
89 390 383 0 0 1 30 387 742 0 389 383 391 0 +-.0265 .0023 -.001 -108420217248550
4e-31 0 -1 16 389 606 0 ?392 379 386 387 0 0 1 30 391 741 0 379 387 393 0 +-.049
5 .0023 -.001 -1 0 0 16 379 609 0 ?152 375 389 391 0 0 1 30 393 740 0 366 391 39
4 0 +-.0495 0 -.001 0 1 0 16 366 591 0 ?395 363 396 393 0 0 1 30 394 739 0 396 3
93 397 0 +-.0265 0 -.001 0 1 0 16 396 595 0 ?156 366 398 394 0 0 1 30 397 738 0
 398 394 399 0 +-.0265 0 .031 0 1 0 16 398 599 0 ?159 396 385 397 0 0 1 30 399 7
37 0 385 397 400 0 +-.0495 0 .031 0 1 0 16 385 587 0 ?161 398 382 399 0 0 1 30 4
00 735 0 401 399 402 0 +.0495 0 -.001 -1 0 0 16 401 655 0 ?403 404 405 400 0 0 1
 30 402 734 0 404 400 406 0 +.0265 0 -.001 1084202172485504e-31 0 1 16 404 651 0
 ?407 408 401 402 0 0 1 30 406 733 0 408 402 409 0 +.0265 0 .031 1 0 0 16 408 64
7 0 ?410 411 404 406 0 0 1 30 409 731 0 352 406 412 0 +.0495 .0023 -.001 -1 0 0
 16 352 662 0 ?413 414 349 409 0 0 1 30 412 730 0 414 409 415 0 +.0265 .0023 -.0
01 1084202172485504e-31 0 1 16 414 665 0 ?416 405 352 412 0 0 1 30 415 729 0 405
 412 417 0 +.0265 .0023 .031 1 0 0 16 405 668 0 ?129 401 414 415 0 0 1 30 417 72
8 0 390 415 418 0 +.0495 0 .031 0 1 0 16 390 650 0 ?419 386 420 417 0 0 1 30 418
 727 0 420 417 421 0 +.0265 0 .031 0 1 0 16 420 654 0 ?133 390 422 418 0 0 1 30
 421 726 0 422 418 423 0 +.0265 0 -.001 0 1 0 16 422 658 0 ?136 420 411 421 0 0
 1 30 423 725 0 411 421 424 0 +.0495 0 -.001 0 1 0 16 411 646 0 ?139 422 408 423
 0 0 1 30 424 371 0 425 423 426 0 +-.0495 0 -.032 1 0 0 16 425 307 0 ?427 428 42
9 424 0 0 1 30 426 370 0 428 424 430 0 +-.0415 0 -.032 0 0 -1 16 428 303 0 ?431
 432 425 426 0 0 1 30 430 367 0 371 426 433 0 +-.0495 .0023 -.032 1 0 0 16 371 3
14 0 ?434 429 368 430 0 0 1 30 433 366 0 429 430 435 0 +-.0415 .0023 -.032 0 0 -
1 16 429 317 0 ?436 425 371 433 0 0 1 30 435 363 0 437 433 438 0 +-.0415 0 -.035
 0 1 0 16 437 306 0 ?439 440 441 435 0 0 1 30 438 362 0 441 435 442 0 +-.0415 0
 -.032 0 1 0 16 441 310 0 ?118 437 432 438 0 0 1 30 442 361 0 432 438 443 0 +-.0
495 0 -.032 0 1 0 16 432 298 0 ?121 441 428 442 0 0 1 30 443 5 0 444 442 445 0 +
.0495 .0023 0 0 0 -1 16 444 4 0 ?446 447 448 443 448 448 1 30 445 8 0 447 443 44
9 0 +.0495 .0023 -.035 -1 0 1401796748264086e-31 16 447 451 0 ?114 450 444 445 0
 0 1 30 449 14 0 451 445 452 0 +-.0495 .0023 -.035 1982541115402065e-31 0 1 16 4
51 271 0 ?453 454 450 449 450 450 1 30 452 20 0 454 449 455 0 +-.0495 .0023 .05
 1 0 0 16 454 19 0 ?109 456 451 452 0 0 1 30 455 123 0 440 452 457 0 +0 0 -.035
 -1 0 1401796748264086e-31 16 440 383 0 ?124 458 437 455 0 0 1 30 457 121 0 459
 455 460 0 +-.0495 0 60620016557794e-31 1387778780781446e-31 0 1 16 459 256 0 ?4
61 462 458 457 458 458 1 30 460 119 0 462 457 463 0 +612323399573677e-32 0 .05 1
 0 0 16 462 81 0 ?102 464 459 460 0 0 1 30 463 118 0 465 460 466 0 +.0495 0 .05
 0 0 -1 16 465 77 0 ?467 448 464 463 464 464 1 30 466 167 0 456 463 468 0 +.0495
 .0023 .05 0 -1 0 16 456 135 0 ?469 470 454 466 0 0 1 30 468 169 0 470 466 471 0
 +-.0495 .0023 .05 0 -1 0 16 470 137 0 ?472 473 456 468 0 0 1 30 471 1794 0 473
 468 474 0 --.025 0 -.01 0 1 0 16 473 1792 0 ?65 475 470 471 0 0 1 30 474 1799 0
 475 471 476 0 +-.025 .0023 -.021 0 1 0 16 475 1797 0 ?477 478 473 474 0 0 1 30
 476 1816 0 478 474 479 0 +.023 .0023 -.023 0 1 0 16 478 1814 0 ?480 481 475 476
 0 0 1 30 479 1821 0 481 476 482 0 --.023 0 -.023 0 1 0 16 481 1819 0 ?53 483 47
8 479 0 0 1 30 482 1838 0 483 479 484 0 -.025 0 -.021 0 1 0 16 483 1836 0 ?41 48
5 481 482 0 0 1 30 484 1843 0 485 482 486 0 +.025 .0023 -.01 0 1 0 16 485 1841 0
 ?487 488 483 484 0 0 1 30 486 1860 0 488 484 489 0 +-.023 .0023 -.008 0 1 0 16
 488 1858 0 ?490 27 485 486 0 0 1 30 489 1866 0 27 486 491 0 -.023 0 -.008 0 1 0
 16 27 1864 0 ?21 492 488 489 0 0 1 31 491 1902 0 492 489 493 0 --.023 .0023 -.0
21 0 1 0 0 0 1 .002 16 492 1870 0 ?59 494 27 491 0 0 1 31 493 1903 0 494 491 495
 0 +-.023 0 -.021 0 1 0 0 0 1 .002 16 494 1874 0 ?68 496 492 493 0 0 1 31 495 19
04 0 496 493 497 0 -.023 .0023 -.01 0 1 0 0 0 1 .002 16 496 1878 0 ?33 498 494 4
95 0 0 1 31 497 1905 0 498 495 499 0 +.023 0 -.01 0 1 0 0 0 1 .002 16 498 1882 0
 ?44 500 496 497 0 0 1 31 499 1906 0 500 497 501 0 -.023 .0023 -.021 0 1 0 0 0 1
 .002 16 500 1886 0 ?47 502 498 499 0 0 1 31 501 1907 0 502 499 16 0 +.023 0 -.0
21 0 1 0 0 0 1 .002 16 502 1890 0 ?56 20 500 501 0 0 1 31 16 1908 0 20 501 6 0 -
-.023 .0023 -.01 0 1 0 0 0 1 .002 16 20 1894 0 ?71 9 502 16 0 0 1 17 71 0 503 50
4 505 69 38 20 0 506 +15 503 1658 0 504 507 508 17 504 0 503 59 71 72 506 252 0
 0 -17 505 0 503 71 33 34 25 509 0 0 -17 38 0 510 511 512 34 71 20 0 490 -17 506
 0 513 65 477 69 504 252 0 512 +15 513 1706 0 514 515 0 17 65 0 513 514 506 63 5
12 473 0 31 +17 477 0 513 506 514 72 516 475 0 504 +16 252 1781 0 ?506 517 518 2
51 0 0 1 17 512 0 510 38 32 69 65 473 0 0 -15 510 1990 0 32 14 0 17 32 0 510 512
 511 63 19 9 0 0 -17 511 0 510 32 38 22 490 488 0 0 -17 490 0 23 25 24 34 511 48
8 0 505 +15 23 1719 0 25 519 0 17 25 0 23 21 490 29 505 509 0 26 +17 24 0 23 490
 21 22 28 517 0 511 -17 28 0 30 44 19 10 24 517 0 520 +16 517 1853 0 ?28 521 252
 522 0 0 1 16 521 1831 0 ?523 524 517 525 0 0 1 30 522 1745 0 517 0 525 0 +0 0 -
.008 1 0 -1387778780781446e-31 30 525 1744 0 521 522 526 0 +.025 0 -.008 0 0 -1
 30 526 1743 0 524 525 527 0 +.025 0 -.023 -1 0 0 16 524 1809 0 ?528 259 521 526
 0 0 1 30 527 1742 0 259 526 529 0 +-.025 0 -.023 0 0 1 16 259 1787 0 ?31 228 52
4 527 0 0 1 30 529 1741 0 509 527 530 0 +0 .0023 -.008 1 0 0 16 509 1847 0 ?25 5
31 0 529 0 0 1 30 530 1740 0 531 529 253 0 +.025 .0023 -.008 0 0 -1 16 531 1825
 0 ?532 518 509 530 0 0 1 30 253 1739 0 518 530 251 0 +.025 .0023 -.023 -1 0 0 1
6 518 1803 0 ?533 252 531 253 0 0 1 17 533 0 534 53 480 57 535 518 0 536 +15 534
 1710 0 533 537 0 17 53 0 534 538 533 51 536 481 0 528 +17 480 0 534 533 538 60
 539 478 0 535 +17 535 0 503 47 59 60 533 518 0 0 -17 536 0 540 74 541 57 53 481
 0 0 -15 540 1927 0 541 542 0 17 74 0 540 516 536 72 59 492 0 477 -17 541 0 540
 536 516 51 68 494 0 0 -17 516 0 540 541 74 66 477 475 0 0 -17 68 0 30 31 528 66
 541 494 0 514 +15 30 1623 0 523 243 239 17 31 0 30 19 68 63 514 259 0 32 +17 52
8 0 30 68 56 51 538 524 0 541 +17 514 0 513 477 65 66 31 259 0 516 -17 56 0 30 5
28 523 54 543 502 0 538 +17 538 0 534 480 53 54 528 524 0 539 -17 539 0 544 543
 62 54 480 478 0 0 -15 544 1969 0 543 545 0 17 543 0 544 546 539 39 56 502 0 0 -
17 62 0 544 539 546 60 47 500 0 480 -17 546 0 544 62 543 45 41 483 0 0 -17 47 0
 503 547 535 45 62 500 0 532 +17 547 0 503 33 47 48 532 531 0 0 -17 532 0 548 41
 487 45 547 531 0 546 +15 548 1714 0 549 550 0 17 41 0 548 549 532 39 546 483 0
 523 +17 487 0 548 532 549 48 551 485 0 547 +17 549 0 548 487 41 42 523 521 0 55
1 -17 551 0 552 520 50 42 487 485 0 0 -15 552 1948 0 520 553 0 17 520 0 552 26 5
51 10 44 498 0 0 -17 50 0 552 551 26 48 33 496 0 487 -17 26 0 552 50 520 29 21 2
7 0 0 -17 33 0 503 505 547 29 50 496 0 25 +17 44 0 30 523 28 42 520 498 0 549 +1
7 523 0 30 56 44 39 549 521 0 543 +14 255 553 1947 554 ?545 542 552 4 555 -0 0 5
45 542 18 81 255 1 554 2209 556 553 557 0 0 558 559 14 545 1968 558 ?14 553 544
 4 15 -0 0 14 553 18 14 542 1926 560 ?553 519 540 4 561 -0 0 553 519 18 51 555 1
959 0 553 561 15 0 +.023 0 -.01 0 -1 0 .002 0 0 -1 13 18 53 0 0 0 0 0 0 8 12 14
 12 509 562 ?563 0 564 4 565 -566 566 563 0 18 81 1 562 2212 556 12 567 0 560 56
8 569 14 563 491 568 ?570 12 571 4 572 -573 573 570 12 18 15 564 507 0 461 12 0
 50 255 565 161 0 566 574 575 0 +-.0495 .0023 60620016557794e-31 1 0 -1387778780
781446e-31 -1387778780781446e-31 0 -1 14 566 149 576 ?577 570 578 4 565 -12 12 5
77 570 18 81 1 576 2214 556 566 579 0 568 580 581 14 577 145 580 ?573 566 582 4
 574 -0 0 573 566 18 14 570 153 583 ?566 563 584 4 575 -0 0 566 563 18 15 578 14
8 0 585 566 0 17 585 0 578 586 587 144 111 450 0 0 -17 586 0 578 106 585 153 161
 385 0 588 -17 587 0 578 585 106 103 472 470 0 589 -17 111 0 590 109 591 103 585
 450 0 587 +16 450 439 0 ?111 451 447 449 451 451 1 15 590 484 0 592 507 0 17 10
9 0 590 446 111 99 589 454 0 593 +17 591 0 590 111 594 144 388 386 0 585 -17 594
 0 590 591 595 157 392 389 0 0 -17 388 0 596 597 161 157 591 386 0 594 +15 596 6
35 0 388 598 0 17 597 0 596 170 388 90 159 398 0 377 -17 161 0 596 388 170 144 5
86 385 0 591 +17 170 0 596 161 597 153 377 375 0 586 -17 377 0 599 381 588 90 17
0 375 0 0 +15 599 76 0 357 243 0 17 381 0 599 384 377 166 92 378 0 0 +17 588 0 5
99 377 600 153 106 458 0 0 -17 600 0 599 588 601 104 102 462 0 472 -17 106 0 578
 587 586 104 588 458 0 600 +16 458 398 0 ?106 459 440 457 459 459 1 17 601 0 599
 600 410 100 467 465 0 0 -17 102 0 582 602 472 100 600 462 0 469 +17 472 0 582 1
02 589 104 587 470 0 0 +15 582 144 0 102 577 0 17 589 0 582 472 602 103 109 454
 0 0 -17 602 0 582 589 102 99 469 456 0 0 -17 469 0 571 467 593 100 602 456 0 60
1 +15 571 489 0 467 563 0 17 467 0 571 419 469 141 601 465 0 0 +17 593 0 571 469
 419 99 446 444 0 602 -17 419 0 571 593 467 127 143 390 0 446 +17 446 0 590 603
 109 127 593 444 0 0 +17 603 0 590 604 446 131 129 405 0 0 -17 604 0 590 605 603
 134 416 414 0 0 -17 129 0 606 143 133 127 603 405 0 419 +15 606 686 0 129 607 0
 17 143 0 606 608 129 141 419 390 0 410 -17 133 0 606 129 608 131 147 420 0 416
 +17 608 0 606 133 143 145 410 408 0 407 -17 147 0 609 95 416 145 133 420 0 608
 -17 416 0 609 147 136 131 604 414 0 603 +15 609 690 0 416 610 0 17 136 0 609 41
6 95 134 611 422 0 413 +17 95 0 609 136 147 93 407 404 0 611 -17 611 0 612 149 4
13 93 136 422 0 403 -17 413 0 612 611 139 134 605 352 0 604 +15 612 694 0 413 61
3 0 17 139 0 612 413 149 137 614 411 0 605 +17 605 0 590 615 604 137 413 352 0 6
16 -17 615 0 590 592 605 171 616 448 0 0 +17 616 0 617 614 370 137 615 448 0 0 -
15 617 142 0 618 573 0 17 614 0 617 618 616 130 139 411 0 619 -17 370 0 617 616
 618 171 181 368 0 615 +16 448 445 0 ?615 444 465 443 444 444 1 17 618 0 617 370
 614 122 619 464 0 0 +17 181 0 620 89 173 122 370 368 0 361 -15 620 568 0 173 62
1 0 17 89 0 620 177 181 87 361 358 0 622 -17 173 0 620 181 177 171 592 359 0 370
 +17 361 0 599 619 357 122 89 358 0 618 +17 619 0 599 403 361 130 618 464 0 0 -1
7 357 0 599 361 623 87 183 355 0 0 +17 623 0 599 357 431 174 124 440 0 0 -17 183
 0 624 179 622 174 357 355 0 625 -15 624 572 0 365 626 0 17 179 0 624 365 183 16
5 625 362 0 627 +17 622 0 624 183 365 87 177 372 0 357 -17 625 0 584 124 628 174
 179 362 0 623 -15 584 152 0 628 570 0 17 124 0 584 439 625 107 623 440 0 629 +1
7 628 0 584 625 439 165 114 447 0 0 -17 439 0 584 628 124 112 629 437 0 0 +17 11
4 0 590 630 627 112 628 447 0 436 +17 630 0 590 631 114 116 436 429 0 0 -17 627
 0 590 114 592 165 365 363 0 628 -17 436 0 632 629 118 112 630 429 0 439 +15 632
 342 0 436 633 0 17 629 0 632 98 436 107 439 437 0 431 -17 118 0 632 436 98 116
 634 441 0 434 +17 98 0 632 118 629 96 431 428 0 634 -17 634 0 635 126 434 96 11
8 441 0 427 -17 434 0 635 634 121 116 631 371 0 630 +15 635 346 0 434 636 0 17 1
21 0 635 434 126 119 637 432 0 631 +17 631 0 590 453 630 119 434 371 0 638 -17 4
53 0 590 595 631 150 638 451 0 0 +17 638 0 564 637 395 119 453 451 0 0 -17 637 0
 564 461 638 115 121 432 0 639 -17 395 0 564 638 461 150 164 366 0 453 +17 461 0
 564 395 637 162 639 459 0 0 +17 164 0 640 641 152 162 395 366 0 384 -15 640 627
 0 152 642 0 17 641 0 640 156 164 166 384 382 0 381 -17 152 0 640 164 156 150 59
5 379 0 395 +17 384 0 599 639 381 162 641 382 0 461 +17 639 0 599 427 384 115 46
1 459 0 0 -17 427 0 599 431 639 96 126 425 0 0 +17 431 0 599 623 427 107 98 428
 0 0 +17 126 0 635 121 634 115 427 425 0 637 -17 156 0 640 152 641 154 168 396 0
 392 +17 595 0 590 594 453 154 152 379 0 0 -17 168 0 643 92 392 166 156 396 0 64
1 -17 392 0 643 168 159 154 594 389 0 595 +15 643 631 0 392 644 0 17 159 0 643 3
92 92 157 597 398 0 388 +17 92 0 643 159 168 90 381 378 0 597 -14 644 628 645 ?5
98 642 643 4 646 -0 0 598 642 18 81 1 645 2217 556 644 647 0 583 648 649 14 598
 632 648 ?621 644 596 4 650 -0 0 621 644 18 14 642 624 651 ?644 613 640 4 652 -0
 0 644 613 18 50 646 715 0 644 652 650 0 +-.0265 0 -.001 1 0 -1084202172485504e-
31 -1084202172485504e-31 0 -1 50 652 716 0 642 653 646 0 +-.0495 0 -.001 0 0 -1
 -1 0 0 50 650 714 0 598 646 654 0 +-.0265 0 .031 0 0 1 1 0 0 50 654 710 0 607 6
50 655 0 +.0265 0 .031 0 0 1 1 0 0 14 607 683 656 ?610 636 606 4 654 -0 0 610 63
6 18 50 655 709 0 610 654 657 0 +.0265 0 -.001 -1 0 1084202172485504e-31 1084202
172485504e-31 0 1 14 610 687 658 ?613 607 609 4 655 -0 0 613 607 18 50 657 708 0
 613 655 659 0 +.0495 0 -.001 0 0 -1 -1 0 0 14 613 691 660 ?642 610 612 4 657 -0
 0 642 610 18 50 659 357 0 633 657 661 0 +-.0415 0 -.032 1 0 0 0 0 -1 14 633 339
 662 ?636 243 632 4 659 -0 0 636 243 18 50 661 356 0 636 659 663 0 +-.0495 0 -.0
32 0 0 1 1 0 0 14 636 343 664 ?607 633 635 4 661 -0 0 607 633 18 50 663 2 0 507
 661 665 0 +0 .0023 0 0 1 0 0 0 1 14 507 1 666 ?243 573 503 4 663 +0 0 243 573 1
8 50 665 117 0 243 663 572 0 +0 0 0 0 1 0 0 0 1 14 243 75 667 ?633 507 30 4 665
 -0 0 633 507 18 50 572 158 0 573 665 574 0 +.0495 .0023 .05 -1 0 0 0 0 1 14 573
 143 668 ?507 577 617 4 572 -563 563 507 577 18 50 574 159 0 577 572 565 0 +6123
23399573677e-32 .0023 .05 0 0 -1 -1 0 0 81 1 668 2227 556 573 669 0 667 670 671
 80 255 1 556 672 673 9000 1 1 1 1 1 1 1 1 0 FFFFTFTFFFFFFF1 81 1 669 2076 674 5
73 0 668 675 676 677 81 1 667 2226 556 243 678 0 666 668 679 81 1 670 2228 556 6
21 680 0 668 681 682 82 255 1 671 -657915743 14 621 565 670 ?626 598 620 4 683 -
0 0 626 598 18 81 1 680 2087 674 621 0 670 684 685 686 81 1 681 2229 556 626 685
 0 670 687 688 82 1 682 2146238625 14 626 569 681 ?689 621 624 4 653 -0 0 689 62
1 18 81 1 685 2088 674 626 0 681 680 690 691 81 1 687 2230 556 689 690 0 681 692
 693 82 1 688 2146369697 14 689 866 687 ?694 626 695 4 696 -0 0 694 626 18 81 1
 690 2089 674 689 0 687 685 697 698 81 1 692 2231 556 694 697 0 687 699 700 82 1
 693 -156761908 14 694 904 692 ?701 689 702 4 703 -0 0 701 689 18 81 1 697 2090
 674 694 0 692 690 704 705 81 1 699 2232 556 701 704 0 692 706 707 82 1 700 -152
764212 14 701 971 699 ?708 694 709 4 710 -0 0 708 694 18 81 1 704 2091 674 701 0
 699 697 711 712 81 1 706 2233 556 708 711 0 699 713 714 82 1 707 -119799602 14
 708 1099 706 ?715 701 716 4 717 -0 0 715 701 18 81 1 711 2092 674 708 0 706 704
 718 719 81 1 713 2234 556 715 718 0 706 720 721 82 1 714 -104005426 14 715 1081
 713 ?722 708 723 4 724 -0 0 722 708 18 81 1 718 2093 674 715 0 713 711 725 726
 81 1 720 2235 556 722 725 0 713 727 728 82 1 721 -107937586 14 722 1063 720 ?72
9 715 730 4 731 -0 0 729 715 18 81 1 725 2094 674 722 0 720 718 732 733 81 1 727
 2236 556 729 732 0 720 734 735 82 1 728 -111869746 14 729 1045 727 ?736 722 737
 4 738 -0 0 736 722 18 81 1 732 2095 674 729 0 727 725 739 740 81 1 734 2237 556
 736 739 0 727 741 742 82 1 735 -115801906 14 736 1207 734 ?743 729 744 4 745 -0
 0 743 729 18 81 1 739 2096 674 736 0 734 732 746 747 81 1 741 2238 556 743 746
 0 734 748 749 82 1 742 -69664560 14 743 1245 741 ?750 736 751 4 752 -0 0 750 73
6 18 81 1 746 2097 674 743 0 741 739 753 754 81 1 748 2239 556 750 753 0 741 755
 756 82 1 749 -65666864 14 750 1377 748 ?757 743 758 4 759 -0 0 757 743 18 81 1
 753 2098 674 750 0 748 746 760 761 81 1 755 2240 556 757 760 0 748 762 763 82 1
 756 -16383790 14 757 1381 755 ?764 750 765 4 766 -0 0 764 750 18 81 1 760 2099
 674 757 0 755 753 767 768 81 1 762 2241 556 764 767 0 755 769 770 82 1 763 -167
77006 14 764 1385 762 ?771 757 772 4 773 -0 0 771 757 18 81 1 767 2100 674 764 0
 762 760 774 775 81 1 769 2242 556 771 774 0 762 776 777 82 1 770 -16645934 14 7
71 1389 769 ?223 764 778 4 779 -0 0 223 764 18 81 1 774 2101 674 771 0 769 767 7
80 781 81 1 776 2243 556 223 780 0 769 782 783 82 1 777 -16514862 14 223 1507 77
6 ?784 771 218 4 785 -0 0 784 771 18 81 1 780 2102 674 223 0 776 774 786 787 81
 1 782 2244 556 784 786 0 776 788 789 82 1 783 -5177134 14 784 1511 782 ?790 223
 791 4 792 -0 0 790 223 18 81 1 786 2103 674 784 0 782 780 793 794 81 1 788 2245
 556 790 793 0 782 795 796 82 1 789 -5570350 14 790 1515 788 ?238 784 797 4 798
 -0 0 238 784 18 81 1 793 2104 674 790 0 788 786 799 800 81 1 795 2246 556 238 7
99 0 788 801 802 82 1 796 -5439278 14 238 1519 795 ?515 790 229 4 803 -0 0 515 7
90 18 81 1 799 2105 674 238 0 795 793 804 805 81 1 801 2247 556 515 804 0 795 80
6 807 82 1 802 -5308206 14 515 1703 801 ?537 238 513 4 808 -0 0 537 238 18 81 1
 804 2106 674 515 0 801 799 809 810 81 1 806 2248 556 537 809 0 801 811 812 82 1
 807 51970261 14 537 1707 806 ?550 515 534 4 813 -0 0 550 515 18 81 1 809 2107 6
74 537 0 806 804 814 815 81 1 811 2249 556 550 814 0 806 816 817 82 1 812 521013
33 14 550 1711 811 ?519 537 548 4 818 -0 0 519 537 18 81 1 814 2108 674 550 0 81
1 809 819 820 81 1 816 2250 556 519 819 0 811 821 822 82 1 817 52232405 14 519 1
715 816 ?542 550 23 4 823 -0 0 542 550 18 81 1 819 2109 674 519 0 816 814 824 82
5 81 1 821 2251 556 14 826 0 816 0 827 82 1 822 52363477 14 14 1989 821 ?0 545 5
10 4 5 -0 0 0 545 18 81 1 826 2113 674 14 0 821 828 0 829 82 1 827 69796053 80 1
 674 0 830 8001 0 0 0 0 3 5 0 0 0 FFFFTFTFFFFFFF2 81 1 828 2112 674 545 0 558 55
7 826 831 83 255 3 829 .792156862745098 .819607843137255 .933333333333333 81 1 5
58 2210 556 545 828 0 554 560 832 81 1 557 2111 674 553 0 554 824 828 833 83 3 8
31 .792156862745098 .819607843137255 .933333333333333 81 1 824 2110 674 542 0 56
0 819 557 834 83 3 833 .792156862745098 .819607843137255 .933333333333333 81 1 5
60 2211 556 542 824 0 558 562 835 83 3 834 .792156862745098 .819607843137255 .93
3333333333333 82 1 835 63897813 82 1 832 67829973 79 255 15 830 SDL/TYSA_COLOUR8
3 3 825 .792156862745098 .819607843137255 .933333333333333 50 823 1728 0 519 818
 792 0 +0 0 -.008 0 0 1 1 0 0 50 818 1729 0 550 813 823 0 +.025 0 -.008 1 0 0 0
 0 -1 50 792 1534 0 784 823 798 0 +.01 0 .0427 0 0 -1 -1 0 0 50 798 1533 0 790 7
92 803 0 +.02 0 .0427 1 0 150845519650157e-29 150845519650157e-29 0 -1 50 803 15
32 0 238 798 785 0 +.01 0 .045 0 0 1 1 0 0 50 785 1531 0 223 803 766 0 +.01 0 .0
45 -1 0 0 0 0 1 50 766 1404 0 757 785 773 0 +-.01 0 .045 0 0 1 1 0 0 50 773 1403
 0 764 766 779 0 +-.02 0 .045 -1 0 0 0 0 1 50 779 1402 0 771 773 759 0 +-.02 0 .
0427 0 0 -1 -1 0 0 50 759 1401 0 750 779 752 0 +-.01 0 .0427 1 0 -75422759825078
5e-30 -754227598250785e-30 0 -1 51 752 1258 0 743 759 745 0 +.035 0 -.032 0 1 0
 .001 0 0 1 51 745 1220 0 736 752 738 0 +-.035 0 -.032 0 1 0 .001 0 0 1 51 738 1
127 0 729 745 731 0 +-.01875 0 .004825 0 1 0 .00115 0 0 1 51 731 1124 0 722 738
 724 0 +-.01875 0 .025175 0 1 0 .00115 0 0 1 51 724 1121 0 715 731 717 0 +.01875
 0 .004825 0 1 0 .00115 0 0 1 51 717 1118 0 708 724 710 0 +.01875 0 .025175 0 1
 0 .00115 0 0 1 51 710 984 0 701 717 703 0 +-3469446951953615e-33 0 .015 0 1 0 .
00115 0 0 1 51 703 917 0 694 710 696 0 +.0455 0 -.024 0 1 0 .001 0 0 1 51 696 87
9 0 689 703 683 0 +-.0455 0 -.024 0 1 0 .001 0 0 1 50 683 722 0 621 696 653 0 +.
0415 0 -.032 -867361737988404e-30 0 1 1 0 867361737988404e-30 50 653 721 0 626 6
83 652 0 +.0415 0 -.035 -1 0 0 0 0 1 50 813 1730 0 537 808 818 0 +.025 0 -.023 0
 0 -1 -1 0 0 50 808 1731 0 515 0 813 0 +-.025 0 -.023 -1 0 0 0 0 1 83 3 820 .792
156862745098 .819607843137255 .933333333333333 83 3 815 .792156862745098 .819607
843137255 .933333333333333 83 3 810 .792156862745098 .819607843137255 .933333333
333333 83 3 805 .792156862745098 .819607843137255 .933333333333333 83 3 800 .792
156862745098 .819607843137255 .933333333333333 15 797 1518 0 261 790 0 17 261 0
 797 216 211 206 836 249 0 837 +17 216 0 797 80 261 214 208 266 0 245 -17 211 0
 797 261 80 209 235 232 0 230 +17 836 0 508 231 837 209 261 249 0 0 -17 837 0 50
8 836 227 206 248 246 0 0 -15 508 1466 0 227 507 838 17 227 0 508 837 231 202 77
 228 0 0 -17 248 0 791 213 208 202 837 246 0 227 +15 791 1514 0 248 784 0 17 213
 0 791 245 248 194 204 263 0 219 -17 208 0 791 248 245 206 216 266 0 261 +17 245
 0 791 208 213 214 226 233 0 240 -17 240 0 239 226 236 214 80 241 0 0 +17 80 0 7
97 211 216 78 240 241 0 235 -17 204 0 218 77 219 202 213 263 0 248 +17 231 0 508
 227 836 75 230 258 0 0 -17 230 0 229 235 220 209 231 258 0 836 +15 838 1336 0 8
39 507 840 17 839 0 838 841 842 184 83 265 0 0 -15 840 1234 0 843 507 844 17 843
 0 840 843 843 0 306 294 0 0 -15 844 1196 0 845 507 846 17 845 0 844 845 845 0 3
12 304 0 0 -15 846 1034 0 847 507 848 17 847 0 846 847 847 0 319 317 0 0 -15 848
 1028 0 849 507 850 17 849 0 848 849 849 0 325 323 0 0 -15 850 1022 0 851 507 85
2 17 851 0 850 851 851 0 331 329 0 0 -15 852 1016 0 853 507 854 17 853 0 852 853
 853 0 336 310 0 0 -15 854 960 0 855 507 856 17 855 0 854 855 855 0 342 316 0 0
 -15 856 893 0 857 507 858 17 857 0 856 857 857 0 348 340 0 0 -15 858 855 0 859
 507 590 17 859 0 858 859 859 0 354 346 0 0 -17 354 0 860 354 354 0 859 346 0 0
 +15 860 870 0 354 689 0 17 348 0 861 348 348 0 857 340 0 0 +15 861 908 0 348 69
4 0 17 342 0 862 342 342 0 855 316 0 0 +15 862 975 0 342 701 0 17 336 0 863 336
 336 0 853 310 0 0 +15 863 1103 0 336 708 0 17 331 0 864 331 331 0 851 329 0 0 +
15 864 1085 0 331 715 0 17 325 0 865 325 325 0 849 323 0 0 +15 865 1067 0 325 72
2 0 17 319 0 866 319 319 0 847 317 0 0 +15 866 1049 0 319 729 0 17 312 0 867 312
 312 0 845 304 0 0 +15 867 1211 0 312 736 0 17 306 0 868 306 306 0 843 294 0 0 +
15 868 1249 0 306 743 0 17 841 0 838 869 839 188 291 273 0 0 -17 842 0 838 839 8
69 81 286 284 0 0 -17 83 0 758 201 186 81 839 265 0 300 +15 758 1380 0 83 750 0
 17 201 0 758 870 83 187 300 282 0 871 -17 186 0 758 83 870 184 196 292 0 291 +1
7 300 0 778 286 871 81 201 282 0 842 +15 778 1392 0 286 771 0 17 286 0 778 872 3
00 191 842 284 0 869 +17 871 0 778 300 872 187 275 272 0 271 -17 872 0 778 871 2
86 84 193 297 0 275 -17 275 0 244 278 271 84 871 272 0 0 +17 271 0 244 275 281 1
87 870 269 0 0 +15 244 1301 0 281 243 873 17 281 0 244 271 278 140 874 279 0 0 +
17 870 0 758 186 201 140 271 269 0 281 -17 278 0 244 281 275 197 86 276 0 0 +17
 874 0 765 190 196 197 281 279 0 278 -15 765 1384 0 291 757 0 17 190 0 765 291 8
74 188 199 295 0 289 +17 196 0 765 874 291 140 186 292 0 870 -17 291 0 765 196 1
90 184 841 273 0 839 +17 199 0 772 86 289 197 190 295 0 874 -17 289 0 772 199 19
3 188 869 287 0 841 +15 772 1388 0 289 764 0 17 193 0 772 289 86 191 872 297 0 2
86 +17 869 0 838 842 841 191 289 287 0 0 -17 86 0 772 193 199 84 278 276 0 872 -
15 873 1227 0 303 243 875 17 303 0 873 303 303 0 876 301 0 0 +15 875 1189 0 309
 243 877 17 309 0 875 309 309 0 878 307 0 0 +15 877 1009 0 315 243 879 17 315 0
 877 315 315 0 880 313 0 0 +15 879 1003 0 322 243 881 17 322 0 879 322 322 0 882
 320 0 0 +15 881 997 0 328 243 883 17 328 0 881 328 328 0 884 326 0 0 +15 883 99
1 0 334 243 885 17 334 0 883 334 334 0 886 332 0 0 +15 885 953 0 339 243 887 17
 339 0 885 339 339 0 888 337 0 0 +15 887 886 0 345 243 889 17 345 0 887 345 345
 0 890 343 0 0 +15 889 848 0 351 243 599 17 351 0 889 351 351 0 891 349 0 0 +17
 891 0 695 891 891 0 351 349 0 0 -15 695 869 0 891 689 860 17 890 0 702 890 890
 0 345 343 0 0 -15 702 907 0 890 694 861 17 888 0 709 888 888 0 339 337 0 0 -15
 709 974 0 888 701 862 17 886 0 716 886 886 0 334 332 0 0 -15 716 1102 0 886 708
 863 17 884 0 723 884 884 0 328 326 0 0 -15 723 1084 0 884 715 864 17 882 0 730
 882 882 0 322 320 0 0 -15 730 1066 0 882 722 865 17 880 0 737 880 880 0 315 313
 0 0 -15 737 1048 0 880 729 866 17 878 0 744 878 878 0 309 307 0 0 -15 744 1210
 0 878 736 867 17 876 0 751 876 876 0 303 301 0 0 -15 751 1248 0 876 743 868 83
 3 794 .792156862745098 .819607843137255 .933333333333333 83 3 787 .792156862745
098 .819607843137255 .933333333333333 83 3 781 .792156862745098 .819607843137255
 .933333333333333 83 3 775 .792156862745098 .819607843137255 .933333333333333 83
 3 768 .792156862745098 .819607843137255 .933333333333333 83 3 761 .792156862745
098 .819607843137255 .933333333333333 83 3 754 .792156862745098 .819607843137255
 .933333333333333 83 3 747 .792156862745098 .819607843137255 .933333333333333 83
 3 740 .792156862745098 .819607843137255 .933333333333333 83 3 733 .792156862745
098 .819607843137255 .933333333333333 83 3 726 .792156862745098 .819607843137255
 .933333333333333 83 3 719 .792156862745098 .819607843137255 .933333333333333 83
 3 712 .792156862745098 .819607843137255 .933333333333333 83 3 705 .792156862745
098 .819607843137255 .933333333333333 83 3 698 .792156862745098 .819607843137255
 .933333333333333 83 3 691 .792156862745098 .819607843137255 .933333333333333 81
 1 684 2086 674 598 0 648 647 680 892 83 3 686 .792156862745098 .819607843137255
 .933333333333333 81 1 648 2218 556 598 684 0 645 651 893 81 1 647 2085 674 644
 0 645 894 684 895 83 3 892 .792156862745098 .819607843137255 .933333333333333 8
1 1 894 2084 674 642 0 651 896 647 897 83 3 895 .792156862745098 .81960784313725
5 .933333333333333 81 1 651 2219 556 642 894 0 648 656 898 81 1 896 2083 674 613
 0 660 899 894 900 83 3 897 .792156862745098 .819607843137255 .933333333333333 8
1 1 660 2222 556 613 896 0 658 662 901 81 1 899 2082 674 610 0 658 902 896 903 8
3 3 900 .792156862745098 .819607843137255 .933333333333333 81 1 658 2221 556 610
 899 0 656 660 904 81 1 902 2081 674 607 0 656 905 899 906 83 3 903 .79215686274
5098 .819607843137255 .933333333333333 81 1 656 2220 556 607 902 0 651 658 907 8
1 1 905 2080 674 636 0 664 908 902 909 83 3 906 .792156862745098 .81960784313725
5 .933333333333333 81 1 664 2224 556 636 905 0 662 666 910 81 1 908 2079 674 633
 0 662 678 905 911 83 3 909 .792156862745098 .819607843137255 .933333333333333 8
1 1 662 2223 556 633 908 0 660 664 912 81 1 678 2078 674 243 0 667 676 908 913 8
3 3 911 .792156862745098 .819607843137255 .933333333333333 81 1 676 2077 674 507
 0 666 669 678 914 83 3 913 .792156862745098 .819607843137255 .933333333333333 8
1 1 666 2225 556 507 676 0 664 667 915 83 3 914 .792156862745098 .81960784313725
5 .933333333333333 82 1 915 127271125 82 1 912 2135163041 82 1 910 2135294113 82
 1 907 -2126446431 82 1 904 -2126315359 82 1 901 -2126184287 82 1 898 -213758755
1 82 1 893 -2137325407 82 1 679 127402197 81 1 675 2075 674 577 0 580 579 669 91
6 83 3 677 .792156862745098 .819607843137255 .933333333333333 81 1 580 2215 556
 577 675 0 576 583 917 81 1 579 2074 674 566 0 576 918 675 919 83 3 916 .7921568
62745098 .819607843137255 .933333333333333 81 1 918 2073 674 570 0 583 920 579 9
21 83 3 919 .792156862745098 .819607843137255 .933333333333333 81 1 583 2216 556
 570 918 0 580 645 922 81 1 920 2072 674 563 0 568 567 918 923 83 3 921 .7921568
62745098 .819607843137255 .933333333333333 81 1 568 2213 556 563 920 0 562 576 9
24 81 1 567 2071 674 12 0 562 0 920 925 83 3 923 .792156862745098 .8196078431372
55 .933333333333333 83 3 925 .792156862745098 .819607843137255 .933333333333333
 82 1 924 -2106654559 82 1 922 -658702175 82 1 917 -1746272125 79 14 673 SWEntUn
changed82 1 649 -2137456479 17 592 0 590 627 615 175 173 359 0 0 -17 365 0 624 6
22 179 175 627 363 0 592 +17 177 0 620 173 89 175 622 372 0 365 +17 403 0 599 40
7 619 93 149 401 0 0 +16 464 389 0 ?618 465 462 463 465 465 1 17 407 0 599 410 4
03 145 95 404 0 0 +17 149 0 612 139 611 130 403 401 0 614 -17 410 0 599 601 407
 141 608 408 0 467 +50 575 163 0 570 565 561 0 +0 .0023 -.035 1401796748264086e-
31 0 1 1 0 -1401796748264086e-31 51 561 1938 0 542 575 555 0 +-.023 0 -.021 0 -1
 0 .002 0 0 -1 82 1 581 -658898783 82 1 569 -2105081695 51 15 1980 0 545 555 5 0
 +.023 0 -.021 0 -1 0 .002 0 0 -1 82 1 559 65863893 17 59 0 503 535 504 57 74 49
2 0 533 +19 13 175 0 1 0 8 4 S0 74 4 CI16 index_map_offset0 0 1 dCCZ20 11 2 0 0
 821 826 0 0 0 0 0 0 0 0 0 0 0 0 0 0 0 0 0 0 1 0 
