**ABCDEFGHIJKLMNOPQRSTUVWXYZabcdefghijklmnopqrstuvwxyz**************************
**PARASOLID !"#$%&'()*+,-./:;<=>?@[\]^_`{|}~0123456789**************************
**PART1;
MC=AMD64;
MC_MODEL=Intel64 Family 6 Model 94 Stepping 3, GenuineIntel;
MC_ID=unknown;
OS=Windows_NT;
OS_RELEASE=unknown;
FRU=Parasolid Version 28.0, build 204, 11- 9-2015;
APPL=SOLIDWORKS 2016-2016040;
SITE=;
USER=unknown;
FORMAT=text;
GUISE=transmit;
KEY=Dual Motor Mount V3.1;
FILE=Dual Motor Mount V3.1.x_t;
DATE=Sat Aug 12 09:40:22 2017;
**PART2;
SCH=SCH_2800204_28002;
USFLD_SIZE=0;
**PART3;
**END_OF_HEADER*****************************************************************
T51 : TRANSMIT FILE created by modeller version 280020423 SCH_2800204_28002_1300
6200 0 12 30 CCCCCCCCCCCCCDI5 owner1040 0 CCCCCCCCCA13 boundary_mesh1006 0 A16 i
ndex_map_offset0 0 1 dA9 index_map82 0 A17 node_id_index_map82 0 A20 schema_embe
dding_map82 0 A5 child12 0 A14 lowest_node_id0 0 1 dZ1 3505 0 2 0 0 0 0 1e3 1e-8
 0 3 0 1 0 1 1 4 5 6 7 8 9 10 0 0 0 0 0 0 0 70 11 CI9 list_type0 0 1 uI10 notran
smit0 0 1 lCCCDCCDI12 finger_index0 0 1 dI12 finger_block1012 0 CZ2 0 4 T1 0 0 2
 20 1 11 11 13 255 4 94 0 1 0 12 0 0 13 0 51 255 5 2829 0 14 15 0 0 +0 .0154 -.0
24 -1 0 0 .0015 0 0 1 31 255 6 2951 0 16 17 0 0 -.00625 .003 -.002575 0 -1 0 0 0
 -1 .00115 29 255 7 2771 0 10 18 0 -1387778780781446e-32 .0154 -.0255 19 8 CCCCC
CCA5 owner12 0 Z8 28 0 1 13 0 19 V0 16 255 9 2782 0 ?20 0 21 22 0 0 1 18 255 10
 2769 0 23 0 24 7 ?1 17 255 23 0 25 26 27 10 28 29 0 30 +18 24 2761 0 31 10 32 1
8 ?1 17 31 0 33 34 35 24 36 37 0 38 +18 32 2748 0 39 24 40 41 ?1 29 18 2763 0 24
 41 7 0 .0154 0 29 41 2750 0 32 42 18 .05 .0154 0 29 42 2747 0 40 43 41 .05 .015
4 -.0255 18 40 2745 0 20 32 44 42 ?1 29 43 2734 0 44 45 42 .05 .0169 -.024 18 44
 2732 0 46 40 47 43 ?1 29 45 2731 0 47 48 43 .05 .0169 -.0015 18 47 2729 0 49 44
 50 45 ?1 29 48 2728 0 50 51 45 -816340459283203e-33 .0169 -.0015 18 50 2726 0 5
2 47 53 48 ?1 29 51 2725 0 53 54 48 -1306144734853126e-32 .0169 -.024 18 53 2723
 0 28 50 55 51 ?1 29 54 2520 0 55 56 51 .02003175416344815 .012 -.0171 18 55 251
8 0 57 53 58 54 ?1 29 56 2497 0 58 59 54 .02 .01191227766016838 -.00765 18 58 24
95 0 60 55 61 56 ?1 29 59 2471 0 61 62 56 .02003175416344815 .012 -.0084 18 61 2
469 0 63 58 64 59 ?1 29 62 2422 0 64 65 59 .02996824583655185 .012 -.0084 18 64
 2420 0 66 61 67 62 ?1 29 65 2399 0 67 68 62 .03 .01191227766016838 -.01785 18 6
7 2397 0 69 64 70 65 ?1 29 68 2373 0 70 71 65 .02996824583655185 .012 -.0171 18
 70 2371 0 72 67 73 68 ?1 29 71 2332 0 73 74 68 .021 .01191227766016838 -.01785
 18 73 2330 0 75 70 76 71 ?1 29 74 2323 0 76 77 71 .021 .01191227766016838 -.007
65 18 76 2321 0 78 73 79 74 ?1 29 77 2310 0 79 80 74 .02 .012 -.01685 18 79 2308
 0 81 76 82 77 ?1 29 80 2307 0 82 83 77 .02 .012 -.00865 18 82 2305 0 84 79 85 8
0 ?1 29 83 2298 0 85 86 80 .029 .01191227766016838 -.00765 18 85 2296 0 87 82 88
 83 ?1 29 86 2271 0 88 89 83 .02 0 -.01685 18 88 2269 0 90 85 91 86 ?1 29 89 226
8 0 91 92 86 .02 0 -.00865 18 91 2266 0 93 88 94 89 ?1 29 92 2265 0 94 95 89 .02
1 0 -.00765 18 94 2263 0 96 91 97 92 ?1 29 95 2262 0 97 98 92 .029 0 -.00765 18
 97 2260 0 99 94 100 95 ?1 29 98 2259 0 100 101 95 .021 0 -.01785 18 100 2257 0
 102 97 103 98 ?1 29 101 2250 0 103 104 98 .029 .01191227766016838 -.01785 18 10
3 2248 0 105 100 106 101 ?1 29 104 2247 0 106 107 101 .029 0 -.01785 18 106 2245
 0 108 103 109 104 ?1 29 107 2234 0 109 110 104 .03 0 -.00865 18 109 2232 0 111
 106 112 107 ?1 29 110 2231 0 112 113 107 .03 0 -.01685 18 112 2229 0 114 109 11
5 110 ?1 29 113 2228 0 115 116 110 .03 .012 -.00865 18 115 2226 0 117 112 118 11
3 ?1 29 116 2225 0 118 119 113 .03 .012 -.01685 18 118 2223 0 120 115 121 116 ?1
 29 119 1656 0 121 122 116 .02 .00875 -.00515 18 121 1654 0 123 118 124 119 ?1 2
9 122 1653 0 124 125 119 0 .00875 -.00515 18 124 1651 0 126 121 127 122 ?1 29 12
5 1643 0 127 128 122 .03 .00875 -.00515 18 127 1641 0 129 124 130 125 ?1 29 128
 1640 0 130 131 125 .05 .00875 -.00515 18 130 1638 0 132 127 133 128 ?1 29 131 1
627 0 133 134 128 .03 .01191227766016838 -.00765 18 133 1625 0 135 130 136 131 ?
1 29 134 1614 0 136 137 131 .03 .00875 -.02035 18 136 1612 0 138 133 139 134 ?1
 29 137 1611 0 139 140 134 .05 .00875 -.02035 18 139 1609 0 141 136 142 137 ?1 2
9 140 1592 0 142 143 137 .05 .012 -.0084 18 142 1590 0 144 139 145 140 ?1 29 143
 1589 0 145 146 140 .05 .012 -.0171 18 145 1587 0 147 142 148 143 ?1 29 146 1573
 0 148 149 143 .02 .01191227766016838 -.01785 18 148 1571 0 150 145 151 146 ?1 2
9 149 1563 0 151 152 146 .02 .00875 -.02035 18 151 1561 0 153 148 154 149 ?1 29
 152 1560 0 154 155 149 0 .00875 -.02035 18 154 1558 0 156 151 157 152 ?1 29 155
 1541 0 157 158 152 0 .012 -.0171 18 157 1539 0 159 154 160 155 ?1 29 158 1538 0
 160 161 155 0 .012 -.0084 18 160 1536 0 162 157 163 158 ?1 29 161 1005 0 163 16
4 158 .0235 .0169 -.02035 18 163 1003 0 165 160 166 161 ?1 29 164 855 0 166 167
 161 .0265 .0169 -.01785 18 166 853 0 168 163 169 164 ?1 29 167 705 0 169 170 16
4 .0265 .0169 -.00515 18 169 703 0 171 166 172 167 ?1 29 170 555 0 172 173 167 .
0235 .0169 -.00765 18 172 553 0 174 169 175 170 ?1 29 173 143 0 175 176 170 .05
 0 -.00515 18 175 141 0 177 172 178 173 ?1 29 176 70 0 178 179 173 -138777878078
1446e-32 0 -.0255 18 178 61 0 26 175 180 176 ?1 29 179 71 0 180 181 176 .05 0 -.
0255 18 180 62 0 182 178 183 179 ?1 29 181 72 0 183 184 179 .05 0 0 18 183 63 0
 185 180 186 181 ?1 29 184 73 0 186 187 181 0 0 0 18 186 64 0 34 183 188 184 ?1
 29 187 264 0 188 189 184 .05 0 -.02035 18 188 217 0 190 186 191 187 ?1 29 189 2
65 0 191 192 187 0 0 -.02035 18 191 219 0 193 188 194 189 ?1 29 192 266 0 194 19
5 189 0 0 -.00515 18 194 221 0 196 191 197 192 ?1 29 195 662 0 198 199 192 .0235
 0 -.00515 18 198 609 0 200 201 202 195 ?1 29 199 663 0 202 203 195 .0235 0 -.00
765 18 202 611 0 204 198 205 199 ?1 29 203 665 0 197 206 199 .02 .0169 -.00515 1
8 197 603 0 207 194 208 203 ?1 29 206 666 0 208 209 203 .0235 .0169 -.00515 18 2
08 606 0 210 197 201 206 ?1 29 209 668 0 201 211 206 .02 .0169 -.00765 18 201 61
0 0 212 208 198 209 ?1 29 211 812 0 213 214 209 .0265 0 -.00765 18 213 759 0 215
 216 217 211 ?1 29 214 813 0 217 218 211 .0265 0 -.00515 18 217 761 0 219 213 22
0 214 ?1 29 218 815 0 205 221 214 .03 .0169 -.00765 18 205 753 0 222 202 223 218
 ?1 29 221 816 0 223 224 218 .0265 .0169 -.00765 18 223 756 0 225 205 216 221 ?1
 29 224 818 0 216 226 221 .03 .0169 -.00515 18 216 760 0 227 223 213 224 ?1 29 2
26 962 0 228 229 224 .0265 0 -.02035 18 228 909 0 230 231 232 226 ?1 29 229 963
 0 232 233 226 .0265 0 -.01785 18 232 911 0 234 228 235 229 ?1 29 233 965 0 220
 236 229 .03 .0169 -.02035 18 220 903 0 237 217 238 233 ?1 29 236 966 0 238 239
 233 .0265 .0169 -.02035 18 238 906 0 240 220 231 236 ?1 29 239 968 0 231 241 23
6 .03 .0169 -.01785 18 231 910 0 242 238 228 239 ?1 29 241 1112 0 243 244 239 .0
235 0 -.01785 18 243 1059 0 245 246 247 241 ?1 29 244 1113 0 247 248 241 .0235 0
 -.02035 18 247 1061 0 249 243 0 244 ?1 29 248 1115 0 235 250 244 .02 .0169 -.01
785 18 235 1053 0 251 232 252 248 ?1 29 250 1116 0 252 253 248 .0235 .0169 -.017
85 18 252 1056 0 254 235 246 250 ?1 29 253 1118 0 246 0 250 .02 .0169 -.02035 18
 246 1060 0 255 252 243 253 ?1 17 255 0 256 257 258 246 153 259 0 260 -15 255 25
6 1065 0 255 261 0 17 257 0 256 262 255 235 263 264 0 265 -17 258 0 256 255 262
 151 266 267 0 268 +17 153 0 269 156 260 151 255 259 0 258 +16 259 1021 0 ?153 2
70 271 272 0 0 1 17 260 0 269 153 273 246 274 275 0 263 -15 269 339 0 153 276 0
 17 273 0 269 260 249 163 277 270 0 274 -17 274 0 278 279 263 163 260 275 0 0 +1
6 275 1036 0 ?274 280 264 281 0 0 1 17 263 0 278 274 265 246 257 264 0 0 +15 278
 1001 0 265 282 283 17 265 0 278 263 279 235 284 271 0 0 +16 264 1023 0 ?263 275
 285 286 0 0 1 16 285 1049 0 ?287 264 288 289 0 0 1 30 255 286 1108 0 264 290 28
1 0 +.02 .0169 -.02035 0 0 -1 31 290 1216 0 291 292 286 0 +.028 .006 -.01275 1 0
 0 0 0 -1 .0025 30 281 1107 0 275 286 293 0 +.02 .0169 -.02035 1 0 0 30 293 1106
 0 280 281 294 0 +.0235 .0169 -.02035 0 0 1 16 280 1032 0 ?279 271 275 293 0 0 1
 30 294 1105 0 271 293 295 0 +.02 .0169 -.01785 -1 0 0 16 271 1027 0 ?265 259 28
0 294 0 0 1 30 295 1102 0 288 294 289 0 +.0235 0 -.02035 0 0 1 16 288 1046 0 ?29
6 285 291 295 0 0 1 30 289 1101 0 285 295 297 0 +.02 0 -.01785 -1 0 0 30 297 109
9 0 298 289 299 0 +.0235 .0169 -.01785 0 -1 0 16 298 1035 0 ?245 300 270 297 0 0
 1 30 299 1098 0 270 297 272 0 +.0235 .0169 -.02035 0 -1 0 16 270 1039 0 ?277 29
8 259 299 0 0 1 30 272 1097 0 259 299 301 0 +.02 .0169 -.02035 0 -1 0 30 301 958
 0 302 272 303 0 +.03 .0169 -.02035 0 0 1 16 302 873 0 ?304 305 306 301 0 0 1 30
 303 957 0 305 301 307 0 +.03 .0169 -.01785 -1 0 0 16 305 886 0 ?308 309 302 303
 0 0 1 30 307 956 0 309 303 310 0 +.0265 .0169 -.02035 0 0 -1 16 309 882 0 ?311
 312 305 307 0 0 1 30 310 955 0 312 307 313 0 +.03 .0169 -.02035 1 0 0 16 312 87
7 0 ?314 315 309 310 0 0 1 30 313 953 0 300 310 316 0 +.03 0 -.01785 -1 0 0 16 3
00 2246 0 ?234 306 298 313 0 0 1 30 316 952 0 306 313 317 0 +.0265 0 -.02035 0 0
 -1 16 306 896 0 ?318 302 300 316 0 0 1 30 317 950 0 319 316 320 0 +.03 .0169 -.
02035 0 -1 0 16 319 880 0 ?138 321 322 317 0 0 1 30 320 949 0 322 317 323 0 +.02
65 .0169 -.02035 0 -1 0 16 322 885 0 ?324 319 325 320 0 0 1 30 323 948 0 325 320
 326 0 +.0265 .0169 -.01785 0 -1 0 16 325 889 0 ?327 322 315 323 0 0 1 30 326 94
7 0 315 323 328 0 +.03 .0169 -.01785 0 -1 0 16 315 871 0 ?329 325 312 326 0 0 1
 30 328 808 0 330 326 331 0 +.03 .0169 -.00515 0 0 1 16 330 723 0 ?332 333 334 3
28 0 0 1 30 331 807 0 333 328 335 0 +.03 .0169 -.00515 -1 0 0 16 333 736 0 ?336
 337 330 331 0 0 1 30 335 806 0 337 331 338 0 +.0265 .0169 -.00515 0 0 -1 16 337
 732 0 ?339 340 333 335 0 0 1 30 338 805 0 340 335 341 0 +.03 .0169 -.00765 1 0
 0 16 340 727 0 ?342 343 337 338 0 0 1 30 341 802 0 321 338 344 0 +.0265 0 -.005
15 0 0 -1 16 321 746 0 ?345 334 319 341 0 0 1 30 344 801 0 334 341 346 0 +.03 0
 -.00765 1 0 0 16 334 749 0 ?347 330 321 344 0 0 1 30 346 799 0 348 344 349 0 +.
0265 .0169 -.00765 0 -1 0 16 348 735 0 ?215 350 351 346 0 0 1 30 349 798 0 351 3
46 352 0 +.0265 .0169 -.00515 0 -1 0 16 351 739 0 ?353 348 343 349 0 0 1 30 352
 797 0 343 349 354 0 +.03 .0169 -.00515 0 -1 0 16 343 721 0 ?129 351 340 352 0 0
 1 30 354 658 0 355 352 356 0 +.02 .0169 -.00515 0 0 -1 16 355 573 0 ?357 358 35
9 354 0 0 1 30 356 657 0 358 354 360 0 +.02 .0169 -.00765 1 0 0 16 358 586 0 ?36
1 362 355 356 0 0 1 30 360 656 0 362 356 363 0 +.0235 .0169 -.00515 0 0 1 16 362
 582 0 ?364 365 358 360 0 0 1 30 363 655 0 365 360 366 0 +.02 .0169 -.00515 -1 0
 0 16 365 577 0 ?367 368 362 363 0 0 1 30 366 653 0 350 363 369 0 +.02 0 -.00765
 1 0 0 16 350 2264 0 ?204 359 348 366 0 0 1 30 369 652 0 359 366 370 0 +.0235 0
 -.00515 0 0 1 16 359 596 0 ?371 355 350 369 0 0 1 30 370 650 0 372 369 373 0 +.
02 .0169 -.00515 0 -1 0 16 372 580 0 ?123 374 375 370 0 0 1 30 373 649 0 375 370
 376 0 +.0235 .0169 -.00515 0 -1 0 16 375 585 0 ?377 372 378 373 0 0 1 30 376 64
8 0 378 373 379 0 +.0235 .0169 -.00765 0 -1 0 16 378 589 0 ?380 375 368 376 0 0
 1 30 379 647 0 368 376 381 0 +.02 .0169 -.00765 0 -1 0 16 368 571 0 ?382 378 36
5 379 0 0 1 30 381 476 0 383 379 384 0 +.03 0 -.0205 0 0 1 16 383 2230 0 ?385 38
6 374 381 0 0 1 30 384 474 0 386 381 387 0 +.02 0 -.0205 0 0 -1 16 386 2267 0 ?3
88 389 383 384 0 0 1 30 387 470 0 374 384 390 0 +.02 .012 -.0205 0 0 -1 16 374 2
306 0 ?391 383 372 387 0 0 1 30 390 263 0 392 387 393 0 +.05 .012 -.02035 0 0 1
 16 392 1588 0 ?394 395 396 390 0 0 1 30 393 261 0 395 390 397 0 +0 .012 -.02035
 0 0 -1 16 395 1537 0 ?398 399 392 393 0 0 1 30 397 258 0 400 393 401 0 +0 0 -.0
0515 -1 0 0 16 400 205 0 ?219 402 389 397 389 389 1 30 401 256 0 396 397 403 0 +
0 0 -.02035 1 0 0 16 396 211 0 ?249 392 402 401 402 402 1 30 403 255 0 404 401 4
05 0 +.05 .012 -.02035 0 -1 0 16 404 1610 0 ?190 406 407 403 0 0 1 30 405 254 0
 407 403 408 0 +0 .012 -.02035 0 -1 0 16 407 1559 0 ?193 404 409 405 0 0 1 30 40
8 253 0 409 405 410 0 +0 .012 -.00515 0 -1 0 16 409 1652 0 ?196 407 399 408 0 0
 1 30 410 252 0 399 408 411 0 +.05 .012 -.00515 0 -1 0 16 399 1639 0 ?177 409 39
5 410 0 0 1 30 411 5 0 412 410 413 0 +0 .0169 0 544226972855469e-30 0 1 16 412 2
724 0 ?414 415 416 411 0 0 1 30 413 11 0 415 411 417 0 +.05 .0169 0 -54422697285
5469e-30 0 -1 16 415 2730 0 ?418 419 412 413 0 0 1 30 417 69 0 420 413 421 0 +0
 0 0 544226972855469e-30 0 1 16 420 57 0 ?422 423 406 417 406 406 1 30 421 68 0
 423 417 424 0 +0 0 0 1 0 0 16 423 53 0 ?425 426 420 421 0 0 1 30 424 67 0 427 4
21 428 0 +.05 0 0 -544226972855469e-30 0 -1 16 427 49 0 ?429 416 426 424 426 426
 1 30 428 66 0 416 424 430 0 +-1387778780781446e-32 0 -.0255 -1 0 0 16 416 45 0
 ?431 412 427 428 0 0 1 30 430 86 0 419 428 432 0 +-1387778780781446e-32 .0169 -
.0255 0 -1 0 16 419 2770 0 ?26 433 415 430 0 0 1 30 432 87 0 433 430 434 0 +.05
 .0169 -.0255 0 -1 0 16 433 2746 0 ?182 435 419 432 0 0 1 30 434 88 0 435 432 43
6 0 +.05 .0169 0 0 -1 0 16 435 2749 0 ?185 437 433 434 0 0 1 30 436 89 0 437 434
 438 0 +0 .0169 0 0 -1 0 16 437 2762 0 ?34 439 435 436 0 0 1 30 438 313 0 439 43
6 440 0 +.03 .012 0 0 0 1 16 439 2224 0 ?441 442 437 438 0 0 1 30 440 683 0 442
 438 443 0 +.03 0 -.00765 0 -1 0 16 442 681 0 ?444 445 439 440 0 0 1 30 443 983
 0 445 440 446 0 +.02 0 -.01785 0 -1 0 16 445 981 0 ?262 447 442 443 0 0 1 31 44
6 1472 0 447 443 448 0 -.02965 .006 -.01275 -1 0 0 0 0 1 .0025 16 447 1469 0 ?44
9 450 445 446 0 0 1 31 448 1478 0 450 446 451 0 +.03 .006 -.01275 -1 0 0 0 0 1 .
00285 16 450 1475 0 ?452 453 447 448 0 0 1 31 451 1484 0 453 448 454 0 -.02035 .
006 -.01275 1 0 0 0 0 -1 .0025 16 453 1481 0 ?455 456 450 451 0 0 1 31 454 1490
 0 456 451 457 0 +.02 .006 -.01275 1 0 0 0 0 -1 .00285 16 456 1487 0 ?458 459 45
3 454 0 0 1 30 457 1550 0 459 454 460 0 +0 .012 -.0084 -1 0 0 16 459 1548 0 ?461
 462 456 457 0 0 1 30 460 1555 0 462 457 463 0 +.02 .012 -.0171 1 0 0 16 462 155
3 0 ?57 464 459 460 0 0 1 30 463 1564 0 464 460 465 0 -0 .00875 -.02035 1 0 0 16
 464 1562 0 ?156 466 462 463 0 0 1 30 465 1601 0 466 463 467 0 +.03 .012 -.0084
 -1 0 0 16 466 1599 0 ?66 468 464 465 0 0 1 30 467 1606 0 468 465 469 0 +.05 .01
2 -.0171 1 0 0 16 468 1604 0 ?470 471 466 467 0 0 1 30 469 1618 0 471 467 472 0
 -.03 .00875 -.02035 1 0 0 16 471 1616 0 ?473 474 468 469 0 0 1 30 472 1644 0 47
4 469 475 0 -.05 .00875 -.00515 -1 0 0 16 474 1642 0 ?132 476 471 472 0 0 1 30 4
75 1660 0 476 472 477 0 -.02 .00875 -.00515 -1 0 0 16 476 1658 0 ?478 267 474 47
5 0 0 1 31 477 2064 0 267 475 479 0 +.02 .00875 -.0171 -1 0 0 0 0 1 .00325 16 26
7 1664 0 ?258 480 476 477 0 0 1 31 479 2065 0 480 477 481 0 +-930628123582852e-3
2 .00875 -.0171 1 0 -544226972855469e-30 -544226972855469e-30 0 -1 .00325 16 480
 1668 0 ?159 482 267 479 0 0 1 31 481 2066 0 482 479 483 0 +.05 .00875 -.0171 -1
 0 544226972855469e-30 544226972855469e-30 0 1 .00325 16 482 1672 0 ?141 484 480
 481 0 0 1 31 483 2067 0 484 481 485 0 +.03 .00875 -.0171 1 0 0 0 0 -1 .00325 16
 484 1676 0 ?486 487 482 483 0 0 1 31 485 2068 0 487 483 488 0 +.03 .00875 -.008
4 1 0 0 0 0 -1 .00325 16 487 1680 0 ?489 490 484 485 0 0 1 31 488 2069 0 490 485
 491 0 +.05 .00875 -.0084 -1 0 544226972855469e-30 544226972855469e-30 0 1 .0032
5 16 490 1684 0 ?144 492 487 488 0 0 1 31 491 2070 0 492 488 493 0 +-45715065719
8594e-32 .00875 -.0084 1 0 -544226972855469e-30 -544226972855469e-30 0 -1 .00325
 16 492 1688 0 ?126 494 490 491 0 0 1 31 493 2071 0 494 491 495 0 +.02 .00875 -.
0084 -1 0 0 0 0 1 .00325 16 494 1692 0 ?496 497 492 493 0 0 1 30 495 2237 0 497
 493 498 0 +.03 0 -.00865 0 -1 0 16 497 2235 0 ?499 500 494 495 0 0 1 30 498 224
2 0 500 495 501 0 +.03 0 -.01685 0 1 0 16 500 2240 0 ?502 503 497 498 0 0 1 30 5
01 2251 0 503 498 504 0 -.029 .0169 -.01785 0 1 0 16 503 2249 0 ?108 505 500 501
 0 0 1 30 504 2254 0 505 501 506 0 +.03 .01191227766016838 -.01785 -1 0 0 16 505
 2252 0 ?507 508 503 504 0 0 1 31 506 2274 0 508 504 509 0 +.021 0 -.01685 0 -1
 0 0 0 -1 .001 16 508 2272 0 ?102 510 505 506 0 0 1 31 509 2280 0 510 506 511 0
 +.021 0 -.00865 0 -1 0 0 0 -1 .001 16 510 2278 0 ?93 512 508 509 0 0 1 31 511 2
286 0 512 509 513 0 +.029 0 -.00865 0 -1 0 0 0 -1 .001 16 512 2284 0 ?99 514 510
 511 0 0 1 31 513 2292 0 514 511 515 0 +.029 0 -.01685 0 -1 0 0 0 -1 .001 16 514
 2290 0 ?114 516 512 513 0 0 1 30 515 2299 0 516 513 517 0 +.029 .01191227766016
838 -.00765 1 0 0 16 516 2297 0 ?135 518 514 515 0 0 1 30 517 2302 0 518 515 519
 0 -.029 .0169 -.00765 0 -1 0 16 518 2300 0 ?520 521 516 517 0 0 1 30 519 2313 0
 521 517 522 0 +.02 0 -.01685 0 -1 0 16 521 2311 0 ?523 524 518 519 0 0 1 30 522
 2318 0 524 519 525 0 +.02 0 -.00865 0 1 0 16 524 2316 0 ?526 527 521 522 0 0 1
 30 525 2324 0 527 522 528 0 -.021 .0169 -.00765 0 1 0 16 527 2322 0 ?96 529 524
 525 0 0 1 30 528 2327 0 529 525 530 0 +.02 .01191227766016838 -.00765 1 0 0 16
 529 2325 0 ?531 532 527 528 0 0 1 30 530 2333 0 532 528 533 0 +.021 .0119122776
6016838 -.01785 -1 0 0 16 532 2331 0 ?150 534 529 530 0 0 1 30 533 2336 0 534 53
0 535 0 -.021 .0169 -.01785 0 -1 0 16 534 2334 0 ?536 537 532 533 0 0 1 31 535 2
567 0 537 533 538 0 +.029 .012 -.01685 0 1 0 0 0 1 .001 16 537 2339 0 ?539 540 5
34 535 0 0 1 38 255 538 2568 0 540 535 541 0 +542 543 544 545 546 16 540 2343 0
 ?105 547 537 538 0 0 1 38 541 2569 0 547 538 548 0 +549 550 551 552 553 51 542
 2133 0 554 555 549 556 +0 .00875 -.0171 -1 0 0 .00325 0 0 1 51 543 2616 0 557 5
58 550 559 +.029 0 -.01685 0 1 0 .001 0 0 1 40 255 5 544 0 1 5 570446983881786e-
19 .340808439314514 ??.02996824583655185 .012 -.0171 .02983382081359735 .0119859
3491036264 -.0174020351898311 .02960949784611485 .01195435352083684 -.0176427877
241616 .029312320258734 .01192372531572286 -.01779997687128915 .029 .01191227766
016838 -.01785 41 3 CI8 term_use0 0 1 cCZ1 545 L?.02996824583655185 .012 -.0171
 41 1 546 L?.029 .01191227766016838 -.01785 14 255 557 2602 560 ?561 562 563 4 5
43 +0 0 561 562 19 51 558 2181 0 562 549 543 564 +0 .00875 -.0084 1 0 0 .00325 0
 0 -1 51 550 2640 0 561 543 565 566 +.029 0 -.00865 0 -1 0 .001 0 0 -1 141 255 5
59 538 559 559 543 14 561 2626 567 ?568 557 569 4 550 +0 0 568 557 19 51 565 266
4 0 568 550 570 571 +.021 0 -.00865 0 1 0 .001 0 0 1 141 566 541 566 566 550 14
 568 2650 572 ?573 561 574 4 565 +0 0 573 561 19 51 570 2688 0 573 565 15 575 +.
021 0 -.01685 0 -1 0 .001 0 0 -1 141 571 576 571 571 565 38 576 2572 0 577 578 5
79 0 +558 565 580 581 582 16 577 2359 0 ?78 583 584 576 0 0 1 31 578 2571 0 584
 548 576 0 +.021 .012 -.00865 0 1 0 0 0 1 .001 38 579 2573 0 583 576 585 0 +555
 570 586 587 588 40 5 580 0 1 5 570446983881792e-19 .3408084393145155 ??.0200317
5416344815 .012 -.0084 .02016617918640265 .01198593491036264 -.00809796481016889
 .02039050215388515 .01195435352083684 -.00785721227583837 .020687679741266 .011
92372531572286 -.00770002312871084 .021 .01191227766016838 -.00765 41 1 581 L?.0
2003175416344815 .012 -.0084 41 1 582 L?.021 .01191227766016838 -.00765 16 583 2
363 0 ?589 590 577 579 0 0 1 31 585 2574 0 590 579 591 0 +.021 .012 -.01685 0 1
 0 0 0 1 .001 51 555 2109 0 592 593 542 594 +0 .00875 -.0171 -1 0 0 .00325 0 0 1
 40 5 586 0 1 5 56635628971456e-18 .33985333779467 ??.021 .01191227766016838 -.0
1785 .0206735478037363 .01192477210095902 -.0177952137131647 .02038398375566185
 .0119552055687273 -.0176377334490242 .02015822463220385 .01198705108881156 -.01
738982796349545 .02003175416344815 .012 -.0171 41 1 587 L?.021 .0119122776601683
8 -.01785 41 1 588 L?.02003175416344815 .012 -.0171 14 592 2095 595 ?554 596 597
 4 555 -0 0 554 596 19 54 255 593 1520 0 596 598 555 0 +.02035 .006 -.01275 1 0
 0 .00285 35e-5 0 0 -1 141 594 579 594 594 555 14 596 1513 599 ?592 600 601 4 59
3 +0 0 592 600 19 54 598 1507 0 600 602 593 0 +.02965 .006 -.01275 -1 0 0 .00285
 35e-5 0 0 1 14 600 1500 603 ?596 604 605 4 598 +0 0 596 604 19 50 255 602 93 0
 606 607 598 0 +0 .0169 0 1 0 -544226972855469e-30 -544226972855469e-30 0 -1 14
 606 85 608 ?609 610 25 4 602 -0 0 609 610 19 50 607 92 0 609 611 602 0 +0 .0169
 0 0 0 -1 -1 0 0 14 609 83 612 ?613 606 33 4 607 -0 0 613 606 19 50 611 91 0 613
 614 607 0 +.05 .0169 0 -1 0 544226972855469e-30 544226972855469e-30 0 1 14 613
 81 615 ?616 609 617 4 611 -0 0 616 609 19 50 614 90 0 616 618 611 0 +-138777878
0781446e-32 .0169 -.0255 0 0 1 1 0 0 14 616 79 619 ?282 613 620 4 614 -0 0 282 6
13 19 50 618 65 0 621 622 614 0 +0 0 0 0 -1 0 0 0 -1 14 621 43 623 ?624 282 625
 4 618 +0 0 624 282 19 50 622 2 0 282 626 618 0 +0 .0169 0 0 -1 0 0 0 -1 14 282
 1 627 ?621 616 278 4 622 -0 0 621 616 19 50 626 247 0 628 629 622 0 +0 .012 -.0
0515 0 0 1 1 0 0 14 628 330 630 ?631 276 632 4 626 -631 631 631 276 19 50 629 24
9 0 12 633 626 0 +0 .012 -.02035 0 0 -1 -1 0 0 14 12 344 634 ?276 0 635 4 629 -2
76 276 276 0 19 50 633 251 0 636 637 629 0 +0 .012 0 0 1 0 0 0 1 14 636 314 638
 ?610 631 639 4 633 -610 610 610 631 19 50 637 455 0 624 640 633 0 +.03 0 -.0205
 -1 0 0 0 0 1 14 624 423 641 ?642 621 643 4 637 -0 0 642 621 19 50 640 457 0 642
 644 637 0 +.02 0 -.0205 1 0 0 0 0 -1 14 642 427 645 ?646 624 647 4 640 -0 0 646
 624 19 50 644 640 0 646 648 640 0 +.02 .0169 -.00515 -1 0 0 0 0 1 14 646 612 64
9 ?650 642 651 4 644 -0 0 650 642 19 50 648 641 0 652 653 644 0 +.02 .0169 -.007
65 0 0 -1 -1 0 0 14 652 628 654 ?655 650 656 4 648 -0 0 655 650 19 50 653 642 0
 650 657 648 0 +.0235 .0169 -.00515 1 0 0 0 0 -1 14 650 624 658 ?652 646 659 4 6
53 -0 0 652 646 19 50 657 790 0 655 660 653 0 +.03 .0169 -.00515 1 0 0 0 0 -1 14
 655 762 661 ?662 652 663 4 657 -0 0 662 652 19 50 660 792 0 664 665 657 0 +.026
5 .0169 -.00515 -1 0 0 0 0 1 14 664 774 666 ?667 662 668 4 660 -0 0 667 662 19 5
0 665 793 0 662 669 660 0 +.03 .0169 -.00765 0 0 -1 -1 0 0 14 662 770 670 ?664 6
55 671 4 665 -0 0 664 655 19 50 669 940 0 667 672 665 0 +.03 .0169 -.02035 1 0 0
 0 0 -1 14 667 912 673 ?674 664 675 4 669 -0 0 674 664 19 50 672 941 0 676 677 6
69 0 +.03 .0169 -.01785 0 0 1 1 0 0 14 676 928 678 ?261 674 679 4 672 -0 0 261 6
74 19 50 677 942 0 674 680 672 0 +.0265 .0169 -.02035 -1 0 0 0 0 1 14 674 924 68
1 ?676 667 682 4 677 -0 0 676 667 19 50 680 1090 0 261 683 677 0 +.02 .0169 -.02
035 -1 0 0 0 0 1 14 261 1062 684 ?685 676 256 4 680 -0 0 685 676 19 50 683 1092
 0 686 687 680 0 +.0235 .0169 -.02035 1 0 0 0 0 -1 14 686 1074 688 ?689 685 690
 4 683 -0 0 689 685 19 50 687 1093 0 685 691 683 0 +.02 .0169 -.01785 0 0 1 1 0
 0 14 685 1070 692 ?686 261 693 4 687 -0 0 686 261 19 51 691 1212 0 689 694 687
 0 +.028 .006 -.01275 1 0 0 .0025 0 0 -1 14 689 1199 695 ?696 686 697 4 691 -0 0
 696 686 19 50 694 1214 0 696 698 691 0 +.028 .006 -.01275 1 0 0 0 0 -1 14 696 1
204 699 ?700 689 701 4 694 +0 0 700 689 19 51 698 1257 0 700 702 694 0 +.022 .00
6 -.01275 -1 0 0 .0025 0 0 1 14 700 1244 703 ?604 696 704 4 698 -0 0 604 696 19
 50 702 1259 0 604 705 698 0 +.022 .006 -.01275 -1 0 0 0 0 1 14 604 1249 706 ?60
0 700 707 4 702 +0 0 600 700 19 51 705 1300 0 708 709 702 0 +.00625 .01 -.002575
 0 -1 0 .00115 0 0 -1 14 708 2952 710 ?0 711 712 4 705 -0 0 0 711 19 50 709 1302
 0 711 713 705 0 +.00625 .01 -.002575 0 -1 0 0 0 -1 14 711 1292 714 ?708 715 716
 4 709 +0 0 708 715 19 51 713 1332 0 715 717 709 0 +.04375 .01 -.002575 0 -1 0 .
00115 0 0 -1 14 715 2946 718 ?711 719 720 4 713 -0 0 711 719 19 50 717 1334 0 71
9 721 713 0 +.04375 .01 -.002575 0 -1 0 0 0 -1 14 719 1324 722 ?715 723 724 4 71
7 +0 0 715 723 19 51 721 1364 0 723 725 717 0 +.00625 .01 -.022925 0 -1 0 .00115
 0 0 -1 14 723 2940 726 ?719 727 728 4 721 -0 0 719 727 19 50 725 1366 0 727 729
 721 0 +.00625 .01 -.022925 0 -1 0 0 0 -1 14 727 1356 730 ?723 731 732 4 725 +0
 0 723 731 19 51 729 1396 0 731 733 725 0 +.025 .01 -.01275 0 -1 0 .00115 0 0 -1
 14 731 2934 734 ?727 735 736 4 729 -0 0 727 735 19 50 733 1398 0 735 737 729 0
 +.025 .01 -.01275 0 -1 0 0 0 -1 14 735 1388 738 ?731 739 740 4 733 +0 0 731 739
 19 51 737 1428 0 741 742 733 0 +.04375 .01 -.022925 0 -1 0 .00115 0 0 -1 14 741
 2880 743 ?744 745 746 4 737 -0 0 744 745 19 50 742 1430 0 745 747 737 0 +.04375
 .01 -.022925 0 -1 0 0 0 -1 14 745 1420 748 ?741 749 750 4 742 +0 0 741 749 19 5
1 747 2919 0 749 751 742 0 +.04375 .003 -.022925 0 -1 0 .0015 0 0 -1 14 749 2906
 752 ?745 753 754 4 747 -0 0 745 753 19 50 751 2921 0 753 755 747 0 +.04375 .003
 -.022925 0 -1 0 0 0 -1 14 753 2898 756 ?749 14 757 4 751 +0 0 749 14 19 51 755
 3102 0 758 759 751 0 +.04375 .003 -.002575 0 -1 0 .0015 0 0 -1 14 758 3055 760
 ?761 762 763 4 755 -0 0 761 762 19 50 759 3104 0 762 764 755 0 +.04375 .003 -.0
02575 0 -1 0 0 0 -1 14 762 3047 765 ?758 766 767 4 759 +0 0 758 766 19 51 764 31
05 0 766 768 759 0 +.00625 .003 -.022925 0 -1 0 .0015 0 0 -1 14 766 3083 769 ?76
2 770 771 4 764 -0 0 762 770 19 50 768 3107 0 770 772 764 0 +.00625 .003 -.02292
5 0 -1 0 0 0 -1 14 770 3075 773 ?766 774 775 4 768 +0 0 766 774 19 51 772 3108 0
 774 776 768 0 +.025 .003 -.01275 0 -1 0 .0015 0 0 -1 14 774 2999 777 ?770 744 7
78 4 772 -0 0 770 744 19 50 776 3110 0 744 779 772 0 +.025 .003 -.01275 0 -1 0 0
 0 -1 14 744 2991 780 ?774 741 781 4 776 +0 0 774 741 19 51 779 3111 0 739 782 7
76 0 +.00625 .003 -.002575 0 -1 0 .0015 0 0 -1 14 739 3027 783 ?735 761 784 4 77
9 -0 0 735 761 19 50 782 3113 0 761 0 779 0 +.00625 .003 -.002575 0 -1 0 0 0 -1
 14 761 3019 785 ?739 758 786 4 782 +0 0 739 758 19 81 255 1 785 3496 787 761 78
8 0 783 789 790 15 786 3021 0 791 761 792 13 19 29 0 0 0 0 0 0 8 12 17 791 0 786
 791 791 0 793 794 0 0 +15 792 3022 0 795 761 0 17 795 0 792 795 795 0 796 16 0
 0 +17 796 0 797 796 796 0 795 16 0 0 -16 16 3018 0 ?795 798 799 6 0 0 1 16 798
 2890 0 ?800 801 16 802 0 0 1 16 799 3046 0 ?803 16 804 17 0 0 1 17 803 0 805 80
3 803 0 806 799 0 0 +16 804 3074 0 ?807 799 808 809 0 0 1 31 17 2945 0 799 809 6
 0 -.04375 .003 -.002575 0 -1 0 0 0 -1 .00115 31 809 2939 0 804 810 17 0 -.00625
 .003 -.022925 0 -1 0 0 0 -1 .00115 31 810 2933 0 808 811 809 0 -.025 .003 -.012
75 0 -1 0 0 0 -1 .00115 16 808 2990 0 ?812 804 813 810 0 0 1 31 811 2879 0 814 2
2 810 0 -.04375 .003 -.022925 0 -1 0 0 0 -1 .00115 16 814 2897 0 ?815 816 801 81
1 0 0 1 30 22 2784 0 9 817 811 0 --1387778780781446e-32 .0154 -.0255 -1 0 0 31 8
17 2779 0 21 818 22 0 --816340459283203e-33 .0154 -.0015 1 0 -544226972855469e-3
0 -544226972855469e-30 0 -1 .0015 16 21 2777 0 ?52 9 29 817 0 0 1 31 818 2774 0
 29 819 817 0 --1306144734853126e-32 .0154 -.024 1 0 -544226972855469e-30 -54422
6972855469e-30 0 -1 .0015 16 29 2772 0 ?23 21 37 818 0 0 1 30 819 2766 0 37 820
 818 0 -0 .0154 0 1 0 0 16 37 2764 0 ?31 29 821 819 0 0 1 31 820 2758 0 821 822
 819 0 -.05 .0154 -.0015 -1 0 544226972855469e-30 544226972855469e-30 0 1 .0015
 16 821 2756 0 ?39 37 823 820 0 0 1 31 822 2753 0 823 824 820 0 -.05 .0154 -.024
 -1 0 544226972855469e-30 544226972855469e-30 0 1 .0015 16 823 2751 0 ?46 821 82
5 822 0 0 1 30 824 2742 0 825 591 822 0 +0 .0169 -.0015 1 0 0 16 825 2740 0 ?826
 823 827 824 0 0 1 30 591 2737 0 827 585 824 0 +0 .0169 -.024 -1 0 0 16 827 2735
 0 ?828 825 590 591 0 0 1 17 828 0 829 414 418 53 830 827 0 27 +16 590 2367 0 ?8
1 827 583 585 0 0 1 17 81 0 831 832 57 79 833 590 0 391 +15 831 307 0 398 610 0
 17 832 0 831 834 81 82 391 374 0 0 -17 57 0 831 81 398 55 835 462 0 589 +17 833
 0 836 837 838 55 81 590 0 0 -17 391 0 839 523 526 79 832 374 0 838 +15 839 430
 0 840 642 0 17 523 0 839 840 391 88 838 521 0 388 +17 526 0 839 391 840 82 841
 524 0 832 +17 838 0 836 833 90 79 523 521 0 0 -15 836 2675 0 837 573 0 17 90 0
 836 838 842 88 102 508 0 523 -17 842 0 836 90 837 100 536 534 0 0 -17 102 0 843
 844 388 100 90 508 0 287 +15 843 995 0 845 621 0 17 844 0 843 846 102 243 287 2
85 0 0 -17 388 0 843 102 93 88 840 386 0 0 +17 287 0 693 536 245 100 844 285 0 8
42 +15 693 1073 0 287 685 0 17 536 0 693 150 287 73 842 534 0 837 +17 245 0 693
 287 284 243 254 298 0 296 +17 284 0 693 245 251 252 265 271 0 279 -17 254 0 690
 165 296 252 245 298 0 284 -17 296 0 690 254 277 243 846 288 0 844 +15 690 1077
 0 296 686 0 17 277 0 690 296 165 247 273 270 0 846 +17 846 0 843 847 844 247 29
6 288 0 0 -17 847 0 843 848 846 191 249 396 0 422 -17 848 0 843 849 847 178 422
 420 0 0 -17 249 0 269 273 193 247 847 396 0 277 +17 422 0 25 850 26 191 848 420
 0 0 +15 25 172 0 38 606 0 17 850 0 25 159 422 154 193 407 0 851 -17 26 0 25 422
 23 178 30 419 0 431 +17 30 0 620 20 431 10 26 419 0 852 -17 431 0 620 30 182 17
8 849 416 0 848 +15 620 78 0 30 616 0 17 182 0 620 431 20 180 853 433 0 854 +17
 849 0 843 855 848 180 431 416 0 0 -17 855 0 843 230 849 188 854 426 0 0 -17 230
 0 843 856 855 228 857 402 0 324 -17 854 0 617 853 190 180 855 426 0 849 +16 426
 145 0 ?854 427 423 424 427 427 1 15 617 80 0 858 613 0 17 853 0 617 46 854 40 1
82 433 0 859 -17 190 0 617 854 141 188 860 404 0 857 +17 141 0 617 190 861 139 1
47 482 0 860 +17 860 0 635 473 857 139 190 404 0 862 -17 857 0 635 860 324 188 2
30 402 0 855 +15 635 343 0 860 12 0 17 324 0 635 857 863 228 240 322 0 318 +16 4
02 336 0 ?857 396 400 401 396 396 1 17 863 0 635 324 237 238 314 312 0 311 -17 2
40 0 682 168 318 238 324 322 0 863 -17 318 0 682 240 327 228 856 306 0 0 +15 682
 927 0 318 674 0 17 327 0 682 318 168 232 864 325 0 856 +17 856 0 843 845 230 23
2 318 306 0 0 -17 845 0 843 114 856 106 234 300 0 865 -17 114 0 843 385 845 112
 865 514 0 866 +17 234 0 679 864 108 232 845 300 0 327 +17 865 0 563 867 868 106
 114 514 0 0 -15 563 2603 0 865 557 0 17 867 0 563 869 865 103 108 503 0 0 -17 8
68 0 563 865 120 112 502 500 0 0 -17 120 0 563 868 869 118 539 537 0 502 -17 502
 0 870 441 866 118 868 500 0 871 +15 870 426 0 866 624 0 17 441 0 870 499 502 11
5 871 439 0 872 +17 866 0 870 502 499 112 385 383 0 868 -17 871 0 639 539 117 11
8 441 439 0 0 -15 639 312 0 871 636 0 17 539 0 639 470 871 70 120 537 0 869 +17
 117 0 639 871 66 115 873 874 0 441 +17 66 0 639 117 394 64 875 466 0 876 +17 87
3 0 569 877 872 64 117 874 0 0 -16 874 2351 0 ?117 584 547 548 0 0 1 16 584 2355
 0 ?834 577 874 578 0 0 1 16 547 2347 0 ?876 874 540 541 0 0 1 31 548 2570 0 874
 541 578 0 +.029 .012 -.00865 0 1 0 0 0 1 .001 17 876 0 878 875 87 64 877 547 0
 873 +15 878 2144 0 879 880 0 17 875 0 878 879 876 142 66 466 0 0 -17 87 0 878 8
76 881 85 135 516 0 520 -17 877 0 569 882 873 85 876 547 0 0 -15 569 2627 0 877
 561 0 17 882 0 569 111 877 97 520 518 0 0 -17 111 0 569 872 882 109 99 512 0 49
9 -17 520 0 671 135 347 85 882 518 0 877 +15 671 773 0 347 662 0 17 135 0 671 22
2 520 133 87 516 0 444 +17 347 0 671 520 215 97 883 334 0 882 +17 215 0 671 347
 884 213 225 348 0 345 +17 883 0 843 885 99 213 347 334 0 0 -17 885 0 843 886 88
3 217 345 321 0 0 -17 99 0 843 883 385 97 111 512 0 347 +17 385 0 843 99 114 109
 866 383 0 0 +17 886 0 843 887 885 175 219 400 0 429 -17 345 0 668 225 353 213 8
85 321 0 883 +15 668 777 0 345 664 0 17 225 0 668 171 345 223 215 348 0 884 -17
 353 0 668 345 171 217 888 351 0 885 +17 171 0 668 353 225 169 339 337 0 888 -17
 888 0 632 889 219 169 353 351 0 336 -15 632 328 0 129 628 0 17 889 0 632 129 88
8 216 336 333 0 332 -17 219 0 632 888 177 217 886 400 0 353 +17 336 0 890 339 33
2 169 889 333 0 0 +15 890 701 0 342 282 891 17 339 0 890 342 336 223 171 337 0 0
 +17 332 0 890 336 342 216 892 330 0 0 +17 342 0 890 332 339 205 884 340 0 0 +17
 892 0 663 444 227 205 332 330 0 342 -15 663 765 0 227 655 0 17 444 0 663 489 89
2 133 222 442 0 881 +17 227 0 663 892 489 216 129 343 0 889 -17 489 0 663 227 44
4 127 881 487 0 893 +17 129 0 632 132 889 127 227 343 0 489 +17 132 0 632 177 12
9 130 893 474 0 894 +17 177 0 632 219 132 175 894 399 0 886 +17 893 0 878 881 87
9 127 132 474 0 0 -17 894 0 617 144 429 130 177 399 0 879 -17 144 0 617 861 894
 142 879 490 0 394 +17 429 0 617 894 185 175 887 427 0 0 +17 879 0 878 893 875 1
30 144 490 0 0 -17 185 0 617 429 39 183 35 435 0 425 +17 887 0 843 895 886 183 4
29 427 0 0 -17 895 0 843 896 887 186 425 423 0 0 -17 896 0 843 200 895 194 897 4
06 0 0 -17 425 0 33 35 34 183 895 423 0 887 +15 33 82 0 35 609 0 17 35 0 33 31 4
25 32 185 435 0 36 -17 34 0 33 425 31 186 38 437 0 897 +17 38 0 25 52 897 24 34
 437 0 898 -17 897 0 25 38 196 186 896 406 0 895 +17 196 0 25 897 126 194 899 40
9 0 900 +16 406 139 0 ?897 420 404 417 420 420 1 17 126 0 25 196 901 124 162 492
 0 899 +17 899 0 902 478 900 124 196 409 0 903 -17 900 0 902 899 377 194 200 389
 0 896 +15 902 323 0 899 631 0 17 377 0 902 900 904 198 210 375 0 371 +17 200 0
 843 905 896 198 900 389 0 377 -16 389 320 0 ?900 400 386 397 400 400 1 17 905 0
 843 906 200 202 371 359 0 0 -17 906 0 843 93 905 94 204 350 0 907 -17 371 0 659
 210 380 198 905 359 0 0 +15 659 627 0 371 650 0 17 210 0 659 174 371 208 377 37
5 0 904 -17 380 0 659 371 174 202 908 378 0 905 +17 174 0 659 380 210 172 364 36
2 0 908 -17 908 0 656 909 204 172 380 378 0 361 -15 656 631 0 382 652 0 17 909 0
 656 382 908 201 361 358 0 357 -17 204 0 656 908 96 202 906 350 0 380 +17 361 0
 891 364 357 172 909 358 0 0 +15 891 551 0 367 282 829 17 364 0 891 367 361 208
 174 362 0 0 +17 357 0 891 361 367 201 910 355 0 0 +17 367 0 891 357 364 197 904
 365 0 0 +17 910 0 651 123 212 197 357 355 0 367 -15 651 615 0 212 646 0 17 123
 0 651 496 910 121 207 372 0 478 +17 212 0 651 910 496 201 382 368 0 909 -17 496
 0 651 212 123 58 911 494 0 0 +17 382 0 656 531 909 58 212 368 0 496 +17 531 0 6
56 96 382 76 60 529 0 912 +17 96 0 656 204 531 94 912 527 0 906 +17 60 0 913 911
 78 58 531 529 0 382 -17 912 0 574 914 907 76 96 527 0 0 -15 574 2651 0 907 568
 0 17 914 0 574 84 912 61 78 577 0 0 -17 907 0 574 912 841 94 93 510 0 0 -17 841
 0 574 907 84 91 526 524 0 0 -17 93 0 843 388 906 91 907 510 0 840 +17 840 0 839
 526 523 91 388 386 0 841 -17 84 0 574 841 914 82 834 584 0 526 -17 834 0 831 46
1 832 61 84 584 0 914 +17 461 0 831 398 834 160 63 459 0 901 +17 398 0 831 57 46
1 157 901 395 0 835 +17 63 0 913 78 162 61 461 459 0 834 -17 901 0 25 126 159 16
0 398 395 0 0 -17 159 0 25 901 850 157 851 480 0 398 +17 851 0 597 268 835 154 1
59 480 0 0 -15 597 2096 0 851 592 0 17 268 0 597 266 851 151 156 464 0 0 -17 835
 0 597 851 589 157 57 462 0 0 -17 589 0 597 835 75 55 837 583 0 833 +17 75 0 597
 589 266 73 150 532 0 536 -17 837 0 836 842 833 73 589 583 0 0 -17 266 0 597 75
 268 148 258 267 0 0 -17 150 0 693 251 536 148 75 532 0 262 +17 251 0 693 284 15
0 235 262 445 0 257 -17 262 0 256 258 257 148 251 445 0 266 +17 156 0 269 193 15
3 154 268 464 0 850 +17 193 0 269 249 156 191 850 407 0 847 +15 913 2168 0 911 5
62 0 17 78 0 913 60 63 76 914 577 0 531 +17 162 0 913 63 903 160 126 492 0 461 -
17 903 0 913 162 911 124 478 476 0 0 -17 911 0 913 903 60 121 496 494 0 0 -17 47
8 0 902 207 899 121 903 476 0 911 +17 207 0 902 904 478 197 123 372 0 910 -17 90
4 0 902 377 207 208 367 365 0 364 -14 562 2167 789 ?557 880 913 4 558 -0 0 557 8
80 19 81 1 789 3497 787 562 915 0 785 916 917 14 880 2143 916 ?562 554 878 4 549
 -0 0 562 554 19 81 1 916 3498 787 880 918 0 789 919 920 14 554 2119 919 ?880 59
2 921 4 542 -0 0 880 592 19 51 549 2157 0 880 542 558 922 +0 .00875 -.0084 1 0 0
 .00325 0 0 -1 141 922 541 922 922 549 81 1 919 3499 787 554 923 0 916 924 925 1
5 921 2120 0 926 554 0 17 926 0 921 862 69 136 486 484 0 0 -17 862 0 921 147 926
 139 473 471 0 0 -17 69 0 921 926 105 67 507 505 0 329 -17 486 0 675 242 138 67
 926 484 0 0 +15 675 915 0 242 667 0 17 242 0 675 927 486 231 329 315 0 928 -17
 138 0 675 486 927 136 237 319 0 473 +17 927 0 675 138 242 220 304 302 0 314 -17
 237 0 635 863 473 220 138 319 0 927 -17 473 0 635 237 860 136 862 471 0 926 +17
 304 0 283 308 314 231 927 302 0 0 +17 314 0 283 304 311 220 863 312 0 0 +15 283
 851 0 314 282 890 17 311 0 283 314 308 238 168 309 0 0 +17 308 0 283 311 304 16
6 928 305 0 0 +17 168 0 682 327 240 166 311 309 0 864 -17 864 0 679 928 234 166
 327 325 0 308 -15 679 931 0 329 676 0 17 928 0 679 329 864 231 308 305 0 304 -1
7 329 0 679 507 928 67 242 315 0 486 +17 507 0 679 108 329 103 69 505 0 867 +17
 108 0 679 234 507 106 867 503 0 845 +17 105 0 921 69 72 103 869 540 0 507 +17 7
2 0 921 105 147 70 470 468 0 539 -17 869 0 563 120 867 70 105 540 0 0 -17 147 0
 921 72 862 145 141 482 0 470 -17 470 0 639 394 539 145 72 468 0 861 +17 394 0 6
39 66 470 142 861 392 0 875 +17 861 0 617 141 144 145 394 392 0 0 -80 255 1 787
 929 930 9000 1 1 1 1 1 1 1 1 0 FFFFTFTFFFFFFF1 81 1 923 3284 931 554 0 919 932
 918 933 81 1 924 3500 787 610 934 0 919 935 936 82 255 1 925 -1478950548 14 610
 309 924 ?606 636 831 4 633 -636 636 606 636 19 81 1 934 3256 931 610 0 924 937
 938 939 81 1 935 3501 787 631 940 0 924 941 942 82 1 936 96928108 14 631 325 93
5 ?636 628 902 4 626 -628 628 636 628 19 81 1 940 3254 931 631 0 935 943 937 944
 81 1 941 3502 787 276 945 0 935 946 947 82 1 942 98173291 14 276 340 941 ?628 1
2 269 4 629 -12 12 628 12 19 81 1 945 3252 931 276 0 941 948 943 949 81 1 946 35
03 787 573 950 0 941 951 952 82 1 947 98632043 14 573 2674 946 ?953 568 836 4 57
0 +0 0 953 568 19 81 1 950 3290 931 573 0 946 954 955 956 81 1 951 3504 787 953
 955 0 946 957 958 82 1 952 -1403780756 14 953 2796 951 ?14 573 959 4 15 +0 0 14
 573 19 81 1 955 3291 931 953 0 951 950 960 961 81 1 957 3505 787 14 960 0 951 0
 962 82 1 958 -1359019667 14 14 2817 957 ?753 953 963 4 5 +0 0 753 953 19 81 1 9
60 3292 931 14 0 957 955 964 965 82 1 962 -1357053587 80 1 931 0 966 8001 0 0 0
 0 3 5 0 0 0 FFFFTFTFFFFFFF2 81 1 964 3293 931 753 0 756 960 967 968 83 255 3 96
5 .792156862745098 .819607843137255 .933333333333333 81 1 756 3488 787 753 964 0
 752 760 969 81 1 967 3294 931 749 0 752 964 970 971 83 3 968 .792156862745098 .
819607843137255 .933333333333333 81 1 752 3487 787 749 967 0 748 756 972 81 1 97
0 3295 931 745 0 748 967 973 974 83 3 971 .792156862745098 .819607843137255 .933
333333333333 81 1 748 3486 787 745 970 0 743 752 975 81 1 973 3296 931 741 0 743
 970 976 977 83 3 974 .792156862745098 .819607843137255 .933333333333333 81 1 74
3 3485 787 741 973 0 738 748 978 81 1 976 3297 931 744 0 780 973 979 980 83 3 97
7 .792156862745098 .819607843137255 .933333333333333 81 1 780 3494 787 744 976 0
 777 783 981 81 1 979 3298 931 774 0 777 976 982 983 83 3 980 .792156862745098 .
819607843137255 .933333333333333 81 1 777 3493 787 774 979 0 773 780 984 81 1 98
2 3299 931 770 0 773 979 985 986 83 3 983 .792156862745098 .819607843137255 .933
333333333333 81 1 773 3492 787 770 982 0 769 777 987 81 1 985 3300 931 766 0 769
 982 988 989 83 3 986 .792156862745098 .819607843137255 .933333333333333 81 1 76
9 3491 787 766 985 0 765 773 990 81 1 988 3301 931 762 0 765 985 991 992 83 3 98
9 .792156862745098 .819607843137255 .933333333333333 81 1 765 3490 787 762 988 0
 760 769 993 81 1 991 3302 931 758 0 760 988 788 994 83 3 992 .792156862745098 .
819607843137255 .933333333333333 81 1 760 3489 787 758 991 0 756 765 995 81 1 78
8 3303 931 761 0 785 991 996 997 83 3 994 .792156862745098 .819607843137255 .933
333333333333 81 1 996 3304 931 739 0 783 788 998 999 83 3 997 .792156862745098 .
819607843137255 .933333333333333 81 1 783 3495 787 739 996 0 780 785 1000 81 1 9
98 3305 931 735 0 738 996 1001 1002 83 3 999 .792156862745098 .819607843137255 .
933333333333333 81 1 738 3484 787 735 998 0 734 743 1003 81 1 1001 3306 931 731
 0 734 998 1004 1005 83 3 1002 .792156862745098 .819607843137255 .93333333333333
3 81 1 734 3483 787 731 1001 0 730 738 1006 81 1 1004 3307 931 727 0 730 1001 10
07 1008 83 3 1005 .792156862745098 .819607843137255 .933333333333333 81 1 730 34
82 787 727 1004 0 726 734 1009 81 1 1007 3308 931 723 0 726 1004 1010 1011 83 3
 1008 .792156862745098 .819607843137255 .933333333333333 81 1 726 3481 787 723 1
007 0 722 730 1012 81 1 1010 3309 931 719 0 722 1007 1013 1014 83 3 1011 .792156
862745098 .819607843137255 .933333333333333 81 1 722 3480 787 719 1010 0 718 726
 1015 81 1 1013 3310 931 715 0 718 1010 1016 1017 83 3 1014 .792156862745098 .81
9607843137255 .933333333333333 81 1 718 3479 787 715 1013 0 714 722 1018 81 1 10
16 3311 931 711 0 714 1013 1019 1020 83 3 1017 .792156862745098 .819607843137255
 .933333333333333 81 1 714 3478 787 711 1016 0 710 718 1021 81 1 1019 3312 931 7
08 0 710 1016 0 1022 83 3 1020 .792156862745098 .819607843137255 .93333333333333
3 81 1 710 3477 787 708 1019 0 706 714 1023 83 3 1022 .792156862745098 .81960784
3137255 .933333333333333 81 1 706 3476 787 604 1024 0 703 710 1025 82 1 1023 -12
85160593 81 1 1024 3280 931 604 0 706 1026 1027 1028 81 1 703 3475 787 700 1026
 0 699 706 1029 82 1 1025 -1554579108 81 1 1026 3279 931 700 0 703 1030 1024 103
1 81 1 699 3474 787 696 1030 0 695 703 1032 82 1 1029 72286570 81 1 1030 3278 93
1 696 0 699 1033 1026 1034 81 1 695 3473 787 689 1033 0 692 699 1035 82 1 1032 -
1567162022 81 1 1033 3277 931 689 0 695 1036 1030 1037 81 1 692 3472 787 685 103
8 0 688 695 1039 82 1 1035 72024426 81 1 1038 3275 931 685 0 692 1040 1036 1041
 81 1 688 3471 787 686 1036 0 684 692 1042 82 1 1039 71893356 81 1 1036 3276 931
 686 0 688 1038 1033 1043 81 1 684 3470 787 261 1040 0 681 688 1044 82 1 1042 -1
606680233 81 1 1040 3274 931 261 0 684 1045 1038 1046 81 1 681 3469 787 674 1047
 0 678 684 1048 82 1 1044 71631211 81 1 1047 3272 931 674 0 681 1049 1045 1050 8
1 1 678 3468 787 676 1045 0 673 681 1051 82 1 1048 -1617821353 81 1 1045 3273 93
1 676 0 678 1047 1040 1052 81 1 673 3467 787 667 1049 0 670 678 1053 82 1 1051 7
1369068 81 1 1049 3271 931 667 0 673 1054 1047 1055 81 1 670 3466 787 662 1056 0
 666 673 1057 82 1 1053 71237995 81 1 1056 3269 931 662 0 670 1058 1054 1059 81
 1 666 3465 787 664 1054 0 661 670 1060 82 1 1057 71106924 81 1 1054 3270 931 66
4 0 666 1056 1049 1061 81 1 661 3464 787 655 1058 0 658 666 1062 82 1 1060 -1628
962473 81 1 1058 3268 931 655 0 661 1063 1056 1064 81 1 658 3463 787 650 1065 0
 654 661 1066 82 1 1062 70844779 81 1 1065 3266 931 650 0 658 1067 1063 1068 81
 1 654 3462 787 652 1063 0 649 658 1069 82 1 1066 -1640169129 81 1 1063 3267 931
 652 0 654 1065 1058 1070 81 1 649 3461 787 646 1067 0 645 654 1071 82 1 1069 70
582636 81 1 1067 3265 931 646 0 649 1072 1065 1073 81 1 645 3460 787 642 1072 0
 641 649 1074 82 1 1071 70451563 81 1 1072 3264 931 642 0 645 1075 1067 1076 81
 1 641 3459 787 624 1075 0 638 645 1077 82 1 1074 70320492 81 1 1075 3263 931 62
4 0 641 1078 1072 1079 81 1 638 3458 787 636 937 0 634 641 1080 82 1 1077 701894
20 81 1 937 3255 931 636 0 638 940 934 1081 81 1 634 3457 787 12 948 0 630 638 1
082 82 1 1080 70058348 81 1 948 3251 931 12 0 634 0 945 1083 81 1 630 3456 787 6
28 943 0 627 634 1084 82 1 1082 69927275 81 1 943 3253 931 628 0 630 945 940 108
5 81 1 627 3455 787 282 1086 0 623 630 1087 82 1 1084 69796203 81 1 1086 3261 93
1 282 0 627 1088 1078 1089 81 1 623 3454 787 621 1078 0 619 627 1090 82 1 1087 6
9665133 81 1 1078 3262 931 621 0 623 1086 1075 1091 81 1 619 3453 787 616 1088 0
 615 623 1092 82 1 1090 69534063 81 1 1088 3260 931 616 0 619 1093 1086 1094 81
 1 615 3452 787 613 1093 0 612 619 1095 82 1 1092 69402989 81 1 1093 3259 931 61
3 0 615 1096 1088 1097 81 1 612 3451 787 609 1096 0 608 615 1098 82 1 1095 69271
917 81 1 1096 3258 931 609 0 612 938 1093 1099 81 1 608 3450 787 606 938 0 603 6
12 1100 82 1 1098 69140845 81 1 938 3257 931 606 0 608 934 1096 1101 81 1 603 34
49 787 600 1027 0 599 608 1102 82 1 1100 69009773 81 1 1027 3281 931 600 0 603 1
024 1103 1104 81 1 599 3448 787 596 1103 0 595 603 1105 82 1 1102 -1490288278 81
 1 1103 3282 931 596 0 599 1027 932 1106 81 1 595 3447 787 592 932 0 572 599 110
7 82 1 1105 -1489043094 81 1 932 3283 931 592 0 595 1103 923 1108 81 1 572 3446
 787 568 954 0 567 595 1109 82 1 1107 -1481244308 81 1 954 3289 931 568 0 572 11
10 950 1111 81 1 567 3445 787 561 1110 0 560 572 1112 82 1 1109 -1406074516 81 1
 1110 3288 931 561 0 567 1113 954 1114 81 1 560 3444 787 557 1113 0 0 567 1115 8
2 1 1112 -1408368276 81 1 1113 3287 931 557 0 560 915 1110 1116 82 1 1115 -14106
62036 81 1 915 3286 931 562 0 789 918 1113 1117 83 3 1116 .792156862745098 .8196
07843137255 .933333333333333 81 1 918 3285 931 880 0 916 923 915 1118 83 3 1117
 .792156862745098 .819607843137255 .933333333333333 83 3 1118 .792156862745098 .
819607843137255 .933333333333333 83 3 1114 .792156862745098 .819607843137255 .93
3333333333333 83 3 1111 .792156862745098 .819607843137255 .933333333333333 83 3
 1108 .792156862745098 .819607843137255 .933333333333333 83 3 1106 .792156862745
098 .819607843137255 .933333333333333 83 3 1104 .792156862745098 .81960784313725
5 .933333333333333 83 3 1101 .792156862745098 .819607843137255 .933333333333333
 83 3 1099 .792156862745098 .819607843137255 .933333333333333 83 3 1097 .7921568
62745098 .819607843137255 .933333333333333 83 3 1094 .792156862745098 .819607843
137255 .933333333333333 83 3 1091 .792156862745098 .819607843137255 .93333333333
3333 83 3 1089 .792156862745098 .819607843137255 .933333333333333 83 3 1085 .792
156862745098 .819607843137255 .933333333333333 83 3 1083 .792156862745098 .81960
7843137255 .933333333333333 83 3 1081 .792156862745098 .819607843137255 .9333333
33333333 83 3 1079 .792156862745098 .819607843137255 .933333333333333 83 3 1076
 .792156862745098 .819607843137255 .933333333333333 83 3 1073 .792156862745098 .
819607843137255 .933333333333333 83 3 1070 .792156862745098 .819607843137255 .93
3333333333333 83 3 1068 .792156862745098 .819607843137255 .933333333333333 83 3
 1064 .792156862745098 .819607843137255 .933333333333333 83 3 1061 .792156862745
098 .819607843137255 .933333333333333 83 3 1059 .792156862745098 .81960784313725
5 .933333333333333 83 3 1055 .792156862745098 .819607843137255 .933333333333333
 83 3 1052 .792156862745098 .819607843137255 .933333333333333 83 3 1050 .7921568
62745098 .819607843137255 .933333333333333 83 3 1046 .792156862745098 .819607843
137255 .933333333333333 83 3 1043 .792156862745098 .819607843137255 .93333333333
3333 83 3 1041 .792156862745098 .819607843137255 .933333333333333 83 3 1037 .792
156862745098 .819607843137255 .933333333333333 83 3 1034 .792156862745098 .81960
7843137255 .933333333333333 83 3 1031 .792156862745098 .819607843137255 .9333333
33333333 83 3 1028 .792156862745098 .819607843137255 .933333333333333 82 1 1021
 -1518206615 82 1 1018 -1286667921 82 1 1015 -1514208919 82 1 1012 -1288175249 8
2 1 1009 -1510276759 82 1 1006 -1289682577 82 1 1003 -1506344599 82 1 1000 -1300
102801 82 1 995 -1304034961 82 1 993 -1285684881 82 1 990 -1307967121 82 1 987 -
1287192209 82 1 984 -1296170641 82 1 981 -1288699537 82 1 978 -1292107409 82 1 9
75 -1502412439 82 1 972 -1311964817 82 1 969 -1291124369 79 255 15 966 SDL/TYSA_
COLOUR15 963 2818 0 859 14 0 17 859 0 963 852 830 40 46 823 0 0 -17 852 0 963 28
 859 10 20 9 0 0 -17 830 0 963 859 28 44 828 827 0 0 -17 46 0 617 858 853 44 859
 823 0 418 +17 858 0 617 39 46 47 418 415 0 0 -17 418 0 829 828 826 44 858 415 0
 830 +15 829 3 0 414 282 0 17 826 0 829 418 414 47 1119 825 0 858 +17 414 0 829
 826 828 50 27 412 0 1119 +17 1119 0 959 898 49 50 826 825 0 0 -15 959 2797 0 89
8 953 0 17 898 0 959 36 1119 24 52 21 0 0 -17 49 0 959 1119 36 47 39 821 0 826 -
17 36 0 959 49 898 32 31 37 0 0 -17 39 0 617 185 858 32 49 821 0 35 +17 52 0 25
 27 38 50 898 21 0 414 +17 27 0 25 23 52 53 414 412 0 0 -17 28 0 963 830 852 53
 23 29 0 828 -17 20 0 620 182 30 40 852 9 0 853 +83 3 961 .792156862745098 .8196
07843137255 .933333333333333 51 15 2808 0 953 570 5 0 +0 .0154 -.0015 1 0 0 .001
5 0 0 -1 83 3 956 .792156862745098 .819607843137255 .933333333333333 83 3 949 .7
92156862745098 .819607843137255 .933333333333333 83 3 944 .792156862745098 .8196
07843137255 .933333333333333 83 3 939 .792156862745098 .819607843137255 .9333333
33333333 83 3 933 .792156862745098 .819607843137255 .933333333333333 79 14 930 S
WEntUnchanged82 1 920 -1476656788 82 1 917 -1474363028 17 881 0 878 87 893 133 4
89 487 0 0 -17 222 0 671 884 135 205 444 442 0 892 -17 884 0 671 215 222 223 342
 340 0 339 -17 872 0 569 873 111 115 499 497 0 0 -17 499 0 870 866 441 109 872 4
97 0 385 +17 165 0 690 277 254 163 279 280 0 273 -17 279 0 278 265 274 252 165 2
80 0 0 +17 815 0 1120 815 815 0 1121 814 0 0 +16 816 1409 0 ?1122 1123 814 1124
 0 0 1 16 801 2894 0 ?1125 814 798 1126 0 0 1 17 1125 0 757 1125 1125 0 1127 801
 0 0 +31 1126 2924 0 801 1128 802 0 +.04375 .003 -.022925 0 -1 0 0 0 -1 .0015 31
 1128 3118 0 1129 1130 1126 0 +.04375 0 -.002575 0 -1 0 0 0 -1 .0015 31 802 2923
 0 798 1126 1124 0 +.04375 0 -.022925 0 -1 0 0 0 -1 .0015 31 1124 1432 0 816 802
 1131 0 +.04375 .01 -.022925 0 -1 0 0 0 -1 .00115 31 1131 1400 0 1123 1124 1132
 0 +.025 .01 -.01275 0 -1 0 0 0 -1 .00115 16 1123 1377 0 ?1133 1134 816 1131 0 0
 1 31 1132 1368 0 1134 1131 1135 0 +.00625 .01 -.022925 0 -1 0 0 0 -1 .00115 16
 1134 1345 0 ?1136 1137 1123 1132 0 0 1 31 1135 1336 0 1137 1132 1138 0 +.04375
 .01 -.002575 0 -1 0 0 0 -1 .00115 16 1137 1313 0 ?1139 1140 1134 1135 0 0 1 31
 1138 1304 0 1140 1135 292 0 +.00625 .01 -.002575 0 -1 0 0 0 -1 .00115 16 1140 1
281 0 ?1141 1142 1137 1138 0 0 1 31 292 1261 0 1142 1138 290 0 +.022 .006 -.0127
5 -1 0 0 0 0 1 .0025 16 1142 1238 0 ?1143 291 1140 292 0 0 1 17 1143 0 707 1143
 1143 0 1144 1142 0 0 +16 291 1193 0 ?1145 288 1142 290 0 0 1 17 1145 0 701 1145
 1145 0 1146 291 0 0 +15 701 1206 0 1145 696 0 17 1146 0 1147 1146 1146 0 1145 2
91 0 0 -15 1147 1202 0 1146 689 0 15 707 1251 0 1143 604 0 17 1144 0 1148 1144 1
144 0 1143 1142 0 0 -15 1148 1247 0 1144 700 0 17 1141 0 716 1141 1141 0 1149 11
40 0 0 +15 716 1294 0 1141 711 0 17 1149 0 712 1149 1149 0 1141 1140 0 0 -15 712
 1290 0 1149 708 797 15 797 2950 0 796 708 0 17 1139 0 724 1139 1139 0 1150 1137
 0 0 +15 724 1326 0 1139 719 0 17 1150 0 720 1150 1150 0 1139 1137 0 0 -15 720 1
322 0 1150 715 1151 15 1151 2944 0 806 715 0 17 806 0 1151 806 806 0 803 799 0 0
 -17 1136 0 732 1136 1136 0 1152 1134 0 0 +15 732 1358 0 1136 727 0 17 1152 0 72
8 1152 1152 0 1136 1134 0 0 -15 728 1354 0 1152 723 1153 15 1153 2938 0 1154 723
 0 17 1154 0 1153 1154 1154 0 807 804 0 0 -17 807 0 1155 807 807 0 1154 804 0 0
 +15 1155 3078 0 807 770 0 17 1133 0 740 1133 1133 0 1156 1123 0 0 +15 740 1390
 0 1133 735 0 17 1156 0 736 1156 1156 0 1133 1123 0 0 -15 736 1386 0 1156 731 11
57 15 1157 2932 0 1158 731 0 17 1158 0 1157 1158 1158 0 812 808 0 0 -17 812 0 11
59 812 812 0 1158 808 0 0 +15 1159 2994 0 812 744 0 16 1129 3039 0 ?1160 1161 79
4 1128 0 0 1 31 1130 3119 0 1161 1162 1128 0 +.04375 .003 -.002575 0 -1 0 0 0 -1
 .0015 16 1161 3043 0 ?1163 1164 1129 1130 0 0 1 31 1162 3120 0 1164 1165 1130 0
 +.00625 0 -.022925 0 -1 0 0 0 -1 .0015 16 1164 3067 0 ?1166 813 1161 1162 0 0 1
 31 1165 3121 0 813 1167 1162 0 +.00625 .003 -.022925 0 -1 0 0 0 -1 .0015 16 813
 3071 0 ?1168 808 1164 1165 0 0 1 31 1167 3122 0 1169 1170 1165 0 +.025 0 -.0127
5 0 -1 0 0 0 -1 .0015 16 1169 2983 0 ?1171 1172 0 1167 0 0 1 31 1170 3123 0 1172
 1173 1167 0 +.025 .003 -.01275 0 -1 0 0 0 -1 .0015 16 1172 2987 0 ?1174 1175 11
69 1170 0 0 1 31 1173 3124 0 1175 1176 1170 0 +.00625 0 -.002575 0 -1 0 0 0 -1 .
0015 16 1175 3011 0 ?1177 794 1172 1173 0 0 1 31 1176 3125 0 794 0 1173 0 +.0062
5 .003 -.002575 0 -1 0 0 0 -1 .0015 16 794 3015 0 ?791 1129 1175 1176 0 0 1 17 1
177 0 1178 1177 1177 0 1179 1175 0 0 +15 1178 3031 0 1177 739 0 17 1179 0 1180 1
179 1179 0 1177 1175 0 0 -15 1180 2970 0 1179 621 1181 15 1181 2963 0 1182 621 1
183 17 1182 0 1181 1182 1182 0 1160 1129 0 0 -15 1183 2956 0 1184 621 1185 17 11
84 0 1183 1184 1184 0 1166 1164 0 0 -15 1185 2884 0 1186 621 843 17 1186 0 1185
 1186 1186 0 800 798 0 0 -17 800 0 1187 800 800 0 1186 798 0 0 +15 1187 2910 0 8
00 749 0 17 1166 0 1188 1166 1166 0 1184 1164 0 0 +15 1188 3087 0 1166 766 0 17
 1160 0 1189 1160 1160 0 1182 1129 0 0 +15 1189 3059 0 1160 758 0 17 1174 0 781
 1174 1174 0 1190 1172 0 0 +15 781 2993 0 1174 744 1159 17 1190 0 778 1190 1190
 0 1174 1172 0 0 -15 778 3002 0 1190 774 1191 15 1191 3003 0 1171 774 0 17 1171
 0 1191 1171 1171 0 1192 1169 0 0 +17 1192 0 625 1192 1192 0 1171 1169 0 0 -15 6
25 2977 0 1192 621 1180 17 1168 0 775 1168 1168 0 1193 813 0 0 +15 775 3077 0 11
68 770 1155 17 1193 0 771 1193 1193 0 1168 813 0 0 -15 771 3086 0 1193 766 1188
 17 1163 0 767 1163 1163 0 1194 1161 0 0 +15 767 3049 0 1163 762 805 17 1194 0 7
63 1194 1194 0 1163 1161 0 0 -15 763 3058 0 1194 758 1189 15 805 3050 0 803 762
 0 15 757 2900 0 1125 753 1120 17 1127 0 754 1127 1127 0 1125 801 0 0 -15 754 29
09 0 1127 749 1187 15 1120 2901 0 815 753 0 17 1122 0 750 1122 1122 0 1195 816 0
 0 +15 750 1422 0 1122 745 0 17 1195 0 746 1195 1195 0 1122 816 0 0 -15 746 1418
 0 1195 741 1196 15 1196 2878 0 1121 741 0 17 1121 0 1196 1121 1121 0 815 814 0
 0 -17 793 0 784 793 793 0 791 794 0 0 -15 784 3030 0 793 739 1178 82 1 790 -128
4177553 15 704 1482 0 455 700 1148 17 455 0 704 455 455 0 1197 453 0 0 +17 1197
 0 1198 1197 1197 0 455 453 0 0 -15 1198 1515 0 1197 596 0 15 697 1470 0 449 689
 1147 17 449 0 697 449 449 0 1199 447 0 0 +17 1199 0 1200 1199 1199 0 449 447 0
 0 -15 1200 1502 0 1199 600 0 15 647 1488 0 458 642 839 17 458 0 647 458 458 0 1
201 456 0 0 +17 1201 0 601 1201 1201 0 458 456 0 0 -15 601 1514 0 1201 596 1198
 15 643 1476 0 452 624 870 17 452 0 643 452 452 0 1202 450 0 0 +17 1202 0 605 12
02 1202 0 452 450 0 0 -15 605 1501 0 1202 600 1200 141 575 579 575 575 570 141 5
64 576 564 564 558 141 556 538 556 556 542 40 5 551 0 1 5 56635628971457e-18 .33
98533377946705 ??.029 .01191227766016838 -.00765 .0293264521962637 .011924772100
95902 -.00770478628683529 .0296160162443381 .0119552055687273 -.0078622665509757
9 .02984177536779615 .01198705108881156 -.00811017203650455 .02996824583655185 .
012 -.0084 41 1 552 L?.029 .01191227766016838 -.00765 41 1 553 L?.02996824583655
185 .012 -.0084 19 13 95 0 1 0 8 4 S0 74 4 CI16 index_map_offset0 0 1 dCCZ20 11
 2 0 0 957 1019 0 0 0 0 0 0 0 0 0 0 0 0 0 0 0 0 0 0 1 0 
