**ABCDEFGHIJKLMNOPQRSTUVWXYZabcdefghijklmnopqrstuvwxyz**************************
**PARASOLID !"#$%&'()*+,-./:;<=>?@[\]^_`{|}~0123456789**************************
**PART1;
MC=AMD64;
MC_MODEL=Intel64 Family 6 Model 94 Stepping 3, GenuineIntel;
MC_ID=unknown;
OS=Windows_NT;
OS_RELEASE=unknown;
FRU=Parasolid Version 28.0, build 204, 11- 9-2015;
APPL=SOLIDWORKS 2016-2016040;
SITE=;
USER=unknown;
FORMAT=text;
GUISE=transmit;
KEY=Side Bracket V2.1 2.3mm;
FILE=Side Bracket V2.1 2.3mm.x_t;
DATE=Wed Aug 02 22:22:23 2017;
**PART2;
SCH=SCH_2800204_28002;
USFLD_SIZE=0;
**PART3;
**END_OF_HEADER*****************************************************************
T51 : TRANSMIT FILE created by modeller version 280020423 SCH_2800204_28002_1300
6200 0 12 30 CCCCCCCCCCCCCDI5 owner1040 0 CCCCCCCCCA13 boundary_mesh1006 0 A16 i
ndex_map_offset0 0 1 dA9 index_map82 0 A17 node_id_index_map82 0 A20 schema_embe
dding_map82 0 A5 child12 0 A14 lowest_node_id0 0 1 dZ1 1219 0 2 0 3 0 0 1e3 1e-8
 0 4 0 1 0 1 1 5 6 7 8 9 10 11 0 0 0 0 0 0 0 70 11 CI9 list_type0 0 1 uI10 notra
nsmit0 0 1 lCCCDCCDI12 finger_index0 0 1 dI12 finger_block1012 0 CZ2 0 4 T1 0 0
 2 20 1 12 12 133 255 3 1097 0 1 13 0 0 +14 0 .0023 -.02 0 .0023 0 -.02 0 13 255
 5 414 0 1 0 15 0 0 16 0 51 255 6 968 0 17 18 0 0 +.021 -.0077 -.0115 0 -1 0 .00
1 0 0 -1 31 255 7 877 0 10 19 0 0 -.021 0 -.0115 0 -1 0 0 0 -1 .001 29 255 8 819
 0 11 20 0 .02 .0023 -.0085 19 8 CCCCCCCA5 owner12 0 Z9 124 0 1 16 0 21 V0 16 25
5 10 865 0 ?22 0 23 7 0 0 1 18 255 11 817 0 24 0 25 8 ?1 17 255 24 0 26 27 28 11
 29 30 0 31 +18 25 814 0 32 11 33 20 ?1 17 32 0 34 35 36 25 37 23 0 38 -18 33 81
1 0 22 25 39 40 ?1 29 20 816 0 25 40 8 .02 .0023 -.0115 29 40 813 0 33 41 20 .02
 0 -.0115 29 41 810 0 39 42 40 .02 0 -.0085 18 39 808 0 43 33 44 41 ?1 29 42 797
 0 44 45 41 .021 .0023 -.0125 18 44 795 0 37 39 46 42 ?1 29 45 794 0 46 47 42 .0
39 .0023 -.0125 18 46 792 0 48 44 49 45 ?1 29 47 791 0 49 50 45 .039 0 -.0125 18
 49 789 0 51 46 52 47 ?1 29 50 788 0 52 53 47 .021 0 -.0125 18 52 786 0 54 49 55
 50 ?1 29 53 775 0 55 56 50 .039 .0023 -.0075 18 55 773 0 57 52 58 53 ?1 29 56 7
72 0 58 59 53 .021 .0023 -.0075 18 58 770 0 29 55 60 56 ?1 29 59 769 0 60 61 56
 .021 0 -.0075 18 60 767 0 62 58 63 59 ?1 29 61 766 0 63 64 59 .039 0 -.0075 18
 63 764 0 65 60 66 61 ?1 29 64 753 0 66 67 61 .04 .0023 -.0115 18 66 751 0 68 63
 69 64 ?1 29 67 750 0 69 70 64 .04 .0023 -.0085 18 69 748 0 71 66 72 67 ?1 29 70
 747 0 72 73 67 .04 0 -.0085 18 72 745 0 74 69 75 70 ?1 29 73 744 0 75 76 70 .04
 0 -.0115 18 75 742 0 77 72 78 73 ?1 29 76 294 0 79 80 73 0 0 0 18 79 253 0 81 8
2 83 76 ?1 29 80 295 0 83 84 76 0 0 -.02 18 83 254 0 85 79 86 80 ?1 29 84 296 0
 86 87 80 .01 0 -.02 18 86 255 0 88 83 89 84 ?1 29 87 297 0 89 90 84 .01 0 -.022
3 18 89 256 0 91 86 92 87 ?1 29 90 298 0 92 93 87 .02 0 -.0223 18 92 257 0 94 89
 95 90 ?1 29 93 299 0 95 96 90 .02 0 -.02 18 95 258 0 97 92 98 93 ?1 29 96 300 0
 98 99 93 .04 0 -.02 18 98 259 0 100 95 101 96 ?1 29 99 301 0 101 102 96 .04 0 -
.0223 18 101 260 0 103 98 104 99 ?1 29 102 302 0 104 105 99 .05 0 -.0223 18 104
 261 0 106 101 107 102 ?1 29 105 303 0 107 108 102 .05 0 -.02 18 107 262 0 109 1
04 110 105 ?1 29 108 304 0 110 111 105 .06 0 -.02 18 110 263 0 112 107 113 108 ?
1 29 111 305 0 113 114 108 .06 0 -1102182119232618e-32 18 113 264 0 115 110 116
 111 ?1 29 114 306 0 116 117 111 .05 0 0 18 116 265 0 118 113 119 114 ?1 29 117
 307 0 119 120 114 .05 0 .0023 18 119 266 0 121 116 122 117 ?1 29 120 308 0 122
 123 117 .04 0 .0023 18 122 267 0 124 119 125 120 ?1 29 123 309 0 125 126 120 .0
4 0 0 18 125 268 0 127 122 128 123 ?1 29 126 310 0 128 129 123 .02 0 0 18 128 26
9 0 130 125 131 126 ?1 29 129 311 0 131 132 126 .02 0 .0023 18 131 270 0 133 128
 134 129 ?1 29 132 312 0 134 135 129 .01 0 .0023 18 134 271 0 136 131 137 132 ?1
 29 135 313 0 137 138 132 .01 0 -102246722744223e-33 18 137 272 0 139 134 0 135
 ?1 29 138 123 0 78 140 135 0 .0023 0 18 78 121 0 141 75 142 138 ?1 29 140 120 0
 142 143 138 0 .0023 -.02 18 142 118 0 144 78 145 140 ?1 29 143 117 0 145 146 14
0 .01 .0023 -.02 18 145 115 0 147 142 148 143 ?1 29 146 114 0 148 149 143 .01 .0
023 -.0223 18 148 112 0 150 145 151 146 ?1 29 149 111 0 151 152 146 .02 .0023 -.
0223 18 151 109 0 153 148 154 149 ?1 29 152 108 0 154 155 149 .02 .0023 -.02 18
 154 106 0 156 151 157 152 ?1 29 155 105 0 157 158 152 .04 .0023 -.02 18 157 103
 0 159 154 160 155 ?1 29 158 102 0 160 161 155 .04 .0023 -.0223 18 160 100 0 162
 157 163 158 ?1 29 161 99 0 163 164 158 .05 .0023 -.0223 18 163 97 0 165 160 166
 161 ?1 29 164 96 0 166 167 161 .05 .0023 -.02 18 166 94 0 168 163 169 164 ?1 29
 167 93 0 169 170 164 .06 .0023 -.02 18 169 91 0 171 166 172 167 ?1 29 170 90 0
 172 173 167 .06 .0023 -1102182119232618e-32 18 172 88 0 174 169 175 170 ?1 29 1
73 87 0 175 176 170 .05 .0023 0 18 175 85 0 177 172 178 173 ?1 29 176 84 0 178 1
79 173 .05 .0023 .0023 18 178 82 0 180 175 181 176 ?1 29 179 81 0 181 182 176 .0
4 .0023 .0023 18 181 79 0 183 178 184 179 ?1 29 182 78 0 184 185 179 .04 .0023 0
 18 184 76 0 186 181 187 182 ?1 29 185 75 0 187 188 182 .02 .0023 0 18 187 73 0
 189 184 190 185 ?1 29 188 72 0 190 191 185 .02 .0023 .0023 18 190 70 0 192 187
 193 188 ?1 29 191 69 0 193 194 188 .01 .0023 .0023 18 193 67 0 195 190 82 191 ?
1 29 194 66 0 82 0 191 .01 .0023 -102246722744223e-33 18 82 64 0 196 193 79 194
 ?1 17 196 0 197 198 199 82 195 200 0 201 -15 255 197 370 0 136 202 0 17 198 0 1
97 136 196 137 203 204 0 205 +17 199 0 197 196 136 193 206 207 0 208 -17 195 0 2
09 192 201 193 196 200 0 199 +16 200 7 0 ?195 210 211 212 0 0 1 17 201 0 209 195
 141 82 213 211 0 203 +15 209 3 0 201 214 0 17 141 0 209 201 144 78 215 216 0 21
7 +17 213 0 218 219 203 78 201 211 0 0 -16 211 4 0 ?201 200 220 221 0 0 1 17 203
 0 218 213 205 82 198 204 0 0 -15 218 372 0 205 15 0 17 205 0 218 203 219 137 22
2 223 0 0 +16 204 333 0 ?198 224 207 225 0 0 1 16 224 809 0 ?226 227 204 228 0 0
 1 16 207 332 0 ?206 204 229 230 0 0 1 30 255 225 413 0 204 230 228 0 +.01 .0023
 -102246722744223e-33 0 -1 0 30 230 412 0 207 231 225 0 +.01 .0023 .0023 0 -1 0
 30 228 562 0 224 225 232 0 +.02 0 0 0 0 -1 30 232 566 0 227 228 233 0 +0 0 -.00
75 -1 0 0 16 227 765 0 ?234 235 224 232 0 0 1 30 233 570 0 235 232 236 0 +.04 0
 0 0 0 1 16 235 743 0 ?237 238 227 233 0 0 1 30 236 573 0 238 233 239 0 +0 0 -.0
125 1 0 0 16 238 787 0 ?240 241 235 236 0 0 1 30 239 756 0 241 236 242 0 -.04 0
 -.0115 0 1 0 16 241 754 0 ?77 243 238 239 0 0 1 30 242 761 0 243 239 244 0 +.04
 .0023 -.0085 0 1 0 16 243 759 0 ?245 246 241 242 0 0 1 30 244 778 0 246 242 247
 0 +.021 .0023 -.0075 0 1 0 16 246 776 0 ?248 249 243 244 0 0 1 30 247 783 0 249
 244 250 0 -.039 0 -.0075 0 1 0 16 249 781 0 ?65 251 246 247 0 0 1 30 250 800 0
 251 247 252 0 -.021 0 -.0125 0 1 0 16 251 798 0 ?54 253 249 250 0 0 1 30 252 80
5 0 253 250 254 0 +.039 .0023 -.0125 0 1 0 16 253 803 0 ?255 256 251 252 0 0 1 3
0 254 822 0 256 252 257 0 +.02 .0023 -.0115 0 1 0 16 256 820 0 ?38 258 253 254 0
 0 1 30 257 827 0 258 254 259 0 -.02 0 -.0085 0 1 0 16 258 825 0 ?43 260 256 257
 0 0 1 31 259 870 0 260 257 261 262 +.039 .0023 -.0085 0 -1 0 0 0 -1 .001 16 260
 830 0 ?57 263 258 259 0 0 1 31 261 871 0 263 259 264 0 -.039 0 -.0085 0 -1 0 0
 0 -1 .001 141 255 262 265 262 262 259 133 265 1054 0 1 266 267 0 +259 .04 .0023
 -.0085 .039 .0023 -.0075 1.570796326794895 3.141592653589795 133 266 1053 0 1 2
68 265 0 +269 .04 .0023 -.0085 .04 .0023 -.0115 -.004 -.001 133 267 1055 0 1 265
 270 0 +271 .021 .0023 -.0075 .039 .0023 -.0075 .001 .019 133 270 1056 0 1 267 2
72 0 +273 .021 .0023 -.0075 .02 .0023 -.0085 3.141592653589795 4.71238898038469
 30 271 698 0 274 275 269 276 +.02 .0023 -.0075 1 0 0 16 274 771 0 ?277 278 279
 271 0 0 1 30 275 699 0 279 280 271 281 +.02 .0023 -.0125 0 0 1 30 269 697 0 278
 271 221 282 +.04 .0023 -.0125 0 0 -1 141 276 267 276 276 271 16 278 749 0 ?283
 223 274 269 0 0 1 30 221 5 0 211 269 212 284 +0 .0023 0 1 0 -102246722744223e-3
1 141 282 266 282 282 269 30 212 8 0 200 221 285 286 +.01 .0023 -102246722744223
e-33 0 0 1 141 284 272 284 284 221 133 272 1078 0 1 270 287 0 +221 0 .0023 0 .01
 .0023 -102246722744223e-33 0 .01 133 287 1079 0 1 272 288 0 +212 .01 .0023 -102
246722744223e-33 .01 .0023 .0023 0 .0023 133 288 1080 0 1 287 289 0 +285 .01 .00
23 .0023 .02 .0023 .0023 0 .01 133 289 1081 0 1 288 290 0 +291 .02 .0023 .0023 .
02 .0023 0 0 .0023 30 285 11 0 210 212 291 292 +.01 .0023 .0023 1 0 0 16 210 10
 0 ?192 293 200 285 0 0 1 30 291 14 0 293 285 294 295 +.02 .0023 .0023 0 0 -1 14
1 292 288 292 292 285 16 293 13 0 ?189 296 210 291 0 0 1 30 294 17 0 296 291 297
 298 +.02 .0023 0 1 0 0 141 295 289 295 295 291 16 296 16 0 ?186 299 293 294 0 0
 1 30 297 20 0 299 294 300 301 +.04 .0023 0 0 0 1 141 298 290 298 298 294 133 29
0 1082 0 1 289 302 0 +294 .02 .0023 0 .04 .0023 0 0 .02 133 302 1083 0 1 290 303
 0 +297 .04 .0023 0 .04 .0023 .0023 0 .0023 133 303 1084 0 1 302 304 0 +300 .04
 .0023 .0023 .05 .0023 .0023 0 .01 133 304 1085 0 1 303 305 0 +306 .05 .0023 .00
23 .05 .0023 0 0 .0023 30 300 23 0 307 297 306 308 +.04 .0023 .0023 1 0 0 16 307
 22 0 ?180 309 299 300 0 0 1 30 306 26 0 309 300 310 311 +.05 .0023 .0023 0 0 -1
 141 308 303 308 308 300 16 309 25 0 ?177 312 307 306 0 0 1 30 310 29 0 312 306
 313 314 +.05 .0023 0 1 0 -1102182119232618e-30 141 311 304 311 311 306 16 312 2
8 0 ?174 315 309 310 0 0 1 30 313 32 0 315 310 316 317 +.06 .0023 -.02 -34694469
51953615e-31 0 -1 141 314 305 314 314 310 133 305 1086 0 1 304 318 0 +310 .05 .0
023 0 .06 .0023 -1102182119232618e-32 0 .01 133 318 1087 0 1 305 319 0 +313 .06
 .0023 -1040834085586084e-32 .06 .0023 -.02 -.02 0 133 319 1088 0 1 318 320 0 +3
16 .06 .0023 -.02 .05 .0023 -.02 -.01 0 133 320 1089 0 1 319 321 0 +322 .05 .002
3 -.02 .05 .0023 -.0223 -.0023 0 30 316 35 0 323 313 322 324 +.05 .0023 -.02 -1
 0 1387778780781446e-30 16 323 34 0 ?168 325 315 316 0 0 1 30 322 38 0 325 316 3
26 327 +.05 .0023 -.0223 0 0 -1 141 324 319 324 324 316 16 325 37 0 ?165 328 323
 322 0 0 1 30 326 41 0 328 322 329 330 +.04 .0023 -.0223 -1 0 0 141 327 320 327
 327 322 16 328 40 0 ?162 331 325 326 0 0 1 30 329 44 0 331 326 332 333 +.04 .00
23 -.02 0 0 1 141 330 321 330 330 326 133 321 1090 0 1 320 334 0 +326 .05 .0023
 -.0223 .04 .0023 -.0223 -.01 0 133 334 1091 0 1 321 335 0 +329 .04 .0023 -.0223
 .04 .0023 -.02 -.0023 0 133 335 1092 0 1 334 336 0 +332 .04 .0023 -.02 .02 .002
3 -.02 -.02 0 133 336 1093 0 1 335 337 0 +338 .02 .0023 -.02 .02 .0023 -.0223 -.
0023 0 30 332 47 0 339 329 338 340 +.02 .0023 -.02 -1 0 1734723475976805e-31 16
 339 46 0 ?156 341 331 332 0 0 1 30 338 50 0 341 332 342 343 +.02 .0023 -.0223 0
 0 -1 141 340 335 340 340 332 16 341 49 0 ?153 344 339 338 0 0 1 30 342 53 0 344
 338 345 346 +.01 .0023 -.0223 -1 0 0 141 343 336 343 343 338 16 344 52 0 ?150 3
47 341 342 0 0 1 30 345 56 0 347 342 348 349 +.01 .0023 -.02 0 0 1 141 346 337 3
46 346 342 133 337 1094 0 1 336 350 0 +342 .02 .0023 -.0223 .01 .0023 -.0223 -.0
1 0 133 350 1095 0 1 337 13 0 +345 .01 .0023 -.0223 .01 .0023 -.02 -.0023 0 133
 13 1096 0 1 350 3 0 +348 .01 .0023 -.02 0 .0023 -.02 -.01 0 30 348 59 0 351 345
 14 352 +0 .0023 -.02 -1 0 0 16 351 58 0 ?144 216 347 348 0 0 1 30 14 62 0 216 3
48 353 354 +0 .0023 0 0 0 1 141 352 13 352 352 348 16 216 61 0 ?141 355 351 14 0
 0 1 30 353 293 0 223 14 356 0 +0 0 0 1 0 -102246722744223e-31 141 354 3 354 354
 14 16 223 249 0 ?205 357 278 353 0 0 1 30 356 292 0 357 353 358 0 +.01 0 -10224
6722744223e-33 0 0 1 16 357 245 0 ?136 359 223 356 0 0 1 30 358 291 0 359 356 36
0 0 +.01 0 .0023 1 0 0 16 359 241 0 ?133 361 357 358 0 0 1 30 360 290 0 361 358
 362 0 +.02 0 .0023 0 0 -1 16 361 237 0 ?130 363 359 360 0 0 1 30 362 289 0 363
 360 364 0 +.02 0 0 1 0 0 16 363 233 0 ?127 365 361 362 0 0 1 30 364 288 0 365 3
62 366 0 +.04 0 0 0 0 1 16 365 229 0 ?124 367 363 364 0 0 1 30 366 287 0 367 364
 368 0 +.04 0 .0023 1 0 0 16 367 225 0 ?121 369 365 366 0 0 1 30 368 286 0 369 3
66 370 0 +.05 0 .0023 0 0 -1 16 369 221 0 ?118 371 367 368 0 0 1 30 370 285 0 37
1 368 372 0 +.05 0 0 1 0 -1102182119232618e-30 16 371 217 0 ?115 373 369 370 0 0
 1 30 372 284 0 373 370 374 0 +.06 0 -.02 -3469446951953615e-31 0 -1 16 373 213
 0 ?112 375 371 372 0 0 1 30 374 283 0 375 372 376 0 +.05 0 -.02 -1 0 1387778780
781446e-30 16 375 209 0 ?109 377 373 374 0 0 1 30 376 282 0 377 374 378 0 +.05 0
 -.0223 0 0 -1 16 377 205 0 ?106 379 375 376 0 0 1 30 378 281 0 379 376 380 0 +.
04 0 -.0223 -1 0 0 16 379 201 0 ?103 381 377 378 0 0 1 30 380 280 0 381 378 382
 0 +.04 0 -.02 0 0 1 16 381 197 0 ?100 383 379 380 0 0 1 30 382 279 0 383 380 38
4 0 +.02 0 -.02 -1 0 1734723475976805e-31 16 383 193 0 ?97 385 381 382 0 0 1 30
 384 278 0 385 382 386 0 +.02 0 -.0223 0 0 -1 16 385 189 0 ?94 387 383 384 0 0 1
 30 386 277 0 387 384 388 0 +.01 0 -.0223 -1 0 0 16 387 185 0 ?91 389 385 386 0
 0 1 30 388 276 0 389 386 390 0 +.01 0 -.02 0 0 1 16 389 181 0 ?88 391 387 388 0
 0 1 30 390 275 0 391 388 392 0 +0 0 -.02 -1 0 0 16 391 177 0 ?85 220 389 390 0
 0 1 30 392 274 0 220 390 393 0 +0 0 0 0 0 1 16 220 173 0 ?81 211 391 392 0 0 1
 30 393 394 0 355 392 394 0 +0 .0023 0 0 -1 0 16 355 314 0 ?219 395 216 393 0 0
 1 30 394 395 0 395 393 396 0 +0 .0023 -.02 0 -1 0 16 395 315 0 ?397 398 355 394
 0 0 1 30 396 396 0 398 394 399 0 +.01 .0023 -.02 0 -1 0 16 398 316 0 ?400 401 3
95 396 0 0 1 30 399 397 0 401 396 402 0 +.01 .0023 -.0223 0 -1 0 16 401 317 0 ?4
03 404 398 399 0 0 1 30 402 398 0 404 399 405 0 +.02 .0023 -.0223 0 -1 0 16 404
 318 0 ?406 407 401 402 0 0 1 30 405 399 0 407 402 408 0 +.02 .0023 -.02 0 -1 0
 16 407 319 0 ?409 410 404 405 0 0 1 30 408 400 0 410 405 411 0 +.04 .0023 -.02
 0 -1 0 16 410 320 0 ?412 413 407 408 0 0 1 30 411 401 0 413 408 414 0 +.04 .002
3 -.0223 0 -1 0 16 413 321 0 ?415 416 410 411 0 0 1 30 414 402 0 416 411 417 0 +
.05 .0023 -.0223 0 -1 0 16 416 322 0 ?418 419 413 414 0 0 1 30 417 403 0 419 414
 420 0 +.05 .0023 -.02 0 -1 0 16 419 323 0 ?421 422 416 417 0 0 1 30 420 404 0 4
22 417 423 0 +.06 .0023 -.02 0 -1 0 16 422 324 0 ?424 425 419 420 0 0 1 30 423 4
05 0 425 420 426 0 +.06 .0023 -1102182119232618e-32 0 -1 0 16 425 325 0 ?427 428
 422 423 0 0 1 30 426 406 0 428 423 429 0 +.05 .0023 0 0 -1 0 16 428 326 0 ?430
 431 425 426 0 0 1 30 429 407 0 431 426 432 0 +.05 .0023 .0023 0 -1 0 16 431 327
 0 ?433 434 428 429 0 0 1 30 432 408 0 434 429 435 0 +.04 .0023 .0023 0 -1 0 16
 434 328 0 ?436 437 431 432 0 0 1 30 435 409 0 437 432 438 0 +.04 .0023 0 0 -1 0
 16 437 329 0 ?439 440 434 435 0 0 1 30 438 410 0 440 435 231 0 +.02 .0023 0 0 -
1 0 16 440 330 0 ?441 229 437 438 0 0 1 30 231 411 0 229 438 230 0 +.02 .0023 .0
023 0 -1 0 16 229 331 0 ?442 207 440 231 0 0 1 17 442 0 443 130 444 131 445 229
 0 446 +15 443 366 0 130 447 0 17 130 0 443 448 442 128 446 361 0 441 +17 444 0
 443 442 448 190 189 293 0 0 -17 445 0 449 208 133 190 442 229 0 444 -17 446 0 4
50 451 452 131 130 361 0 0 -15 450 172 0 222 453 0 17 451 0 450 139 446 134 133
 359 0 0 -17 452 0 450 446 454 128 127 363 0 0 -17 454 0 450 452 455 125 124 365
 0 0 -17 127 0 456 457 441 125 452 363 0 439 +15 456 364 0 127 458 0 17 457 0 45
6 459 127 184 439 437 0 460 -17 441 0 456 127 459 128 448 440 0 452 +17 439 0 46
1 124 460 125 457 437 0 454 +15 461 362 0 124 462 0 17 124 0 461 463 439 122 454
 365 0 436 +17 460 0 461 439 463 184 183 299 0 0 -17 463 0 461 460 124 181 436 4
34 0 464 -17 183 0 209 180 186 181 460 299 0 463 +16 299 19 0 ?183 307 296 297 0
 0 1 17 180 0 209 177 183 178 464 307 0 465 +17 186 0 209 183 189 184 459 296 0
 457 +17 189 0 209 186 192 187 444 293 0 448 +17 459 0 456 441 457 187 186 296 0
 0 -17 192 0 209 189 195 190 208 210 0 445 +17 448 0 443 444 130 187 441 440 0 4
59 -17 208 0 449 206 445 193 192 210 0 0 -15 449 368 0 133 466 0 17 206 0 449 13
3 208 134 199 207 0 451 +17 133 0 449 445 206 131 451 359 0 442 +14 255 466 369
 467 ?447 202 449 5 468 -0 0 447 202 21 81 255 1 467 1190 469 466 470 0 0 471 47
2 14 447 367 471 ?458 466 443 5 473 -0 0 458 466 21 14 202 371 474 ?466 15 197 5
 475 -0 0 466 15 21 50 255 468 391 0 466 473 475 0 +.01 .0023 .0023 0 0 -1 -1 0
 0 13 21 125 0 0 0 0 0 0 9 15 14 15 373 476 ?202 0 218 5 477 -0 0 202 0 21 81 1
 476 1193 469 15 478 0 474 479 480 50 477 393 0 15 475 481 0 +0 .0023 0 -1022467
22744223e-31 0 -1 -1 0 102246722744223e-31 50 475 392 0 202 468 477 0 +.01 .0023
 -102246722744223e-33 1 0 0 0 0 -1 51 481 905 0 482 477 483 0 +.039 -.0077 -.008
5 0 -1 0 .001 0 0 -1 14 482 893 479 ?484 485 486 5 481 -0 0 484 485 21 51 483 92
6 0 484 481 18 0 +.039 -.0077 -.0115 0 -1 0 .001 0 0 -1 14 484 914 487 ?488 482
 489 5 483 -0 0 488 482 21 51 18 947 0 488 483 6 0 +.021 -.0077 -.0085 0 -1 0 .0
01 0 0 -1 14 488 935 490 ?17 484 491 5 18 -0 0 17 484 21 81 1 490 1196 469 488 4
92 0 487 493 494 14 17 956 493 ?0 488 34 5 6 -0 0 0 488 21 15 491 936 0 495 488
 0 17 495 0 491 496 497 39 62 498 0 0 -17 496 0 491 29 495 11 43 258 0 0 -17 497
 0 491 495 29 60 248 246 0 0 -17 62 0 499 500 501 60 495 498 0 234 +16 498 855 0
 ?62 23 30 502 0 0 1 16 23 860 0 ?37 10 498 19 0 0 1 16 30 850 0 ?24 498 503 273
 0 0 1 31 502 875 0 498 273 19 0 -.021 0 -.0085 0 -1 0 0 0 -1 .001 31 273 874 0
 30 504 502 505 +.021 .0023 -.0085 0 -1 0 0 0 -1 .001 31 19 876 0 23 502 7 506 +
.021 .0023 -.0115 0 -1 0 0 0 -1 .001 141 506 507 506 506 19 133 507 1050 0 1 508
 509 0 +19 .02 .0023 -.0115 .021 .0023 -.0125 4.71238898038469 6.28318530717959
 133 508 1049 0 1 0 507 0 +275 .02 .0023 -.0115 .02 .0023 -.0085 .001 .004 133 5
09 1051 0 1 507 268 0 +280 .039 .0023 -.0125 .021 .0023 -.0125 -.019 -.001 133 2
68 1052 0 1 509 266 0 +264 .039 .0023 -.0125 .04 .0023 -.0115 0 1.57079632679489
5 30 280 700 0 510 0 275 511 +.02 .0023 -.0125 -1 0 0 16 510 793 0 ?512 279 0 28
0 0 0 1 141 511 509 511 511 280 17 512 0 513 54 255 44 514 510 0 36 +16 279 815
 0 ?31 274 510 275 0 0 1 17 31 0 515 43 38 11 27 279 0 496 +15 515 678 0 31 485
 0 17 43 0 515 226 31 39 496 258 0 501 +17 38 0 515 31 226 25 35 256 0 27 +17 27
 0 26 37 24 25 31 279 0 0 -15 26 578 0 27 214 209 17 37 0 26 514 27 44 32 23 0 5
12 +17 514 0 26 68 37 46 512 510 0 0 -17 68 0 26 516 514 66 48 517 0 283 +17 516
 0 26 57 68 69 283 278 0 0 -17 48 0 489 518 519 46 68 517 0 255 -16 517 840 0 ?6
8 503 263 264 0 0 1 17 283 0 520 77 245 66 516 278 0 519 +15 520 670 0 237 521 0
 17 77 0 520 237 283 75 519 241 0 522 +17 245 0 520 283 237 69 523 243 0 516 +17
 519 0 489 48 524 66 77 241 0 0 -15 489 915 0 524 484 0 17 524 0 489 519 518 75
 51 503 0 0 -17 518 0 489 524 48 49 255 253 0 0 -17 51 0 499 525 522 49 524 503
 0 240 +16 503 845 0 ?51 30 517 504 0 0 1 31 504 873 0 503 264 273 0 -.039 0 -.0
115 0 -1 0 0 0 -1 .001 31 264 872 0 517 261 504 526 +.039 .0023 -.0115 0 -1 0 0
 0 -1 .001 141 526 268 526 526 264 15 499 572 0 525 453 450 17 525 0 499 22 51 5
2 240 238 0 527 -17 522 0 499 51 74 75 237 235 0 524 -17 240 0 513 255 54 49 525
 238 0 518 +15 513 666 0 240 528 0 17 255 0 513 512 240 46 518 253 0 514 +17 54
 0 513 240 512 52 36 251 0 525 +17 36 0 34 32 527 44 54 251 0 0 -15 34 957 0 527
 17 0 17 527 0 34 36 35 52 22 10 0 0 -17 35 0 34 527 32 33 38 256 0 0 -17 22 0 4
99 501 525 33 527 10 0 226 +17 501 0 499 62 22 39 226 224 0 495 -17 226 0 515 38
 43 33 501 224 0 35 +14 528 663 529 ?521 453 513 5 530 -0 0 521 453 21 81 1 529
 1198 469 528 531 0 493 532 533 14 521 667 532 ?534 528 520 5 535 -0 0 534 528 2
1 14 453 171 536 ?528 214 499 5 537 +0 0 528 214 21 50 530 687 0 528 538 539 0 +
.02 -.0077 -.0125 0 0 -1 -1 0 0 50 538 688 0 485 540 530 0 +.02 -.0077 -.0125 -1
 0 0 0 0 1 50 539 2 0 214 530 537 0 +0 .0023 0 0 -1 0 0 0 -1 14 214 1 541 ?453 5
42 26 5 539 -0 0 453 542 21 50 537 273 0 453 539 543 0 +0 0 0 0 -1 0 0 0 -1 50 5
43 374 0 542 537 544 0 +0 .0023 0 1 0 0 0 0 -1 14 542 335 545 ?214 546 547 5 543
 -0 0 214 546 21 50 544 375 0 546 543 548 0 +0 .0023 -.02 0 0 1 1 0 0 14 546 337
 549 ?542 550 551 5 544 -0 0 542 550 21 50 548 376 0 550 544 552 0 +.01 .0023 -.
02 1 0 0 0 0 -1 14 550 339 553 ?546 554 555 5 548 -0 0 546 554 21 50 552 377 0 5
54 548 556 0 +.01 .0023 -.0223 0 0 1 1 0 0 14 554 341 557 ?550 558 559 5 552 -0
 0 550 558 21 50 556 378 0 558 552 560 0 +.02 .0023 -.0223 -1 0 0 0 0 1 14 558 3
43 561 ?554 562 563 5 556 -0 0 554 562 21 50 560 379 0 562 556 564 0 +.02 .0023
 -.02 1734723475976805e-31 0 1 1 0 -1734723475976805e-31 14 562 345 565 ?558 566
 567 5 560 -0 0 558 566 21 50 564 380 0 566 560 568 0 +.04 .0023 -.02 1 0 0 0 0
 -1 14 566 347 569 ?562 570 571 5 564 -0 0 562 570 21 50 568 381 0 570 564 572 0
 +.04 .0023 -.0223 0 0 1 1 0 0 14 570 349 573 ?566 574 575 5 568 -0 0 566 574 21
 50 572 382 0 574 568 576 0 +.05 .0023 -.0223 -1 0 0 0 0 1 14 574 351 577 ?570 5
78 579 5 572 -0 0 570 578 21 50 576 383 0 578 572 580 0 +.05 .0023 -.02 13877787
80781448e-30 0 1 1 0 -1387778780781448e-30 14 578 353 581 ?574 582 583 5 576 -0
 0 574 582 21 50 580 384 0 582 576 584 0 +.06 .0023 -.02 -1 0 3469446951953615e-
31 3469446951953615e-31 0 1 14 582 355 585 ?578 586 587 5 580 -0 0 578 586 21 50
 584 385 0 586 580 588 0 +.05 .0023 0 -1102182119232618e-30 0 -1 -1 0 1102182119
232618e-30 14 586 357 589 ?582 590 591 5 584 -0 0 582 590 21 50 588 386 0 590 58
4 592 0 +.05 .0023 .0023 -1 0 0 0 0 1 14 590 359 593 ?586 594 595 5 588 -0 0 586
 594 21 50 592 387 0 594 588 596 0 +.04 .0023 .0023 0 0 -1 -1 0 0 14 594 361 597
 ?590 462 598 5 592 -0 0 590 462 21 50 596 388 0 462 592 599 0 +.04 .0023 0 1 0
 0 0 0 -1 14 462 363 600 ?594 458 461 5 596 -0 0 594 458 21 50 599 389 0 458 596
 473 0 +.02 .0023 0 0 0 -1 -1 0 0 14 458 365 601 ?462 447 456 5 599 -0 0 462 447
 21 50 473 390 0 447 599 468 0 +.02 .0023 .0023 -1 0 0 0 0 1 81 1 601 1217 469 4
58 602 0 600 603 604 80 255 1 469 605 606 9000 1 1 1 1 1 1 1 1 0 FFFFTFTFFFFFFF1
 81 1 602 1102 607 458 0 601 608 609 610 81 1 600 1216 469 462 609 0 597 601 611
 81 1 603 1218 469 534 612 0 601 613 614 82 255 1 604 -312999823 14 534 671 603
 ?485 521 615 5 540 -0 0 485 521 21 81 1 612 1122 607 534 0 603 616 617 618 81 1
 613 1219 469 485 617 0 603 0 619 82 1 614 1188036727 14 485 675 613 ?482 534 51
5 5 538 -0 0 482 534 21 81 1 617 1123 607 485 0 613 612 620 621 82 1 619 1188167
799 80 1 607 0 622 8001 0 0 0 0 3 5 0 0 0 FFFFTFTFFFFFFF2 81 1 620 1124 607 482
 0 479 617 623 624 83 255 3 621 .792156862745098 .819607843137255 .9333333333333
33 81 1 479 1194 469 482 620 0 476 487 625 81 1 623 1125 607 484 0 487 620 492 6
26 83 3 624 .792156862745098 .819607843137255 .933333333333333 81 1 487 1195 469
 484 623 0 479 490 627 81 1 492 1126 607 488 0 490 623 628 629 83 3 626 .7921568
62745098 .819607843137255 .933333333333333 81 1 628 1127 607 17 0 493 492 0 630
 83 3 629 .792156862745098 .819607843137255 .933333333333333 81 1 493 1197 469 1
7 628 0 490 529 631 83 3 630 .792156862745098 .819607843137255 .933333333333333
 82 1 631 727056503 82 1 627 723124343 82 1 625 721158263 79 255 15 622 SDL/TYSA
_COLOUR81 1 616 1121 607 521 0 532 531 612 632 83 3 618 .792156862745098 .819607
843137255 .933333333333333 81 1 532 1199 469 521 616 0 529 536 633 81 1 531 1120
 607 528 0 529 634 616 635 83 3 632 .792156862745098 .819607843137255 .933333333
333333 81 1 634 1119 607 453 0 536 636 531 637 83 3 635 .792156862745098 .819607
843137255 .933333333333333 81 1 536 1200 469 453 634 0 532 541 638 81 1 636 1118
 607 214 0 541 639 634 640 83 3 637 .792156862745098 .819607843137255 .933333333
333333 81 1 541 1201 469 214 636 0 536 545 641 81 1 639 1117 607 542 0 545 642 6
36 643 83 3 640 .792156862745098 .819607843137255 .933333333333333 81 1 545 1202
 469 542 639 0 541 549 644 81 1 642 1116 607 546 0 549 645 639 646 83 3 643 .792
156862745098 .819607843137255 .933333333333333 81 1 549 1203 469 546 642 0 545 5
53 647 81 1 645 1115 607 550 0 553 648 642 649 83 3 646 .792156862745098 .819607
843137255 .933333333333333 81 1 553 1204 469 550 645 0 549 557 650 81 1 648 1114
 607 554 0 557 651 645 652 83 3 649 .792156862745098 .819607843137255 .933333333
333333 81 1 557 1205 469 554 648 0 553 561 653 81 1 651 1113 607 558 0 561 654 6
48 655 83 3 652 .792156862745098 .819607843137255 .933333333333333 81 1 561 1206
 469 558 651 0 557 565 656 81 1 654 1112 607 562 0 565 657 651 658 83 3 655 .792
156862745098 .819607843137255 .933333333333333 81 1 565 1207 469 562 654 0 561 5
69 659 81 1 657 1111 607 566 0 569 660 654 661 83 3 658 .792156862745098 .819607
843137255 .933333333333333 81 1 569 1208 469 566 657 0 565 573 662 81 1 660 1110
 607 570 0 573 663 657 664 83 3 661 .792156862745098 .819607843137255 .933333333
333333 81 1 573 1209 469 570 660 0 569 577 665 81 1 663 1109 607 574 0 577 666 6
60 667 83 3 664 .792156862745098 .819607843137255 .933333333333333 81 1 577 1210
 469 574 663 0 573 581 668 81 1 666 1108 607 578 0 581 669 663 670 83 3 667 .792
156862745098 .819607843137255 .933333333333333 81 1 581 1211 469 578 666 0 577 5
85 671 81 1 669 1107 607 582 0 585 672 666 673 83 3 670 .792156862745098 .819607
843137255 .933333333333333 81 1 585 1212 469 582 669 0 581 589 674 81 1 672 1106
 607 586 0 589 675 669 676 83 3 673 .792156862745098 .819607843137255 .933333333
333333 81 1 589 1213 469 586 672 0 585 593 677 81 1 675 1105 607 590 0 593 678 6
72 679 83 3 676 .792156862745098 .819607843137255 .933333333333333 81 1 593 1214
 469 590 675 0 589 597 680 81 1 678 1104 607 594 0 597 609 675 681 83 3 679 .792
156862745098 .819607843137255 .933333333333333 81 1 597 1215 469 594 678 0 593 6
00 682 81 1 609 1103 607 462 0 600 602 678 683 83 3 681 .792156862745098 .819607
843137255 .933333333333333 83 3 683 .792156862745098 .819607843137255 .933333333
333333 82 1 682 -313524111 82 1 680 -313786255 82 1 677 -314048399 82 1 674 -314
310543 82 1 671 -314572687 82 1 668 -314834831 82 1 665 -315096975 82 1 662 -315
359119 82 1 659 -315621263 82 1 656 -315883407 82 1 653 -316145551 82 1 650 -316
407695 82 1 647 -316669839 82 1 644 -316931983 82 1 641 1403977847 82 1 638 1407
582327 82 1 633 1187905655 15 615 674 0 277 534 0 50 540 689 0 534 535 538 0 +.0
2 -.0077 -.0075 0 0 1 1 0 0 50 535 690 0 521 0 540 0 +.04 -.0077 -.0125 1 0 0 0
 0 -1 17 277 0 615 65 248 55 28 274 0 684 +17 65 0 615 234 277 63 684 249 0 500
 +17 248 0 615 277 234 58 497 246 0 28 +17 28 0 26 24 57 58 277 274 0 0 -17 684
 0 486 71 685 55 65 249 0 0 -15 486 894 0 685 482 0 17 71 0 486 523 684 69 57 26
0 0 245 -17 685 0 486 684 523 63 74 263 0 0 -17 523 0 486 685 71 72 245 243 0 0
 -17 74 0 499 522 500 72 685 263 0 237 +16 263 835 0 ?74 517 260 261 0 0 1 17 50
0 0 499 74 62 63 234 227 0 685 -17 237 0 520 245 77 72 522 235 0 523 +17 234 0 6
15 248 65 60 500 227 0 497 +17 57 0 26 28 516 55 71 260 0 277 +82 1 611 -3132619
67 81 1 608 1101 607 447 0 471 470 602 686 83 3 610 .792156862745098 .8196078431
37255 .933333333333333 81 1 471 1191 469 447 608 0 467 474 687 81 1 470 1100 607
 466 0 467 688 608 689 83 3 686 .792156862745098 .819607843137255 .9333333333333
33 81 1 688 1099 607 202 0 474 478 470 690 83 3 689 .792156862745098 .8196078431
37255 .933333333333333 81 1 474 1192 469 202 688 0 471 476 691 81 1 478 1098 607
 15 0 476 0 688 692 83 3 690 .792156862745098 .819607843137255 .933333333333333
 83 3 692 .792156862745098 .819607843137255 .933333333333333 82 1 691 -312213391
 82 1 687 -312737679 79 14 606 SWEntUnchanged15 598 360 0 121 594 0 17 121 0 598
 465 436 119 455 367 0 433 +17 465 0 598 464 121 178 433 431 0 693 -17 436 0 598
 121 464 122 463 434 0 455 +17 455 0 450 454 694 122 121 367 0 0 -17 433 0 595 1
18 693 119 465 431 0 694 +15 595 358 0 118 590 0 17 118 0 595 695 433 116 694 36
9 0 430 +17 693 0 595 433 695 178 177 309 0 0 -17 694 0 450 455 696 119 118 369
 0 0 -17 696 0 450 694 697 116 115 371 0 0 -17 697 0 450 696 698 113 112 373 0 0
 -17 115 0 591 699 430 113 696 371 0 427 +15 591 356 0 115 586 0 17 699 0 591 70
0 115 172 427 425 0 701 -17 430 0 591 115 700 116 695 428 0 696 +17 427 0 587 11
2 701 113 699 425 0 697 +15 587 354 0 112 582 0 17 112 0 587 702 427 110 697 373
 0 424 +17 701 0 587 427 702 172 171 315 0 0 -17 702 0 587 701 112 169 424 422 0
 703 -17 171 0 209 168 174 169 701 315 0 702 +16 315 31 0 ?171 323 312 313 0 0 1
 17 168 0 209 165 171 166 703 323 0 704 +17 174 0 209 171 177 172 700 312 0 699
 +17 177 0 209 174 180 175 693 309 0 695 +17 700 0 591 430 699 175 174 312 0 0 -
17 695 0 595 693 118 175 430 428 0 700 -17 165 0 209 162 168 163 705 325 0 706 +
17 703 0 583 424 704 169 168 323 0 0 -17 704 0 583 703 109 166 421 419 0 705 -15
 583 352 0 109 578 0 17 109 0 583 704 424 107 698 375 0 421 +17 421 0 579 106 70
5 107 704 419 0 707 +17 705 0 579 421 706 166 165 325 0 0 -15 579 350 0 106 574
 0 17 706 0 579 705 106 163 418 416 0 708 -17 106 0 579 706 421 104 707 377 0 41
8 +17 418 0 575 103 708 104 706 416 0 709 +17 708 0 575 418 710 163 162 328 0 0
 -15 575 348 0 103 570 0 17 710 0 575 708 103 160 415 413 0 711 -17 162 0 209 15
9 165 160 708 328 0 710 +17 159 0 209 156 162 157 711 331 0 712 +17 156 0 209 15
3 159 154 713 339 0 714 +17 711 0 571 415 712 160 159 331 0 0 -16 331 43 0 ?159
 339 328 329 0 0 1 17 712 0 571 711 100 157 412 410 0 713 -15 571 346 0 100 566
 0 17 100 0 571 712 415 98 715 381 0 412 +17 412 0 567 97 713 98 712 410 0 716 +
17 713 0 567 412 714 157 156 339 0 0 -15 567 344 0 97 562 0 17 714 0 567 713 97
 154 409 407 0 717 -17 97 0 567 714 412 95 716 383 0 409 +17 409 0 563 94 717 95
 714 407 0 718 +17 717 0 563 409 719 154 153 341 0 0 -15 563 342 0 94 558 0 17 7
19 0 563 717 94 151 406 404 0 720 -17 153 0 209 150 156 151 717 341 0 719 +17 15
0 0 209 147 153 148 720 344 0 721 +17 147 0 209 144 150 145 722 347 0 723 +17 72
0 0 559 406 721 151 150 344 0 0 -17 721 0 559 720 91 148 403 401 0 722 -15 559 3
40 0 91 554 0 17 91 0 559 721 406 89 724 387 0 403 +17 403 0 555 88 722 89 721 4
01 0 725 +17 722 0 555 403 723 148 147 347 0 0 -15 555 338 0 88 550 0 17 723 0 5
55 722 88 145 400 398 0 726 -16 347 55 0 ?147 351 344 345 0 0 1 17 88 0 555 723
 403 86 725 389 0 400 +17 400 0 551 85 726 86 723 398 0 727 +17 726 0 551 400 72
8 145 144 351 0 0 -15 551 336 0 85 546 0 17 728 0 551 726 85 142 397 395 0 215 -
17 144 0 209 141 147 142 726 351 0 728 +17 85 0 551 728 400 83 727 391 0 397 +17
 397 0 547 81 215 83 728 395 0 729 +17 215 0 547 397 217 142 141 216 0 0 -15 547
 334 0 81 542 0 17 217 0 547 215 81 78 219 355 0 213 -17 81 0 547 217 397 79 729
 220 0 219 +17 219 0 218 205 213 79 217 355 0 222 +17 222 0 450 729 139 79 205 2
23 0 0 -17 729 0 450 727 222 83 81 220 0 0 -17 139 0 450 222 451 137 136 357 0 1
98 -17 136 0 197 199 198 134 139 357 0 206 +17 727 0 450 725 729 86 85 391 0 0 -
17 725 0 450 724 727 89 88 389 0 0 -17 724 0 450 718 725 92 91 387 0 0 -17 718 0
 450 716 724 95 94 385 0 0 -17 716 0 450 715 718 98 97 383 0 0 -17 94 0 563 719
 409 92 718 385 0 406 +17 406 0 559 91 720 92 719 404 0 724 +17 715 0 450 709 71
6 101 100 381 0 0 -17 709 0 450 707 715 104 103 379 0 0 -17 707 0 450 698 709 10
7 106 377 0 0 -17 103 0 575 710 418 101 709 379 0 415 +17 415 0 571 100 711 101
 710 413 0 715 +17 698 0 450 697 707 110 109 375 0 0 -17 424 0 583 109 703 110 7
02 422 0 698 +17 464 0 598 436 465 181 180 307 0 0 -82 1 533 1188298871 141 505
 270 505 505 273 17 29 0 491 497 496 58 24 30 0 248 -82 1 494 725090423 82 1 480
 -311951247 82 1 472 -312475535 141 349 350 349 349 345 141 333 334 333 333 329
 141 317 318 317 317 313 141 301 302 301 301 297 141 286 287 286 286 212 141 281
 508 281 281 275 19 16 415 0 1 0 9 5 S0 74 4 CI16 index_map_offset0 0 1 dCCZ20 1
2 2 0 0 613 628 0 0 0 0 0 0 0 0 0 0 0 0 0 0 0 0 0 0 1 0 
