**ABCDEFGHIJKLMNOPQRSTUVWXYZabcdefghijklmnopqrstuvwxyz**************************
**PARASOLID !"#$%&'()*+,-./:;<=>?@[\]^_`{|}~0123456789**************************
**PART1;
MC=AMD64;
MC_MODEL=Intel64 Family 6 Model 94 Stepping 3, GenuineIntel;
MC_ID=unknown;
OS=Windows_NT;
OS_RELEASE=unknown;
FRU=Parasolid Version 28.0, build 204, 11- 9-2015;
APPL=SOLIDWORKS 2016-2016040;
SITE=;
USER=unknown;
FORMAT=text;
GUISE=transmit;
KEY=Top Plate V1.1 2.3mm;
FILE=Top Plate V1.1 2.3mm.x_t;
DATE=Wed Aug 02 22:28:21 2017;
**PART2;
SCH=SCH_2800204_28002;
USFLD_SIZE=0;
**PART3;
**END_OF_HEADER*****************************************************************
T51 : TRANSMIT FILE created by modeller version 280020423 SCH_2800204_28002_1300
6200 0 12 30 CCCCCCCCCCCCCDI5 owner1040 0 CCCCCCCCCA13 boundary_mesh1006 0 A16 i
ndex_map_offset0 0 1 dA9 index_map82 0 A17 node_id_index_map82 0 A20 schema_embe
dding_map82 0 A5 child12 0 A14 lowest_node_id0 0 1 dZ1 1813 0 2 0 3 0 0 1e3 1e-8
 0 4 0 1 0 1 1 5 6 7 8 9 10 11 0 0 0 0 0 0 0 70 11 CI9 list_type0 0 1 uI10 notra
nsmit0 0 1 lCCCDCCDI12 finger_index0 0 1 dI12 finger_block1012 0 CZ2 0 4 T1 0 0
 2 20 1 12 12 133 255 3 1674 0 1 13 0 0 +14 .08 .0023 -.075 0 .0023 -.075 -.08 0
 13 255 5 94 0 1 0 15 0 0 16 0 51 255 6 1501 0 17 18 0 0 +.022 -.0077 -.063 0 -1
 0 .002 0 0 -1 31 255 7 1409 0 10 19 0 0 -.022 0 -.063 0 -1 0 0 0 -1 .002 29 255
 8 1359 0 11 20 0 .022 .0023 -.065 19 8 CCCCCCCA5 owner12 0 Z9 28 0 1 16 0 21 V0
 16 255 10 1398 0 ?22 0 23 7 0 0 1 18 255 11 1357 0 24 0 25 8 ?1 17 255 24 0 26
 27 28 11 29 23 0 30 +18 25 1354 0 31 11 32 20 ?1 17 31 0 33 34 35 25 36 37 0 38
 -18 32 1351 0 39 25 40 41 ?1 29 20 1356 0 25 41 8 .058 .0023 -.065 29 41 1353 0
 32 42 20 .058 0 -.065 29 42 1350 0 40 43 41 .022 0 -.065 18 40 1348 0 44 32 45
 42 ?1 29 43 1337 0 45 46 42 .02 .0023 -.012 18 45 1335 0 47 40 48 43 ?1 29 46 1
334 0 48 49 43 .02 .0023 -.063 18 48 1332 0 29 45 50 46 ?1 29 49 1331 0 50 51 46
 .02 0 -.063 18 50 1329 0 22 48 52 49 ?1 29 51 1328 0 52 53 49 .02 0 -.012 18 52
 1326 0 54 50 55 51 ?1 29 53 1313 0 55 56 51 .058 .0023 -.01 18 55 1311 0 57 52
 58 53 ?1 29 56 1310 0 58 59 53 .022 .0023 -.01 18 58 1308 0 60 55 61 56 ?1 29 5
9 1307 0 61 62 56 .022 0 -.01 18 61 1305 0 63 58 64 59 ?1 29 62 1304 0 64 65 59
 .058 0 -.01 18 64 1302 0 66 61 67 62 ?1 29 65 1291 0 67 68 62 .06 .0023 -.063 1
8 67 1289 0 36 64 69 65 ?1 29 68 1288 0 69 70 65 .06 .0023 -.012 18 69 1286 0 71
 67 72 68 ?1 29 70 1285 0 72 73 68 .06 0 -.012 18 72 1283 0 74 69 75 70 ?1 29 73
 1282 0 75 76 70 .06 0 -.063 18 75 1280 0 77 72 78 73 ?1 29 76 396 0 78 79 73 .0
05 .0023 -.0175 18 78 394 0 80 75 81 76 ?1 29 79 380 0 81 82 76 .0773 .0023 -.04
75 18 81 378 0 83 78 84 79 ?1 29 82 364 0 84 85 79 .005 .0023 -.0475 18 84 362 0
 86 81 87 82 ?1 29 85 341 0 87 88 82 .005 0 -.0275 18 87 339 0 89 84 90 85 ?1 29
 88 321 0 90 91 85 .0773 0 -.0575 18 90 319 0 92 87 93 88 ?1 29 91 301 0 93 94 8
8 .005 0 -.0575 18 93 299 0 95 90 96 91 ?1 29 94 160 0 96 97 91 .0773 .0023 -.01
75 18 96 158 0 98 93 99 94 ?1 29 97 137 0 99 100 94 .0773 0 -.0275 18 99 135 0 1
01 96 102 97 ?1 29 100 70 0 103 104 97 0 0 -.075 18 103 61 0 105 106 107 100 ?1
 29 104 71 0 107 108 100 .08 0 -.075 18 107 62 0 109 103 110 104 ?1 29 108 72 0
 110 111 104 .08 0 0 18 110 63 0 112 107 113 108 ?1 29 111 73 0 113 114 108 0 0
 0 18 113 64 0 115 110 116 111 ?1 29 114 27 0 102 117 111 0 .0023 -.075 18 102 2
5 0 118 99 119 114 ?1 29 117 24 0 119 120 114 .08 .0023 -.075 18 119 22 0 121 10
2 122 117 ?1 29 120 21 0 122 123 117 .08 .0023 0 18 122 19 0 124 119 106 120 ?1
 29 123 18 0 106 125 120 0 .0023 0 18 106 16 0 126 122 103 123 ?1 29 125 282 0 1
16 127 123 .075 .0023 -.0275 18 116 213 0 128 113 129 125 ?1 29 127 283 0 129 13
0 125 .075 .0023 -.0175 18 129 215 0 131 116 132 127 ?1 29 130 285 0 132 133 127
 .0773 .0023 -.0275 18 132 208 0 134 129 135 130 ?1 29 133 286 0 135 136 130 .07
5 0 -.0275 18 135 210 0 137 132 138 133 ?1 29 136 287 0 138 139 133 .075 0 -.017
5 18 138 211 0 140 135 141 136 ?1 29 139 288 0 141 142 136 .0773 0 -.0175 18 141
 212 0 143 138 144 139 ?1 29 142 740 0 144 145 139 .0027 .0023 -.0275 18 144 449
 0 146 141 147 142 ?1 29 145 741 0 147 148 142 .0027 .0023 -.0175 18 147 451 0 1
49 144 150 145 ?1 29 148 743 0 150 151 145 .005 .0023 -.0275 18 150 444 0 152 14
7 153 148 ?1 29 151 744 0 153 154 148 .075 .0023 -.0575 18 153 536 0 155 150 156
 151 ?1 29 154 745 0 156 157 151 .075 .0023 -.0475 18 156 538 0 158 153 159 154
 ?1 29 157 747 0 159 160 154 .0773 .0023 -.0575 18 159 531 0 161 156 162 157 ?1
 29 160 748 0 162 163 157 .0027 .0023 -.0575 18 162 623 0 164 159 165 160 ?1 29
 163 749 0 165 166 160 .0027 .0023 -.0475 18 165 625 0 167 162 168 163 ?1 29 166
 751 0 168 169 163 .005 .0023 -.0575 18 168 618 0 170 165 171 166 ?1 29 169 752
 0 171 172 166 .0027 0 -.0575 18 171 620 0 173 168 174 169 ?1 29 172 753 0 174 1
75 169 .0027 0 -.0475 18 174 621 0 176 171 177 172 ?1 29 175 754 0 177 178 172 .
005 0 -.0475 18 177 622 0 179 174 180 175 ?1 29 178 760 0 181 182 175 .0027 0 -.
0275 18 181 446 0 183 184 185 178 ?1 29 182 761 0 185 186 178 .0027 0 -.0175 18
 185 447 0 187 181 188 182 ?1 29 186 762 0 188 189 182 .005 0 -.0175 18 188 448
 0 190 185 0 186 ?1 29 189 768 0 180 191 186 .075 0 -.0575 18 180 533 0 192 177
 193 189 ?1 29 191 769 0 193 194 189 .075 0 -.0475 18 193 534 0 195 180 184 191
 ?1 29 194 770 0 184 0 191 .0773 0 -.0475 18 184 535 0 196 193 181 194 ?1 17 196
 0 197 198 199 184 83 200 0 201 +15 255 197 554 0 196 202 0 17 198 0 197 203 196
 193 204 205 0 206 +17 199 0 197 196 203 81 207 208 0 209 -17 83 0 210 161 201 8
1 196 200 0 199 -16 200 502 0 ?196 211 212 213 0 0 1 17 201 0 210 83 214 184 215
 216 0 204 +15 210 558 0 214 217 0 17 214 0 210 201 161 90 218 212 0 215 +17 215
 0 219 220 204 90 201 216 0 0 -16 216 522 0 ?201 205 221 222 0 0 1 17 204 0 219
 215 206 184 198 205 0 0 -15 219 335 0 220 223 224 17 206 0 219 204 220 193 225
 226 0 0 -16 205 525 0 ?198 226 216 227 0 0 1 16 226 528 0 ?225 212 205 228 0 0
 1 30 255 227 733 0 205 222 228 0 +.075 0 -.0475 -1 0 0 30 222 734 0 216 229 227
 0 +.0773 0 -.0575 1387778780781446e-30 0 1 30 228 732 0 226 227 230 0 +.075 0 -
.0575 0 0 -1 30 230 731 0 231 228 232 0 +.075 .01 -.0575 0 -1 0 16 231 498 0 ?19
2 233 211 230 0 0 1 30 232 730 0 211 230 213 0 +.075 .01 -.0475 0 -1 0 16 211 50
0 0 ?195 231 200 232 0 0 1 30 213 729 0 200 232 234 0 +.0773 .01 -.0475 0 -1 0 3
0 234 728 0 212 213 235 0 +.0773 .01 -.0575 0 -1 0 16 212 496 0 ?214 200 226 234
 0 0 1 30 235 723 0 236 234 237 0 +.005 0 -.0275 1 0 -150845519650157e-29 16 236
 432 0 ?89 238 239 235 0 0 1 30 237 722 0 238 235 240 0 +.005 0 -.0175 0 0 1 16
 238 435 0 ?241 242 236 237 0 0 1 30 240 721 0 242 237 243 0 +.0027 0 -.0175 -1
 0 0 16 242 438 0 ?244 245 238 240 0 0 1 30 243 720 0 245 240 246 0 +.0027 0 -.0
275 433680868994202e-31 0 -1 16 245 441 0 ?247 248 242 243 0 0 1 30 246 719 0 24
9 243 250 0 +.0027 .01 -.0275 0 -1 0 16 249 411 0 ?183 221 251 246 0 0 1 30 250
 718 0 251 246 252 0 +.0027 .01 -.0175 0 -1 0 16 251 413 0 ?187 249 253 250 0 0
 1 30 252 717 0 253 250 254 0 +.005 .01 -.0175 0 -1 0 16 253 415 0 ?190 251 248
 252 0 0 1 30 254 716 0 248 252 255 0 +.005 .01 -.0275 0 -1 0 16 248 409 0 ?256
 253 245 254 0 0 1 30 255 711 0 233 254 257 0 +.005 0 -.0575 1 0 0 16 233 606 0
 ?95 258 231 255 0 0 1 30 257 710 0 258 255 259 0 +.005 0 -.0475 0 0 1 16 258 60
9 0 ?260 261 233 257 0 0 1 30 259 709 0 261 257 262 0 +.0027 0 -.0475 -1 0 0 16
 261 612 0 ?263 264 258 259 0 0 1 30 262 708 0 264 259 265 0 +.0027 0 -.0575 0 0
 -1 16 264 615 0 ?266 267 261 262 0 0 1 30 265 707 0 268 262 269 0 +.0027 .01 -.
0575 0 -1 0 16 268 585 0 ?173 270 271 265 0 0 1 30 269 706 0 271 265 272 0 +.002
7 .01 -.0475 0 -1 0 16 271 587 0 ?176 268 273 269 0 0 1 30 272 705 0 273 269 274
 0 +.005 .01 -.0475 0 -1 0 16 273 589 0 ?179 271 267 272 0 0 1 30 274 704 0 267
 272 275 0 +.005 .01 -.0575 0 -1 0 16 267 583 0 ?276 273 264 274 0 0 1 30 275 70
3 0 270 274 277 278 +.005 .0023 0 0 0 1 16 270 588 0 ?279 280 268 275 0 0 1 30 2
77 702 0 280 275 281 282 +0 .0023 -.0475 -1 0 0 141 255 278 283 278 278 275 133
 283 1655 0 1 284 285 0 +275 .005 .0023 -.0575 .005 .0023 -.0475 -.0575 -.0475 1
33 284 1654 0 1 286 283 0 +287 .0027 .0023 -.0575 .005 .0023 -.0575 .0027 .005 1
33 285 1656 0 1 283 288 0 +277 .005 .0023 -.0475 .0027 .0023 -.0475 -.005 -.0027
 133 288 1662 0 1 285 289 0 +290 .075 .0023 -.0175 .075 .0023 -.0275 .0175 .0275
 133 289 1663 0 1 288 291 0 +292 .075 .0023 -.0275 .0773 .0023 -.0275 .075 .0773
 30 290 267 0 293 294 292 295 +.075 .0023 0 0 0 -1 16 293 174 0 ?296 297 298 290
 0 0 1 30 294 268 0 298 299 290 300 +0 .0023 -.0175 -1 0 0 30 292 266 0 297 290
 301 302 +4148251790379345e-32 .0023 -.0275 1 0 1508455196501575e-30 141 295 288
 295 295 290 16 297 172 0 ?303 304 293 292 0 0 1 30 301 5 0 305 292 306 307 +0 .
0023 0 0 0 1 141 302 289 302 302 292 16 305 4 0 ?308 309 310 301 0 0 1 30 306 8
 0 309 301 311 312 +0 .0023 0 1 0 0 141 307 313 307 307 301 133 313 1671 0 1 314
 315 0 +301 0 .0023 -.075 0 .0023 0 -.075 0 133 314 1665 0 1 291 313 0 +294 .077
3 .0023 -.0175 .075 .0023 -.0175 -.0773 -.075 133 315 1672 0 1 313 13 0 +306 0 .
0023 0 .08 .0023 0 0 .08 133 13 1673 0 1 315 3 0 +311 .08 .0023 0 .08 .0023 -.07
5 -.075 0 30 311 11 0 316 306 14 317 +.08 .0023 -.075 -1850371707708595e-31 0 -1
 16 316 10 0 ?121 318 309 311 0 0 1 30 14 14 0 318 311 319 320 +0 .0023 -.075 -1
 0 0 141 317 13 317 317 311 16 318 13 0 ?118 321 316 14 0 0 1 30 319 69 0 304 14
 322 0 +0 0 0 0 0 1 141 320 3 320 320 14 16 304 57 0 ?323 324 297 319 0 0 1 30 3
22 68 0 324 319 325 0 +0 0 0 1 0 0 16 324 53 0 ?112 326 304 322 0 0 1 30 325 67
 0 326 322 327 0 +.08 0 -.075 -1850371707708595e-31 0 -1 16 326 49 0 ?109 310 32
4 325 0 0 1 30 327 66 0 310 325 328 0 +0 0 -.075 -1 0 0 16 310 45 0 ?105 305 326
 327 0 0 1 30 328 90 0 321 327 329 0 +0 .0023 -.075 0 -1 0 16 321 74 0 ?330 331
 318 328 0 0 1 30 329 91 0 331 328 332 0 +.08 .0023 -.075 0 -1 0 16 331 75 0 ?33
3 334 321 329 0 0 1 30 332 92 0 334 329 335 0 +.08 .0023 0 0 -1 0 16 334 76 0 ?3
36 337 331 332 0 0 1 30 335 93 0 337 332 338 0 +0 .0023 0 0 -1 0 16 337 77 0 ?33
9 340 334 335 0 0 1 31 338 870 0 239 335 341 0 +.0312 0 -.0711 0 -1 0 0 0 -1 .00
1 16 239 883 0 ?342 236 343 338 0 0 1 31 341 914 0 344 338 345 0 +.0642 0 -.019
 0 -1 0 0 0 -1 .001 16 344 999 0 ?346 347 348 341 0 0 1 31 345 920 0 347 341 349
 0 +.0158 0 -.0203 0 -1 0 0 0 -1 .001 16 347 975 0 ?350 351 344 345 0 0 1 31 349
 926 0 351 345 352 0 +.0591 0 -.0711 0 -1 0 0 0 -1 .001 16 351 951 0 ?353 343 34
7 349 0 0 1 30 352 1094 0 340 349 354 0 +.06 0 0 0 0 1 16 340 1281 0 ?355 356 33
7 352 0 0 1 30 354 1098 0 356 352 357 0 +0 0 -.065 1 0 0 16 356 1349 0 ?358 359
 340 354 0 0 1 30 357 1102 0 359 354 360 0 +.02 0 -3784851220313035e-33 -1892425
610156515e-31 0 -1 16 359 1327 0 ?361 362 356 357 0 0 1 30 360 1105 0 362 357 36
3 0 +-1734723475976805e-33 0 -.01 -1 0 1734723475976805e-31 16 362 1303 0 ?364 3
65 359 360 0 0 1 30 363 1294 0 365 360 366 0 -.06 0 -.063 0 1 0 16 365 1292 0 ?7
7 367 362 363 0 0 1 30 366 1299 0 367 363 368 0 +.06 .0023 -.012 0 1 0 16 367 12
97 0 ?369 370 365 366 0 0 1 30 368 1316 0 370 366 371 0 +.022 .0023 -.01 0 1 0 1
6 370 1314 0 ?372 373 367 368 0 0 1 30 371 1322 0 373 368 374 0 -.058 0 -.01 0 1
 0 16 373 1320 0 ?66 375 370 371 0 0 1 30 374 1340 0 375 371 376 0 +.02 .0023 -.
063 0 1 0 16 375 1338 0 ?377 378 373 374 0 0 1 30 376 1345 0 378 374 379 0 -.02
 0 -.012 0 1 0 16 378 1343 0 ?54 380 375 376 0 0 1 30 379 1362 0 380 376 381 0 -
.022 0 -.065 0 1 0 16 380 1360 0 ?44 382 378 379 0 0 1 30 381 1367 0 382 379 383
 0 +.058 .0023 -.065 0 1 0 16 382 1365 0 ?38 384 380 381 0 0 1 31 383 1402 0 384
 381 385 386 +.058 .0023 -.012 0 -1 0 0 0 -1 .002 16 384 1370 0 ?57 387 382 383
 0 0 1 31 385 1403 0 387 383 388 0 -.058 0 -.012 0 -1 0 0 0 -1 .002 141 386 389
 386 386 383 133 389 1611 0 1 390 391 0 +383 .06 .0023 -.012 .058 .0023 -.01 1.5
70796326794895 3.141592653589795 133 390 1610 0 1 0 389 0 +392 .06 .0023 -.012 .
06 .0023 -.063 .002 .053 133 391 1612 0 1 389 393 0 +394 .022 .0023 -.01 .058 .0
023 -.01 -.018 .018 133 393 1613 0 1 391 395 0 +388 .022 .0023 -.01 .02 .0023 -.
012 3.141592653589795 4.71238898038469 30 394 1233 0 396 397 398 399 +.04 .0023
 -.01 1 0 -1734723475976805e-31 16 396 1309 0 ?400 401 402 394 0 0 1 30 397 1234
 0 402 403 394 404 +.02 .0023 -.065 1892425610156515e-31 0 1 31 398 1038 0 348 3
94 405 406 +.0591 .0023 -.0711 0 1 0 0 0 1 .001 141 399 391 399 399 394 16 348 9
52 0 ?407 344 408 398 0 0 1 31 405 1036 0 408 398 409 410 +.0158 .0023 -.0203 0
 1 0 0 0 1 .001 141 406 411 406 406 398 133 411 1620 0 1 412 413 0 +398 .0591 .0
023 -.0701 .0591 .0023 -.0701 0 6.28318530717959 133 412 1617 0 1 414 411 0 +415
 .058 .0023 -.065 .06 .0023 -.063 0 1.570796326794895 133 413 1623 0 1 411 416 0
 +405 .0158 .0023 -.0193 .0158 .0023 -.0193 0 6.28318530717959 133 416 1626 0 1
 413 417 0 +409 .0642 .0023 -.018 .0642 .0023 -.018 0 6.28318530717959 133 417 1
629 0 1 416 418 0 +419 .0312 .0023 -.0701 .0312 .0023 -.0701 0 6.28318530717959
 31 409 1034 0 401 405 419 420 +.0642 .0023 -.019 0 1 0 0 0 1 .001 16 401 1000 0
 ?421 408 396 409 0 0 1 31 419 908 0 343 409 229 422 +.0312 .0023 -.0711 0 1 0 0
 0 1 .001 141 420 416 420 420 409 16 343 884 0 ?423 239 351 419 0 0 1 30 229 735
 0 221 419 222 0 +.0773 0 -.0575 1 0 0 141 422 417 422 422 419 16 221 519 0 ?92
 216 249 229 0 0 1 17 92 0 424 218 192 90 220 221 0 214 +15 424 546 0 192 425 0
 17 218 0 424 155 92 159 214 212 0 426 -17 192 0 424 92 155 180 427 231 0 225 +1
7 220 0 219 206 215 180 92 221 0 0 -17 155 0 424 192 218 153 426 428 0 427 -17 4
27 0 429 158 225 153 192 231 0 430 -17 225 0 429 427 195 180 206 226 0 220 +15 4
29 550 0 195 431 0 17 195 0 429 225 158 193 203 211 0 198 +17 158 0 429 195 427
 156 430 432 0 203 -17 203 0 197 199 198 156 195 211 0 207 -17 207 0 433 430 209
 156 199 208 0 0 +15 433 376 0 430 434 435 17 430 0 433 426 207 153 158 432 0 0
 +17 209 0 433 207 426 81 161 436 0 0 +16 208 499 0 ?207 432 436 437 0 0 1 16 43
2 497 0 ?430 428 208 438 0 0 1 16 436 501 0 ?209 208 439 440 0 0 1 30 437 698 0
 208 440 438 441 +0 .0023 -.0475 -1 0 0 30 440 699 0 436 287 437 442 +.0773 .002
3 -1072752997544058e-31 1387778780781446e-30 0 1 30 438 697 0 432 437 443 444 +.
075 .0023 0 0 0 -1 141 441 445 441 441 437 133 445 1647 0 1 446 286 0 +437 .0773
 .0023 -.0475 .075 .0023 -.0475 -.0773 -.075 133 446 1646 0 1 447 445 0 +440 .07
73 .0023 -.0575 .0773 .0023 -.0475 -.0575 -.0475 133 286 1653 0 1 445 284 0 +281
 .0027 .0023 -.0475 .0027 .0023 -.0575 .0475 .0575 30 281 701 0 448 277 287 449
 +.0027 .0023 0 0 0 -1 16 448 584 0 ?450 439 280 281 0 0 1 30 287 700 0 439 281
 440 451 +0 .0023 -.0575 1 0 0 141 449 286 449 449 281 16 439 582 0 ?452 436 448
 287 0 0 1 141 451 284 451 451 287 17 452 0 435 279 450 168 164 439 0 0 +15 435
 360 0 450 434 453 17 279 0 435 454 452 84 170 270 0 0 +17 450 0 435 452 454 162
 167 448 0 0 +17 164 0 455 173 456 162 452 439 0 457 -15 455 633 0 173 458 0 17
 173 0 455 95 164 171 457 268 0 266 +17 456 0 455 164 95 168 276 267 0 452 -17 4
57 0 459 167 266 162 173 268 0 450 -15 459 637 0 176 460 0 17 167 0 459 176 457
 165 450 448 0 461 -17 266 0 459 457 176 171 462 264 0 463 +17 176 0 459 266 167
 174 461 271 0 263 +17 462 0 224 464 463 174 266 264 0 0 -17 463 0 224 462 465 1
71 95 233 0 0 -15 224 315 0 463 223 466 17 465 0 224 463 464 93 260 258 0 0 -17
 95 0 455 456 173 93 463 233 0 276 +17 276 0 467 260 170 93 456 267 0 465 +15 46
7 645 0 276 468 0 17 260 0 467 86 276 177 465 258 0 464 +17 170 0 467 276 86 168
 279 270 0 456 -17 86 0 467 170 260 84 179 273 0 469 -17 179 0 470 263 469 177 8
6 273 0 260 +17 469 0 470 179 461 84 454 280 0 279 -15 470 641 0 179 471 0 17 46
1 0 470 469 263 165 176 271 0 454 -17 454 0 435 450 279 165 469 280 0 0 +16 280
 586 0 ?454 448 270 277 0 0 1 17 263 0 470 461 179 174 464 261 0 462 +17 464 0 2
24 465 462 177 263 261 0 0 -14 255 471 638 472 ?468 460 470 5 473 -0 0 468 460 2
1 81 255 1 472 1780 474 471 475 0 0 476 477 14 468 642 476 ?425 471 467 5 478 -0
 0 425 471 21 14 460 634 479 ?471 458 459 5 480 -0 0 471 458 21 50 255 473 676 0
 471 480 478 0 +.0027 .01 -.0475 0 0 1 1 0 0 13 21 29 0 0 0 0 0 0 9 15 14 15 85
 481 ?482 0 483 5 484 -0 0 482 0 21 81 1 481 1783 474 15 485 0 479 486 487 14 48
2 83 486 ?488 15 489 5 490 -0 0 488 15 21 15 483 84 0 323 15 0 50 484 89 0 15 49
0 491 0 +0 .0023 0 1 0 0 0 0 -1 50 490 88 0 482 492 484 0 +0 .0023 0 0 0 -1 -1 0
 0 51 491 1438 0 493 484 494 0 +.058 -.0077 -.012 0 -1 0 .002 0 0 -1 14 493 1426
 495 ?496 497 498 5 491 -0 0 496 497 21 51 494 1459 0 496 491 18 0 +.022 -.0077
 -.012 0 -1 0 .002 0 0 -1 14 496 1447 499 ?500 493 501 5 494 -0 0 500 493 21 51
 18 1480 0 500 494 6 0 +.058 -.0077 -.063 0 -1 0 .002 0 0 -1 14 500 1468 502 ?17
 496 33 5 18 -0 0 17 496 21 81 1 502 1787 474 500 503 0 499 504 505 14 17 1489 5
04 ?0 500 506 5 6 -0 0 0 500 21 15 33 1469 0 507 500 0 17 507 0 33 35 34 75 39 5
08 0 0 -17 35 0 33 31 507 67 77 365 0 0 -17 34 0 33 507 31 32 38 382 0 0 -17 39
 0 509 510 511 32 507 508 0 358 +16 508 1390 0 ?39 23 37 512 0 0 1 16 23 1394 0
 ?24 10 508 19 0 0 1 16 37 1386 0 ?36 508 513 415 0 0 1 31 512 1407 0 508 415 19
 0 -.058 0 -.063 0 -1 0 0 0 -1 .002 31 415 1406 0 37 514 512 515 +.058 .0023 -.0
63 0 -1 0 0 0 -1 .002 31 19 1408 0 23 512 7 516 +.022 .0023 -.063 0 -1 0 0 0 -1
 .002 141 516 517 516 516 19 133 517 1615 0 1 395 414 0 +19 .02 .0023 -.063 .022
 .0023 -.065 4.71238898038469 6.28318530717959 133 395 1614 0 1 393 517 0 +397 .
02 .0023 -.063 .02 .0023 -.012 .002 .053 133 414 1616 0 1 517 412 0 +403 .058 .0
023 -.065 .022 .0023 -.065 .002 .038 30 403 1235 0 518 392 397 519 +.06 .0023 -.
065 -1 0 0 16 518 1355 0 ?30 402 520 403 0 0 1 30 392 1236 0 520 0 403 521 +.06
 .0023 -.01 0 0 -1 141 519 414 519 519 403 16 520 1287 0 ?522 518 0 392 0 0 1 14
1 521 390 521 521 392 17 522 0 523 77 369 67 524 520 0 35 +15 523 1214 0 355 497
 0 17 77 0 523 355 522 75 35 365 0 511 +17 369 0 523 522 355 69 525 367 0 524 +1
7 524 0 26 57 36 69 522 520 0 0 -15 26 1109 0 524 434 526 17 57 0 26 527 524 55
 71 384 0 400 +17 36 0 26 524 27 67 31 37 0 522 +17 27 0 26 36 24 25 30 518 0 0
 -17 30 0 528 44 38 11 27 518 0 529 +15 528 1210 0 358 530 0 17 44 0 528 358 30
 40 529 380 0 510 +17 38 0 528 30 358 25 34 382 0 27 +17 529 0 506 29 531 11 44
 380 0 0 -15 506 1490 0 531 17 0 17 29 0 506 532 529 48 24 23 0 377 -17 531 0 50
6 529 532 40 22 10 0 0 -17 532 0 506 531 29 50 377 375 0 0 -17 22 0 509 533 510
 50 531 10 0 361 +15 509 1104 0 534 223 535 17 533 0 509 63 22 52 361 359 0 536
 -17 510 0 509 22 39 40 358 356 0 531 -17 361 0 537 377 54 50 533 359 0 532 +15
 537 1206 0 538 539 0 17 377 0 537 538 361 48 532 375 0 28 +17 54 0 537 361 538
 52 540 378 0 533 +17 538 0 537 54 377 45 28 402 0 540 +17 540 0 501 60 536 45 5
4 378 0 0 -15 501 1448 0 536 496 0 17 60 0 501 541 540 58 47 542 0 372 -17 536 0
 501 540 541 52 63 513 0 0 -17 541 0 501 536 60 61 372 370 0 0 -17 63 0 509 534
 533 61 536 513 0 364 +16 513 1382 0 ?63 37 542 514 0 0 1 16 542 1378 0 ?47 513
 387 388 0 0 1 31 514 1405 0 513 388 415 0 -.022 0 -.012 0 -1 0 0 0 -1 .002 31 3
88 1404 0 542 385 514 543 +.022 .0023 -.012 0 -1 0 0 0 -1 .002 141 543 393 543 5
43 388 17 47 0 26 28 527 45 60 542 0 538 +16 387 1374 0 ?74 542 384 385 0 0 1 17
 74 0 509 511 534 72 544 387 0 355 +17 511 0 509 39 74 75 355 340 0 507 -17 534
 0 509 74 63 64 364 362 0 544 -17 544 0 498 545 525 64 74 387 0 0 -17 355 0 523
 369 77 72 511 340 0 525 +17 525 0 498 544 71 72 369 367 0 0 -15 498 1427 0 544
 493 0 17 71 0 498 525 545 69 57 384 0 369 -17 545 0 498 71 544 55 66 373 0 0 -1
7 66 0 546 364 400 64 545 373 0 534 +15 546 1202 0 400 547 0 17 364 0 546 372 66
 61 534 362 0 541 +17 400 0 546 66 372 55 527 396 0 545 +17 372 0 546 400 364 58
 541 370 0 527 +17 527 0 26 47 57 58 400 396 0 0 -14 547 1198 548 ?539 549 546 5
 550 -0 0 539 549 21 81 1 548 1789 474 547 551 0 504 552 553 14 539 1203 552 ?53
0 547 537 5 554 -0 0 530 547 21 14 549 960 555 ?547 556 557 5 558 -0 0 547 556 2
1 50 550 1226 0 547 0 554 0 +.04 -.0077 -.01 1734723475976805e-31 0 1 1 0 -17347
23475976805e-31 50 554 1225 0 539 550 559 0 +.02 -.0077 -.065 -1 0 1892425610156
515e-31 1892425610156515e-31 0 1 50 559 1224 0 530 554 560 0 +.06 -.0077 -.065 0
 0 -1 -1 0 0 14 530 1207 561 ?497 539 528 5 559 -0 0 497 539 21 50 560 1223 0 49
7 559 558 0 +.06 -.0077 -.01 1 0 0 0 0 -1 14 497 1211 562 ?493 530 523 5 560 -0
 0 493 530 21 51 558 1031 0 549 560 563 0 +.0591 -.0077 -.0711 0 1 0 .001 0 0 1
 51 563 1028 0 556 558 564 0 +.0158 -.0077 -.0203 0 1 0 .001 0 0 1 14 556 984 56
5 ?549 566 567 5 563 -0 0 549 566 21 51 564 1025 0 566 563 568 0 +.0642 -.0077 -
.019 0 1 0 .001 0 0 1 14 566 1008 569 ?556 570 571 5 564 -0 0 556 570 21 51 568
 905 0 570 564 572 0 +.0312 -.0077 -.0711 0 1 0 .001 0 0 1 14 570 892 573 ?566 5
74 575 5 568 -0 0 566 574 21 50 572 689 0 431 568 576 0 +.075 .01 -.0575 -1 0 0
 0 0 1 14 431 547 577 ?202 425 429 5 572 -0 0 202 425 21 50 576 688 0 202 572 57
8 0 +.075 .01 -.0475 0 0 1 1 0 0 14 202 551 579 ?217 431 197 5 576 -0 0 217 431
 21 50 578 687 0 217 576 580 0 +.0773 .01 -.0575 1 0 -1387778780781446e-30 -1387
778780781446e-30 0 -1 14 217 555 581 ?582 202 210 5 578 -0 0 582 202 21 50 580 6
86 0 425 578 583 0 +.0773 .01 -.0575 0 0 -1 -1 0 0 14 425 543 584 ?431 468 424 5
 580 -0 0 431 468 21 50 583 683 0 585 580 586 0 +.0027 .01 -.0275 -1 0 -43368086
8994202e-31 -433680868994202e-31 0 1 14 585 460 587 ?588 582 589 5 583 -0 0 588
 582 21 50 586 682 0 588 583 590 0 +.0027 .01 -.0175 0 0 1 1 0 0 14 588 464 591
 ?574 585 592 5 586 -0 0 574 585 21 50 590 681 0 574 586 593 0 +.005 .01 -.0175
 1 0 0 0 0 -1 14 574 468 594 ?570 588 595 5 590 -0 0 570 588 21 50 593 680 0 582
 590 480 0 +.005 .01 -.0275 -150845519650157e-29 0 -1 -1 0 150845519650157e-29 1
4 582 456 596 ?585 217 597 5 593 -0 0 585 217 21 50 480 677 0 460 593 473 0 +.00
27 .01 -.0575 -1 0 0 0 0 1 81 1 596 1804 474 582 598 0 594 599 600 15 597 459 0
 183 582 0 17 183 0 597 89 146 181 601 249 0 247 +17 89 0 597 602 183 87 603 236
 0 256 +17 146 0 597 183 602 144 604 605 0 601 -17 601 0 589 149 247 144 183 249
 0 606 -17 247 0 589 601 187 181 607 245 0 603 +15 589 463 0 187 585 0 17 187 0
 589 247 149 185 608 251 0 244 +17 607 0 609 610 603 185 247 245 0 0 -17 603 0 6
09 607 611 181 89 236 0 0 -15 609 355 0 603 223 219 17 611 0 609 603 610 87 241
 238 0 0 -17 610 0 609 611 607 188 244 242 0 0 -17 241 0 595 80 256 188 611 238
 0 610 +15 595 471 0 256 574 0 17 80 0 595 152 241 78 190 253 0 612 -17 256 0 59
5 241 152 87 602 248 0 611 +17 152 0 595 256 80 150 613 614 0 602 -17 602 0 597
 146 89 150 256 248 0 604 -17 604 0 615 613 606 150 146 605 0 0 +15 615 392 0 60
6 434 433 17 613 0 615 616 604 78 152 614 0 0 +17 606 0 615 604 616 144 149 617
 0 0 +16 605 408 0 ?604 618 617 619 0 0 1 16 618 196 0 ?101 620 605 621 0 0 1 16
 617 410 0 ?606 605 622 623 0 0 1 30 619 692 0 605 623 621 624 +-414825179037932
e-31 .0023 -.0275 1 0 -150845519650157e-29 30 623 693 0 617 625 619 626 +.0027 .
0023 117093834628434e-33 433680868994202e-31 0 -1 30 621 277 0 618 619 627 0 +.0
75 0 -.0275 1 0 1508455196501575e-30 141 624 628 624 624 619 133 628 1636 0 1 41
8 629 0 +619 .0027 .0023 -.0275 .005 .0023 -.0275 .0027 .005 133 418 1635 0 1 41
7 628 0 +623 .0027 .0023 -.0175 .0027 .0023 -.0275 .0175 .0275 133 629 1637 0 1
 628 630 0 +631 .005 .0023 -.0275 .005 .0023 -.0175 -.0275 -.0175 133 630 1638 0
 1 629 632 0 +625 .005 .0023 -.0175 .0027 .0023 -.0175 -.005 -.0027 30 631 695 0
 614 443 625 633 +.005 .0023 0 0 0 1 16 614 414 0 ?613 622 428 631 0 0 1 30 443
 696 0 428 438 631 634 +0 .0023 -.0575 1 0 0 30 625 694 0 622 631 623 635 +0 .00
23 -.0175 -1 0 0 141 633 629 633 633 631 16 622 412 0 ?616 617 614 625 0 0 1 141
 635 630 635 635 625 17 616 0 615 606 613 147 612 622 0 0 +17 612 0 592 190 608
 78 616 622 0 613 -15 592 467 0 190 588 0 17 190 0 592 244 612 188 80 253 0 241
 +17 608 0 592 612 244 147 187 251 0 616 -17 244 0 592 608 190 185 610 242 0 607
 +16 428 495 0 ?426 614 432 443 0 0 1 141 634 447 634 634 443 133 447 1645 0 1 6
32 446 0 +443 .075 .0023 -.0575 .0773 .0023 -.0575 .075 .0773 133 632 1644 0 1 6
30 447 0 +438 .075 .0023 -.0475 .075 .0023 -.0575 .0475 .0575 17 426 0 433 209 4
30 159 155 428 0 0 +30 627 276 0 620 621 636 0 +.0773 0 -.0275 0 0 1 16 620 199
 0 ?637 638 618 627 0 0 1 30 636 275 0 638 627 639 0 +.0773 0 -.0175 -1 0 0 16 6
38 202 0 ?640 641 620 636 0 0 1 30 639 274 0 641 636 642 0 +.075 0 -.0175 0 0 -1
 16 641 205 0 ?643 644 638 639 0 0 1 30 642 273 0 645 639 646 0 +.075 .01 -.0275
 0 -1 0 16 645 175 0 ?137 647 648 642 0 0 1 30 646 272 0 648 642 649 0 +.075 .01
 -.0175 0 -1 0 16 648 177 0 ?140 645 650 646 0 0 1 30 649 271 0 650 646 651 0 +.
0773 .01 -.0175 0 -1 0 16 650 179 0 ?143 648 644 649 0 0 1 30 651 270 0 644 649
 299 0 +.0773 .01 -.0275 0 -1 0 16 644 173 0 ?652 650 641 651 0 0 1 30 299 269 0
 647 651 294 653 +.0773 .0023 0 0 0 1 16 647 178 0 ?654 298 645 299 0 0 1 141 65
3 291 653 653 299 133 291 1664 0 1 289 314 0 +299 .0773 .0023 -.0275 .0773 .0023
 -.0175 -.0275 -.0175 17 654 0 453 655 303 96 134 647 0 0 +16 298 176 0 ?655 293
 647 294 0 0 1 17 655 0 453 296 654 129 656 298 0 0 +15 453 156 0 296 434 657 17
 296 0 453 303 655 116 131 293 0 0 +17 656 0 658 143 659 96 655 298 0 654 -15 65
8 231 0 143 660 0 17 143 0 658 640 656 141 98 650 0 637 +17 659 0 658 656 640 12
9 140 648 0 655 -17 640 0 658 659 143 138 661 638 0 662 +17 140 0 663 643 131 13
8 659 648 0 640 +15 663 227 0 140 664 0 17 643 0 663 665 140 135 662 641 0 666 +
17 131 0 663 140 665 129 296 293 0 659 -17 665 0 663 131 643 116 137 645 0 296 -
17 137 0 667 101 128 135 665 645 0 643 +15 667 223 0 137 668 0 17 101 0 667 669
 137 99 666 618 0 652 +17 128 0 667 137 669 116 303 297 0 665 -17 669 0 667 128
 101 132 652 644 0 303 -17 303 0 453 654 296 132 128 297 0 0 +17 652 0 670 637 1
34 99 669 644 0 671 +15 670 235 0 652 672 0 17 637 0 670 98 652 141 671 620 0 66
1 +17 134 0 670 652 98 132 654 647 0 669 -17 671 0 466 666 661 99 637 620 0 0 -1
5 466 151 0 666 223 673 17 666 0 466 662 671 135 101 618 0 0 -17 661 0 466 671 6
62 141 640 638 0 0 -17 662 0 466 661 666 138 643 641 0 0 -14 223 43 599 ?668 434
 509 5 674 +0 0 668 434 21 15 673 44 0 675 223 0 17 675 0 673 676 115 103 323 30
4 0 0 -17 676 0 673 677 675 107 105 310 0 0 -17 115 0 673 675 677 113 112 324 0
 339 -17 323 0 483 678 330 113 675 304 0 0 +17 678 0 483 679 323 106 339 337 0 0
 -17 330 0 483 323 679 103 680 321 0 675 +17 679 0 483 330 678 102 308 305 0 0 -
17 680 0 681 682 105 102 330 321 0 679 -15 681 78 0 105 683 0 17 682 0 681 333 6
80 119 118 318 0 0 -17 105 0 681 680 333 103 676 310 0 330 +17 333 0 681 105 682
 107 684 331 0 676 +17 684 0 685 686 109 119 333 331 0 682 -15 685 80 0 109 488
 0 17 686 0 685 336 684 122 121 316 0 0 -17 109 0 685 684 336 107 677 326 0 333
 +17 336 0 685 109 686 110 687 334 0 677 +17 677 0 673 115 676 110 109 326 0 0 -
17 687 0 489 126 112 122 336 334 0 686 -15 489 82 0 112 482 0 17 126 0 489 339 6
87 106 124 309 0 308 -17 112 0 489 687 339 110 115 324 0 336 +17 339 0 489 112 1
26 113 678 337 0 323 +17 124 0 657 121 308 122 126 309 0 687 +16 309 7 0 ?124 31
6 305 306 0 0 1 17 308 0 657 124 118 106 679 305 0 678 +15 657 3 0 308 434 0 17
 118 0 657 308 121 102 682 318 0 680 +17 121 0 657 118 124 119 686 316 0 684 +14
 434 1 688 ?223 683 26 5 689 -0 0 223 683 21 81 1 688 1806 474 434 690 0 599 691
 692 14 683 79 691 ?434 488 681 5 693 -0 0 434 488 21 50 689 2 0 434 694 674 0 +
0 .0023 0 0 -1 0 0 0 -1 50 694 260 0 668 695 689 0 +.075 .01 -.0275 150845519650
1575e-30 0 -1 -1 0 -1508455196501575e-30 50 674 65 0 223 689 693 0 +0 0 0 0 -1 0
 0 0 -1 50 693 86 0 683 674 492 0 +0 .0023 -.075 0 0 1 1 0 0 50 492 87 0 488 693
 490 0 +.08 .0023 -.075 -1 0 1850371707708595e-31 1850371707708595e-31 0 1 14 48
8 81 696 ?683 482 685 5 492 -0 0 683 482 21 81 1 696 1808 474 488 697 0 691 698
 699 80 255 1 474 700 701 9000 1 1 1 1 1 1 1 1 0 FFFFTFTFFFFFFF1 81 1 697 1677 7
02 488 0 696 703 704 705 81 1 691 1807 474 683 704 0 688 696 706 81 1 698 1809 4
74 672 707 0 696 708 709 82 255 1 699 495517870 14 672 232 698 ?458 660 670 5 69
5 -0 0 458 660 21 81 1 707 1684 702 672 0 698 710 711 712 81 1 708 1810 474 660
 710 0 698 713 714 82 1 709 589824176 14 660 228 708 ?672 664 658 5 715 -0 0 672
 664 21 81 1 710 1683 702 660 0 708 716 707 717 81 1 713 1811 474 664 716 0 708
 718 719 82 1 714 590676144 14 664 224 713 ?660 668 663 5 720 -0 0 660 668 21 81
 1 716 1682 702 664 0 713 721 710 722 81 1 718 1812 474 458 711 0 713 723 724 82
 1 719 591528112 14 458 630 718 ?460 672 455 5 725 -0 0 460 672 21 81 1 711 1685
 702 458 0 718 707 726 727 81 1 723 1813 474 668 721 0 718 0 728 82 1 724 603127
984 14 668 220 723 ?664 223 667 5 694 -0 0 664 223 21 81 1 721 1681 702 668 0 72
3 729 716 730 82 1 728 592052400 80 1 702 0 731 8001 0 0 0 0 3 5 0 0 0 FFFFTFTFF
FFFFF2 81 1 729 1680 702 223 0 599 690 721 732 83 255 3 730 .792156862745098 .81
9607843137255 .933333333333333 81 1 599 1805 474 223 729 0 596 688 733 81 1 690
 1679 702 434 0 688 704 729 734 83 3 732 .792156862745098 .819607843137255 .9333
33333333333 81 1 704 1678 702 683 0 691 697 690 735 83 3 734 .792156862745098 .8
19607843137255 .933333333333333 83 3 735 .792156862745098 .819607843137255 .9333
33333333333 82 1 733 494338235 79 255 15 731 SDL/TYSA_COLOUR81 1 726 1686 702 46
0 0 479 711 475 736 83 3 727 .792156862745098 .819607843137255 .933333333333333
 81 1 479 1782 474 460 726 0 476 481 737 81 1 475 1687 702 471 0 472 726 738 739
 83 3 736 .792156862745098 .819607843137255 .933333333333333 81 1 738 1688 702 4
68 0 476 475 740 741 83 3 739 .792156862745098 .819607843137255 .933333333333333
 81 1 476 1781 474 468 738 0 472 479 742 81 1 740 1689 702 425 0 584 738 743 744
 83 3 741 .792156862745098 .819607843137255 .933333333333333 81 1 584 1800 474 4
25 740 0 581 587 745 81 1 743 1690 702 431 0 577 740 746 747 83 3 744 .792156862
745098 .819607843137255 .933333333333333 81 1 577 1797 474 431 743 0 573 579 748
 81 1 746 1691 702 202 0 579 743 749 750 83 3 747 .792156862745098 .819607843137
255 .933333333333333 81 1 579 1798 474 202 746 0 577 581 751 81 1 749 1692 702 2
17 0 581 746 598 752 83 3 750 .792156862745098 .819607843137255 .933333333333333
 81 1 581 1799 474 217 749 0 579 584 753 81 1 598 1693 702 582 0 596 749 754 755
 83 3 752 .792156862745098 .819607843137255 .933333333333333 81 1 754 1694 702 5
85 0 587 598 756 757 83 3 755 .792156862745098 .819607843137255 .933333333333333
 81 1 587 1801 474 585 754 0 584 591 758 81 1 756 1695 702 588 0 591 754 759 760
 83 3 757 .792156862745098 .819607843137255 .933333333333333 81 1 591 1802 474 5
88 756 0 587 594 761 81 1 759 1696 702 574 0 594 756 762 763 83 3 760 .792156862
745098 .819607843137255 .933333333333333 81 1 594 1803 474 574 759 0 591 596 764
 81 1 762 1697 702 570 0 573 759 765 766 83 3 763 .792156862745098 .819607843137
255 .933333333333333 81 1 573 1796 474 570 762 0 569 577 767 81 1 765 1698 702 5
66 0 569 762 768 769 83 3 766 .792156862745098 .819607843137255 .933333333333333
 81 1 569 1795 474 566 765 0 565 573 770 81 1 768 1699 702 556 0 565 765 771 772
 83 3 769 .792156862745098 .819607843137255 .933333333333333 81 1 565 1794 474 5
56 768 0 562 569 773 81 1 771 1700 702 549 0 555 768 551 774 83 3 772 .792156862
745098 .819607843137255 .933333333333333 81 1 555 1791 474 549 771 0 552 561 775
 81 1 551 1701 702 547 0 548 771 776 777 83 3 774 .792156862745098 .819607843137
255 .933333333333333 81 1 776 1702 702 539 0 552 551 778 779 83 3 777 .792156862
745098 .819607843137255 .933333333333333 81 1 552 1790 474 539 776 0 548 555 780
 81 1 778 1703 702 530 0 561 776 781 782 83 3 779 .792156862745098 .819607843137
255 .933333333333333 81 1 561 1792 474 530 778 0 555 562 783 81 1 781 1704 702 4
97 0 562 778 784 785 83 3 782 .792156862745098 .819607843137255 .933333333333333
 81 1 562 1793 474 497 781 0 561 565 786 81 1 784 1705 702 493 0 495 781 787 788
 83 3 785 .792156862745098 .819607843137255 .933333333333333 81 1 495 1785 474 4
93 784 0 486 499 789 81 1 787 1706 702 496 0 499 784 503 790 83 3 788 .792156862
745098 .819607843137255 .933333333333333 81 1 499 1786 474 496 787 0 495 502 791
 81 1 503 1707 702 500 0 502 787 792 793 83 3 790 .792156862745098 .819607843137
255 .933333333333333 81 1 792 1708 702 17 0 504 503 0 794 83 3 793 .792156862745
098 .819607843137255 .933333333333333 81 1 504 1788 474 17 792 0 502 548 795 83
 3 794 .792156862745098 .819607843137255 .933333333333333 82 1 795 -1004601157 8
2 1 791 -1008533317 81 1 486 1784 474 482 703 0 481 495 796 82 1 789 -1010499397
 81 1 703 1676 702 482 0 486 485 697 797 82 1 796 495780014 81 1 485 1675 702 15
 0 481 0 703 798 83 3 797 .792156862745098 .819607843137255 .933333333333333 83
 3 798 .792156862745098 .819607843137255 .933333333333333 82 1 786 -1025310533 8
2 1 783 -1025441605 82 1 780 -1025572677 82 1 775 -1082589000 82 1 773 -10786568
40 82 1 770 -1074724680 82 1 767 -1086586696 82 1 764 607715504 82 1 761 6085674
72 82 1 758 609419440 82 1 753 604307632 82 1 751 605159600 82 1 748 606011568 8
2 1 745 606535856 82 1 742 600899760 82 1 737 602603696 50 725 674 0 458 478 720
 0 +.005 .01 -.0575 0 0 -1 -1 0 0 50 478 675 0 468 473 725 0 +.005 .01 -.0475 1
 0 0 0 0 -1 50 720 263 0 664 725 715 0 +.075 .01 -.0175 -1 0 0 0 0 1 50 715 262
 0 660 720 695 0 +.0773 .01 -.0175 0 0 1 1 0 0 50 695 261 0 672 715 694 0 +.0773
 .01 -.0275 1 0 0 0 0 -1 83 3 722 .792156862745098 .819607843137255 .93333333333
3333 83 3 717 .792156862745098 .819607843137255 .933333333333333 83 3 712 .79215
6862745098 .819607843137255 .933333333333333 82 1 706 495255726 83 3 705 .792156
862745098 .819607843137255 .933333333333333 79 14 701 SWEntUnchanged82 1 692 488
702139 17 98 0 670 134 637 96 143 650 0 656 -141 626 418 626 626 623 17 149 0 58
9 187 601 147 606 617 0 608 -82 1 600 609943728 15 575 895 0 342 570 799 17 342
 0 575 342 342 0 800 239 0 0 +15 799 896 0 423 570 0 17 423 0 799 423 423 0 801
 343 0 0 +17 801 0 802 801 801 0 423 343 0 0 -15 802 874 0 801 434 615 17 800 0
 803 800 800 0 342 239 0 0 -15 803 869 0 800 223 609 15 571 1011 0 346 566 804 1
7 346 0 571 346 346 0 805 344 0 0 +15 804 1012 0 421 566 0 17 421 0 804 421 421
 0 806 401 0 0 +17 806 0 807 806 806 0 421 401 0 0 -15 807 930 0 806 434 802 17
 805 0 808 805 805 0 346 344 0 0 -15 808 913 0 805 223 803 15 567 987 0 350 556
 809 17 350 0 567 350 350 0 810 347 0 0 +15 809 988 0 811 556 0 17 811 0 809 811
 811 0 812 408 0 0 +17 812 0 813 812 812 0 811 408 0 0 -16 408 976 0 ?811 348 40
1 405 0 0 1 15 813 936 0 812 434 807 17 810 0 814 810 810 0 350 347 0 0 -15 814
 919 0 810 223 808 15 557 963 0 353 549 815 17 353 0 557 353 353 0 816 351 0 0 +
15 815 964 0 407 549 0 17 407 0 815 407 407 0 817 348 0 0 +17 817 0 526 817 817
 0 407 348 0 0 -15 526 942 0 817 434 813 17 816 0 535 816 816 0 353 351 0 0 -15
 535 925 0 816 223 814 82 1 553 -1025703749 17 28 0 26 24 47 48 538 402 0 0 -16
 402 1333 0 ?538 396 518 397 0 0 1 17 358 0 528 38 44 32 510 356 0 34 +141 515 4
12 515 515 415 82 1 505 -1006567237 82 1 487 496042158 82 1 477 601751728 141 44
4 632 444 444 438 141 442 446 442 442 440 17 161 0 210 214 83 159 209 436 0 218
 -141 410 413 410 410 405 141 404 395 404 404 397 141 312 315 312 312 306 141 30
0 314 300 300 294 141 282 285 282 282 277 19 16 95 0 1 0 9 5 S0 74 4 CI16 index_
map_offset0 0 1 dCCZ20 12 2 0 0 723 792 0 0 0 0 0 0 0 0 0 0 0 0 0 0 0 0 0 0 1 0
 
