**ABCDEFGHIJKLMNOPQRSTUVWXYZabcdefghijklmnopqrstuvwxyz**************************
**PARASOLID !"#$%&'()*+,-./:;<=>?@[\]^_`{|}~0123456789**************************
**PART1;
MC=AMD64;
MC_MODEL=Intel64 Family 6 Model 94 Stepping 3, GenuineIntel;
MC_ID=unknown;
OS=Windows_NT;
OS_RELEASE=unknown;
FRU=Parasolid Version 28.0, build 204, 11- 9-2015;
APPL=SOLIDWORKS 2016-2016040;
SITE=;
USER=unknown;
FORMAT=text;
GUISE=transmit;
KEY=Back Bracket 2.3mm;
FILE=Back Bracket 2.3mm.x_t;
DATE=Sun Aug 13 17:37:52 2017;
**PART2;
SCH=SCH_2800204_28002;
USFLD_SIZE=0;
**PART3;
**END_OF_HEADER*****************************************************************
T51 : TRANSMIT FILE created by modeller version 280020423 SCH_2800204_28002_1300
6200 0 12 30 CCCCCCCCCCCCCDI5 owner1040 0 CCCCCCCCCA13 boundary_mesh1006 0 A16 i
ndex_map_offset0 0 1 dA9 index_map82 0 A17 node_id_index_map82 0 A20 schema_embe
dding_map82 0 A5 child12 0 A14 lowest_node_id0 0 1 dZ1 742 0 2 0 0 0 0 1e3 1e-8
 0 3 0 1 0 1 1 4 5 6 7 8 9 10 0 0 0 0 0 0 0 70 11 CI9 list_type0 0 1 uI10 notran
smit0 0 1 lCCCDCCDI12 finger_index0 0 1 dI12 finger_block1012 0 CZ2 0 4 T1 0 0 2
 20 1 11 11 13 255 4 414 0 1 0 12 0 0 13 0 50 255 5 413 0 12 14 0 0 +-3147342273
808695e-33 .0245 6972e-7 -1 -1224646799147352e-31 0 1224646799147352e-31 -1 0 30
 255 6 393 0 15 16 0 0 +0 -.0012 6972e-7 0 0 1 29 255 7 294 0 17 18 0 -314734227
3808695e-33 .0245 .0029972 19 8 CCCCCCCA5 owner12 0 Z8 124 0 1 13 0 19 V0 16 255
 9 314 0 ?20 0 21 22 0 0 1 18 255 10 121 0 23 0 24 25 ?1 17 255 23 0 26 27 28 10
 20 9 0 29 -18 24 118 0 30 10 31 32 ?1 29 25 123 0 10 32 33 -3147342273808695e-3
3 .0245 6972e-7 29 32 120 0 24 34 25 .0095 .0245 6972e-7 29 33 313 0 35 25 36 0
 -.0012 .0029972 18 35 272 0 37 38 0 33 ?1 29 36 312 0 38 33 39 .0095 -.0012 .00
29972 18 38 271 0 40 41 35 36 ?1 29 39 311 0 41 36 42 .0095 -.0035 .0029972 18 4
1 270 0 43 44 38 39 ?1 29 42 310 0 44 39 45 .0195 -.0035 .0029972 18 44 269 0 46
 47 41 42 ?1 29 45 309 0 47 42 48 .0195 -.0012 .0029972 18 47 268 0 49 50 44 45
 ?1 29 48 308 0 50 45 51 .0345 -.0012 .0029972 18 50 267 0 52 53 47 48 ?1 29 51
 307 0 53 48 54 .0345 -.0035 .0029972 18 53 266 0 55 56 50 51 ?1 29 54 306 0 56
 51 57 .0445 -.0035 .0029972 18 56 265 0 58 59 53 54 ?1 29 57 305 0 59 54 60 .04
45 -.0012 .0029972 18 59 264 0 61 62 56 57 ?1 29 60 304 0 62 57 63 .054 -.0012 .
0029972 18 62 263 0 64 65 59 60 ?1 29 63 303 0 65 60 66 .054 .0245 .0029972 18 6
5 262 0 67 68 62 63 ?1 29 66 302 0 68 63 69 .0445 .0245 .0029972 18 68 261 0 70
 71 65 66 ?1 29 69 301 0 71 66 72 .0445 .0268 .0029972 18 71 260 0 73 74 68 69 ?
1 29 72 300 0 74 69 75 .0345 .0268 .0029972 18 74 259 0 76 77 71 72 ?1 29 75 299
 0 77 72 78 .0345 .0245 .0029972 18 77 258 0 79 80 74 75 ?1 29 78 298 0 80 75 81
 .0195 .0245 .0029972 18 80 257 0 82 83 77 78 ?1 29 81 297 0 83 78 84 .0195 .026
8 .0029972 18 83 256 0 85 86 80 81 ?1 29 84 296 0 86 81 18 .0095 .0268 .0029972
 18 86 255 0 87 88 83 84 ?1 29 18 295 0 88 84 7 .0095 .0245 .0029972 18 88 254 0
 89 17 86 18 ?1 17 89 0 90 91 92 88 30 21 0 93 +18 17 253 0 20 94 88 7 ?1 17 20
 0 95 96 97 17 23 9 0 28 +18 94 64 0 98 99 17 100 ?1 17 98 0 101 102 103 94 37 1
5 0 104 -18 99 67 0 105 106 94 107 ?1 29 100 66 0 94 0 107 0 -.0012 6972e-7 29 1
07 69 0 99 100 108 .0095 -.0012 6972e-7 29 108 72 0 106 107 109 .0095 -.0035 697
2e-7 18 106 70 0 110 111 99 108 ?1 29 109 75 0 111 108 112 .0195 -.0035 6972e-7
 18 111 73 0 113 114 106 109 ?1 29 112 78 0 114 109 115 .0195 -.0012 6972e-7 18
 114 76 0 116 117 111 112 ?1 29 115 81 0 117 112 118 .0345 -.0012 6972e-7 18 117
 79 0 119 120 114 115 ?1 29 118 84 0 120 115 121 .0345 -.0035 6972e-7 18 120 82
 0 122 123 117 118 ?1 29 121 87 0 123 118 124 .0445 -.0035 6972e-7 18 123 85 0 1
25 126 120 121 ?1 29 124 90 0 126 121 127 .0445 -.0012 6972e-7 18 126 88 0 128 1
29 123 124 ?1 29 127 93 0 129 124 130 .054 -.0012 6972e-7 18 129 91 0 131 132 12
6 127 ?1 29 130 96 0 132 127 133 .054 .0245 6972e-7 18 132 94 0 134 135 129 130
 ?1 29 133 99 0 135 130 136 .0445 .0245 6972e-7 18 135 97 0 137 138 132 133 ?1 2
9 136 102 0 138 133 139 .0445 .0268 6972e-7 18 138 100 0 140 141 135 136 ?1 29 1
39 105 0 141 136 142 .0345 .0268 6972e-7 18 141 103 0 143 144 138 139 ?1 29 142
 108 0 144 139 145 .0345 .0245 6972e-7 18 144 106 0 146 147 141 142 ?1 29 145 11
1 0 147 142 148 .0195 .0245 6972e-7 18 147 109 0 149 150 144 145 ?1 29 148 114 0
 150 145 34 .0195 .0268 6972e-7 18 150 112 0 151 31 147 148 ?1 29 34 117 0 31 14
8 32 .0095 .0268 6972e-7 18 31 115 0 152 24 150 34 ?1 17 152 0 90 92 91 31 87 15
3 0 154 -15 255 90 336 0 91 155 0 17 92 0 90 89 152 24 154 156 0 157 +17 91 0 90
 152 89 86 93 158 0 159 -17 87 0 160 161 162 86 152 153 0 91 +16 153 316 0 ?87 2
1 163 164 0 0 1 17 154 0 165 166 157 31 92 156 0 162 -15 165 3 0 29 167 0 17 166
 0 165 168 154 150 162 169 0 170 -17 157 0 165 154 29 24 97 171 0 0 -16 156 58 0
 ?92 171 169 172 0 0 1 17 162 0 160 87 151 31 166 169 0 0 +15 160 338 0 161 173
 0 17 151 0 160 162 161 150 85 163 0 166 -16 169 55 0 ?162 156 174 175 0 0 1 16
 174 52 0 ?170 169 176 177 0 0 1 30 175 56 0 169 177 172 0 +.0195 .0268 6972e-7
 -1 0 0 30 177 53 0 174 178 175 0 +.0195 .0245 6972e-7 0 1 0 30 172 59 0 156 175
 179 0 +.0095 .0268 6972e-7 0 -1 0 30 179 62 0 171 172 180 0 +.0095 .0245 6972e-
7 -1 0 0 16 171 61 0 ?97 15 156 179 0 0 1 30 180 293 0 181 179 182 0 +-314734227
3808695e-33 .0245 .0029972 1224646799147352e-31 -1 0 16 181 249 0 ?183 184 0 180
 0 0 1 30 182 292 0 184 180 185 0 +0 -.0012 .0029972 1 228253088944317e-31 0 16
 184 245 0 ?186 187 181 182 0 0 1 30 185 291 0 187 182 188 0 +.0095 -.0012 .0029
972 0 -1 0 16 187 241 0 ?189 190 184 185 0 0 1 30 188 290 0 190 185 191 0 +.0095
 -.0035 .0029972 1 0 0 16 190 237 0 ?192 193 187 188 0 0 1 30 191 289 0 193 188
 194 0 +.0195 -.0035 .0029972 0 1 0 16 193 233 0 ?195 196 190 191 0 0 1 30 194 2
88 0 196 191 197 0 +.0195 -.0012 .0029972 1 0 0 16 196 229 0 ?198 199 193 194 0
 0 1 30 197 287 0 199 194 200 0 +.0345 -.0012 .0029972 0 -1 0 16 199 225 0 ?201
 202 196 197 0 0 1 30 200 286 0 202 197 203 0 +.0345 -.0035 .0029972 1 0 0 16 20
2 221 0 ?204 205 199 200 0 0 1 30 203 285 0 205 200 206 0 +.0445 -.0035 .0029972
 0 1 0 16 205 217 0 ?207 208 202 203 0 0 1 30 206 284 0 208 203 209 0 +.0445 -.0
012 .0029972 1 0 0 16 208 213 0 ?210 211 205 206 0 0 1 30 209 283 0 211 206 212
 0 +.054 -.0012 .0029972 0 1 0 16 211 209 0 ?213 214 208 209 0 0 1 30 212 282 0
 214 209 215 0 +.054 .0245 .0029972 -1 0 0 16 214 205 0 ?216 217 211 212 0 0 1 3
0 215 281 0 217 212 218 0 +.0445 .0245 .0029972 0 1 0 16 217 201 0 ?219 220 214
 215 0 0 1 30 218 280 0 220 215 221 0 +.0445 .0268 .0029972 -1 0 0 16 220 197 0
 ?222 223 217 218 0 0 1 30 221 279 0 223 218 224 0 +.0345 .0268 .0029972 0 -1 0
 16 223 193 0 ?225 226 220 221 0 0 1 30 224 278 0 226 221 227 0 +.0345 .0245 .00
29972 -1 -2312964634635745e-31 0 16 226 189 0 ?228 229 223 224 0 0 1 30 227 277
 0 229 224 230 0 +.0195 .0245 .0029972 0 1 0 16 229 185 0 ?231 232 226 227 0 0 1
 30 230 276 0 232 227 233 0 +.0195 .0268 .0029972 -1 0 0 16 232 181 0 ?159 158 2
29 230 0 0 1 30 233 275 0 158 230 234 0 +.0095 .0268 .0029972 0 -1 0 16 158 177
 0 ?93 235 232 233 0 0 1 30 234 274 0 235 233 22 0 +.0095 .0245 .0029972 -1 0 0
 16 235 173 0 ?236 237 158 234 0 0 1 30 22 374 0 9 234 238 0 +-3147342273808695e
-33 .0245 6972e-7 0 0 1 30 238 375 0 21 22 164 0 +.0095 .0245 6972e-7 0 0 1 16 2
1 315 0 ?89 9 153 238 0 0 1 30 164 376 0 153 238 239 0 +.0095 .0268 6972e-7 0 0
 1 30 239 377 0 163 164 240 0 +.0195 .0268 6972e-7 0 0 1 16 163 317 0 ?85 153 24
1 239 0 0 1 30 240 378 0 241 239 242 0 +.0195 .0245 6972e-7 0 0 1 16 241 318 0 ?
82 163 243 240 0 0 1 30 242 379 0 243 240 244 0 +.0345 .0245 6972e-7 0 0 1 16 24
3 319 0 ?79 241 245 242 0 0 1 30 244 380 0 245 242 246 0 +.0345 .0268 6972e-7 0
 0 1 16 245 320 0 ?76 243 247 244 0 0 1 30 246 381 0 247 244 248 0 +.0445 .0268
 6972e-7 0 0 1 16 247 321 0 ?73 245 249 246 0 0 1 30 248 382 0 249 246 250 0 +.0
445 .0245 6972e-7 0 0 1 16 249 322 0 ?70 247 251 248 0 0 1 30 250 383 0 251 248
 252 0 +.054 .0245 6972e-7 0 0 1 16 251 323 0 ?67 249 253 250 0 0 1 30 252 384 0
 253 250 254 0 +.054 -.0012 6972e-7 0 0 1 16 253 324 0 ?64 251 255 252 0 0 1 30
 254 385 0 255 252 256 0 +.0445 -.0012 6972e-7 0 0 1 16 255 325 0 ?61 253 257 25
4 0 0 1 30 256 386 0 257 254 258 0 +.0445 -.0035 6972e-7 0 0 1 16 257 326 0 ?58
 255 259 256 0 0 1 30 258 387 0 259 256 260 0 +.0345 -.0035 6972e-7 0 0 1 16 259
 327 0 ?55 257 261 258 0 0 1 30 260 388 0 261 258 262 0 +.0345 -.0012 6972e-7 0
 0 1 16 261 328 0 ?52 259 263 260 0 0 1 30 262 389 0 263 260 264 0 +.0195 -.0012
 6972e-7 0 0 1 16 263 329 0 ?49 261 265 262 0 0 1 30 264 390 0 265 262 266 0 +.0
195 -.0035 6972e-7 0 0 1 16 265 330 0 ?46 263 267 264 0 0 1 30 266 391 0 267 264
 16 0 +.0095 -.0035 6972e-7 0 0 1 16 267 331 0 ?43 265 268 266 0 0 1 30 16 392 0
 268 266 6 0 +.0095 -.0012 6972e-7 0 0 1 16 268 332 0 ?40 267 15 16 0 0 1 17 40
 0 101 103 102 38 105 268 0 269 +16 15 333 0 ?37 268 171 6 0 0 1 17 37 0 26 28 2
7 35 98 15 0 103 +15 26 372 0 28 12 0 17 28 0 26 23 37 17 183 181 0 236 -17 27 0
 26 37 23 94 29 237 0 0 +17 103 0 101 98 40 35 186 184 0 183 -15 101 370 0 103 2
70 0 17 186 0 271 189 183 38 103 184 0 0 +17 183 0 271 186 236 35 28 181 0 0 +15
 271 172 0 183 272 0 17 236 0 271 183 93 17 96 235 0 0 +17 93 0 271 236 159 88 9
1 158 0 96 +17 96 0 95 30 20 88 236 235 0 0 -15 95 334 0 96 273 0 17 30 0 95 97
 96 24 89 21 0 92 -17 97 0 95 20 30 10 157 171 0 0 +14 255 273 335 274 ?155 12 9
5 4 275 +0 0 155 12 19 81 255 1 274 721 276 273 277 0 0 278 279 14 155 337 278 ?
173 273 90 4 280 +0 0 173 273 19 14 12 373 281 ?273 0 26 4 5 +0 0 273 0 19 50 27
5 394 0 273 282 280 0 +.0095 .0245 6972e-7 0 1 0 0 0 1 13 19 125 0 0 0 0 0 0 8 1
2 50 282 273 0 272 283 275 0 +0 0 .0029972 0 0 1 1 0 0 50 280 395 0 155 275 284
 0 +.0095 .0268 6972e-7 -1 0 0 0 0 1 50 284 396 0 173 280 285 0 +.0195 .0268 697
2e-7 0 1 0 0 0 1 14 173 339 286 ?287 155 160 4 284 +0 0 287 155 19 50 285 397 0
 287 284 288 0 +.0195 .0245 6972e-7 1 0 0 0 0 -1 14 287 341 289 ?290 173 291 4 2
85 +0 0 290 173 19 50 288 398 0 290 285 292 0 +.0345 .0245 6972e-7 -231296463463
5745e-31 1 0 -1 -2312964634635745e-31 0 14 290 343 293 ?294 287 295 4 288 +0 0 2
94 287 19 50 292 399 0 294 288 296 0 +.0345 .0268 6972e-7 -1 0 0 0 0 1 14 294 34
5 297 ?298 290 299 4 292 +0 0 298 290 19 50 296 400 0 298 292 300 0 +.0445 .0268
 6972e-7 0 1 0 0 0 1 14 298 347 301 ?302 294 303 4 296 +0 0 302 294 19 50 300 40
1 0 302 296 304 0 +.0445 .0245 6972e-7 1 0 0 0 0 -1 14 302 349 305 ?306 298 307
 4 300 +0 0 306 298 19 50 304 402 0 306 300 308 0 +.054 .0245 6972e-7 0 1 0 0 0
 1 14 306 351 309 ?310 302 311 4 304 +0 0 310 302 19 50 308 403 0 310 304 312 0
 +.054 -.0012 6972e-7 1 0 0 0 0 -1 14 310 353 313 ?314 306 315 4 308 +0 0 314 30
6 19 50 312 404 0 314 308 316 0 +.0445 -.0012 6972e-7 0 -1 0 0 0 -1 14 314 355 3
17 ?318 310 319 4 312 +0 0 318 310 19 50 316 405 0 318 312 320 0 +.0445 -.0035 6
972e-7 1 0 0 0 0 -1 14 318 357 321 ?322 314 323 4 316 +0 0 322 314 19 50 320 406
 0 322 316 324 0 +.0345 -.0035 6972e-7 0 -1 0 0 0 -1 14 322 359 325 ?326 318 327
 4 320 +0 0 326 318 19 50 324 407 0 326 320 328 0 +.0345 -.0012 6972e-7 -1 0 0 0
 0 1 14 326 361 329 ?330 322 331 4 324 +0 0 330 322 19 50 328 408 0 330 324 332
 0 +.0195 -.0012 6972e-7 0 -1 0 0 0 -1 14 330 363 333 ?334 326 335 4 328 +0 0 33
4 326 19 50 332 409 0 334 328 336 0 +.0195 -.0035 6972e-7 1 0 0 0 0 -1 14 334 36
5 337 ?338 330 339 4 332 +0 0 338 330 19 50 336 410 0 338 332 340 0 +.0095 -.003
5 6972e-7 0 -1 0 0 0 -1 14 338 367 341 ?342 334 343 4 336 +0 0 342 334 19 50 340
 411 0 342 336 14 0 +.0095 -.0012 6972e-7 -1 0 0 0 0 1 14 342 369 344 ?270 338 3
45 4 340 +0 0 270 338 19 50 14 412 0 270 340 5 0 +0 -.0012 6972e-7 2282530889443
17e-31 -1 0 1 228253088944317e-31 0 14 270 371 346 ?167 342 101 4 14 +0 0 167 34
2 19 81 1 346 740 276 270 347 0 344 348 349 14 167 1 348 ?272 270 165 4 283 -0 0
 272 270 19 81 1 348 741 276 167 350 0 346 351 352 14 272 171 351 ?0 167 271 4 2
82 +0 0 0 167 19 50 283 2 0 167 0 282 0 +0 0 6972e-7 0 0 1 1 0 0 81 1 351 742 27
6 272 353 0 348 0 354 80 255 1 276 355 356 9000 1 1 1 1 1 1 1 1 0 FFFFTFTFFFFFFF
1 81 1 353 674 357 272 0 351 350 0 358 82 255 1 354 -559284051 80 1 357 0 359 80
01 0 0 0 0 3 5 0 0 0 FFFFTFTFFFFFFF2 81 1 350 673 357 167 0 348 347 353 360 83 2
55 3 358 .792156862745098 .819607843137255 .933333333333333 81 1 347 672 357 270
 0 346 361 350 362 83 3 360 .792156862745098 .819607843137255 .933333333333333 8
1 1 361 671 357 342 0 344 363 347 364 83 3 362 .792156862745098 .819607843137255
 .933333333333333 81 1 344 739 276 342 361 0 341 346 365 81 1 363 670 357 338 0
 341 366 361 367 83 3 364 .792156862745098 .819607843137255 .933333333333333 81
 1 341 738 276 338 363 0 337 344 368 81 1 366 669 357 334 0 337 369 363 370 83 3
 367 .792156862745098 .819607843137255 .933333333333333 81 1 337 737 276 334 366
 0 333 341 371 81 1 369 668 357 330 0 333 372 366 373 83 3 370 .792156862745098
 .819607843137255 .933333333333333 81 1 333 736 276 330 369 0 329 337 374 81 1 3
72 667 357 326 0 329 375 369 376 83 3 373 .792156862745098 .819607843137255 .933
333333333333 81 1 329 735 276 326 372 0 325 333 377 81 1 375 666 357 322 0 325 3
78 372 379 83 3 376 .792156862745098 .819607843137255 .933333333333333 81 1 325
 734 276 322 375 0 321 329 380 81 1 378 665 357 318 0 321 381 375 382 83 3 379 .
792156862745098 .819607843137255 .933333333333333 81 1 321 733 276 318 378 0 317
 325 383 81 1 381 664 357 314 0 317 384 378 385 83 3 382 .792156862745098 .81960
7843137255 .933333333333333 81 1 317 732 276 314 381 0 313 321 386 81 1 384 663
 357 310 0 313 387 381 388 83 3 385 .792156862745098 .819607843137255 .933333333
333333 81 1 313 731 276 310 384 0 309 317 389 81 1 387 662 357 306 0 309 390 384
 391 83 3 388 .792156862745098 .819607843137255 .933333333333333 81 1 309 730 27
6 306 387 0 305 313 392 81 1 390 661 357 302 0 305 393 387 394 83 3 391 .7921568
62745098 .819607843137255 .933333333333333 81 1 305 729 276 302 390 0 301 309 39
5 81 1 393 660 357 298 0 301 396 390 397 83 3 394 .792156862745098 .819607843137
255 .933333333333333 81 1 301 728 276 298 393 0 297 305 398 81 1 396 659 357 294
 0 297 399 393 400 83 3 397 .792156862745098 .819607843137255 .933333333333333 8
1 1 297 727 276 294 396 0 293 301 401 81 1 399 658 357 290 0 293 402 396 403 83
 3 400 .792156862745098 .819607843137255 .933333333333333 81 1 293 726 276 290 3
99 0 289 297 404 81 1 402 657 357 287 0 289 405 399 406 83 3 403 .79215686274509
8 .819607843137255 .933333333333333 81 1 289 725 276 287 402 0 286 293 407 81 1
 405 656 357 173 0 286 408 402 409 83 3 406 .792156862745098 .819607843137255 .9
33333333333333 81 1 286 724 276 173 405 0 281 289 410 81 1 408 655 357 155 0 278
 277 405 411 83 3 409 .792156862745098 .819607843137255 .933333333333333 81 1 27
8 722 276 155 408 0 274 281 412 81 1 277 654 357 273 0 274 413 408 414 83 3 411
 .792156862745098 .819607843137255 .933333333333333 81 1 413 653 357 12 0 281 0
 277 415 83 3 414 .792156862745098 .819607843137255 .933333333333333 81 1 281 72
3 276 12 413 0 278 286 416 83 3 415 .792156862745098 .819607843137255 .933333333
333333 82 1 416 -541130579 82 1 412 -543489875 82 1 410 -543358803 82 1 407 -543
227731 82 1 404 -543096659 82 1 401 -542965587 82 1 398 -542834515 82 1 395 -542
703443 82 1 392 -542572371 82 1 389 -542441299 82 1 386 -542310227 82 1 383 -542
179155 82 1 380 -542048083 82 1 377 -541917011 82 1 374 -541785939 82 1 371 -541
654867 82 1 368 -541523795 82 1 365 -541392723 79 255 15 359 SDL/TYSA_COLOUR79 1
4 356 SWEntUnchanged82 1 352 -572194643 82 1 349 -541261651 15 345 368 0 269 342
 0 17 269 0 345 105 43 38 189 187 0 186 -17 105 0 345 417 269 99 40 268 0 418 -1
7 43 0 345 269 417 41 110 267 0 419 +17 189 0 271 192 186 41 269 187 0 0 +17 192
 0 271 195 189 44 419 190 0 0 +17 195 0 271 198 192 47 420 193 0 0 +17 419 0 343
 110 46 41 192 190 0 189 -15 343 366 0 419 338 0 17 110 0 343 421 419 106 43 267
 0 422 -17 46 0 343 419 421 44 113 265 0 420 +17 421 0 343 46 110 111 422 423 0
 0 +17 113 0 339 424 420 111 46 265 0 425 -17 420 0 339 113 49 44 195 193 0 192
 -15 339 364 0 420 334 0 17 49 0 339 420 424 47 116 263 0 426 +17 424 0 339 49 1
13 114 425 427 0 0 +17 116 0 335 428 426 114 49 263 0 429 -17 426 0 335 116 52 4
7 198 196 0 195 -15 335 362 0 426 330 0 17 52 0 335 426 428 50 119 261 0 430 +17
 198 0 271 201 195 50 426 196 0 0 +17 201 0 271 204 198 53 430 199 0 0 +17 204 0
 271 207 201 56 431 202 0 0 +17 430 0 331 119 55 50 201 199 0 198 -15 331 360 0
 430 326 0 17 119 0 331 432 430 117 52 261 0 433 -17 55 0 331 430 432 53 122 259
 0 431 +17 432 0 331 55 119 120 433 434 0 0 +17 122 0 327 435 431 120 55 259 0 4
36 -17 431 0 327 122 58 53 204 202 0 201 -15 327 358 0 431 322 0 17 58 0 327 431
 435 56 125 257 0 437 +17 435 0 327 58 122 123 436 438 0 0 +17 125 0 323 439 437
 123 58 257 0 440 -17 437 0 323 125 61 56 207 205 0 204 -15 323 356 0 437 318 0
 17 61 0 323 437 439 59 128 255 0 441 +17 207 0 271 210 204 59 437 205 0 0 +17 2
10 0 271 213 207 62 441 208 0 0 +17 213 0 271 216 210 65 442 211 0 0 +17 441 0 3
19 128 64 59 210 208 0 207 -15 319 354 0 441 314 0 17 128 0 319 443 441 126 61 2
55 0 444 -17 64 0 319 441 443 62 131 253 0 442 +17 443 0 319 64 128 129 444 445
 0 0 +17 131 0 315 446 442 129 64 253 0 447 -17 442 0 315 131 67 62 213 211 0 21
0 -15 315 352 0 442 310 0 17 67 0 315 442 446 65 134 251 0 448 +17 446 0 315 67
 131 132 447 449 0 0 +17 134 0 311 450 448 132 67 251 0 451 -17 448 0 311 134 70
 65 216 214 0 213 -15 311 350 0 448 306 0 17 70 0 311 448 450 68 137 249 0 452 +
17 216 0 271 219 213 68 448 214 0 0 +17 219 0 271 222 216 71 452 217 0 0 +17 222
 0 271 225 219 74 453 220 0 0 +17 452 0 307 137 73 68 219 217 0 216 -15 307 348
 0 452 302 0 17 137 0 307 454 452 135 70 249 0 455 -17 73 0 307 452 454 71 140 2
47 0 453 +17 454 0 307 73 137 138 455 456 0 0 +17 140 0 303 457 453 138 73 247 0
 458 -17 453 0 303 140 76 71 222 220 0 219 -15 303 346 0 453 298 0 17 76 0 303 4
53 457 74 143 245 0 459 +17 457 0 303 76 140 141 458 460 0 0 +17 143 0 299 461 4
59 141 76 245 0 462 -17 459 0 299 143 79 74 225 223 0 222 -15 299 344 0 459 294
 0 17 79 0 299 459 461 77 146 243 0 463 +17 225 0 271 228 222 77 459 223 0 0 +17
 228 0 271 231 225 80 463 226 0 0 +17 231 0 271 159 228 83 464 229 0 0 +17 463 0
 295 146 82 77 228 226 0 225 -15 295 342 0 463 290 0 17 146 0 295 465 463 144 79
 243 0 466 -17 82 0 295 463 465 80 149 241 0 464 +17 465 0 295 82 146 147 466 17
6 0 0 +17 149 0 291 170 464 147 82 241 0 168 -17 464 0 291 149 85 80 231 229 0 2
28 -15 291 340 0 464 287 0 17 85 0 291 464 170 83 151 163 0 161 +17 170 0 291 85
 149 150 168 174 0 0 +17 161 0 160 151 87 83 159 232 0 231 -17 159 0 271 93 231
 86 161 232 0 0 +17 168 0 165 466 166 147 170 174 0 465 -17 466 0 165 462 168 14
4 465 176 0 461 -17 462 0 165 458 466 141 461 467 0 457 -16 176 49 0 ?465 174 46
7 178 0 0 1 17 461 0 299 79 143 144 462 467 0 0 +16 467 46 0 ?461 176 460 468 0
 0 1 16 460 43 0 ?457 467 456 469 0 0 1 30 468 47 0 467 469 178 0 +.0345 .0268 6
972e-7 0 -1 0 30 469 44 0 460 470 468 0 +.0445 .0268 6972e-7 -1 0 0 30 178 50 0
 176 468 177 0 +.0345 .0245 6972e-7 -1 -2312964634635745e-31 0 30 470 41 0 456 4
71 469 0 +.0445 .0245 6972e-7 0 1 0 16 456 40 0 ?454 460 472 470 0 0 1 30 471 38
 0 472 473 470 0 +.054 .0245 6972e-7 -1 0 0 16 472 37 0 ?450 456 449 471 0 0 1 3
0 473 35 0 449 474 471 0 +.054 -.0012 6972e-7 0 1 0 16 449 34 0 ?446 472 445 473
 0 0 1 30 474 32 0 445 475 473 0 +.0445 -.0012 6972e-7 1 0 0 16 445 31 0 ?443 44
9 476 474 0 0 1 30 475 29 0 476 477 474 0 +.0445 -.0035 6972e-7 0 1 0 16 476 28
 0 ?439 445 438 475 0 0 1 30 477 26 0 438 478 475 0 +.0345 -.0035 6972e-7 1 0 0
 16 438 25 0 ?435 476 434 477 0 0 1 30 478 23 0 434 479 477 0 +.0345 -.0012 6972
e-7 0 -1 0 16 434 22 0 ?432 438 480 478 0 0 1 30 479 20 0 480 481 478 0 +.0195 -
.0012 6972e-7 1 0 0 16 480 19 0 ?428 434 427 479 0 0 1 30 481 17 0 427 482 479 0
 +.0195 -.0035 6972e-7 0 1 0 16 427 16 0 ?424 480 423 481 0 0 1 30 482 14 0 423
 483 481 0 +.0095 -.0035 6972e-7 1 0 0 16 423 13 0 ?421 427 484 482 0 0 1 30 483
 11 0 484 485 482 0 +.0095 -.0012 6972e-7 0 -1 0 16 484 10 0 ?417 423 486 483 0
 0 1 30 485 8 0 486 487 483 0 +0 -.0012 6972e-7 1 228253088944317e-31 0 16 486 7
 0 ?102 484 237 485 0 0 1 30 487 5 0 237 0 485 0 +-3147342273808695e-33 .0245 69
72e-7 1224646799147352e-31 -1 0 16 237 4 0 ?27 486 235 487 0 0 1 17 102 0 101 40
 98 99 104 486 0 0 +17 104 0 165 29 418 94 102 486 0 27 -17 29 0 165 157 104 10
 27 237 0 97 -17 418 0 165 104 422 99 417 484 0 102 -17 422 0 165 418 425 106 42
1 423 0 417 -17 417 0 345 43 105 106 418 484 0 0 +17 425 0 165 422 429 111 424 4
27 0 421 -17 429 0 165 425 433 114 428 480 0 424 -17 433 0 165 429 436 117 432 4
34 0 428 -17 428 0 335 52 116 117 429 480 0 0 +17 436 0 165 433 440 120 435 438
 0 432 -17 440 0 165 436 444 123 439 476 0 435 -17 444 0 165 440 447 126 443 445
 0 439 -17 439 0 323 61 125 126 440 476 0 0 +17 447 0 165 444 451 129 446 449 0
 443 -17 451 0 165 447 455 132 450 472 0 446 -17 455 0 165 451 458 135 454 456 0
 450 -17 450 0 311 70 134 135 451 472 0 0 +17 458 0 165 455 462 138 457 460 0 45
4 -82 1 279 -543620947 19 13 415 0 1 0 8 4 S0 74 4 CI16 index_map_offset0 0 1 dC
CZ20 11 2 0 0 351 353 0 0 0 0 0 0 0 0 0 0 0 0 0 0 0 0 0 0 1 0 
