**ABCDEFGHIJKLMNOPQRSTUVWXYZabcdefghijklmnopqrstuvwxyz**************************
**PARASOLID !"#$%&'()*+,-./:;<=>?@[\]^_`{|}~0123456789**************************
**PART1;
MC=AMD64;
MC_MODEL=Intel64 Family 6 Model 94 Stepping 3, GenuineIntel;
MC_ID=unknown;
OS=Windows_NT;
OS_RELEASE=unknown;
FRU=Parasolid Version 28.0, build 204, 11- 9-2015;
APPL=SOLIDWORKS 2016-2016040;
SITE=;
USER=unknown;
FORMAT=text;
GUISE=transmit;
KEY=Bottom Plate 2.3mm V2 Kit 1;
FILE=Bottom Plate 2.3mm V2 Kit 1.x_t;
DATE=Sun Aug 13 17:34:46 2017;
**PART2;
SCH=SCH_2800204_28002;
USFLD_SIZE=0;
**PART3;
**END_OF_HEADER*****************************************************************
T51 : TRANSMIT FILE created by modeller version 280020423 SCH_2800204_28002_1300
6200 0 12 30 CCCCCCCCCCCCCDI5 owner1040 0 CCCCCCCCCA13 boundary_mesh1006 0 A16 i
ndex_map_offset0 0 1 dA9 index_map82 0 A17 node_id_index_map82 0 A20 schema_embe
dding_map82 0 A5 child12 0 A14 lowest_node_id0 0 1 dZ1 2824 0 2 0 0 0 0 1e3 1e-8
 0 3 0 1 0 1 1 4 5 6 7 8 9 10 0 0 0 0 0 0 0 70 11 CI9 list_type0 0 1 uI10 notran
smit0 0 1 lCCCDCCDI12 finger_index0 0 1 dI12 finger_block1012 0 CZ2 0 4 T1 0 0 2
 20 1 11 11 13 255 4 174 0 1 0 12 0 0 13 0 51 255 5 608 0 14 15 0 0 +.0195 -.05
 0 0 0 -1 .002 -1 0 0 31 255 6 2327 0 16 17 0 0 +.096 -.011 0 0 0 1 1 0 0 .001 2
9 255 7 2104 0 10 18 0 .092 -.003 0 19 8 CCCCCCCA5 owner12 0 Z8 52 0 1 13 0 19 V
0 16 255 9 2106 0 ?20 0 21 22 0 0 1 18 255 10 2102 0 23 0 24 7 ?1 17 255 23 0 25
 26 27 10 28 29 0 30 -18 24 1938 0 31 10 32 18 ?1 17 31 0 33 34 35 24 36 37 0 38
 -18 32 1319 0 39 24 40 41 ?1 29 18 1940 0 24 41 7 .008 -.003 0 29 41 1321 0 32
 42 18 .0575 -.08715 .0023 29 42 1304 0 40 43 41 .0675 -.08715 0 18 40 1302 0 44
 32 45 42 ?1 29 43 1191 0 45 46 42 .0425 -.08485 .0023 18 45 1189 0 47 40 48 43
 ?1 29 46 1174 0 48 49 43 .0325 -.08485 0 18 48 1172 0 50 45 51 46 ?1 29 49 1061
 0 51 52 46 .01015 -.05 .0023 18 51 1059 0 53 48 54 49 ?1 29 52 1044 0 54 55 49
 .01015 -.04 0 18 54 1042 0 56 51 57 52 ?1 29 55 931 0 57 58 52 .09215 -.05 .002
3 18 57 929 0 59 54 60 55 ?1 29 58 914 0 60 61 55 .09215 -.04 0 18 60 912 0 62 5
7 63 58 ?1 29 61 801 0 63 64 58 .01015 -.01 .0023 18 63 799 0 65 60 66 61 ?1 29
 64 784 0 66 67 61 .00785 -.01 0 18 66 782 0 68 63 69 64 ?1 29 67 671 0 69 70 64
 .09215 -.01 .0023 18 69 669 0 71 66 72 67 ?1 29 70 654 0 72 73 67 .08985 -.01 0
 18 72 652 0 74 69 75 70 ?1 29 73 467 0 75 76 70 .0175 -.05 0 18 75 465 0 77 72
 78 73 ?1 29 76 464 0 78 79 73 .0175 -.009 0 18 78 462 0 80 75 81 76 ?1 29 79 46
1 0 81 82 76 .0175 -.05 .0023 18 81 459 0 83 78 84 79 ?1 29 82 458 0 84 85 79 .0
175 -.009 .0023 18 84 456 0 86 81 87 82 ?1 29 85 445 0 87 88 82 .0195 -.007 0 18
 87 443 0 89 84 90 85 ?1 29 88 442 0 90 91 85 .0805 -.007 0 18 90 440 0 92 87 93
 88 ?1 29 91 439 0 93 94 88 .0195 -.007 .0023 18 93 437 0 95 90 96 91 ?1 29 94 4
36 0 96 97 91 .0805 -.007 .0023 18 96 434 0 98 93 99 94 ?1 29 97 423 0 99 100 94
 .0805 -.052 0 18 99 421 0 101 96 102 97 ?1 29 100 420 0 102 103 97 .0195 -.052
 0 18 102 418 0 104 99 105 100 ?1 29 103 417 0 105 106 100 .0805 -.052 .0023 18
 105 415 0 107 102 108 103 ?1 29 106 414 0 108 109 103 .0195 -.052 .0023 18 108
 412 0 110 105 111 106 ?1 29 109 401 0 111 112 106 .0825 -.009 0 18 111 399 0 11
3 108 114 109 ?1 29 112 398 0 114 115 109 .0825 -.05 0 18 114 396 0 116 111 117
 112 ?1 29 115 395 0 117 118 112 .0825 -.009 .0023 18 117 393 0 119 114 120 115
 ?1 29 118 392 0 120 121 115 .0825 -.05 .0023 18 120 390 0 122 117 123 118 ?1 29
 121 128 0 124 125 118 .1 -.057 0 18 124 111 0 126 127 128 121 ?1 29 125 129 0 1
28 129 121 .077 -.057 0 18 128 112 0 130 124 131 125 ?1 29 129 130 0 131 132 125
 .077 -.09 0 18 131 113 0 133 128 134 129 ?1 29 132 131 0 134 135 129 .023 -.09
 0 18 134 114 0 136 131 137 132 ?1 29 135 132 0 137 138 132 .023 -.057 0 18 137
 115 0 139 134 140 135 ?1 29 138 133 0 140 141 135 710295143505465e-32 -.057 0 1
8 140 116 0 142 137 143 138 ?1 29 141 45 0 123 144 138 .1 -.057 .0023 18 123 43
 0 145 120 146 141 ?1 29 144 42 0 146 147 141 .077 -.057 .0023 18 146 40 0 148 1
23 149 144 ?1 29 147 39 0 149 150 144 .077 -.09 .0023 18 149 37 0 151 146 152 14
7 ?1 29 150 36 0 152 153 147 .023 -.09 .0023 18 152 34 0 154 149 155 150 ?1 29 1
53 33 0 155 156 150 .023 -.057 .0023 18 155 31 0 157 152 127 153 ?1 29 156 30 0
 127 158 153 710295143505465e-32 -.057 .0023 18 127 28 0 159 155 124 156 ?1 29 1
58 768 0 160 161 156 .09215 -.02 .0023 18 160 721 0 162 163 164 158 ?1 29 161 76
9 0 164 165 158 .08985 -.02 .0023 18 164 723 0 166 160 167 161 ?1 29 165 770 0 1
67 168 161 .08985 -.01 .0023 18 167 725 0 169 164 170 165 ?1 29 168 772 0 143 17
1 165 .09215 -.02 0 18 143 718 0 172 140 173 168 ?1 29 171 773 0 173 174 168 .08
985 -.02 0 18 173 720 0 175 143 163 171 ?1 29 174 775 0 163 176 171 .09215 -.01
 0 18 163 724 0 177 173 160 174 ?1 29 176 898 0 178 179 174 .01015 -.02 .0023 18
 178 851 0 180 181 182 176 ?1 29 179 899 0 182 183 176 .00785 -.02 .0023 18 182
 853 0 184 178 185 179 ?1 29 183 900 0 185 186 179 .00785 -.01 .0023 18 185 855
 0 187 182 188 183 ?1 29 186 902 0 170 189 183 .01015 -.02 0 18 170 848 0 190 16
7 191 186 ?1 29 189 903 0 191 192 186 .00785 -.02 0 18 191 850 0 193 170 181 189
 ?1 29 192 905 0 181 194 189 .01015 -.01 0 18 181 854 0 195 191 178 192 ?1 29 19
4 1028 0 196 197 192 .08985 -.05 .0023 18 196 981 0 198 199 200 194 ?1 29 197 10
29 0 200 201 194 .08985 -.04 .0023 18 200 983 0 202 196 203 197 ?1 29 201 1030 0
 203 204 197 .09215 -.04 .0023 18 203 985 0 205 200 206 201 ?1 29 204 1032 0 188
 207 201 .08985 -.05 0 18 188 978 0 208 185 209 204 ?1 29 207 1033 0 209 210 204
 .08985 -.04 0 18 209 980 0 211 188 199 207 ?1 29 210 1035 0 199 212 207 .09215
 -.05 0 18 199 984 0 213 209 196 210 ?1 29 212 1158 0 214 215 210 .00785 -.05 .0
023 18 214 1111 0 216 217 218 212 ?1 29 215 1159 0 218 219 212 .00785 -.04 .0023
 18 218 1113 0 220 214 221 215 ?1 29 219 1160 0 221 222 215 .01015 -.04 .0023 18
 221 1115 0 223 218 224 219 ?1 29 222 1162 0 206 225 219 .00785 -.05 0 18 206 11
08 0 226 203 227 222 ?1 29 225 1163 0 227 228 222 .00785 -.04 0 18 227 1110 0 22
9 206 217 225 ?1 29 228 1165 0 217 230 225 .01015 -.05 0 18 217 1114 0 231 227 2
14 228 ?1 29 230 1288 0 232 233 228 .0425 -.08715 .0023 18 232 1241 0 234 235 23
6 230 ?1 29 233 1289 0 236 237 230 .0325 -.08715 .0023 18 236 1243 0 238 232 239
 233 ?1 29 237 1290 0 239 240 233 .0325 -.08485 .0023 18 239 1245 0 241 236 242
 237 ?1 29 240 1292 0 224 243 237 .0425 -.08715 0 18 224 1238 0 244 221 245 240
 ?1 29 243 1293 0 245 246 240 .0325 -.08715 0 18 245 1240 0 247 224 235 243 ?1 2
9 246 1295 0 235 248 243 .0425 -.08485 0 18 235 1244 0 249 245 232 246 ?1 29 248
 1418 0 250 251 246 .0575 -.08485 .0023 18 250 1371 0 252 253 254 248 ?1 29 251
 1419 0 254 255 248 .0675 -.08485 .0023 18 254 1373 0 256 250 257 251 ?1 29 255
 1420 0 257 258 251 .0675 -.08715 .0023 18 257 1375 0 259 254 260 255 ?1 29 258
 1422 0 242 261 255 .0575 -.08485 0 18 242 1368 0 262 239 263 258 ?1 29 261 1423
 0 263 264 258 .0675 -.08485 0 18 263 1370 0 265 242 253 261 ?1 29 264 1425 0 25
3 266 261 .0575 -.08715 0 18 253 1374 0 267 263 250 264 ?1 29 266 2081 0 260 268
 264 .008 979717439317882e-33 0 18 260 2014 0 269 257 270 266 ?1 29 268 2083 0 2
70 271 266 0 -.003 0 18 270 2018 0 34 260 272 268 ?1 29 271 2085 0 272 273 268 .
008 979717439317882e-33 .0023 18 272 2011 0 274 270 275 271 ?1 29 273 2086 0 275
 276 271 .008 -.003 .0023 18 275 2012 0 36 272 277 273 ?1 29 276 2087 0 277 278
 273 0 -.003 .0023 18 277 2013 0 279 275 280 276 ?1 29 278 2245 0 280 281 276 .1
 -.003 0 18 280 2178 0 282 277 283 278 ?1 29 281 2247 0 283 284 278 .092 0 0 18
 283 2182 0 26 280 285 281 ?1 29 284 2249 0 285 286 281 .1 -.003 .0023 18 285 21
75 0 287 283 288 284 ?1 29 286 2250 0 288 289 284 .092 -.003 .0023 18 288 2176 0
 28 285 290 286 ?1 29 289 2251 0 290 0 286 .092 0 .0023 18 290 2177 0 291 288 0
 289 ?1 17 291 0 25 27 26 290 292 293 0 294 +15 255 25 2196 0 291 295 0 17 27 0
 25 23 291 288 294 296 0 297 +17 26 0 25 291 23 283 298 21 0 292 -17 292 0 299 2
69 300 283 291 293 0 301 -16 293 2144 0 ?291 29 302 303 0 0 1 17 294 0 304 274 2
97 290 27 296 0 300 -15 304 2122 0 297 305 306 17 274 0 304 307 294 272 300 308
 0 309 +17 297 0 304 294 310 288 287 302 0 0 -16 296 2167 0 ?27 302 311 312 0 0
 1 17 300 0 299 292 313 290 274 308 0 0 -15 299 142 0 300 314 0 17 313 0 299 300
 269 272 315 316 0 0 +16 308 2115 0 ?274 317 318 319 0 0 1 16 317 136 0 ?320 321
 308 322 0 0 1 16 318 22 0 ?310 308 323 324 0 0 1 30 255 319 26 0 308 324 325 0
 +0 0 .0023 -1 0 0 30 324 23 0 318 326 319 0 +.1 0 .0023 -2434699615406045e-31 1
 0 30 325 125 0 327 319 328 0 +0 0 0 1246131830711342e-31 -1 0 16 327 1933 0 ?14
2 329 330 325 0 0 1 30 328 124 0 329 325 331 0 +710295143505465e-32 -.057 0 1 0
 0 16 329 101 0 ?139 332 327 328 0 0 1 30 331 123 0 332 328 333 0 +.023 -.09 0 1
051347561198064e-31 -1 0 16 332 97 0 ?136 334 329 331 0 0 1 30 333 122 0 334 331
 335 0 +.023 -.09 0 1 0 0 16 334 93 0 ?133 336 332 333 0 0 1 30 335 121 0 336 33
3 337 0 +.077 -.09 0 -420539024479226e-30 1 0 16 336 89 0 ?130 338 334 335 0 0 1
 30 337 120 0 338 335 339 0 +.1 -.057 0 1 0 0 16 338 85 0 ?126 340 336 337 0 0 1
 30 339 119 0 340 337 341 0 +.1 0 0 -2434699615406045e-31 1 0 16 340 81 0 ?342 3
43 338 339 0 0 1 30 341 118 0 343 339 322 0 +0 0 0 -1 0 0 16 343 2097 0 ?269 344
 340 341 0 0 1 30 322 168 0 317 341 345 0 +.1 -.057 .0023 0 0 -1 30 345 169 0 32
1 322 346 0 +.077 -.057 .0023 0 0 -1 16 321 137 0 ?347 348 317 345 0 0 1 30 346
 170 0 348 345 349 0 +.077 -.09 .0023 0 0 -1 16 348 138 0 ?350 351 321 346 0 0 1
 30 349 171 0 351 346 352 0 +.023 -.09 .0023 0 0 -1 16 351 139 0 ?353 354 348 34
9 0 0 1 30 352 172 0 354 349 355 0 +.023 -.057 .0023 0 0 -1 16 354 140 0 ?356 35
7 351 352 0 0 1 30 355 173 0 357 352 358 0 +710295143505465e-32 -.057 .0023 0 0
 -1 16 357 141 0 ?359 360 354 355 0 0 1 30 358 404 0 360 355 361 0 -.0825 -.009
 0 0 0 1 16 360 402 0 ?113 362 357 358 0 0 1 30 361 409 0 362 358 363 0 +.0825 -
.05 .0023 0 0 1 16 362 407 0 ?364 365 360 361 0 0 1 30 363 426 0 365 361 366 0 +
.0195 -.052 .0023 0 0 1 16 365 424 0 ?367 368 362 363 0 0 1 30 366 431 0 368 363
 369 0 -.0805 -.052 0 0 0 1 16 368 429 0 ?101 370 365 366 0 0 1 30 369 448 0 370
 366 371 0 -.0195 -.007 0 0 0 1 16 370 446 0 ?89 372 368 369 0 0 1 30 371 453 0
 372 369 373 0 +.0805 -.007 .0023 0 0 1 16 372 451 0 ?374 375 370 371 0 0 1 30 3
73 470 0 375 371 376 0 -.0175 -.05 0 0 0 1 16 375 468 0 ?77 377 372 373 0 0 1 30
 376 475 0 377 373 378 0 +.0175 -.009 .0023 0 0 1 16 377 473 0 ?379 380 375 376
 0 0 1 31 378 510 0 380 376 381 0 -.0805 -.05 .0023 0 0 1 1 0 0 .002 16 380 478
 0 ?107 382 377 378 0 0 1 31 381 511 0 382 378 383 0 +.0805 -.05 0 0 0 1 1 0 0 .
002 16 382 482 0 ?116 384 380 381 0 0 1 31 383 512 0 384 381 385 0 -.0805 -.009
 .0023 0 0 1 1 0 0 .002 16 384 486 0 ?119 386 382 383 0 0 1 31 385 513 0 386 383
 387 0 +.0805 -.009 0 0 0 1 1 0 0 .002 16 386 490 0 ?92 388 384 385 0 0 1 31 387
 514 0 388 385 389 0 -.0195 -.009 .0023 0 0 1 1 0 0 .002 16 388 494 0 ?95 390 38
6 387 0 0 1 31 389 515 0 390 387 391 0 +.0195 -.009 0 0 0 1 1 0 0 .002 16 390 49
8 0 ?80 392 388 389 0 0 1 31 391 516 0 392 389 393 0 -.0195 -.05 .0023 0 0 1 1 0
 0 .002 16 392 502 0 ?83 394 390 391 0 0 1 31 393 517 0 394 391 395 0 +.0195 -.0
5 0 0 0 1 1 0 0 .002 16 394 506 0 ?104 396 392 393 0 0 1 30 395 1941 0 396 393 3
97 0 +0 -.003 0 1 0 0 16 396 1939 0 ?398 399 394 395 0 0 1 30 397 1944 0 399 395
 400 0 +.008 0 0 0 1 0 16 399 1942 0 ?401 21 396 397 0 0 1 30 400 2105 0 21 397
 22 0 +.092 0 0 0 -1 0 16 21 2103 0 ?298 9 399 400 0 0 1 30 22 2108 0 9 400 17 0
 +0 -.003 0 1 0 0 31 17 2283 0 311 22 6 0 +.004 -.011 0 0 0 1 1 0 0 .001 16 311
 2293 0 ?402 296 403 17 0 0 1 17 402 0 404 402 402 0 405 311 0 0 +16 403 2297 0
 ?406 311 16 407 0 0 1 17 406 0 408 406 406 0 409 403 0 0 +16 16 2337 0 ?410 403
 411 6 0 0 1 31 407 2321 0 403 412 312 0 +.004 -.011 .0023 0 0 1 1 0 0 .001 31 4
12 2365 0 411 0 407 0 +.096 -.011 .0023 0 0 1 1 0 0 .001 30 312 2238 0 296 407 4
13 0 +.092 -.003 .0023 0 -1 0 30 413 2237 0 302 312 414 0 +.1 -.003 .0023 1 0 0
 16 302 2170 0 ?287 293 296 413 0 0 1 30 414 2236 0 415 413 416 0 +.1 -.003 -.00
77 0 0 1 16 415 2140 0 ?417 418 29 414 0 0 1 30 416 2235 0 29 414 303 0 +.092 -.
003 -.0077 0 0 1 16 29 2142 0 ?28 415 293 416 0 0 1 30 303 2234 0 293 416 419 0
 +.092 0 -.0077 0 0 1 30 419 2074 0 418 303 420 0 +0 -.003 .0023 1 0 0 16 418 20
03 0 ?35 421 415 419 0 0 1 30 420 2073 0 421 419 422 0 +.008 -.003 .0023 0 1 0 1
6 421 2006 0 ?309 423 418 420 0 0 1 30 422 2072 0 316 420 424 0 +.008 9797174393
17882e-33 -.0077 0 0 1 16 316 1976 0 ?313 425 37 422 0 0 1 30 424 2071 0 37 422
 426 0 +.008 -.003 -.0077 0 0 1 16 37 1978 0 ?36 316 423 424 0 0 1 30 426 2070 0
 423 424 427 0 +0 -.003 -.0077 0 0 1 16 423 1980 0 ?279 37 421 426 0 0 1 31 427
 1863 0 428 426 429 0 +.0687496887995326 -.08205 0 0 0 1 1 0 0 .00115 16 428 184
0 0 ?430 431 425 427 0 0 1 31 429 1862 0 425 427 432 0 +.0687496887995326 -.0820
5 .0023 0 0 1 1 0 0 .00115 16 425 1843 0 ?433 428 316 429 0 0 1 31 432 1825 0 43
4 429 435 0 +.0499996887995326 -.071875 0 0 0 1 1 0 0 .00115 16 434 1802 0 ?436
 437 431 432 0 0 1 31 435 1824 0 431 432 438 0 +.0499996887995326 -.071875 .0023
 0 0 1 1 0 0 .00115 16 431 1805 0 ?439 434 428 435 0 0 1 31 438 1787 0 440 435 4
41 0 +.03124968879953255 -.08205 0 0 0 1 1 0 0 .00115 16 440 1764 0 ?442 443 437
 438 0 0 1 31 441 1786 0 437 438 444 0 +.03124968879953255 -.08205 .0023 0 0 1 1
 0 0 .00115 16 437 1767 0 ?445 440 434 441 0 0 1 31 444 1749 0 446 441 447 0 +.0
687496887995326 -.0617 0 0 0 1 1 0 0 .00115 16 446 1726 0 ?448 449 443 444 0 0 1
 31 447 1748 0 443 444 450 0 +.0687496887995326 -.0617 .0023 0 0 1 1 0 0 .00115
 16 443 1729 0 ?451 446 440 447 0 0 1 31 450 1711 0 452 447 453 0 +.031249688799
53255 -.0617 0 0 0 1 1 0 0 .00115 16 452 1688 0 ?454 455 449 450 0 0 1 31 453 17
10 0 449 450 456 0 +.03124968879953255 -.0617 .0023 0 0 1 1 0 0 .00115 16 449 16
91 0 ?457 452 446 453 0 0 1 31 456 1620 0 458 453 459 0 +.0845 -.003 0 0 0 1 1 0
 0 .001 16 458 1597 0 ?460 461 455 456 0 0 1 31 459 1619 0 455 456 462 0 +.0845
 -.003 .0023 0 0 1 1 0 0 .001 16 455 1600 0 ?463 458 452 459 0 0 1 31 462 1582 0
 464 459 465 0 +.0155 -.003 0 0 0 1 1 0 0 .001 16 464 1559 0 ?466 467 461 462 0
 0 1 31 465 1581 0 461 462 468 0 +.0155 -.003 .0023 0 0 1 1 0 0 .001 16 461 1562
 0 ?469 464 458 465 0 0 1 30 468 1417 0 470 465 471 0 +.0575 -.08715 0 0 -1 0 16
 470 1340 0 ?472 473 474 468 0 0 1 30 471 1416 0 473 468 475 0 +.0675 -.08715 0
 1 0 0 16 473 1352 0 ?476 477 470 471 0 0 1 30 475 1415 0 477 471 478 0 +.0675 -
.08715 0 181014623580189e-28 1 0 16 477 1348 0 ?479 480 473 475 0 0 1 30 478 141
4 0 480 475 481 0 +.0675 -.08485 0 -1 0 0 16 480 1344 0 ?482 483 477 478 0 0 1 3
0 481 1413 0 467 478 484 0 +.0575 -.08715 .0023 0 -1 0 16 467 1356 0 ?39 485 464
 481 0 0 1 30 484 1412 0 485 481 486 0 +.0675 -.08715 .0023 1 0 0 16 485 1359 0
 ?487 488 467 484 0 0 1 30 486 1411 0 488 484 489 0 +.0675 -.08715 .0023 1810146
23580189e-28 1 0 16 488 1362 0 ?490 474 485 486 0 0 1 30 489 1410 0 474 486 491
 0 +.0675 -.08485 .0023 -1 0 0 16 474 1365 0 ?492 470 488 489 0 0 1 30 491 1409
 0 493 489 494 0 +.0575 -.08485 0 0 0 1 16 493 1347 0 ?252 495 496 491 0 0 1 30
 494 1408 0 496 491 497 0 +.0675 -.08485 0 0 0 1 16 496 1351 0 ?256 493 498 494
 0 0 1 30 497 1407 0 498 494 499 0 +.0675 -.08715 0 0 0 1 16 498 1355 0 ?259 496
 483 497 0 0 1 30 499 1406 0 483 497 500 0 +.0575 -.08715 0 0 0 1 16 483 1343 0
 ?501 498 480 499 0 0 1 30 500 1287 0 502 499 503 0 +.0425 -.08715 0 -3016910393
00315e-29 1 0 16 502 1210 0 ?504 505 506 500 0 0 1 30 503 1286 0 505 500 507 0 +
.0325 -.08485 0 -1 0 0 16 505 1222 0 ?508 509 502 503 0 0 1 30 507 1285 0 509 50
3 510 0 +.0325 -.08715 0 0 -1 0 16 509 1218 0 ?511 512 505 507 0 0 1 30 510 1284
 0 512 507 513 0 +.0325 -.08715 0 1 0 0 16 512 1214 0 ?514 515 509 510 0 0 1 30
 513 1283 0 495 510 516 0 +.0425 -.08715 .0023 -301691039300315e-29 1 0 16 495 1
226 0 ?47 517 493 513 0 0 1 30 516 1282 0 517 513 518 0 +.0325 -.08485 .0023 -1
 0 0 16 517 1229 0 ?519 520 495 516 0 0 1 30 518 1281 0 520 516 521 0 +.0325 -.0
8715 .0023 0 -1 0 16 520 1232 0 ?522 506 517 518 0 0 1 30 521 1280 0 506 518 523
 0 +.0325 -.08715 .0023 1 0 0 16 506 1235 0 ?524 502 520 521 0 0 1 30 523 1279 0
 525 521 526 0 +.0425 -.08715 0 0 0 1 16 525 1217 0 ?234 527 528 523 0 0 1 30 52
6 1278 0 528 523 529 0 +.0325 -.08715 0 0 0 1 16 528 1221 0 ?238 525 530 526 0 0
 1 30 529 1277 0 530 526 531 0 +.0325 -.08485 0 0 0 1 16 530 1225 0 ?241 528 515
 529 0 0 1 30 531 1276 0 515 529 532 0 +.0425 -.08485 0 0 0 1 16 515 1213 0 ?533
 530 512 531 0 0 1 30 532 1157 0 534 531 535 0 +.00785 -.05 0 1 0 0 16 534 1080
 0 ?536 537 538 532 0 0 1 30 535 1156 0 537 532 539 0 +.01015 -.04 0 -3469446951
953615e-31 1 0 16 537 1092 0 ?540 541 534 535 0 0 1 30 539 1155 0 541 535 542 0
 +.00785 -.04 0 -1 0 0 16 541 1088 0 ?543 544 537 539 0 0 1 30 542 1154 0 544 53
9 545 0 +.00785 -.04 0 0 -1 0 16 544 1084 0 ?546 547 541 542 0 0 1 30 545 1153 0
 527 542 548 0 +.00785 -.05 .0023 1 0 0 16 527 1096 0 ?53 549 525 545 0 0 1 30 5
48 1152 0 549 545 550 0 +.01015 -.04 .0023 -3469446951953615e-31 1 0 16 549 1099
 0 ?551 552 527 548 0 0 1 30 550 1151 0 552 548 553 0 +.00785 -.04 .0023 -1 0 0
 16 552 1102 0 ?554 538 549 550 0 0 1 30 553 1150 0 538 550 555 0 +.00785 -.04 .
0023 0 -1 0 16 538 1105 0 ?556 534 552 553 0 0 1 30 555 1149 0 557 553 558 0 +.0
0785 -.05 0 0 0 1 16 557 1087 0 ?216 559 560 555 0 0 1 30 558 1148 0 560 555 561
 0 +.00785 -.04 0 0 0 1 16 560 1091 0 ?220 557 562 558 0 0 1 30 561 1147 0 562 5
58 563 0 +.01015 -.04 0 0 0 1 16 562 1095 0 ?223 560 547 561 0 0 1 30 563 1146 0
 547 561 564 0 +.01015 -.05 0 0 0 1 16 547 1083 0 ?565 562 544 563 0 0 1 30 564
 1027 0 566 563 567 0 +.08985 -.05 0 1 0 0 16 566 950 0 ?568 569 570 564 0 0 1 3
0 567 1026 0 569 564 571 0 +.09215 -.04 0 0 1 0 16 569 962 0 ?572 573 566 567 0
 0 1 30 571 1025 0 573 567 574 0 +.08985 -.04 0 -1 0 0 16 573 958 0 ?575 576 569
 571 0 0 1 30 574 1024 0 576 571 577 0 +.08985 -.04 0 0 -1 0 16 576 954 0 ?578 5
79 573 574 0 0 1 30 577 1023 0 559 574 580 0 +.08985 -.05 .0023 1 0 0 16 559 966
 0 ?59 581 557 577 0 0 1 30 580 1022 0 581 577 582 0 +.09215 -.04 .0023 0 1 0 16
 581 969 0 ?583 584 559 580 0 0 1 30 582 1021 0 584 580 585 0 +.08985 -.04 .0023
 -1 0 0 16 584 972 0 ?586 570 581 582 0 0 1 30 585 1020 0 570 582 587 0 +.08985
 -.04 .0023 0 -1 0 16 570 975 0 ?588 566 584 585 0 0 1 30 587 1019 0 589 585 590
 0 +.08985 -.05 0 0 0 1 16 589 957 0 ?198 591 592 587 0 0 1 30 590 1018 0 592 58
7 593 0 +.08985 -.04 0 0 0 1 16 592 961 0 ?202 589 594 590 0 0 1 30 593 1017 0 5
94 590 595 0 +.09215 -.04 0 0 0 1 16 594 965 0 ?205 592 579 593 0 0 1 30 595 101
6 0 579 593 596 0 +.09215 -.05 0 0 0 1 16 579 953 0 ?597 594 576 595 0 0 1 30 59
6 897 0 598 595 599 0 +.01015 -.01 0 -3469446951953615e-31 1 0 16 598 820 0 ?600
 601 602 596 0 0 1 30 599 896 0 601 596 603 0 +.00785 -.01 0 -1 -754227598250787
e-30 0 16 601 832 0 ?604 605 598 599 0 0 1 30 603 895 0 605 599 606 0 +.00785 -.
01 0 3469446951953615e-31 -1 0 16 605 828 0 ?607 608 601 603 0 0 1 30 606 894 0
 608 603 609 0 +.00785 -.02 0 1 0 0 16 608 824 0 ?610 611 605 606 0 0 1 30 609 8
93 0 591 606 612 0 +.01015 -.01 .0023 -3469446951953615e-31 1 0 16 591 836 0 ?65
 613 589 609 0 0 1 30 612 892 0 613 609 614 0 +.00785 -.01 .0023 -1 -75422759825
0787e-30 0 16 613 839 0 ?615 616 591 612 0 0 1 30 614 891 0 616 612 617 0 +.0078
5 -.01 .0023 3469446951953615e-31 -1 0 16 616 842 0 ?618 602 613 614 0 0 1 30 61
7 890 0 602 614 619 0 +.00785 -.02 .0023 1 0 0 16 602 845 0 ?620 598 616 617 0 0
 1 30 619 889 0 621 617 622 0 +.01015 -.02 0 0 0 1 16 621 827 0 ?180 623 624 619
 0 0 1 30 622 888 0 624 619 625 0 +.00785 -.02 0 0 0 1 16 624 831 0 ?184 621 626
 622 0 0 1 30 625 887 0 626 622 627 0 +.00785 -.01 0 0 0 1 16 626 835 0 ?187 624
 611 625 0 0 1 30 627 886 0 611 625 628 0 +.01015 -.01 0 0 0 1 16 611 823 0 ?629
 626 608 627 0 0 1 30 628 767 0 630 627 631 0 +.09215 -.01 0 0 1 0 16 630 690 0
 ?632 633 634 628 0 0 1 30 631 766 0 633 628 635 0 +.08985 -.01 0 -1 0 0 16 633
 702 0 ?636 637 630 631 0 0 1 30 635 765 0 637 631 638 0 +.08985 -.01 0 -1387778
780781446e-30 -1 0 16 637 698 0 ?639 640 633 635 0 0 1 30 638 764 0 640 635 641
 0 +.08985 -.02 0 1 0 0 16 640 694 0 ?642 643 637 638 0 0 1 30 641 763 0 623 638
 644 0 +.09215 -.01 .0023 0 1 0 16 623 706 0 ?71 645 621 641 0 0 1 30 644 762 0
 645 641 646 0 +.08985 -.01 .0023 -1 0 0 16 645 709 0 ?647 648 623 644 0 0 1 30
 646 761 0 648 644 649 0 +.08985 -.01 .0023 -1387778780781446e-30 -1 0 16 648 71
2 0 ?650 634 645 646 0 0 1 30 649 760 0 634 646 651 0 +.08985 -.02 .0023 1 0 0 1
6 634 715 0 ?652 630 648 649 0 0 1 30 651 759 0 653 649 654 0 +.09215 -.02 0 0 0
 1 16 653 697 0 ?162 655 656 651 0 0 1 30 654 758 0 656 651 657 0 +.08985 -.02 0
 0 0 1 16 656 701 0 ?166 653 658 654 0 0 1 30 657 757 0 658 654 659 0 +.08985 -.
01 0 0 0 1 16 658 705 0 ?169 656 643 657 0 0 1 30 659 756 0 643 657 660 0 +.0921
5 -.01 0 0 0 1 16 643 693 0 ?661 658 640 659 0 0 1 30 660 357 0 662 659 663 0 +.
0825 -.052 0 0 1 0 16 662 397 0 ?664 665 666 660 0 0 1 30 663 356 0 665 660 667
 0 +.0175 -.007 0 -1 0 0 16 665 441 0 ?668 669 662 663 0 0 1 30 667 355 0 669 66
3 670 0 +.0175 -.052 0 0 -1 0 16 669 463 0 ?671 330 665 667 0 0 1 30 670 354 0 3
30 667 672 0 +.0175 -.052 0 1 0 0 16 330 419 0 ?673 327 669 670 0 0 1 30 672 353
 0 655 670 674 0 +.0825 -.052 .0023 0 1 0 16 655 391 0 ?675 676 653 672 0 0 1 30
 674 352 0 676 672 677 0 +.0175 -.007 .0023 -1 0 0 16 676 435 0 ?678 679 655 674
 0 0 1 30 677 351 0 679 674 680 0 +.0175 -.052 .0023 0 -1 0 16 679 457 0 ?681 66
6 676 677 0 0 1 30 680 350 0 666 677 682 0 +.0175 -.052 .0023 1 0 0 16 666 413 0
 ?683 662 679 680 0 0 1 30 682 5 0 344 680 684 0 +0 0 .0023 1246131830711342e-31
 -1 0 16 344 1948 0 ?159 685 343 682 0 0 1 30 684 8 0 685 682 686 0 +71029514350
5465e-32 -.057 .0023 1 0 0 16 685 7 0 ?157 687 344 684 0 0 1 30 686 11 0 687 684
 688 0 +.023 -.09 .0023 1051347561198064e-31 -1 0 16 687 10 0 ?154 689 685 686 0
 0 1 30 688 14 0 689 686 690 0 +.023 -.09 .0023 1 0 0 16 689 13 0 ?151 691 687 6
88 0 0 1 30 690 17 0 691 688 326 0 +.077 -.09 .0023 -420539024479226e-30 1 0 16
 691 16 0 ?148 323 689 690 0 0 1 30 326 20 0 323 690 324 0 +.1 -.057 .0023 1 0 0
 16 323 19 0 ?145 318 691 326 0 0 1 17 145 0 304 310 148 123 692 323 0 693 +17 3
10 0 304 297 145 285 694 318 0 0 +17 148 0 304 145 151 146 695 691 0 696 +17 692
 0 697 347 693 146 145 323 0 0 -17 693 0 697 692 126 123 320 317 0 694 -15 697 1
46 0 126 698 0 17 126 0 697 693 347 124 699 338 0 320 +17 320 0 700 342 694 124
 693 317 0 701 +17 694 0 700 320 417 123 310 318 0 0 -15 700 144 0 342 702 0 17
 417 0 700 694 342 285 282 415 0 310 +17 342 0 700 417 320 280 701 340 0 0 +17 2
82 0 703 30 287 280 417 415 0 20 -15 703 2192 0 28 704 0 17 30 0 703 28 282 10 2
0 9 0 298 -17 287 0 703 282 28 285 297 302 0 417 +17 20 0 705 701 298 280 30 9 0
 342 +15 705 76 0 298 706 0 17 701 0 705 699 20 124 342 340 0 0 -17 298 0 705 20
 301 10 26 21 0 0 +17 301 0 705 298 401 283 269 343 0 0 -17 401 0 705 301 398 26
0 38 399 0 0 +17 269 0 299 313 292 260 301 343 0 315 +17 315 0 707 38 309 260 31
3 316 0 401 -15 707 2028 0 36 708 0 17 38 0 707 36 315 24 401 399 0 398 -17 309
 0 707 315 36 272 307 421 0 313 +17 36 0 707 309 38 275 31 37 0 35 +17 307 0 304
 709 274 275 309 421 0 0 -17 709 0 304 159 307 277 35 418 0 710 -17 159 0 304 15
7 709 127 710 344 0 711 +17 35 0 33 31 279 275 709 418 0 307 +17 710 0 712 713 7
14 277 159 344 0 0 -15 712 156 0 710 12 0 17 713 0 712 142 710 270 279 423 0 715
 -17 714 0 712 710 142 127 359 357 0 0 -17 142 0 712 714 713 140 715 327 0 716 +
17 359 0 717 139 711 140 714 357 0 0 +15 717 154 0 139 718 0 17 139 0 717 719 35
9 137 716 329 0 356 +17 711 0 717 359 719 127 157 685 0 714 -17 719 0 717 711 13
9 155 356 354 0 720 -17 157 0 304 154 159 155 711 685 0 719 +17 154 0 304 151 15
7 152 720 687 0 721 +17 151 0 304 148 154 149 722 689 0 723 +17 720 0 724 356 72
1 155 154 687 0 0 -17 721 0 724 720 136 152 353 351 0 722 -15 724 152 0 136 725
 0 17 136 0 724 721 356 134 726 332 0 353 +17 353 0 727 133 722 134 721 351 0 72
8 +17 722 0 727 353 723 152 151 689 0 0 -15 727 150 0 133 729 0 17 723 0 727 722
 133 149 350 348 0 695 -17 133 0 727 723 353 131 728 334 0 350 +17 350 0 730 130
 695 131 723 348 0 731 +17 695 0 730 350 696 149 148 691 0 0 -15 730 148 0 130 7
32 0 17 696 0 730 695 130 146 347 321 0 692 -17 130 0 730 696 350 128 731 336 0
 347 +17 347 0 697 126 692 128 696 321 0 699 +17 699 0 705 731 701 128 126 338 0
 0 -17 731 0 705 728 699 131 130 336 0 0 -17 728 0 705 726 731 134 133 334 0 0 -
17 726 0 705 716 728 137 136 332 0 0 -17 716 0 705 715 726 140 139 329 0 359 -17
 715 0 705 398 716 270 142 327 0 0 -17 398 0 705 401 715 24 34 396 0 0 +17 34 0
 33 279 31 270 398 396 0 713 -15 33 2032 0 279 733 0 17 279 0 33 35 34 277 713 4
23 0 709 +14 255 733 2029 734 ?704 708 33 4 735 -0 0 704 708 19 81 255 1 734 277
0 736 733 737 0 0 738 739 14 704 2189 738 ?295 733 703 4 740 -0 0 295 733 19 14
 708 2025 741 ?733 742 707 4 743 -0 0 733 742 19 50 255 735 2063 0 733 743 744 0
 +0 -.003 -.0077 0 -1 0 0 0 -1 13 19 53 0 0 0 0 0 0 8 12 14 12 157 745 ?718 0 71
2 4 746 -0 0 718 0 19 81 1 745 2773 736 12 747 0 741 748 749 14 718 155 748 ?725
 12 717 4 750 -0 0 725 12 19 50 746 165 0 12 750 751 0 +0 0 .0023 1 124613183071
1342e-31 0 -1246131830711342e-31 1 0 50 750 164 0 718 752 746 0 +710295143505465
e-32 -.057 .0023 0 1 0 0 0 1 51 751 545 0 753 746 754 0 +.0805 -.05 0 0 0 -1 .00
2 -1 0 0 14 753 533 755 ?756 757 758 4 751 -0 0 756 757 19 51 754 566 0 756 751
 15 0 +.0805 -.009 0 0 0 -1 .002 -1 0 0 14 756 554 759 ?760 753 761 4 754 -0 0 7
60 753 19 51 15 587 0 760 754 5 0 +.0195 -.009 0 0 0 -1 .002 -1 0 0 14 760 575 7
62 ?14 756 763 4 15 -0 0 14 756 19 81 1 762 2777 736 760 764 0 759 765 766 14 14
 596 765 ?767 760 768 4 5 -0 0 767 760 19 15 763 576 0 769 760 0 17 769 0 763 77
0 771 87 80 390 0 0 -17 770 0 763 86 769 93 89 370 0 0 -17 771 0 763 769 86 78 3
79 377 0 0 -17 80 0 772 671 668 78 769 390 0 773 +15 772 240 0 671 706 705 17 67
1 0 772 104 80 75 773 669 0 774 +17 668 0 772 80 92 87 775 665 0 769 +17 773 0 7
76 379 77 78 671 669 0 771 -15 776 327 0 773 777 0 17 379 0 776 681 773 84 771 3
77 0 778 +17 77 0 776 773 681 75 779 375 0 671 +17 681 0 776 77 379 81 778 679 0
 779 +17 779 0 768 110 774 81 77 375 0 0 -15 768 597 0 774 14 0 17 110 0 768 780
 779 108 83 392 0 367 -17 774 0 768 779 780 75 104 394 0 0 -17 780 0 768 774 110
 102 367 365 0 0 -17 104 0 772 673 671 102 774 394 0 781 +17 673 0 772 116 104 9
9 781 330 0 782 +17 781 0 783 367 101 102 673 330 0 780 -15 783 323 0 683 784 0
 17 367 0 783 683 781 108 780 365 0 785 +17 101 0 783 781 683 99 786 368 0 673 +
17 683 0 783 101 367 105 785 666 0 786 +17 786 0 758 122 782 105 101 368 0 0 -15
 758 534 0 782 753 0 17 122 0 758 787 786 120 107 380 0 364 -17 782 0 758 786 78
7 99 116 382 0 0 -17 787 0 758 782 122 114 364 362 0 0 -17 116 0 772 664 673 114
 782 382 0 788 +17 664 0 772 92 116 111 788 662 0 789 +17 788 0 790 364 113 114
 664 662 0 787 -15 790 319 0 788 791 0 17 364 0 790 675 788 120 787 362 0 792 +1
7 113 0 790 788 675 111 793 360 0 664 +17 675 0 790 113 364 117 792 655 0 793 +1
7 793 0 761 98 789 117 113 360 0 0 -15 761 555 0 789 756 0 17 98 0 761 794 793 9
6 119 384 0 374 -17 789 0 761 793 794 111 92 386 0 0 -17 794 0 761 789 98 90 374
 372 0 0 -17 92 0 772 668 664 90 789 386 0 775 +17 775 0 795 374 89 90 668 665 0
 794 -15 795 331 0 775 757 0 17 374 0 795 678 775 96 794 372 0 796 +17 89 0 795
 775 678 87 770 370 0 668 +17 678 0 795 89 374 93 796 676 0 770 +17 796 0 797 11
9 95 96 678 676 0 0 -15 797 275 0 792 305 0 17 119 0 797 792 796 117 98 384 0 67
5 +17 95 0 797 796 778 93 86 388 0 678 +17 778 0 797 95 83 84 681 679 0 0 -17 86
 0 763 771 770 84 95 388 0 379 -17 83 0 797 778 785 81 110 392 0 681 +17 785 0 7
97 83 107 108 683 666 0 0 -17 107 0 797 785 792 105 122 380 0 683 +17 792 0 797
 107 119 120 675 655 0 0 -14 305 1 798 ?706 314 799 4 800 +0 0 706 314 19 81 1 7
98 2779 736 305 801 0 765 802 803 14 706 75 802 ?791 305 804 4 805 -0 0 791 305
 19 14 314 143 806 ?305 702 299 4 807 -0 0 305 702 19 15 799 2332 0 808 305 809
 50 800 2 0 305 810 805 0 +0 0 .0023 0 0 1 1 0 0 50 810 340 0 791 811 800 0 +.08
25 -.052 0 1 0 0 0 0 -1 50 805 117 0 706 800 807 0 +0 0 0 0 0 1 1 0 0 50 807 158
 0 314 805 812 0 +0 0 .0023 0 -1 0 0 0 -1 50 812 159 0 702 807 813 0 +.1 0 .0023
 -1 -2434699615406045e-31 0 2434699615406045e-31 -1 0 14 702 145 814 ?314 698 70
0 4 812 -0 0 314 698 19 50 813 160 0 698 812 815 0 +.1 -.057 .0023 0 1 0 0 0 1 1
4 698 147 816 ?702 732 697 4 813 -0 0 702 732 19 50 815 161 0 732 813 817 0 +.07
7 -.09 .0023 -1 -420539024479226e-30 0 420539024479226e-30 -1 0 14 732 149 818 ?
698 729 730 4 815 -0 0 698 729 19 50 817 162 0 729 815 752 0 +.023 -.09 .0023 0
 1 0 0 0 1 14 729 151 819 ?732 725 727 4 817 -0 0 732 725 19 50 752 163 0 725 81
7 750 0 +.023 -.09 .0023 1 1051347561198064e-31 0 -1051347561198064e-31 1 0 14 7
25 153 820 ?729 718 724 4 752 -0 0 729 718 19 81 1 820 2786 736 725 821 0 819 82
2 823 80 255 1 736 824 825 9000 1 1 1 1 1 1 1 1 0 FFFFTFTFFFFFFF1 81 1 821 2605
 826 725 0 820 827 828 829 81 1 819 2785 736 729 828 0 818 820 830 81 1 822 2787
 736 295 831 0 820 832 833 82 255 1 823 -918159172 14 295 2193 822 ?834 704 25 4
 835 -0 0 834 704 19 81 1 831 2655 826 295 0 822 836 837 838 81 1 832 2788 736 8
34 837 0 822 839 840 82 1 833 -489684792 14 834 2300 832 ?841 295 408 4 842 -0 0
 841 295 19 81 1 837 2656 826 834 0 832 831 843 844 81 1 839 2789 736 841 843 0
 832 845 846 82 1 840 -468516661 14 841 2344 839 ?0 834 847 4 848 -0 0 0 834 19
 81 1 843 2657 826 841 0 839 837 0 849 81 1 845 2790 736 850 851 0 839 852 853 8
2 1 846 -466878261 14 850 734 845 ?854 855 856 4 857 -0 0 854 855 19 81 1 851 26
23 826 850 0 845 858 859 860 81 1 852 2791 736 854 859 0 845 861 862 82 1 853 -7
78829631 14 854 738 852 ?863 850 864 4 865 -0 0 863 850 19 81 1 859 2624 826 854
 0 852 851 866 867 81 1 861 2792 736 855 858 0 852 868 869 82 1 862 -778698559 1
4 855 730 861 ?850 767 870 4 871 -0 0 850 767 19 81 1 858 2622 826 855 0 861 872
 851 873 81 1 868 2793 736 767 872 0 861 874 875 82 1 869 -778960703 14 767 726
 868 ?855 14 876 4 877 -0 0 855 14 19 81 1 872 2621 826 767 0 868 878 858 879 81
 1 874 2794 736 784 880 0 868 881 882 82 1 875 -778567487 14 784 320 874 ?777 79
1 783 4 883 -0 0 777 791 19 81 1 880 2614 826 784 0 874 884 885 886 81 1 881 279
5 736 777 885 0 874 887 888 82 1 882 -887357249 14 777 324 881 ?757 784 776 4 88
9 -0 0 757 784 19 81 1 885 2615 826 777 0 881 880 890 891 81 1 887 2796 736 757
 890 0 881 892 893 82 1 888 -887226177 14 757 328 887 ?753 777 795 4 811 -0 0 75
3 777 19 81 1 890 2616 826 757 0 887 885 894 895 81 1 892 2797 736 863 866 0 887
 896 897 82 1 893 -887095105 14 863 856 892 ?898 854 899 4 900 -0 0 898 854 19 8
1 1 866 2625 826 863 0 892 859 901 902 81 1 896 2798 736 898 901 0 892 903 904 8
2 1 897 -767360831 14 898 860 896 ?905 863 906 4 907 -0 0 905 863 19 81 1 901 26
26 826 898 0 896 866 908 909 81 1 903 2799 736 905 908 0 896 910 911 82 1 904 -7
67754047 14 905 864 903 ?912 898 913 4 914 -0 0 912 898 19 81 1 908 2627 826 905
 0 903 901 915 916 81 1 910 2800 736 912 915 0 903 917 918 82 1 911 -767622975 1
4 912 868 910 ?919 905 920 4 921 -0 0 919 905 19 81 1 915 2628 826 912 0 910 908
 922 923 81 1 917 2801 736 919 922 0 910 924 925 82 1 918 -767491903 14 919 986
 917 ?926 912 927 4 928 -0 0 926 912 19 81 1 922 2629 826 919 0 917 915 929 930
 81 1 924 2802 736 926 929 0 917 931 932 82 1 925 -756219711 14 926 990 924 ?933
 919 934 4 935 -0 0 933 919 19 81 1 929 2630 826 926 0 924 922 936 937 81 1 931
 2803 736 933 936 0 924 938 939 82 1 932 -756612927 14 933 994 931 ?940 926 941
 4 942 -0 0 940 926 19 81 1 936 2631 826 933 0 931 929 943 944 81 1 938 2804 736
 940 943 0 931 945 946 82 1 939 -756481855 14 940 998 938 ?947 933 948 4 949 -0
 0 947 933 19 81 1 943 2632 826 940 0 938 936 950 951 81 1 945 2805 736 947 950
 0 938 952 953 82 1 946 -756350783 14 947 1116 945 ?954 940 955 4 956 -0 0 954 9
40 19 81 1 950 2633 826 947 0 945 943 957 958 81 1 952 2806 736 954 957 0 945 95
9 960 82 1 953 -745078591 14 954 1120 952 ?961 947 962 4 963 -0 0 961 947 19 81
 1 957 2634 826 954 0 952 950 964 965 81 1 959 2807 736 961 964 0 952 966 967 82
 1 960 -745471807 14 961 1124 959 ?968 954 969 4 970 -0 0 968 954 19 81 1 964 26
35 826 961 0 959 957 971 972 81 1 966 2808 736 968 971 0 959 973 974 82 1 967 -7
45340735 14 968 1128 966 ?975 961 976 4 977 -0 0 975 961 19 81 1 971 2636 826 96
8 0 966 964 978 979 81 1 973 2809 736 975 978 0 966 980 981 82 1 974 -745209663
 14 975 1246 973 ?982 968 983 4 984 -0 0 982 968 19 81 1 978 2637 826 975 0 973
 971 985 986 81 1 980 2810 736 982 985 0 973 987 988 82 1 981 -733937471 14 982
 1250 980 ?989 975 990 4 991 -0 0 989 975 19 81 1 985 2638 826 982 0 980 978 992
 993 81 1 987 2811 736 989 992 0 980 994 995 82 1 988 -734330687 14 989 1254 987
 ?996 982 997 4 998 -0 0 996 982 19 81 1 992 2639 826 989 0 987 985 999 1000 81
 1 994 2812 736 996 999 0 987 1001 1002 82 1 995 -734199615 14 996 1258 994 ?100
3 989 1004 4 1005 -0 0 1003 989 19 81 1 999 2640 826 996 0 994 992 1006 1007 81
 1 1001 2813 736 1003 1006 0 994 1008 1009 82 1 1002 -734068543 14 1003 1376 100
1 ?1010 996 1011 4 1012 -0 0 1010 996 19 81 1 1006 2641 826 1003 0 1001 999 1013
 1014 81 1 1008 2814 736 1010 1013 0 1001 1015 1016 82 1 1009 -722796351 14 1010
 1380 1008 ?1017 1003 1018 4 1019 -0 0 1017 1003 19 81 1 1013 2642 826 1010 0 10
08 1006 1020 1021 81 1 1015 2815 736 1017 1020 0 1008 1022 1023 82 1 1016 -72318
9567 14 1017 1384 1015 ?1024 1010 1025 4 1026 -0 0 1024 1010 19 81 1 1020 2643 8
26 1017 0 1015 1013 1027 1028 81 1 1022 2816 736 1024 1027 0 1015 1029 1030 82 1
 1023 -723058495 14 1024 1388 1022 ?1031 1017 1032 4 1033 -0 0 1031 1017 19 81 1
 1027 2644 826 1024 0 1022 1020 1034 1035 81 1 1029 2817 736 1031 1034 0 1022 10
36 1037 82 1 1030 -722927423 14 1031 1565 1029 ?1038 1024 1039 4 1040 -0 0 1038
 1024 19 81 1 1034 2645 826 1031 0 1029 1027 1041 1042 81 1 1036 2818 736 1038 1
041 0 1029 1043 1044 82 1 1037 -652214077 14 1038 1603 1036 ?1045 1031 1046 4 10
47 -0 0 1045 1031 19 81 1 1041 2646 826 1038 0 1036 1034 1048 1049 81 1 1043 281
9 736 1045 1048 0 1036 1050 1051 82 1 1044 -648216381 14 1045 1694 1043 ?1052 10
38 1053 4 1054 -0 0 1052 1038 19 81 1 1048 2647 826 1045 0 1043 1041 1055 1056 8
1 1 1050 2820 736 1052 1055 0 1043 1057 1058 82 1 1051 -599064379 14 1052 1732 1
050 ?1059 1045 1060 4 1061 -0 0 1059 1045 19 81 1 1055 2648 826 1052 0 1050 1048
 1062 1063 81 1 1057 2821 736 1059 1062 0 1050 1064 1065 82 1 1058 -595066683 14
 1059 1770 1057 ?1066 1052 1067 4 1068 -0 0 1066 1052 19 81 1 1062 2649 826 1059
 0 1057 1055 1069 1070 81 1 1064 2822 736 1066 1069 0 1057 1071 1072 82 1 1065 -
591134523 14 1066 1808 1064 ?742 1059 1073 4 1074 -0 0 742 1059 19 81 1 1069 265
0 826 1066 0 1064 1062 1075 1076 81 1 1071 2823 736 742 1075 0 1064 1077 1078 82
 1 1072 -587202363 14 742 1846 1071 ?708 1066 1079 4 744 -0 0 708 1066 19 81 1 1
075 2651 826 742 0 1071 1069 1080 1081 81 1 1077 2824 736 791 884 0 1071 0 1082
 82 1 1078 -583270203 14 791 316 1077 ?784 706 790 4 810 -0 0 784 706 19 81 1 88
4 2613 826 791 0 1077 1083 880 1084 82 1 1082 -886964033 80 1 826 0 1085 8001 0
 0 0 0 3 5 0 0 0 FFFFTFTFFFFFFF2 81 1 1083 2612 826 706 0 802 801 884 1086 83 25
5 3 1084 .792156862745098 .819607843137255 .933333333333333 81 1 802 2780 736 70
6 1083 0 798 806 1087 81 1 801 2611 826 305 0 798 1088 1083 1089 83 3 1086 .7921
56862745098 .819607843137255 .933333333333333 81 1 1088 2610 826 314 0 806 1090
 801 1091 83 3 1089 .792156862745098 .819607843137255 .933333333333333 81 1 806
 2781 736 314 1088 0 802 814 1092 81 1 1090 2609 826 702 0 814 1093 1088 1094 83
 3 1091 .792156862745098 .819607843137255 .933333333333333 81 1 814 2782 736 702
 1090 0 806 816 1095 81 1 1093 2608 826 698 0 816 1096 1090 1097 83 3 1094 .7921
56862745098 .819607843137255 .933333333333333 81 1 816 2783 736 698 1093 0 814 8
18 1098 81 1 1096 2607 826 732 0 818 828 1093 1099 83 3 1097 .792156862745098 .8
19607843137255 .933333333333333 81 1 818 2784 736 732 1096 0 816 819 1100 81 1 8
28 2606 826 729 0 819 821 1096 1101 83 3 1099 .792156862745098 .819607843137255
 .933333333333333 83 3 1101 .792156862745098 .819607843137255 .933333333333333 8
2 1 1100 -918683460 82 1 1098 -918945604 82 1 1095 -919207736 82 1 1092 -9194698
80 82 1 1087 -921173813 79 255 15 1085 SDL/TYSA_COLOUR81 1 1080 2652 826 708 0 7
41 1075 737 1102 83 3 1081 .792156862745098 .819607843137255 .933333333333333 81
 1 741 2772 736 708 1080 0 738 745 1103 81 1 737 2653 826 733 0 734 1080 836 110
4 83 3 1102 .792156862745098 .819607843137255 .933333333333333 81 1 836 2654 826
 704 0 738 737 831 1105 83 3 1104 .792156862745098 .819607843137255 .93333333333
3333 81 1 738 2771 736 704 836 0 734 741 1106 83 3 1105 .792156862745098 .819607
843137255 .933333333333333 82 1 1106 -488898360 82 1 1103 -496435000 15 1079 184
9 0 1107 742 1108 51 744 1859 0 742 735 1074 0 +.0687496887995326 -.08205 0 0 0
 1 .00115 1 0 0 51 1074 1821 0 1066 744 1068 0 +.0499996887995326 -.071875 0 0 0
 1 .00115 1 0 0 51 1068 1783 0 1059 1074 1061 0 +.03124968879953255 -.08205 0 0
 0 1 .00115 1 0 0 51 1061 1745 0 1052 1068 1054 0 +.0687496887995326 -.0617 0 0
 0 1 .00115 1 0 0 51 1054 1707 0 1045 1061 1047 0 +.03124968879953255 -.0617 0 0
 0 1 .00115 1 0 0 51 1047 1616 0 1038 1054 1040 0 +.0845 -.003 0 0 0 1 .001 1 0
 0 51 1040 1578 0 1031 1047 1019 0 +.0155 -.003 0 0 0 1 .001 1 0 0 50 1019 1403
 0 1010 1040 1026 0 +.0675 -.08485 0 0 1 0 0 0 1 50 1026 1402 0 1017 1019 1033 0
 +.0675 -.08715 0 1 -181014623580189e-28 0 181014623580189e-28 1 0 50 1033 1401
 0 1024 1026 1012 0 +.0675 -.08715 0 0 -1 0 0 0 -1 50 1012 1400 0 1003 1033 991
 0 +.0575 -.08715 0 -1 0 0 0 0 1 50 991 1273 0 982 1012 998 0 +.0325 -.08715 0 0
 -1 0 0 0 -1 50 998 1272 0 989 991 1005 0 +.0325 -.08715 0 -1 0 0 0 0 1 50 1005
 1271 0 996 998 984 0 +.0325 -.08485 0 0 1 0 0 0 1 50 984 1270 0 975 1005 963 0
 +.0425 -.08715 0 1 301691039300315e-29 0 -301691039300315e-29 1 0 50 963 1143 0
 954 984 970 0 +.00785 -.04 0 -1 0 0 0 0 1 50 970 1142 0 961 963 977 0 +.00785 -
.04 0 0 1 0 0 0 1 50 977 1141 0 968 970 956 0 +.01015 -.04 0 1 3469446951953615e
-31 0 -3469446951953615e-31 1 0 50 956 1140 0 947 977 935 0 +.00785 -.05 0 0 -1
 0 0 0 -1 50 935 1013 0 926 956 942 0 +.08985 -.04 0 -1 0 0 0 0 1 50 942 1012 0
 933 935 949 0 +.08985 -.04 0 0 1 0 0 0 1 50 949 1011 0 940 942 928 0 +.09215 -.
04 0 1 0 0 0 0 -1 50 928 1010 0 919 949 907 0 +.08985 -.05 0 0 -1 0 0 0 -1 50 90
7 883 0 898 928 914 0 +.00785 -.02 0 0 -1 0 0 0 -1 50 914 882 0 905 907 921 0 +.
00785 -.01 0 -1 -3469446951953615e-31 0 3469446951953615e-31 -1 0 50 921 881 0 9
12 914 900 0 +.00785 -.01 0 -754227598250787e-30 1 0 -1 -754227598250787e-30 0 5
0 900 880 0 863 921 871 0 +.01015 -.01 0 1 3469446951953615e-31 0 -3469446951953
615e-31 1 0 50 871 753 0 855 900 857 0 +.08985 -.02 0 0 -1 0 0 0 -1 50 857 752 0
 850 871 865 0 +.08985 -.01 0 -1 1387778780781446e-30 0 -1387778780781446e-30 -1
 0 50 865 751 0 854 857 877 0 +.08985 -.01 0 0 1 0 0 0 1 50 877 750 0 767 865 88
3 0 +.09215 -.01 0 1 0 0 0 0 -1 50 883 343 0 784 877 889 0 +.0175 -.052 0 0 -1 0
 0 0 -1 50 889 342 0 777 883 811 0 +.0175 -.052 0 -1 0 0 0 0 1 50 811 341 0 757
 889 810 0 +.0175 -.007 0 0 1 0 0 0 1 17 1107 0 1079 1107 1107 0 430 428 0 0 -15
 1108 1850 0 433 742 0 17 433 0 1108 433 433 0 1109 425 0 0 +17 1109 0 306 1109
 1109 0 433 425 0 0 -15 306 1835 0 1109 305 1110 15 1110 1797 0 1111 305 1112 17
 1111 0 1110 1111 1111 0 439 431 0 0 -15 1112 1759 0 1113 305 1114 17 1113 0 111
2 1113 1113 0 445 437 0 0 -15 1114 1721 0 1115 305 1116 17 1115 0 1114 1115 1115
 0 451 443 0 0 -15 1116 1683 0 1117 305 1118 17 1117 0 1116 1117 1117 0 457 449
 0 0 -15 1118 1592 0 1119 305 1120 17 1119 0 1118 1119 1119 0 463 455 0 0 -15 11
20 1554 0 1121 305 1122 17 1121 0 1120 1121 1121 0 469 461 0 0 -15 1122 1335 0 1
123 305 1124 17 1123 0 1122 1125 1126 250 39 467 0 0 -15 1124 1205 0 1127 305 11
28 17 1127 0 1124 1129 1130 232 47 495 0 0 -15 1128 1075 0 1131 305 1132 17 1131
 0 1128 1133 1134 214 53 527 0 0 -15 1132 945 0 1135 305 1136 17 1135 0 1132 113
7 1138 196 59 559 0 0 -15 1136 815 0 1139 305 1140 17 1139 0 1136 1141 1142 178
 65 591 0 0 -15 1140 685 0 1143 305 797 17 1143 0 1140 1144 1145 160 71 623 0 0
 -17 1144 0 1140 1146 1143 164 652 634 0 0 -17 1145 0 1140 1143 1146 69 647 645
 0 0 -17 71 0 876 177 162 69 1143 623 0 661 +15 876 729 0 71 767 0 17 177 0 876
 1147 71 163 661 643 0 1148 -17 162 0 876 71 1147 160 172 653 0 652 +17 661 0 86
4 647 1148 69 177 643 0 1145 +15 864 741 0 647 854 0 17 647 0 864 1149 661 167 1
145 645 0 1146 +17 1148 0 864 661 1149 163 636 633 0 632 -17 1149 0 864 1148 647
 72 169 658 0 636 -17 636 0 1150 639 632 72 1148 633 0 0 +17 632 0 1150 636 642
 163 1147 630 0 0 +15 1150 650 0 642 706 772 17 642 0 1150 632 639 143 1151 640
 0 0 +17 1147 0 876 162 177 143 632 630 0 642 -17 639 0 1150 642 636 173 74 637
 0 0 +17 1151 0 870 166 172 173 642 640 0 639 -15 870 733 0 652 855 0 17 166 0 8
70 652 1151 164 175 656 0 650 +17 172 0 870 1151 652 143 162 653 0 1147 -17 652
 0 870 172 166 160 1144 634 0 1143 +17 175 0 856 74 650 173 166 656 0 1151 -17 6
50 0 856 175 169 164 1146 648 0 1144 +15 856 737 0 650 850 0 17 169 0 856 650 74
 167 1149 658 0 647 +17 1146 0 1140 1145 1144 167 650 648 0 0 -17 74 0 856 169 1
75 72 639 637 0 1149 -17 1141 0 1136 1152 1139 182 620 602 0 0 -17 1142 0 1136 1
139 1152 63 615 613 0 0 -17 65 0 899 195 180 63 1139 591 0 629 +15 899 859 0 65
 863 0 17 195 0 899 1153 65 181 629 611 0 1154 -17 180 0 899 65 1153 178 190 621
 0 620 +17 629 0 920 615 1154 63 195 611 0 1142 +15 920 871 0 615 912 0 17 615 0
 920 1155 629 185 1142 613 0 1152 +17 1154 0 920 629 1155 181 604 601 0 600 -17
 1155 0 920 1154 615 66 187 626 0 604 -17 604 0 1156 607 600 66 1154 601 0 0 +17
 600 0 1156 604 610 181 1153 598 0 0 +15 1156 780 0 610 706 1150 17 610 0 1156 6
00 607 170 1157 608 0 0 +17 1153 0 899 180 195 170 600 598 0 610 -17 607 0 1156
 610 604 191 68 605 0 0 +17 1157 0 906 184 190 191 610 608 0 607 -15 906 863 0 6
20 898 0 17 184 0 906 620 1157 182 193 624 0 618 +17 190 0 906 1157 620 170 180
 621 0 1153 -17 620 0 906 190 184 178 1141 602 0 1139 +17 193 0 913 68 618 191 1
84 624 0 1157 -17 618 0 913 193 187 182 1152 616 0 1141 +15 913 867 0 618 905 0
 17 187 0 913 618 68 185 1155 626 0 615 +17 1152 0 1136 1142 1141 185 618 616 0
 0 -17 68 0 913 187 193 66 607 605 0 1155 -17 1137 0 1132 1158 1135 200 588 570
 0 0 -17 1138 0 1132 1135 1158 57 583 581 0 0 -17 59 0 927 213 198 57 1135 559 0
 597 +15 927 989 0 59 919 0 17 213 0 927 1159 59 199 597 579 0 1160 -17 198 0 92
7 59 1159 196 208 589 0 588 +17 597 0 948 583 1160 57 213 579 0 1138 +15 948 100
1 0 583 940 0 17 583 0 948 1161 597 203 1138 581 0 1158 +17 1160 0 948 597 1161
 199 572 569 0 568 -17 1161 0 948 1160 583 60 205 594 0 572 -17 572 0 1162 575 5
68 60 1160 569 0 0 +17 568 0 1162 572 578 199 1159 566 0 0 +15 1162 910 0 578 70
6 1156 17 578 0 1162 568 575 188 1163 576 0 0 +17 1159 0 927 198 213 188 568 566
 0 578 -17 575 0 1162 578 572 209 62 573 0 0 +17 1163 0 934 202 208 209 578 576
 0 575 -15 934 993 0 588 926 0 17 202 0 934 588 1163 200 211 592 0 586 +17 208 0
 934 1163 588 188 198 589 0 1159 -17 588 0 934 208 202 196 1137 570 0 1135 +17 2
11 0 941 62 586 209 202 592 0 1163 -17 586 0 941 211 205 200 1158 584 0 1137 +15
 941 997 0 586 933 0 17 205 0 941 586 62 203 1161 594 0 583 +17 1158 0 1132 1138
 1137 203 586 584 0 0 -17 62 0 941 205 211 60 575 573 0 1161 -17 1133 0 1128 116
4 1131 218 556 538 0 0 -17 1134 0 1128 1131 1164 51 551 549 0 0 -17 53 0 955 231
 216 51 1131 527 0 565 +15 955 1119 0 53 947 0 17 231 0 955 1165 53 217 565 547
 0 1166 -17 216 0 955 53 1165 214 226 557 0 556 +17 565 0 976 551 1166 51 231 54
7 0 1134 +15 976 1131 0 551 968 0 17 551 0 976 1167 565 221 1134 549 0 1164 +17
 1166 0 976 565 1167 217 540 537 0 536 -17 1167 0 976 1166 551 54 223 562 0 540
 -17 540 0 1168 543 536 54 1166 537 0 0 +17 536 0 1168 540 546 217 1165 534 0 0
 +15 1168 1040 0 546 706 1162 17 546 0 1168 536 543 206 1169 544 0 0 +17 1165 0
 955 216 231 206 536 534 0 546 -17 543 0 1168 546 540 227 56 541 0 0 +17 1169 0
 962 220 226 227 546 544 0 543 -15 962 1123 0 556 954 0 17 220 0 962 556 1169 21
8 229 560 0 554 +17 226 0 962 1169 556 206 216 557 0 1165 -17 556 0 962 226 220
 214 1133 538 0 1131 +17 229 0 969 56 554 227 220 560 0 1169 -17 554 0 969 229 2
23 218 1164 552 0 1133 +15 969 1127 0 554 961 0 17 223 0 969 554 56 221 1167 562
 0 551 +17 1164 0 1128 1134 1133 221 554 552 0 0 -17 56 0 969 223 229 54 543 541
 0 1167 -17 1129 0 1124 1170 1127 236 524 506 0 0 -17 1130 0 1124 1127 1170 45 5
19 517 0 0 -17 47 0 983 249 234 45 1127 495 0 533 +15 983 1249 0 47 975 0 17 249
 0 983 1171 47 235 533 515 0 1172 -17 234 0 983 47 1171 232 244 525 0 524 +17 53
3 0 1004 519 1172 45 249 515 0 1130 +15 1004 1261 0 519 996 0 17 519 0 1004 1173
 533 239 1130 517 0 1170 +17 1172 0 1004 533 1173 235 508 505 0 504 -17 1173 0 1
004 1172 519 48 241 530 0 508 -17 508 0 1174 511 504 48 1172 505 0 0 +17 504 0 1
174 508 514 235 1171 502 0 0 +15 1174 1170 0 514 706 1168 17 514 0 1174 504 511
 224 1175 512 0 0 +17 1171 0 983 234 249 224 504 502 0 514 -17 511 0 1174 514 50
8 245 50 509 0 0 +17 1175 0 990 238 244 245 514 512 0 511 -15 990 1253 0 524 982
 0 17 238 0 990 524 1175 236 247 528 0 522 +17 244 0 990 1175 524 224 234 525 0
 1171 -17 524 0 990 244 238 232 1129 506 0 1127 +17 247 0 997 50 522 245 238 528
 0 1175 -17 522 0 997 247 241 236 1170 520 0 1129 +15 997 1257 0 522 989 0 17 24
1 0 997 522 50 239 1173 530 0 519 +17 1170 0 1124 1130 1129 239 522 520 0 0 -17
 50 0 997 241 247 48 511 509 0 1173 -17 1125 0 1122 1176 1123 254 492 474 0 0 -1
7 1126 0 1122 1123 1176 32 487 485 0 0 -17 39 0 1011 267 252 32 1123 467 0 501 +
15 1011 1379 0 39 1003 0 17 267 0 1011 1177 39 253 501 483 0 1178 -17 252 0 1011
 39 1177 250 262 493 0 492 +17 501 0 1032 487 1178 32 267 483 0 1126 +15 1032 13
91 0 487 1024 0 17 487 0 1032 1179 501 257 1126 485 0 1176 +17 1178 0 1032 501 1
179 253 476 473 0 472 -17 1179 0 1032 1178 487 40 259 498 0 476 -17 476 0 1180 4
79 472 40 1178 473 0 0 +17 472 0 1180 476 482 253 1177 470 0 0 +15 1180 1300 0 4
82 706 1174 17 482 0 1180 472 479 242 1181 480 0 0 +17 1177 0 1011 252 267 242 4
72 470 0 482 -17 479 0 1180 482 476 263 44 477 0 0 +17 1181 0 1018 256 262 263 4
82 480 0 479 -15 1018 1383 0 492 1010 0 17 256 0 1018 492 1181 254 265 496 0 490
 +17 262 0 1018 1181 492 242 252 493 0 1177 -17 492 0 1018 262 256 250 1125 474
 0 1123 +17 265 0 1025 44 490 263 256 496 0 1181 -17 490 0 1025 265 259 254 1176
 488 0 1125 +15 1025 1387 0 490 1017 0 17 259 0 1025 490 44 257 1179 498 0 487 +
17 1176 0 1122 1126 1125 257 490 488 0 0 -17 44 0 1025 259 265 40 479 477 0 1179
 -17 469 0 1182 469 469 0 1121 461 0 0 +15 1182 1569 0 469 1031 0 17 463 0 1183
 463 463 0 1119 455 0 0 +15 1183 1607 0 463 1038 0 17 457 0 1184 457 457 0 1117
 449 0 0 +15 1184 1698 0 457 1045 0 17 451 0 1185 451 451 0 1115 443 0 0 +15 118
5 1736 0 451 1052 0 17 445 0 1186 445 445 0 1113 437 0 0 +15 1186 1774 0 445 105
9 0 17 439 0 1187 439 439 0 1111 431 0 0 +15 1187 1812 0 439 1066 0 17 430 0 118
8 430 430 0 1107 428 0 0 +15 1188 1828 0 430 706 1189 15 1189 1790 0 436 706 119
0 17 436 0 1189 436 436 0 1191 434 0 0 +15 1190 1752 0 442 706 1192 17 442 0 119
0 442 442 0 1193 440 0 0 +15 1192 1714 0 448 706 1194 17 448 0 1192 448 448 0 11
95 446 0 0 +15 1194 1676 0 454 706 1196 17 454 0 1194 454 454 0 1197 452 0 0 +15
 1196 1585 0 460 706 1198 17 460 0 1196 460 460 0 1199 458 0 0 +15 1198 1547 0 4
66 706 1180 17 466 0 1198 466 466 0 1200 464 0 0 +17 1200 0 1039 1200 1200 0 466
 464 0 0 -15 1039 1568 0 1200 1031 1182 17 1199 0 1046 1199 1199 0 460 458 0 0 -
15 1046 1606 0 1199 1038 1183 17 1197 0 1053 1197 1197 0 454 452 0 0 -15 1053 16
97 0 1197 1045 1184 17 1195 0 1060 1195 1195 0 448 446 0 0 -15 1060 1735 0 1195
 1052 1185 17 1193 0 1067 1193 1193 0 442 440 0 0 -15 1067 1773 0 1193 1059 1186
 17 1191 0 1073 1191 1191 0 436 434 0 0 -15 1073 1811 0 1191 1066 1187 83 3 1076
 .792156862745098 .819607843137255 .933333333333333 83 3 1070 .792156862745098 .
819607843137255 .933333333333333 83 3 1063 .792156862745098 .819607843137255 .93
3333333333333 83 3 1056 .792156862745098 .819607843137255 .933333333333333 83 3
 1049 .792156862745098 .819607843137255 .933333333333333 83 3 1042 .792156862745
098 .819607843137255 .933333333333333 83 3 1035 .792156862745098 .81960784313725
5 .933333333333333 83 3 1028 .792156862745098 .819607843137255 .933333333333333
 83 3 1021 .792156862745098 .819607843137255 .933333333333333 83 3 1014 .7921568
62745098 .819607843137255 .933333333333333 83 3 1007 .792156862745098 .819607843
137255 .933333333333333 83 3 1000 .792156862745098 .819607843137255 .93333333333
3333 83 3 993 .792156862745098 .819607843137255 .933333333333333 83 3 986 .79215
6862745098 .819607843137255 .933333333333333 83 3 979 .792156862745098 .81960784
3137255 .933333333333333 83 3 972 .792156862745098 .819607843137255 .93333333333
3333 83 3 965 .792156862745098 .819607843137255 .933333333333333 83 3 958 .79215
6862745098 .819607843137255 .933333333333333 83 3 951 .792156862745098 .81960784
3137255 .933333333333333 83 3 944 .792156862745098 .819607843137255 .93333333333
3333 83 3 937 .792156862745098 .819607843137255 .933333333333333 83 3 930 .79215
6862745098 .819607843137255 .933333333333333 83 3 923 .792156862745098 .81960784
3137255 .933333333333333 83 3 916 .792156862745098 .819607843137255 .93333333333
3333 83 3 909 .792156862745098 .819607843137255 .933333333333333 83 3 902 .79215
6862745098 .819607843137255 .933333333333333 81 1 894 2617 826 753 0 755 890 120
1 1202 83 3 895 .792156862745098 .819607843137255 .933333333333333 81 1 755 2775
 736 753 894 0 748 759 1203 81 1 1201 2618 826 756 0 759 894 764 1204 83 3 1202
 .792156862745098 .819607843137255 .933333333333333 81 1 759 2776 736 756 1201 0
 755 762 1205 81 1 764 2619 826 760 0 762 1201 878 1206 83 3 1204 .7921568627450
98 .819607843137255 .933333333333333 81 1 878 2620 826 14 0 765 764 872 1207 83
 3 1206 .792156862745098 .819607843137255 .933333333333333 81 1 765 2778 736 14
 878 0 762 798 1208 83 3 1207 .792156862745098 .819607843137255 .933333333333333
 82 1 1208 -870121281 82 1 1205 -874053441 81 1 748 2774 736 718 827 0 745 755 1
209 82 1 1203 -876019521 81 1 827 2604 826 718 0 748 747 821 1210 82 1 1209 -917
897028 81 1 747 2603 826 12 0 745 0 827 1211 83 3 1210 .792156862745098 .8196078
43137255 .933333333333333 83 3 1211 .792156862745098 .819607843137255 .933333333
333333 83 3 891 .792156862745098 .819607843137255 .933333333333333 83 3 886 .792
156862745098 .819607843137255 .933333333333333 83 3 879 .792156862745098 .819607
843137255 .933333333333333 83 3 873 .792156862745098 .819607843137255 .933333333
333333 83 3 867 .792156862745098 .819607843137255 .933333333333333 83 3 860 .792
156862745098 .819607843137255 .933333333333333 83 3 849 .792156862745098 .819607
843137255 .933333333333333 15 847 2347 0 1212 841 1213 51 848 2362 0 841 0 842 0
 +.096 -.011 -.0077 0 0 1 .001 1 0 0 51 842 2318 0 834 848 740 0 +.004 -.011 -.0
077 0 0 1 .001 1 0 0 50 740 2228 0 704 842 835 0 +.1 -.003 -.0077 0 -1 0 0 0 -1
 50 835 2227 0 295 740 743 0 +.092 -.003 -.0077 -1 0 0 0 0 1 50 743 2064 0 708 8
35 735 0 +.008 -.003 -.0077 1 0 0 0 0 -1 17 1212 0 847 1212 1212 0 808 411 0 0 +
15 1213 2348 0 1214 841 0 17 1214 0 1213 1214 1214 0 410 16 0 0 -17 410 0 804 41
0 410 0 1214 16 0 0 +15 804 2325 0 410 706 404 15 404 2281 0 402 706 1188 17 808
 0 799 808 808 0 1212 411 0 0 -16 411 2341 0 ?1212 16 0 412 0 0 1 83 3 844 .7921
56862745098 .819607843137255 .933333333333333 15 408 2303 0 406 834 1215 15 1215
 2304 0 405 834 0 17 405 0 1215 405 405 0 402 311 0 0 -83 3 838 .792156862745098
 .819607843137255 .933333333333333 82 1 830 -918421316 83 3 829 .792156862745098
 .819607843137255 .933333333333333 79 14 825 SWEntUnchanged15 809 2288 0 409 305
 304 17 409 0 809 409 409 0 406 403 0 0 -82 1 803 -931528501 82 1 766 -872087361
 82 1 749 -917634872 82 1 739 -497221432 17 356 0 724 136 720 137 719 354 0 726
 +17 28 0 703 287 30 288 23 29 0 27 +19 13 175 0 1 0 8 4 S0 74 4 CI16 index_map_
offset0 0 1 dCCZ20 11 2 0 0 1077 843 0 0 0 0 0 0 0 0 0 0 0 0 0 0 0 0 0 0 1 0 
