**ABCDEFGHIJKLMNOPQRSTUVWXYZabcdefghijklmnopqrstuvwxyz**************************
**PARASOLID !"#$%&'()*+,-./:;<=>?@[\]^_`{|}~0123456789**************************
**PART1;
MC=AMD64;
MC_MODEL=Intel64 Family 6 Model 94 Stepping 3, GenuineIntel;
MC_ID=unknown;
OS=Windows_NT;
OS_RELEASE=unknown;
FRU=Parasolid Version 28.0, build 204, 11- 9-2015;
APPL=SOLIDWORKS 2016-2016040;
SITE=;
USER=unknown;
FORMAT=text;
GUISE=transmit;
KEY=Side Bracket 2.3mm V2;
FILE=Side Bracket 2.3mm V2.x_t;
DATE=Sun Aug 13 17:37:07 2017;
**PART2;
SCH=SCH_2800204_28002;
USFLD_SIZE=0;
**PART3;
**END_OF_HEADER*****************************************************************
T51 : TRANSMIT FILE created by modeller version 280020423 SCH_2800204_28002_1300
6200 0 12 30 CCCCCCCCCCCCCDI5 owner1040 0 CCCCCCCCCA13 boundary_mesh1006 0 A16 i
ndex_map_offset0 0 1 dA9 index_map82 0 A17 node_id_index_map82 0 A20 schema_embe
dding_map82 0 A5 child12 0 A14 lowest_node_id0 0 1 dZ1 743 0 2 0 0 0 0 1e3 1e-8
 0 3 0 1 0 1 1 4 5 6 7 8 9 10 0 0 0 0 0 0 0 70 11 CI9 list_type0 0 1 uI10 notran
smit0 0 1 lCCCDCCDI12 finger_index0 0 1 dI12 finger_block1012 0 CZ2 0 4 T1 0 0 2
 20 1 11 11 13 255 4 434 0 1 0 12 0 0 13 0 50 255 5 412 0 12 14 0 0 +.0025 .0023
 6972e-7 0 -1 0 0 0 -1 30 255 6 433 0 15 16 0 0 +.0025 .0023 6972e-7 0 0 1 29 25
5 7 308 0 17 18 0 0 .0023 .0029972 19 8 CCCCCCCA5 owner12 0 Z8 130 0 1 13 0 19 V
0 16 255 9 329 0 ?20 0 21 22 0 0 1 18 255 10 127 0 23 0 24 25 ?1 17 255 23 0 26
 27 28 10 20 9 0 29 -18 24 124 0 30 10 31 32 ?1 29 25 129 0 10 32 33 0 .0023 697
2e-7 29 32 126 0 24 34 25 0 .028 6972e-7 29 33 328 0 35 25 36 .0025 .0023 .00299
72 18 35 285 0 37 38 0 33 ?1 29 36 327 0 38 33 39 .0025 -1224646799147352e-33 .0
029972 18 38 284 0 40 41 35 36 ?1 29 39 326 0 41 36 42 .0125 -216840434497101e-3
3 .0029972 18 41 283 0 43 44 38 39 ?1 29 42 325 0 44 39 45 .0125 .0023 .0029972
 18 44 282 0 46 47 41 42 ?1 29 45 323 0 47 42 48 .0325 .0023 .0029972 18 47 280
 0 49 50 44 45 ?1 29 48 322 0 50 45 51 .0325 -216840434497101e-33 .0029972 18 50
 279 0 52 53 47 48 ?1 29 51 321 0 53 48 54 .0425 0 .0029972 18 53 278 0 55 56 50
 51 ?1 29 54 320 0 56 51 57 .0425 .0023 .0029972 18 56 277 0 58 59 53 54 ?1 29 5
7 319 0 59 54 60 .045 .0023 .0029972 18 59 276 0 61 62 56 57 ?1 29 60 318 0 62 5
7 63 .045 .028 .0029972 18 62 275 0 64 65 59 60 ?1 29 63 317 0 65 60 66 .0425 .0
28 .0029972 18 65 274 0 67 68 62 63 ?1 29 66 316 0 68 63 69 .0425 .0303 .0029972
 18 68 273 0 70 71 65 66 ?1 29 69 315 0 71 66 72 .0325 .0303 .0029972 18 71 272
 0 73 74 68 69 ?1 29 72 314 0 74 69 75 .0325 .028 .0029972 18 74 271 0 76 77 71
 72 ?1 29 75 313 0 77 72 78 .0125 .028 .0029972 18 77 270 0 79 80 74 75 ?1 29 78
 312 0 80 75 81 .0125 .0303 .0029972 18 80 269 0 82 83 77 78 ?1 29 81 311 0 83 7
8 84 .0025 .0303 .0029972 18 83 268 0 85 86 80 81 ?1 29 84 310 0 86 81 18 .0025
 .028 .0029972 18 86 267 0 87 88 83 84 ?1 29 18 309 0 88 84 7 0 .028 .0029972 18
 88 266 0 89 17 86 18 ?1 17 89 0 90 91 92 88 30 21 0 93 +18 17 265 0 20 94 88 7
 ?1 17 20 0 95 96 97 17 23 9 0 28 +18 94 67 0 98 99 17 100 ?1 17 98 0 101 102 10
3 94 37 15 0 104 -18 99 70 0 105 106 94 107 ?1 29 100 69 0 94 0 107 .0025 .0023
 6972e-7 29 107 72 0 99 100 108 .0025 -1224646799147352e-33 6972e-7 29 108 75 0
 106 107 109 .0125 -216840434497101e-33 6972e-7 18 106 73 0 110 111 99 108 ?1 29
 109 78 0 111 108 112 .0125 .0023 6972e-7 18 111 76 0 113 114 106 109 ?1 29 112
 84 0 114 109 115 .0325 .0023 6972e-7 18 114 82 0 116 117 111 112 ?1 29 115 87 0
 117 112 118 .0325 -216840434497101e-33 6972e-7 18 117 85 0 119 120 114 115 ?1 2
9 118 90 0 120 115 121 .0425 0 6972e-7 18 120 88 0 122 123 117 118 ?1 29 121 93
 0 123 118 124 .0425 .0023 6972e-7 18 123 91 0 125 126 120 121 ?1 29 124 96 0 12
6 121 127 .045 .0023 6972e-7 18 126 94 0 128 129 123 124 ?1 29 127 99 0 129 124
 130 .045 .028 6972e-7 18 129 97 0 131 132 126 127 ?1 29 130 102 0 132 127 133 .
0425 .028 6972e-7 18 132 100 0 134 135 129 130 ?1 29 133 105 0 135 130 136 .0425
 .0303 6972e-7 18 135 103 0 137 138 132 133 ?1 29 136 108 0 138 133 139 .0325 .0
303 6972e-7 18 138 106 0 140 141 135 136 ?1 29 139 111 0 141 136 142 .0325 .028
 6972e-7 18 141 109 0 143 144 138 139 ?1 29 142 114 0 144 139 145 .0125 .028 697
2e-7 18 144 112 0 146 147 141 142 ?1 29 145 117 0 147 142 148 .0125 .0303 6972e-
7 18 147 115 0 149 150 144 145 ?1 29 148 120 0 150 145 34 .0025 .0303 6972e-7 18
 150 118 0 151 31 147 148 ?1 29 34 123 0 31 148 32 .0025 .028 6972e-7 18 31 121
 0 152 24 150 34 ?1 17 152 0 90 92 91 31 87 153 0 154 -15 255 90 352 0 91 155 0
 17 92 0 90 89 152 24 154 156 0 157 +17 91 0 90 152 89 86 93 158 0 159 -17 87 0
 160 161 162 86 152 153 0 91 +16 153 331 0 ?87 21 163 164 0 0 1 17 154 0 165 166
 157 31 92 156 0 162 -15 165 3 0 29 167 0 17 166 0 165 168 154 150 162 169 0 170
 -17 157 0 165 154 29 24 97 171 0 0 -16 156 61 0 ?92 171 169 172 0 0 1 17 162 0
 160 87 151 31 166 169 0 0 +15 160 354 0 161 173 0 17 151 0 160 162 161 150 85 1
63 0 166 -16 169 58 0 ?162 156 174 175 0 0 1 16 174 55 0 ?170 169 176 177 0 0 1
 30 175 59 0 169 177 172 0 +.0025 .028 6972e-7 -188556899562696e-30 -1 0 30 177
 56 0 174 178 175 0 +.0025 .0303 6972e-7 -1 3469446951953615e-31 0 30 172 62 0 1
56 175 179 0 +0 .028 6972e-7 -1 0 0 30 179 65 0 171 172 180 0 +0 .0023 6972e-7 0
 -1 0 16 171 64 0 ?97 15 156 179 0 0 1 30 180 307 0 181 179 182 0 +.0025 .0023 .
0029972 1 0 0 16 181 261 0 ?183 184 0 180 0 0 1 30 182 306 0 184 180 185 0 +.002
5 -1224646799147352e-33 .0029972 1885568995626965e-31 -1 0 16 184 257 0 ?186 187
 181 182 0 0 1 30 185 305 0 187 182 188 0 +.0125 -216840434497101e-33 .0029972 1
 1007806364650252e-31 0 16 187 253 0 ?189 190 184 185 0 0 1 30 188 304 0 190 185
 191 0 +.0125 .0023 .0029972 754227598250786e-30 1 0 16 190 249 0 ?192 193 187 1
88 0 0 1 30 191 302 0 193 188 194 0 +.0225 .0023 .0029972 1 -1734723475976805e-3
1 0 16 193 241 0 ?195 196 190 191 0 0 1 30 194 301 0 196 191 197 0 +.0325 .0023
 .0029972 -3016910393003145e-30 -1 0 16 196 237 0 ?198 199 193 194 0 0 1 30 197
 300 0 199 194 200 0 +.0325 -216840434497101e-33 .0029972 1 2168404344971005e-32
 0 16 199 233 0 ?201 202 196 197 0 0 1 30 200 299 0 202 197 203 0 +.0425 0 .0029
972 -301691039300314e-29 1 0 16 202 229 0 ?204 205 199 200 0 0 1 30 203 298 0 20
5 200 206 0 +.0425 .0023 .0029972 1 0 0 16 205 225 0 ?207 208 202 203 0 0 1 30 2
06 297 0 208 203 209 0 +.045 .0023 .0029972 0 1 0 16 208 221 0 ?210 211 205 206
 0 0 1 30 209 296 0 211 206 212 0 +.0425 .028 .0029972 -1 0 0 16 211 217 0 ?213
 214 208 209 0 0 1 30 212 295 0 214 209 215 0 +.0425 .0303 .0029972 301691039300
314e-29 1 0 16 214 213 0 ?216 217 211 212 0 0 1 30 215 294 0 217 212 218 0 +.032
5 .0303 .0029972 -1 -346944695195361e-30 0 16 217 209 0 ?219 220 214 215 0 0 1 3
0 218 293 0 220 215 221 0 +.0325 .028 .0029972 301691039300315e-29 -1 0 16 220 2
05 0 ?222 223 217 218 0 0 1 30 221 292 0 223 218 224 0 +.0125 .028 .0029972 -1 0
 0 16 223 201 0 ?225 226 220 221 0 0 1 30 224 291 0 226 221 227 0 +.0125 .0303 .
0029972 -754227598250787e-30 1 0 16 226 197 0 ?228 229 223 224 0 0 1 30 227 290
 0 229 224 230 0 +.0025 .0303 .0029972 -1 3469446951953615e-31 0 16 229 193 0 ?2
31 232 226 227 0 0 1 30 230 289 0 232 227 233 0 +.0025 .028 .0029972 -1885568995
62696e-30 -1 0 16 232 189 0 ?159 158 229 230 0 0 1 30 233 288 0 158 230 234 0 +0
 .028 .0029972 -1 0 0 16 158 185 0 ?93 235 232 233 0 0 1 30 234 287 0 235 233 22
 0 +0 .0023 .0029972 0 -1 0 16 235 181 0 ?236 237 158 234 0 0 1 30 22 413 0 9 23
4 238 0 +0 .0023 6972e-7 0 0 1 30 238 414 0 21 22 164 0 +0 .028 6972e-7 0 0 1 16
 21 330 0 ?89 9 153 238 0 0 1 30 164 415 0 153 238 239 0 +.0025 .028 6972e-7 0 0
 1 30 239 416 0 163 164 240 0 +.0025 .0303 6972e-7 0 0 1 16 163 332 0 ?85 153 24
1 239 0 0 1 30 240 417 0 241 239 242 0 +.0125 .0303 6972e-7 0 0 1 16 241 333 0 ?
82 163 243 240 0 0 1 30 242 418 0 243 240 244 0 +.0125 .028 6972e-7 0 0 1 16 243
 334 0 ?79 241 245 242 0 0 1 30 244 419 0 245 242 246 0 +.0325 .028 6972e-7 0 0
 1 16 245 335 0 ?76 243 247 244 0 0 1 30 246 420 0 247 244 248 0 +.0325 .0303 69
72e-7 0 0 1 16 247 336 0 ?73 245 249 246 0 0 1 30 248 421 0 249 246 250 0 +.0425
 .0303 6972e-7 0 0 1 16 249 337 0 ?70 247 251 248 0 0 1 30 250 422 0 251 248 252
 0 +.0425 .028 6972e-7 0 0 1 16 251 338 0 ?67 249 253 250 0 0 1 30 252 423 0 253
 250 254 0 +.045 .028 6972e-7 0 0 1 16 253 339 0 ?64 251 255 252 0 0 1 30 254 42
4 0 255 252 256 0 +.045 .0023 6972e-7 0 0 1 16 255 340 0 ?61 253 257 254 0 0 1 3
0 256 425 0 257 254 258 0 +.0425 .0023 6972e-7 0 0 1 16 257 341 0 ?58 255 259 25
6 0 0 1 30 258 426 0 259 256 260 0 +.0425 0 6972e-7 0 0 1 16 259 342 0 ?55 257 2
61 258 0 0 1 30 260 427 0 261 258 262 0 +.0325 -216840434497101e-33 6972e-7 0 0
 1 16 261 343 0 ?52 259 263 260 0 0 1 30 262 428 0 263 260 264 0 +.0325 .0023 69
72e-7 0 0 1 16 263 344 0 ?49 261 265 262 0 0 1 30 264 430 0 265 262 266 0 +.0125
 .0023 6972e-7 0 0 1 16 265 346 0 ?267 263 268 264 0 0 1 30 266 431 0 268 264 16
 0 +.0125 -216840434497101e-33 6972e-7 0 0 1 16 268 347 0 ?43 265 269 266 0 0 1
 30 16 432 0 269 266 6 0 +.0025 -1224646799147352e-33 6972e-7 0 0 1 16 269 348 0
 ?40 268 15 16 0 0 1 17 40 0 101 103 102 38 105 269 0 270 +16 15 349 0 ?37 269 1
71 6 0 0 1 17 37 0 26 28 27 35 98 15 0 103 +15 26 390 0 28 12 0 17 28 0 26 23 37
 17 183 181 0 236 -17 27 0 26 37 23 94 29 237 0 0 +17 103 0 101 98 40 35 186 184
 0 183 -15 101 388 0 103 271 0 17 186 0 272 189 183 38 103 184 0 0 +17 183 0 272
 186 236 35 28 181 0 0 +15 272 180 0 183 273 0 17 236 0 272 183 93 17 96 235 0 0
 +17 93 0 272 236 159 88 91 158 0 96 +17 96 0 95 30 20 88 236 235 0 0 -15 95 350
 0 96 274 0 17 30 0 95 97 96 24 89 21 0 92 -17 97 0 95 20 30 10 157 171 0 0 +14
 255 274 351 275 ?155 12 95 4 276 +0 0 155 12 19 81 255 1 275 722 277 274 278 0
 0 279 280 14 155 353 279 ?173 274 90 4 281 +0 0 173 274 19 14 12 391 282 ?274 0
 26 4 5 +0 0 274 0 19 50 276 392 0 274 283 281 0 +0 .0023 6972e-7 -1 0 0 0 0 1 1
3 19 131 0 0 0 0 0 0 8 12 50 283 286 0 273 284 276 0 +0 0 .0029972 0 0 -1 -1 0 0
 50 281 393 0 155 276 285 0 +0 .028 6972e-7 0 1 0 0 0 1 50 285 394 0 173 281 286
 0 +.0025 .028 6972e-7 -1 188556899562696e-30 0 -188556899562696e-30 -1 0 14 173
 355 287 ?288 155 160 4 285 +0 0 288 155 19 50 286 395 0 288 285 289 0 +.0025 .0
303 6972e-7 3469446951953615e-31 1 0 -1 3469446951953615e-31 0 14 288 357 290 ?2
91 173 292 4 286 +0 0 291 173 19 50 289 396 0 291 286 293 0 +.0125 .0303 6972e-7
 1 754227598250787e-30 0 -754227598250787e-30 1 0 14 291 359 294 ?295 288 296 4
 289 +0 0 295 288 19 50 293 397 0 295 289 297 0 +.0125 .028 6972e-7 0 1 0 0 0 1
 14 295 361 298 ?299 291 300 4 293 +0 0 299 291 19 50 297 398 0 299 293 301 0 +.
0325 .028 6972e-7 -1 -301691039300315e-29 0 301691039300315e-29 -1 0 14 299 363
 302 ?303 295 304 4 297 +0 0 303 295 19 50 301 399 0 303 297 305 0 +.0325 .0303
 6972e-7 -346944695195361e-30 1 0 -1 -346944695195361e-30 0 14 303 365 306 ?307
 299 308 4 301 +0 0 307 299 19 50 305 400 0 307 301 309 0 +.0425 .0303 6972e-7 1
 -301691039300314e-29 0 301691039300314e-29 1 0 14 307 367 310 ?311 303 312 4 30
5 +0 0 311 303 19 50 309 401 0 311 305 313 0 +.0425 .028 6972e-7 0 1 0 0 0 1 14
 311 369 314 ?315 307 316 4 309 +0 0 315 307 19 50 313 402 0 315 309 317 0 +.045
 .0023 6972e-7 1 0 0 0 0 -1 14 315 371 318 ?319 311 320 4 313 +0 0 319 311 19 50
 317 403 0 319 313 321 0 +.0425 .0023 6972e-7 0 -1 0 0 0 -1 14 319 373 322 ?323
 315 324 4 317 +0 0 323 315 19 50 321 404 0 323 317 325 0 +.0425 0 6972e-7 1 301
691039300314e-29 0 -301691039300314e-29 1 0 14 323 375 326 ?327 319 328 4 321 +0
 0 327 319 19 50 325 405 0 327 321 329 0 +.0325 -216840434497101e-33 6972e-7 216
8404344971005e-32 -1 0 1 2168404344971005e-32 0 14 327 377 330 ?331 323 332 4 32
5 +0 0 331 323 19 50 329 406 0 331 325 333 0 +.0325 .0023 6972e-7 -1 30169103930
03145e-30 0 -3016910393003145e-30 -1 0 14 331 379 334 ?335 327 336 4 329 +0 0 33
5 327 19 50 333 407 0 335 329 337 0 +.0225 .0023 6972e-7 -1734723475976805e-31 -
1 0 1 -1734723475976805e-31 0 14 335 381 338 ?339 331 340 4 333 +0 0 339 331 19
 50 337 409 0 339 333 341 0 +.0125 .0023 6972e-7 1 -754227598250786e-30 0 754227
598250786e-30 1 0 14 339 385 342 ?343 335 344 4 337 +0 0 343 335 19 50 341 410 0
 343 337 14 0 +.0125 -216840434497101e-33 6972e-7 1007806364650252e-31 -1 0 1 10
07806364650252e-31 0 14 343 387 345 ?271 339 346 4 341 +0 0 271 339 19 50 14 411
 0 271 341 5 0 +.0025 -1224646799147352e-33 6972e-7 -1 -1885568995626965e-31 0 1
885568995626965e-31 -1 0 14 271 389 347 ?167 343 101 4 14 +0 0 167 343 19 81 1 3
47 741 277 271 348 0 345 349 350 14 167 1 349 ?273 271 165 4 284 +0 0 273 271 19
 81 1 349 742 277 167 351 0 347 352 353 14 273 179 352 ?0 167 272 4 283 -0 0 0 1
67 19 50 284 2 0 167 0 283 0 +0 0 6972e-7 0 0 -1 -1 0 0 81 1 352 743 277 273 354
 0 349 0 355 80 255 1 277 356 357 9000 1 1 1 1 1 1 1 1 0 FFFFTFTFFFFFFF1 81 1 35
4 674 358 273 0 352 351 0 359 82 255 1 355 -1242890003 80 1 358 0 360 8001 0 0 0
 0 3 5 0 0 0 FFFFTFTFFFFFFF2 81 1 351 673 358 167 0 349 348 354 361 83 255 3 359
 .792156862745098 .819607843137255 .933333333333333 81 1 348 672 358 271 0 347 3
62 351 363 83 3 361 .792156862745098 .819607843137255 .933333333333333 81 1 362
 671 358 343 0 345 364 348 365 83 3 363 .792156862745098 .819607843137255 .93333
3333333333 81 1 345 740 277 343 362 0 342 347 366 81 1 364 670 358 339 0 342 367
 362 368 83 3 365 .792156862745098 .819607843137255 .933333333333333 81 1 342 73
9 277 339 364 0 338 345 369 81 1 367 669 358 335 0 338 370 364 371 83 3 368 .792
156862745098 .819607843137255 .933333333333333 81 1 338 738 277 335 367 0 334 34
2 372 81 1 370 668 358 331 0 334 373 367 374 83 3 371 .792156862745098 .81960784
3137255 .933333333333333 81 1 334 737 277 331 370 0 330 338 375 81 1 373 667 358
 327 0 330 376 370 377 83 3 374 .792156862745098 .819607843137255 .9333333333333
33 81 1 330 736 277 327 373 0 326 334 378 81 1 376 666 358 323 0 326 379 373 380
 83 3 377 .792156862745098 .819607843137255 .933333333333333 81 1 326 735 277 32
3 376 0 322 330 381 81 1 379 665 358 319 0 322 382 376 383 83 3 380 .79215686274
5098 .819607843137255 .933333333333333 81 1 322 734 277 319 379 0 318 326 384 81
 1 382 664 358 315 0 318 385 379 386 83 3 383 .792156862745098 .819607843137255
 .933333333333333 81 1 318 733 277 315 382 0 314 322 387 81 1 385 663 358 311 0
 314 388 382 389 83 3 386 .792156862745098 .819607843137255 .933333333333333 81
 1 314 732 277 311 385 0 310 318 390 81 1 388 662 358 307 0 310 391 385 392 83 3
 389 .792156862745098 .819607843137255 .933333333333333 81 1 310 731 277 307 388
 0 306 314 393 81 1 391 661 358 303 0 306 394 388 395 83 3 392 .792156862745098
 .819607843137255 .933333333333333 81 1 306 730 277 303 391 0 302 310 396 81 1 3
94 660 358 299 0 302 397 391 398 83 3 395 .792156862745098 .819607843137255 .933
333333333333 81 1 302 729 277 299 394 0 298 306 399 81 1 397 659 358 295 0 298 4
00 394 401 83 3 398 .792156862745098 .819607843137255 .933333333333333 81 1 298
 728 277 295 397 0 294 302 402 81 1 400 658 358 291 0 294 403 397 404 83 3 401 .
792156862745098 .819607843137255 .933333333333333 81 1 294 727 277 291 400 0 290
 298 405 81 1 403 657 358 288 0 290 406 400 407 83 3 404 .792156862745098 .81960
7843137255 .933333333333333 81 1 290 726 277 288 403 0 287 294 408 81 1 406 656
 358 173 0 287 409 403 410 83 3 407 .792156862745098 .819607843137255 .933333333
333333 81 1 287 725 277 173 406 0 282 290 411 81 1 409 655 358 155 0 279 278 406
 412 83 3 410 .792156862745098 .819607843137255 .933333333333333 81 1 279 723 27
7 155 409 0 275 282 413 81 1 278 654 358 274 0 275 414 409 415 83 3 412 .7921568
62745098 .819607843137255 .933333333333333 81 1 414 653 358 12 0 282 0 278 416 8
3 3 415 .792156862745098 .819607843137255 .933333333333333 81 1 282 724 277 12 4
14 0 279 287 417 83 3 416 .792156862745098 .819607843137255 .933333333333333 82
 1 417 -1236008723 82 1 413 -1238499091 82 1 411 -1238368019 82 1 408 -123823694
7 82 1 405 -1238105875 82 1 402 -1237974803 82 1 399 -1237843731 82 1 396 -12377
12659 82 1 393 -1237581587 82 1 390 -1237450515 82 1 387 -1237319443 82 1 384 -1
237188371 82 1 381 -1237057299 82 1 378 -1236926227 82 1 375 -1236795155 82 1 37
2 -1236664083 82 1 369 -1236401939 82 1 366 -1236270867 79 255 15 360 SDL/TYSA_C
OLOUR79 14 357 SWEntUnchanged82 1 353 -1268580115 82 1 350 -1236139795 15 346 38
6 0 270 343 0 17 270 0 346 105 43 38 189 187 0 186 -17 105 0 346 418 270 99 40 2
69 0 419 -17 43 0 346 270 418 41 110 268 0 420 +17 189 0 272 192 186 41 270 187
 0 0 +17 192 0 272 195 189 44 420 190 0 0 +17 195 0 272 198 192 47 46 193 0 0 +1
7 420 0 344 110 267 41 192 190 0 189 -15 344 384 0 420 339 0 17 110 0 344 421 42
0 106 43 268 0 422 -17 267 0 344 420 421 44 113 265 0 192 +17 421 0 344 267 110
 111 422 423 0 0 +17 113 0 340 116 46 111 267 265 0 424 -15 340 380 0 46 335 0 1
7 116 0 340 49 113 114 424 425 0 426 +17 46 0 340 113 49 44 195 193 0 267 -17 42
4 0 165 422 427 111 116 425 0 421 -17 422 0 165 419 424 106 421 423 0 418 -17 42
7 0 165 424 428 114 429 430 0 0 -16 425 16 0 ?116 430 423 431 0 0 1 16 430 22 0
 ?429 432 425 433 0 0 1 16 423 13 0 ?421 425 434 435 0 0 1 30 431 17 0 425 435 4
33 0 +.0225 .0023 6972e-7 1 216840434497101e-30 0 30 435 14 0 423 436 431 0 +.01
25 .0023 6972e-7 754227598250786e-30 1 0 30 433 23 0 430 431 437 0 +.0325 .0023
 6972e-7 -3016910393003145e-30 -1 0 30 437 26 0 432 433 438 0 +.0325 -2168404344
97101e-33 6972e-7 1 2168404344971005e-32 0 16 432 25 0 ?439 440 430 437 0 0 1 30
 438 29 0 440 437 441 0 +.0425 0 6972e-7 -301691039300314e-29 1 0 16 440 28 0 ?4
42 443 432 438 0 0 1 30 441 32 0 443 438 444 0 +.0425 .0023 6972e-7 1 0 0 16 443
 31 0 ?445 446 440 441 0 0 1 30 444 35 0 446 441 447 0 +.045 .0023 6972e-7 0 1 0
 16 446 34 0 ?448 449 443 444 0 0 1 30 447 38 0 449 444 450 0 +.0425 .028 6972e-
7 -1 0 0 16 449 37 0 ?451 452 446 447 0 0 1 30 450 41 0 452 447 453 0 +.0425 .03
03 6972e-7 301691039300314e-29 1 0 16 452 40 0 ?454 455 449 450 0 0 1 30 453 44
 0 455 450 456 0 +.0325 .0303 6972e-7 -1 -346944695195361e-30 0 16 455 43 0 ?457
 458 452 453 0 0 1 30 456 47 0 458 453 459 0 +.0325 .028 6972e-7 301691039300315
e-29 -1 0 16 458 46 0 ?460 461 455 456 0 0 1 30 459 50 0 461 456 178 0 +.0125 .0
28 6972e-7 -1 0 0 16 461 49 0 ?462 176 458 459 0 0 1 30 178 53 0 176 459 177 0 +
.0125 .0303 6972e-7 -754227598250787e-30 1 0 16 176 52 0 ?463 174 461 178 0 0 1
 17 463 0 296 82 146 147 464 176 0 0 +15 296 358 0 465 291 0 17 82 0 296 465 463
 80 149 241 0 466 +17 146 0 296 463 465 144 79 243 0 464 -17 464 0 165 467 168 1
44 463 176 0 462 -17 467 0 165 468 464 141 462 461 0 460 -17 168 0 165 464 166 1
47 170 174 0 463 -17 462 0 300 79 143 144 467 461 0 0 +15 300 360 0 469 295 0 17
 79 0 300 469 462 77 146 243 0 465 +17 143 0 300 462 469 141 76 245 0 467 -17 46
9 0 300 143 79 74 225 223 0 222 -17 76 0 304 470 460 74 143 245 0 469 +15 304 36
2 0 470 299 0 17 470 0 304 140 76 71 222 220 0 219 -17 460 0 304 76 140 141 468
 458 0 0 +17 140 0 304 460 470 138 73 247 0 468 -17 468 0 165 471 467 138 460 45
8 0 457 -17 471 0 165 472 468 135 457 455 0 454 -17 457 0 308 73 137 138 471 455
 0 0 +15 308 364 0 473 303 0 17 73 0 308 473 457 71 140 247 0 470 +17 137 0 308
 457 473 135 70 249 0 471 -17 473 0 308 137 73 68 219 217 0 216 -17 70 0 312 474
 454 68 137 249 0 473 +15 312 366 0 474 307 0 17 474 0 312 134 70 65 216 214 0 2
13 -17 454 0 312 70 134 135 472 452 0 0 +17 134 0 312 454 474 132 67 251 0 472 -
17 472 0 165 475 471 132 454 452 0 451 -17 475 0 165 476 472 129 451 449 0 448 -
17 451 0 316 67 131 132 475 449 0 0 +15 316 368 0 477 311 0 17 67 0 316 477 451
 65 134 251 0 474 +17 131 0 316 451 477 129 64 253 0 475 -17 477 0 316 131 67 62
 213 211 0 210 -17 64 0 320 478 448 62 131 253 0 477 +15 320 370 0 478 315 0 17
 478 0 320 128 64 59 210 208 0 207 -17 448 0 320 64 128 129 476 446 0 0 +17 128
 0 320 448 478 126 61 255 0 476 -17 476 0 165 479 475 126 448 446 0 445 -17 479
 0 165 480 476 123 445 443 0 442 -17 445 0 324 61 125 126 479 443 0 0 +15 324 37
2 0 481 319 0 17 61 0 324 481 445 59 128 255 0 478 +17 125 0 324 445 481 123 58
 257 0 479 -17 481 0 324 125 61 56 207 205 0 204 -17 58 0 328 482 442 56 125 257
 0 481 +15 328 374 0 482 323 0 17 482 0 328 122 58 53 204 202 0 201 -17 442 0 32
8 58 122 123 480 440 0 0 +17 122 0 328 442 482 120 55 259 0 480 -17 480 0 165 42
8 479 120 442 440 0 439 -17 428 0 165 427 480 117 439 432 0 429 -17 439 0 332 55
 119 120 428 432 0 0 +15 332 376 0 483 327 0 17 55 0 332 483 439 53 122 259 0 48
2 +17 119 0 332 439 483 117 52 261 0 428 -17 483 0 332 119 55 50 201 199 0 198 -
17 52 0 336 484 429 50 119 261 0 483 +15 336 378 0 484 331 0 17 484 0 336 426 52
 47 198 196 0 195 -17 429 0 336 52 426 117 427 430 0 0 +17 426 0 336 429 484 114
 49 263 0 427 -17 49 0 340 46 116 47 426 263 0 484 +17 198 0 272 201 195 50 484
 196 0 0 +17 201 0 272 204 198 53 483 199 0 0 +17 204 0 272 207 201 56 482 202 0
 0 +17 207 0 272 210 204 59 481 205 0 0 +17 210 0 272 213 207 62 478 208 0 0 +17
 213 0 272 216 210 65 477 211 0 0 +17 216 0 272 219 213 68 474 214 0 0 +17 219 0
 272 222 216 71 473 217 0 0 +17 222 0 272 225 219 74 470 220 0 0 +17 225 0 272 2
28 222 77 469 223 0 0 +17 228 0 272 231 225 80 465 226 0 0 +17 231 0 272 159 228
 83 466 229 0 0 +17 465 0 296 146 82 77 228 226 0 225 -17 159 0 272 93 231 86 16
1 232 0 0 +17 466 0 292 149 85 80 231 229 0 228 -15 292 356 0 466 288 0 17 149 0
 292 170 466 147 82 241 0 168 -17 85 0 292 466 170 83 151 163 0 161 +17 170 0 29
2 85 149 150 168 174 0 0 +17 161 0 160 151 87 83 159 232 0 231 -30 436 11 0 434
 485 435 0 +.0125 -216840434497101e-33 6972e-7 1 1007806364650252e-31 0 16 434 1
0 0 ?418 423 486 436 0 0 1 30 485 8 0 486 487 436 0 +.0025 -1224646799147352e-33
 6972e-7 1885568995626965e-31 -1 0 16 486 7 0 ?102 434 237 485 0 0 1 30 487 5 0
 237 0 485 0 +.0025 .0023 6972e-7 1 0 0 16 237 4 0 ?27 486 235 487 0 0 1 17 102
 0 101 40 98 99 104 486 0 0 +17 104 0 165 29 419 94 102 486 0 27 -17 29 0 165 15
7 104 10 27 237 0 97 -17 419 0 165 104 422 99 418 434 0 102 -17 418 0 346 43 105
 106 419 434 0 0 +82 1 280 -1238630163 19 13 435 0 1 0 8 4 S0 74 4 CI16 index_ma
p_offset0 0 1 dCCZ20 11 2 0 0 352 354 0 0 0 0 0 0 0 0 0 0 0 0 0 0 0 0 0 0 1 0 
