**ABCDEFGHIJKLMNOPQRSTUVWXYZabcdefghijklmnopqrstuvwxyz**************************
**PARASOLID !"#$%&'()*+,-./:;<=>?@[\]^_`{|}~0123456789**************************
**PART1;
MC=AMD64;
MC_MODEL=Intel64 Family 6 Model 94 Stepping 3, GenuineIntel;
MC_ID=unknown;
OS=Windows_NT;
OS_RELEASE=unknown;
FRU=Parasolid Version 28.0, build 204, 11- 9-2015;
APPL=SOLIDWORKS 2016-2016040;
SITE=;
USER=unknown;
FORMAT=text;
GUISE=transmit;
KEY=Top Plate 2.3mm V2 Kit 1;
FILE=Top Plate 2.3mm V2 Kit 1.x_t;
DATE=Sun Aug 13 17:49:43 2017;
**PART2;
SCH=SCH_2800204_28002;
USFLD_SIZE=0;
**PART3;
**END_OF_HEADER*****************************************************************
T51 : TRANSMIT FILE created by modeller version 280020423 SCH_2800204_28002_1300
6200 0 12 30 CCCCCCCCCCCCCDI5 owner1040 0 CCCCCCCCCA13 boundary_mesh1006 0 A16 i
ndex_map_offset0 0 1 dA9 index_map82 0 A17 node_id_index_map82 0 A20 schema_embe
dding_map82 0 A5 child12 0 A14 lowest_node_id0 0 1 dZ1 3023 0 2 0 0 0 0 1e3 1e-8
 0 3 0 1 0 1 1 4 5 6 7 8 9 10 0 0 0 0 0 0 0 70 11 CI9 list_type0 0 1 uI10 notran
smit0 0 1 lCCCDCCDI12 finger_index0 0 1 dI12 finger_block1012 0 CZ2 0 4 T1 0 0 2
 20 1 11 11 13 255 4 174 0 1 0 12 0 0 13 0 51 255 5 2571 0 14 15 0 0 +.0395 -.07
7 0 0 0 -1 .002 -1 0 0 31 255 6 2721 0 16 17 0 0 +.094 -.058 0 0 0 1 1 0 0 .003
 29 255 7 2430 0 10 18 0 .0375 -.0805 0 19 8 CCCCCCCA5 owner12 0 Z8 52 0 1 13 0
 19 V0 16 255 9 2469 0 ?20 0 21 17 0 0 1 18 255 10 2428 0 22 0 23 7 ?1 17 255 22
 0 24 25 26 10 27 28 0 29 +18 23 2425 0 20 10 30 18 ?1 17 20 0 31 29 32 23 33 9
 0 25 +18 30 2422 0 34 23 35 36 ?1 29 18 2427 0 23 36 7 .0375 -.077 0 29 36 2424
 0 30 37 18 .0375 -.0805 .0023 29 37 2421 0 35 38 36 .0375 -.077 .0023 18 35 241
9 0 39 30 40 37 ?1 29 38 2408 0 40 41 37 .0395 -.075 0 18 40 2406 0 42 35 43 38
 ?1 29 41 2405 0 43 44 38 .0605 -.075 0 18 43 2403 0 45 40 46 41 ?1 29 44 2402 0
 46 47 41 .0395 -.075 .0023 18 46 2400 0 48 43 49 44 ?1 29 47 2399 0 49 50 44 .0
605 -.075 .0023 18 49 2397 0 51 46 52 47 ?1 29 50 2386 0 52 53 47 .0605 -.0825 0
 18 52 2384 0 54 49 55 50 ?1 29 53 2383 0 55 56 50 .0395 -.0825 0 18 55 2381 0 5
7 52 58 53 ?1 29 56 2380 0 58 59 53 .0605 -.0825 .0023 18 58 2378 0 60 55 61 56
 ?1 29 59 2377 0 61 62 56 .0395 -.0825 .0023 18 61 2375 0 63 58 64 59 ?1 29 62 2
364 0 64 65 59 .0625 -.077 0 18 64 2362 0 66 61 67 62 ?1 29 65 2361 0 67 68 62 .
0625 -.0805 0 18 67 2359 0 69 64 70 65 ?1 29 68 2358 0 70 71 65 .0625 -.077 .002
3 18 70 2356 0 72 67 73 68 ?1 29 71 2355 0 73 74 68 .0625 -.0805 .0023 18 73 235
3 0 75 70 76 71 ?1 29 74 2031 0 76 77 71 .0155 -.029 0 18 76 2029 0 78 73 79 74
 ?1 29 77 2028 0 79 80 74 .0155 -.016 0 18 79 2026 0 81 76 82 77 ?1 29 80 2025 0
 82 83 77 .0155 -.029 .0023 18 82 2023 0 84 79 85 80 ?1 29 83 2022 0 85 86 80 .0
155 -.016 .0023 18 85 2020 0 87 82 88 83 ?1 29 86 2009 0 88 89 83 .0165 -.015 0
 18 88 2007 0 90 85 91 86 ?1 29 89 2006 0 91 92 86 .0175 -.015 0 18 91 2004 0 93
 88 94 89 ?1 29 92 2003 0 94 95 89 .0165 -.015 .0023 18 94 2001 0 96 91 97 92 ?1
 29 95 2000 0 97 98 92 .0175 -.015 .0023 18 97 1998 0 99 94 100 95 ?1 29 98 1987
 0 100 101 95 .0175 -.03 0 18 100 1985 0 102 97 103 98 ?1 29 101 1984 0 103 104
 98 .0165 -.03 0 18 103 1982 0 105 100 106 101 ?1 29 104 1981 0 106 107 101 .017
5 -.03 .0023 18 106 1979 0 108 103 109 104 ?1 29 107 1978 0 109 110 104 .0165 -.
03 .0023 18 109 1976 0 111 106 112 107 ?1 29 110 1965 0 112 113 107 .0185 -.016
 0 18 112 1963 0 114 109 115 110 ?1 29 113 1962 0 115 116 110 .0185 -.029 0 18 1
15 1960 0 117 112 118 113 ?1 29 116 1959 0 118 119 113 .0185 -.016 .0023 18 118
 1957 0 120 115 121 116 ?1 29 119 1956 0 121 122 116 .0185 -.029 .0023 18 121 19
54 0 123 118 124 119 ?1 29 122 1943 0 124 125 119 .0825 -.015 0 18 124 1941 0 12
6 121 127 122 ?1 29 125 1940 0 127 128 122 .0835 -.015 0 18 127 1938 0 129 124 1
30 125 ?1 29 128 1937 0 130 131 125 .0825 -.015 .0023 18 130 1935 0 132 127 133
 128 ?1 29 131 1934 0 133 134 128 .0835 -.015 .0023 18 133 1932 0 135 130 136 13
1 ?1 29 134 1921 0 136 137 131 .0815 -.029 0 18 136 1919 0 138 133 139 134 ?1 29
 137 1918 0 139 140 134 .0815 -.016 0 18 139 1916 0 141 136 142 137 ?1 29 140 19
15 0 142 143 137 .0815 -.029 .0023 18 142 1913 0 144 139 145 140 ?1 29 143 1912
 0 145 146 140 .0815 -.016 .0023 18 145 1910 0 147 142 148 143 ?1 29 146 1899 0
 148 149 143 .0835 -.03 0 18 148 1897 0 150 145 151 146 ?1 29 149 1896 0 151 152
 146 .0825 -.03 0 18 151 1894 0 153 148 154 149 ?1 29 152 1893 0 154 155 149 .08
35 -.03 .0023 18 154 1891 0 156 151 157 152 ?1 29 155 1890 0 157 158 152 .0825 -
.03 .0023 18 157 1888 0 159 154 160 155 ?1 29 158 1877 0 160 161 155 .0845 -.016
 0 18 160 1875 0 162 157 163 158 ?1 29 161 1874 0 163 164 158 .0845 -.029 0 18 1
63 1872 0 165 160 166 161 ?1 29 164 1871 0 166 167 161 .0845 -.016 .0023 18 166
 1869 0 168 163 169 164 ?1 29 167 1868 0 169 170 164 .0845 -.029 .0023 18 169 18
66 0 171 166 172 167 ?1 29 170 927 0 172 173 167 .0575 -.08715 .0023 18 172 925
 0 174 169 175 170 ?1 29 173 910 0 175 176 170 .0675 -.08715 0 18 175 908 0 177
 172 178 173 ?1 29 176 797 0 178 179 173 .0425 -.08485 .0023 18 178 795 0 180 17
5 181 176 ?1 29 179 780 0 181 182 176 .0325 -.08485 0 18 181 778 0 183 178 184 1
79 ?1 29 182 667 0 184 185 179 .01015 -.05 .0023 18 184 665 0 186 181 187 182 ?1
 29 185 650 0 187 188 182 .01015 -.04 0 18 187 648 0 189 184 190 185 ?1 29 188 5
37 0 190 191 185 .09215 -.05 .0023 18 190 535 0 192 187 193 188 ?1 29 191 520 0
 193 194 188 .09215 -.04 0 18 193 518 0 195 190 196 191 ?1 29 194 407 0 196 197
 191 .01015 -.01 .0023 18 196 405 0 198 193 199 194 ?1 29 197 390 0 199 200 194
 .00785 -.01 0 18 199 388 0 201 196 202 197 ?1 29 200 277 0 202 203 197 .09215 -
.01 .0023 18 202 275 0 204 199 205 200 ?1 29 203 260 0 205 206 200 .08985 -.01 0
 18 205 258 0 207 202 208 203 ?1 29 206 126 0 209 210 203 0 0 0 18 209 109 0 211
 212 213 206 ?1 29 210 127 0 213 214 206 .1 0 0 18 213 110 0 215 209 216 210 ?1
 29 214 129 0 216 217 210 .1 -.09 0 18 216 112 0 218 213 219 214 ?1 29 217 132 0
 219 220 214 391886975727153e-32 -.09 0 18 219 115 0 221 216 222 217 ?1 29 220 5
1 0 208 223 217 0 0 .0023 18 208 49 0 224 205 225 220 ?1 29 223 48 0 225 226 220
 .1 0 .0023 18 225 46 0 227 208 228 223 ?1 29 226 42 0 228 229 223 .1 -.09 .0023
 18 228 40 0 230 225 212 226 ?1 29 229 33 0 212 231 226 391886975727153e-32 -.09
 .0023 18 212 31 0 232 228 209 229 ?1 29 231 374 0 233 234 229 .09215 -.02 .0023
 18 233 327 0 235 236 237 231 ?1 29 234 375 0 237 238 231 .08985 -.02 .0023 18 2
37 329 0 239 233 240 234 ?1 29 238 376 0 240 241 234 .08985 -.01 .0023 18 240 33
1 0 242 237 243 238 ?1 29 241 378 0 222 244 238 .09215 -.02 0 18 222 324 0 245 2
19 246 241 ?1 29 244 379 0 246 247 241 .08985 -.02 0 18 246 326 0 248 222 236 24
4 ?1 29 247 381 0 236 249 244 .09215 -.01 0 18 236 330 0 250 246 233 247 ?1 29 2
49 504 0 251 252 247 .01015 -.02 .0023 18 251 457 0 253 254 255 249 ?1 29 252 50
5 0 255 256 249 .00785 -.02 .0023 18 255 459 0 257 251 258 252 ?1 29 256 506 0 2
58 259 252 .00785 -.01 .0023 18 258 461 0 260 255 261 256 ?1 29 259 508 0 243 26
2 256 .01015 -.02 0 18 243 454 0 263 240 264 259 ?1 29 262 509 0 264 265 259 .00
785 -.02 0 18 264 456 0 266 243 254 262 ?1 29 265 511 0 254 267 262 .01015 -.01
 0 18 254 460 0 268 264 251 265 ?1 29 267 634 0 269 270 265 .08985 -.05 .0023 18
 269 587 0 271 272 273 267 ?1 29 270 635 0 273 274 267 .08985 -.04 .0023 18 273
 589 0 275 269 276 270 ?1 29 274 636 0 276 277 270 .09215 -.04 .0023 18 276 591
 0 278 273 279 274 ?1 29 277 638 0 261 280 274 .08985 -.05 0 18 261 584 0 281 25
8 282 277 ?1 29 280 639 0 282 283 277 .08985 -.04 0 18 282 586 0 284 261 272 280
 ?1 29 283 641 0 272 285 280 .09215 -.05 0 18 272 590 0 286 282 269 283 ?1 29 28
5 764 0 287 288 283 .00785 -.05 .0023 18 287 717 0 289 290 291 285 ?1 29 288 765
 0 291 292 285 .00785 -.04 .0023 18 291 719 0 293 287 294 288 ?1 29 292 766 0 29
4 295 288 .01015 -.04 .0023 18 294 721 0 296 291 297 292 ?1 29 295 768 0 279 298
 292 .00785 -.05 0 18 279 714 0 299 276 300 295 ?1 29 298 769 0 300 301 295 .007
85 -.04 0 18 300 716 0 302 279 290 298 ?1 29 301 771 0 290 303 298 .01015 -.05 0
 18 290 720 0 304 300 287 301 ?1 29 303 894 0 305 306 301 .0425 -.08715 .0023 18
 305 847 0 307 308 309 303 ?1 29 306 895 0 309 310 303 .0325 -.08715 .0023 18 30
9 849 0 311 305 312 306 ?1 29 310 896 0 312 313 306 .0325 -.08485 .0023 18 312 8
51 0 314 309 315 310 ?1 29 313 898 0 297 316 310 .0425 -.08715 0 18 297 844 0 31
7 294 318 313 ?1 29 316 899 0 318 319 313 .0325 -.08715 0 18 318 846 0 320 297 3
08 316 ?1 29 319 901 0 308 321 316 .0425 -.08485 0 18 308 850 0 322 318 305 319
 ?1 29 321 1024 0 323 324 319 .0575 -.08485 .0023 18 323 977 0 325 326 327 321 ?
1 29 324 1025 0 327 328 321 .0675 -.08485 .0023 18 327 979 0 329 323 330 324 ?1
 29 328 1026 0 330 331 324 .0675 -.08715 .0023 18 330 981 0 332 327 0 328 ?1 29
 331 1028 0 315 333 328 .0575 -.08485 0 18 315 974 0 334 312 335 331 ?1 29 333 1
029 0 335 336 331 .0675 -.08485 0 18 335 976 0 337 315 326 333 ?1 29 336 1031 0
 326 0 333 .0575 -.08715 0 18 326 980 0 338 335 323 336 ?1 17 338 0 339 340 174
 326 341 342 0 343 -15 255 339 985 0 174 344 0 17 340 0 339 325 338 315 345 346
 0 347 -17 174 0 339 338 325 172 348 349 0 341 +17 341 0 350 351 343 172 338 342
 0 352 +16 342 949 0 ?341 353 354 355 0 0 1 17 343 0 350 341 356 326 357 358 0 3
45 -15 350 997 0 351 359 0 17 356 0 350 343 351 175 332 353 0 357 -17 357 0 360
 361 345 175 343 358 0 0 +16 358 958 0 ?357 362 346 363 0 0 1 17 345 0 360 357 3
47 326 340 346 0 0 +15 360 906 0 347 364 365 17 347 0 360 345 361 315 366 354 0
 0 +16 346 946 0 ?345 358 367 368 0 0 1 16 367 971 0 ?369 346 370 371 0 0 1 30 2
55 368 1023 0 346 372 363 0 +.0575 -.08715 0 0 -1 0 31 372 1176 0 373 374 368 0
 +.003 -.003 .0023 0 0 1 1 0 0 .001 30 363 1022 0 358 368 375 0 +.0675 -.08715 0
 1 1387778780781446e-30 0 30 375 1021 0 362 363 376 0 +.0675 -.08715 0 0 1 0 16
 362 954 0 ?361 354 358 375 0 0 1 30 376 1020 0 354 375 377 0 +.0675 -.08485 0 -
1 0 0 16 354 950 0 ?347 342 362 376 0 0 1 30 377 1019 0 349 376 378 0 +.0575 -.0
8715 .0023 0 -1 0 16 349 962 0 ?174 379 380 377 0 0 1 30 378 1018 0 379 377 381
 0 +.0675 -.08715 .0023 1 1387778780781446e-30 0 16 379 965 0 ?351 370 349 378 0
 0 1 30 381 1017 0 370 378 371 0 +.0675 -.08715 .0023 0 1 0 16 370 968 0 ?382 36
7 379 381 0 0 1 30 371 1016 0 367 381 383 0 +.0675 -.08485 .0023 -1 0 0 30 383 1
015 0 384 371 385 0 +.0575 -.08485 0 0 0 1 16 384 953 0 ?325 386 387 383 0 0 1 3
0 385 1014 0 387 383 388 0 +.0675 -.08485 0 0 0 1 16 387 957 0 ?329 384 353 385
 0 0 1 30 388 1013 0 353 385 355 0 +.0675 -.08715 0 0 0 1 16 353 961 0 ?332 387
 342 388 0 0 1 30 355 1012 0 342 388 389 0 +.0575 -.08715 0 0 0 1 30 389 893 0 3
90 355 391 0 +.0425 -.08715 0 -301691039300315e-29 1 0 16 390 816 0 ?392 393 394
 389 0 0 1 30 391 892 0 393 389 395 0 +.0325 -.08485 0 -1 0 0 16 393 828 0 ?396
 397 390 391 0 0 1 30 395 891 0 397 391 398 0 +.0325 -.08715 0 0 -1 0 16 397 824
 0 ?399 400 393 395 0 0 1 30 398 890 0 400 395 401 0 +.0325 -.08715 0 1 0 0 16 4
00 820 0 ?402 403 397 398 0 0 1 30 401 889 0 386 398 404 0 +.0425 -.08715 .0023
 -301691039300315e-29 1 0 16 386 832 0 ?180 405 384 401 0 0 1 30 404 888 0 405 4
01 406 0 +.0325 -.08485 .0023 -1 0 0 16 405 835 0 ?407 408 386 404 0 0 1 30 406
 887 0 408 404 409 0 +.0325 -.08715 .0023 0 -1 0 16 408 838 0 ?410 394 405 406 0
 0 1 30 409 886 0 394 406 411 0 +.0325 -.08715 .0023 1 0 0 16 394 841 0 ?412 390
 408 409 0 0 1 30 411 885 0 413 409 414 0 +.0425 -.08715 0 0 0 1 16 413 823 0 ?3
07 415 416 411 0 0 1 30 414 884 0 416 411 417 0 +.0325 -.08715 0 0 0 1 16 416 82
7 0 ?311 413 418 414 0 0 1 30 417 883 0 418 414 419 0 +.0325 -.08485 0 0 0 1 16
 418 831 0 ?314 416 403 417 0 0 1 30 419 882 0 403 417 420 0 +.0425 -.08485 0 0
 0 1 16 403 819 0 ?421 418 400 419 0 0 1 30 420 763 0 422 419 423 0 +.00785 -.05
 0 1 0 0 16 422 686 0 ?424 425 426 420 0 0 1 30 423 762 0 425 420 427 0 +.01015
 -.04 0 -693889390390723e-30 1 0 16 425 698 0 ?428 429 422 423 0 0 1 30 427 761
 0 429 423 430 0 +.00785 -.04 0 -1 0 0 16 429 694 0 ?431 432 425 427 0 0 1 30 43
0 760 0 432 427 433 0 +.00785 -.04 0 0 -1 0 16 432 690 0 ?434 435 429 430 0 0 1
 30 433 759 0 415 430 436 0 +.00785 -.05 .0023 1 0 0 16 415 702 0 ?186 437 413 4
33 0 0 1 30 436 758 0 437 433 438 0 +.01015 -.04 .0023 -693889390390723e-30 1 0
 16 437 705 0 ?439 440 415 436 0 0 1 30 438 757 0 440 436 441 0 +.00785 -.04 .00
23 -1 0 0 16 440 708 0 ?442 426 437 438 0 0 1 30 441 756 0 426 438 443 0 +.00785
 -.04 .0023 0 -1 0 16 426 711 0 ?444 422 440 441 0 0 1 30 443 755 0 445 441 446
 0 +.00785 -.05 0 0 0 1 16 445 693 0 ?289 447 448 443 0 0 1 30 446 754 0 448 443
 449 0 +.00785 -.04 0 0 0 1 16 448 697 0 ?293 445 450 446 0 0 1 30 449 753 0 450
 446 451 0 +.01015 -.04 0 0 0 1 16 450 701 0 ?296 448 435 449 0 0 1 30 451 752 0
 435 449 452 0 +.01015 -.05 0 0 0 1 16 435 689 0 ?453 450 432 451 0 0 1 30 452 6
33 0 454 451 455 0 +.08985 -.05 0 1 0 0 16 454 556 0 ?456 457 458 452 0 0 1 30 4
55 632 0 457 452 459 0 +.09215 -.04 0 0 1 0 16 457 568 0 ?460 461 454 455 0 0 1
 30 459 631 0 461 455 462 0 +.08985 -.04 0 -1 0 0 16 461 564 0 ?463 464 457 459
 0 0 1 30 462 630 0 464 459 465 0 +.08985 -.04 0 0 -1 0 16 464 560 0 ?466 467 46
1 462 0 0 1 30 465 629 0 447 462 468 0 +.08985 -.05 .0023 1 0 0 16 447 572 0 ?19
2 469 445 465 0 0 1 30 468 628 0 469 465 470 0 +.09215 -.04 .0023 0 1 0 16 469 5
75 0 ?471 472 447 468 0 0 1 30 470 627 0 472 468 473 0 +.08985 -.04 .0023 -1 0 0
 16 472 578 0 ?474 458 469 470 0 0 1 30 473 626 0 458 470 475 0 +.08985 -.04 .00
23 0 -1 0 16 458 581 0 ?476 454 472 473 0 0 1 30 475 625 0 477 473 478 0 +.08985
 -.05 0 0 0 1 16 477 563 0 ?271 479 480 475 0 0 1 30 478 624 0 480 475 481 0 +.0
8985 -.04 0 0 0 1 16 480 567 0 ?275 477 482 478 0 0 1 30 481 623 0 482 478 483 0
 +.09215 -.04 0 0 0 1 16 482 571 0 ?278 480 467 481 0 0 1 30 483 622 0 467 481 4
84 0 +.09215 -.05 0 0 0 1 16 467 559 0 ?485 482 464 483 0 0 1 30 484 503 0 486 4
83 487 0 +.01015 -.01 0 -3469446951953615e-31 1 0 16 486 426 0 ?488 489 490 484
 0 0 1 30 487 502 0 489 484 491 0 +.00785 -.01 0 -1 -754227598250787e-30 0 16 48
9 438 0 ?492 493 486 487 0 0 1 30 491 501 0 493 487 494 0 +.00785 -.01 0 3469446
951953615e-31 -1 0 16 493 434 0 ?495 496 489 491 0 0 1 30 494 500 0 496 491 497
 0 +.00785 -.02 0 1 0 0 16 496 430 0 ?498 499 493 494 0 0 1 30 497 499 0 479 494
 500 0 +.01015 -.01 .0023 -3469446951953615e-31 1 0 16 479 442 0 ?198 501 477 49
7 0 0 1 30 500 498 0 501 497 502 0 +.00785 -.01 .0023 -1 -754227598250787e-30 0
 16 501 445 0 ?503 504 479 500 0 0 1 30 502 497 0 504 500 505 0 +.00785 -.01 .00
23 3469446951953615e-31 -1 0 16 504 448 0 ?506 490 501 502 0 0 1 30 505 496 0 49
0 502 507 0 +.00785 -.02 .0023 1 0 0 16 490 451 0 ?508 486 504 505 0 0 1 30 507
 495 0 509 505 510 0 +.01015 -.02 0 0 0 1 16 509 433 0 ?253 511 512 507 0 0 1 30
 510 494 0 512 507 513 0 +.00785 -.02 0 0 0 1 16 512 437 0 ?257 509 514 510 0 0
 1 30 513 493 0 514 510 515 0 +.00785 -.01 0 0 0 1 16 514 441 0 ?260 512 499 513
 0 0 1 30 515 492 0 499 513 516 0 +.01015 -.01 0 0 0 1 16 499 429 0 ?517 514 496
 515 0 0 1 30 516 373 0 518 515 519 0 +.09215 -.01 0 0 1 0 16 518 296 0 ?520 521
 522 516 0 0 1 30 519 372 0 521 516 523 0 +.08985 -.01 0 -1 0 0 16 521 308 0 ?52
4 525 518 519 0 0 1 30 523 371 0 525 519 526 0 +.08985 -.01 0 -1387778780781446e
-30 -1 0 16 525 304 0 ?527 528 521 523 0 0 1 30 526 370 0 528 523 529 0 +.08985
 -.02 0 1 0 0 16 528 300 0 ?530 531 525 526 0 0 1 30 529 369 0 511 526 532 0 +.0
9215 -.01 .0023 0 1 0 16 511 312 0 ?204 533 509 529 0 0 1 30 532 368 0 533 529 5
34 0 +.08985 -.01 .0023 -1 0 0 16 533 315 0 ?535 536 511 532 0 0 1 30 534 367 0
 536 532 537 0 +.08985 -.01 .0023 -1387778780781446e-30 -1 0 16 536 318 0 ?538 5
22 533 534 0 0 1 30 537 366 0 522 534 539 0 +.08985 -.02 .0023 1 0 0 16 522 321
 0 ?540 518 536 537 0 0 1 30 539 365 0 541 537 542 0 +.09215 -.02 0 0 0 1 16 541
 303 0 ?235 543 544 539 0 0 1 30 542 364 0 544 539 545 0 +.08985 -.02 0 0 0 1 16
 544 307 0 ?239 541 546 542 0 0 1 30 545 363 0 546 542 547 0 +.08985 -.01 0 0 0
 1 16 546 311 0 ?242 544 531 545 0 0 1 30 547 362 0 531 545 548 0 +.09215 -.01 0
 0 0 1 16 531 299 0 ?549 546 528 547 0 0 1 30 548 5 0 550 547 551 0 +0 0 .0023 -
214850315639886e-32 -1 0 16 550 4 0 ?232 552 553 548 0 0 1 30 551 11 0 552 548 5
54 0 +391886975727153e-32 -.09 .0023 1 0 0 16 552 10 0 ?230 555 550 551 0 0 1 30
 554 20 0 555 551 556 0 +.1 -.09 .0023 420539024479226e-30 1 0 16 555 19 0 ?227
 557 552 554 0 0 1 30 556 26 0 557 554 558 0 +0 0 .0023 -1 0 0 16 557 25 0 ?224
 559 555 556 0 0 1 30 558 124 0 543 556 560 0 +-122464679914735e-33 -.057 0 1224
646799147352e-31 -1 0 16 543 101 0 ?561 562 541 558 0 0 1 30 560 121 0 562 558 5
63 0 +.077 -.09 0 1 0 0 16 562 89 0 ?564 565 543 560 0 0 1 30 563 119 0 565 560
 566 0 +.1 0 0 -2434699615406045e-31 1 0 16 565 81 0 ?215 553 562 563 0 0 1 30 5
66 118 0 553 563 567 0 +0 0 0 -1 0 0 16 553 77 0 ?568 550 565 566 0 0 1 30 567 1
66 0 559 566 569 0 +0 0 .0023 0 0 -1 16 559 134 0 ?570 571 557 567 0 0 1 30 569
 167 0 571 567 572 0 +.1 0 .0023 0 0 -1 16 571 135 0 ?573 574 559 569 0 0 1 30 5
72 169 0 574 569 575 0 +.1 -.09 .0023 0 0 -1 16 574 137 0 ?576 577 571 572 0 0 1
 30 575 172 0 577 572 578 0 +391886975727153e-32 -.09 .0023 0 0 -1 16 577 140 0
 ?579 580 574 575 0 0 1 30 578 1880 0 580 575 581 0 -.0845 -.016 0 0 0 1 16 580
 1878 0 ?162 582 577 578 0 0 1 30 581 1885 0 582 578 583 0 +.0845 -.029 .0023 0
 0 1 16 582 1883 0 ?584 585 580 581 0 0 1 30 583 1902 0 585 581 586 0 +.0825 -.0
3 .0023 0 0 1 16 585 1900 0 ?587 588 582 583 0 0 1 30 586 1907 0 588 583 589 0 -
.0835 -.03 0 0 0 1 16 588 1905 0 ?150 590 585 586 0 0 1 30 589 1924 0 590 586 59
1 0 +.0815 -.016 .0023 0 0 1 16 590 1922 0 ?592 593 588 589 0 0 1 30 591 1929 0
 593 589 594 0 -.0815 -.029 0 0 0 1 16 593 1927 0 ?138 595 590 591 0 0 1 30 594
 1946 0 595 591 596 0 +.0835 -.015 .0023 0 0 1 16 595 1944 0 ?597 598 593 594 0
 0 1 30 596 1951 0 598 594 599 0 -.0825 -.015 0 0 0 1 16 598 1949 0 ?126 600 595
 596 0 0 1 30 599 1968 0 600 596 601 0 -.0185 -.016 0 0 0 1 16 600 1966 0 ?114 6
02 598 599 0 0 1 30 601 1973 0 602 599 603 0 +.0185 -.029 .0023 0 0 1 16 602 197
1 0 ?604 605 600 601 0 0 1 30 603 1990 0 605 601 606 0 +.0165 -.03 .0023 0 0 1 1
6 605 1988 0 ?607 608 602 603 0 0 1 30 606 1995 0 608 603 609 0 -.0175 -.03 0 0
 0 1 16 608 1993 0 ?102 610 605 606 0 0 1 30 609 2012 0 610 606 611 0 -.0165 -.0
15 0 0 0 1 16 610 2010 0 ?90 612 608 609 0 0 1 30 611 2017 0 612 609 613 0 +.017
5 -.015 .0023 0 0 1 16 612 2015 0 ?614 615 610 611 0 0 1 30 613 2034 0 615 611 6
16 0 -.0155 -.029 0 0 0 1 16 615 2032 0 ?78 617 612 613 0 0 1 30 616 2039 0 617
 613 618 0 +.0155 -.016 .0023 0 0 1 16 617 2037 0 ?619 620 615 616 0 0 1 31 618
 2106 0 620 616 621 0 -.0835 -.029 .0023 0 0 1 1 0 0 .001 16 620 2042 0 ?156 622
 617 618 0 0 1 31 621 2107 0 622 618 623 0 +.0835 -.029 0 0 0 1 1 0 0 .001 16 62
2 2046 0 ?165 624 620 621 0 0 1 31 623 2108 0 624 621 625 0 -.0825 -.029 .0023 0
 0 1 1 0 0 .001 16 624 2050 0 ?144 626 622 623 0 0 1 31 625 2109 0 626 623 627 0
 +.0825 -.029 0 0 0 1 1 0 0 .001 16 626 2054 0 ?153 628 624 625 0 0 1 31 627 211
0 0 628 625 629 0 -.0825 -.016 .0023 0 0 1 1 0 0 .001 16 628 2058 0 ?132 630 626
 627 0 0 1 31 629 2111 0 630 627 631 0 +.0825 -.016 0 0 0 1 1 0 0 .001 16 630 20
62 0 ?141 632 628 629 0 0 1 31 631 2112 0 632 629 633 0 -.0835 -.016 .0023 0 0 1
 1 0 0 .001 16 632 2066 0 ?168 634 630 631 0 0 1 31 633 2113 0 634 631 635 0 +.0
835 -.016 0 0 0 1 1 0 0 .001 16 634 2070 0 ?129 636 632 633 0 0 1 31 635 2114 0
 636 633 637 0 -.0175 -.029 .0023 0 0 1 1 0 0 .001 16 636 2074 0 ?108 638 634 63
5 0 0 1 31 637 2115 0 638 635 639 0 +.0175 -.029 0 0 0 1 1 0 0 .001 16 638 2078
 0 ?117 640 636 637 0 0 1 31 639 2116 0 640 637 641 0 -.0175 -.016 .0023 0 0 1 1
 0 0 .001 16 640 2082 0 ?120 642 638 639 0 0 1 31 641 2117 0 642 639 643 0 +.017
5 -.016 0 0 0 1 1 0 0 .001 16 642 2086 0 ?93 644 640 641 0 0 1 31 643 2118 0 644
 641 645 0 -.0165 -.016 .0023 0 0 1 1 0 0 .001 16 644 2090 0 ?96 646 642 643 0 0
 1 31 645 2119 0 646 643 647 0 +.0165 -.016 0 0 0 1 1 0 0 .001 16 646 2094 0 ?81
 648 644 645 0 0 1 31 647 2120 0 648 645 649 0 -.0165 -.029 .0023 0 0 1 1 0 0 .0
01 16 648 2098 0 ?84 650 646 647 0 0 1 31 649 2121 0 650 647 651 0 +.0165 -.029
 0 0 0 1 1 0 0 .001 16 650 2102 0 ?105 652 648 649 0 0 1 30 651 2367 0 652 649 6
53 0 -.0625 -.077 0 0 0 1 16 652 2365 0 ?66 654 650 651 0 0 1 30 653 2372 0 654
 651 655 0 +.0625 -.0805 .0023 0 0 1 16 654 2370 0 ?656 657 652 653 0 0 1 30 655
 2389 0 657 653 658 0 +.0395 -.0825 .0023 0 0 1 16 657 2387 0 ?659 660 654 655 0
 0 1 30 658 2394 0 660 655 661 0 -.0605 -.0825 0 0 0 1 16 660 2392 0 ?54 662 657
 658 0 0 1 30 661 2411 0 662 658 663 0 -.0395 -.075 0 0 0 1 16 662 2409 0 ?42 66
4 660 661 0 0 1 30 663 2416 0 664 661 665 0 +.0605 -.075 .0023 0 0 1 16 664 2414
 0 ?666 667 662 663 0 0 1 30 665 2433 0 667 663 668 0 +.0375 -.077 .0023 0 0 1 1
6 667 2431 0 ?669 28 664 665 0 0 1 30 668 2438 0 28 665 670 0 -.0375 -.0805 0 0
 0 1 16 28 2436 0 ?22 671 667 668 0 0 1 31 670 2473 0 671 668 672 0 -.0605 -.080
5 .0023 0 0 1 1 0 0 .002 16 671 2441 0 ?60 673 28 670 0 0 1 31 672 2474 0 673 67
0 674 0 +.0605 -.0805 0 0 0 1 1 0 0 .002 16 673 2445 0 ?69 675 671 672 0 0 1 31
 674 2475 0 675 672 676 0 -.0605 -.077 .0023 0 0 1 1 0 0 .002 16 675 2449 0 ?72
 677 673 674 0 0 1 31 676 2476 0 677 674 678 0 +.0605 -.077 0 0 0 1 1 0 0 .002 1
6 677 2453 0 ?45 679 675 676 0 0 1 31 678 2477 0 679 676 680 0 -.0395 -.0805 .00
23 0 0 1 1 0 0 .002 16 679 2457 0 ?34 681 677 678 0 0 1 31 680 2478 0 681 678 68
2 0 +.0395 -.0805 0 0 0 1 1 0 0 .002 16 681 2461 0 ?57 21 679 680 0 0 1 31 682 2
479 0 21 680 17 0 -.0395 -.077 .0023 0 0 1 1 0 0 .002 16 21 2465 0 ?48 9 681 682
 0 0 1 31 17 2480 0 9 682 6 0 +.0395 -.077 0 0 0 1 1 0 0 .002 17 48 0 683 684 68
5 46 39 21 0 686 +15 683 1723 0 685 687 688 17 684 0 683 72 48 49 686 689 0 0 -1
7 685 0 683 48 34 35 26 690 0 0 -17 39 0 691 692 693 35 48 21 0 669 -17 686 0 69
4 42 666 46 684 689 0 693 +15 694 1771 0 695 696 0 17 42 0 694 695 686 40 693 66
2 0 32 +17 666 0 694 686 695 49 697 664 0 684 +16 689 2398 0 ?686 698 699 700 0
 0 1 17 693 0 691 39 33 46 42 662 0 0 -15 691 2560 0 33 14 0 17 33 0 691 693 692
 40 20 9 0 0 -17 692 0 691 33 39 23 669 667 0 0 -17 669 0 24 26 25 35 692 667 0
 685 +15 24 1767 0 26 701 0 17 26 0 24 22 669 30 685 690 0 27 +17 25 0 24 669 22
 23 29 698 0 692 -17 29 0 31 57 20 10 25 698 0 702 +16 698 2426 0 ?29 703 689 70
4 0 0 1 16 703 2382 0 ?705 706 698 707 0 0 1 30 704 1805 0 698 708 707 0 +.0375
 -.075 0 0 -1 0 31 708 2761 0 709 0 704 0 +.094 -.058 .0023 0 0 1 1 0 0 .003 30
 707 1804 0 703 704 710 0 +.0375 -.0825 0 1 0 0 30 710 1803 0 706 707 711 0 +.06
25 -.075 0 0 1 0 16 706 2360 0 ?712 713 703 710 0 0 1 30 711 1802 0 713 710 714
 0 +.0375 -.075 0 -1 -555111512312578e-30 0 16 713 2404 0 ?32 715 706 711 0 0 1
 30 714 1801 0 690 711 716 0 +.0375 -.075 .0023 0 -1 0 16 690 2420 0 ?26 717 16
 714 0 0 1 30 716 1800 0 717 714 718 0 +.0375 -.0825 .0023 1 0 0 16 717 2376 0 ?
719 699 690 716 0 0 1 30 718 1799 0 699 716 700 0 +.0625 -.075 .0023 0 1 0 16 69
9 2354 0 ?720 689 717 718 0 0 1 30 700 1798 0 689 718 721 0 +.0375 -.075 .0023 -
1 -555111512312578e-30 0 30 721 1675 0 722 700 723 0 +.0815 -.015 0 0 -1 0 16 72
2 1917 0 ?724 725 726 721 0 0 1 30 723 1674 0 725 721 727 0 +.0815 -.03 0 1 0 0
 16 725 1895 0 ?728 729 722 723 0 0 1 30 727 1673 0 729 723 730 0 +.0845 -.015 0
 0 1 0 16 729 1873 0 ?731 732 725 727 0 0 1 30 730 1672 0 732 727 733 0 +.0815 -
.015 0 -1 0 0 16 732 1939 0 ?734 735 729 730 0 0 1 30 733 1671 0 715 730 736 0 +
.0815 -.015 .0023 0 -1 0 16 715 1911 0 ?737 738 713 733 0 0 1 30 736 1670 0 738
 733 739 0 +.0815 -.03 .0023 1 0 0 16 738 1889 0 ?740 741 715 736 0 0 1 30 739 1
669 0 741 736 742 0 +.0845 -.015 .0023 0 1 0 16 741 1867 0 ?743 726 738 739 0 0
 1 30 742 1668 0 726 739 744 0 +.0815 -.015 .0023 -1 0 0 16 726 1933 0 ?745 722
 741 742 0 0 1 30 744 1545 0 746 742 747 0 +.0155 -.015 0 -115648231731787e-30 -
1 0 16 746 2027 0 ?748 749 750 744 0 0 1 30 747 1544 0 749 744 751 0 +.0155 -.03
 0 1 0 0 16 749 1983 0 ?752 753 746 747 0 0 1 30 751 1543 0 753 747 754 0 +.0185
 -.015 0 -462592926927149e-30 1 0 16 753 1961 0 ?755 756 749 751 0 0 1 30 754 15
42 0 756 751 757 0 +.0155 -.015 0 -1 578241158658937e-30 0 16 756 2005 0 ?758 75
9 753 754 0 0 1 30 757 1541 0 735 754 760 0 +.0155 -.015 .0023 -115648231731787e
-30 -1 0 16 735 2021 0 ?761 762 732 757 0 0 1 30 760 1540 0 762 757 763 0 +.0155
 -.03 .0023 1 0 0 16 762 1977 0 ?764 765 735 760 0 0 1 30 763 1539 0 765 760 766
 0 +.0185 -.015 .0023 -462592926927149e-30 1 0 16 765 1955 0 ?767 750 762 763 0
 0 1 30 766 1538 0 750 763 768 0 +.0155 -.015 .0023 -1 578241158658937e-30 0 16
 750 1999 0 ?769 746 765 766 0 0 1 31 768 1367 0 770 766 771 0 +.07411 -.0635 0
 0 0 1 1 0 0 .001 16 770 1344 0 ?772 773 759 768 0 0 1 31 771 1366 0 759 768 774
 0 +.07411 -.0635 .0023 0 0 1 1 0 0 .001 16 759 1347 0 ?775 770 756 771 0 0 1 31
 774 1329 0 776 771 777 0 +.02589 -.0622 0 0 0 1 1 0 0 .001 16 776 1306 0 ?778 7
79 773 774 0 0 1 31 777 1328 0 773 774 780 0 +.02589 -.0622 .0023 0 0 1 1 0 0 .0
01 16 773 1309 0 ?781 776 770 777 0 0 1 31 780 1291 0 782 777 783 0 +.06903 -.01
14 0 0 0 1 1 0 0 .001 16 782 1268 0 ?784 785 779 780 0 0 1 31 783 1290 0 779 780
 786 0 +.06903 -.0114 .0023 0 0 1 1 0 0 .001 16 779 1271 0 ?787 782 776 783 0 0
 1 31 786 1253 0 788 783 789 0 +.04113 -.0114 0 0 0 1 1 0 0 .001 16 788 1230 0 ?
790 791 785 786 0 0 1 31 789 1252 0 785 786 792 0 +.04113 -.0114 .0023 0 0 1 1 0
 0 .001 16 785 1233 0 ?793 788 782 789 0 0 1 31 792 1215 0 794 789 795 0 +.097 -
.003 0 0 0 1 1 0 0 .001 16 794 1192 0 ?796 373 791 792 0 0 1 31 795 1214 0 791 7
92 374 0 +.097 -.003 .0023 0 0 1 1 0 0 .001 16 791 1195 0 ?797 794 788 795 0 0 1
 31 374 1177 0 380 795 372 0 +.003 -.003 0 0 0 1 1 0 0 .001 16 380 1154 0 ?798 3
49 373 374 0 0 1 17 798 0 799 798 798 0 800 380 0 0 +16 373 1157 0 ?801 380 794
 372 0 0 1 17 801 0 802 801 801 0 803 373 0 0 +15 802 1164 0 801 804 0 17 803 0
 805 803 803 0 801 373 0 0 -15 805 1149 0 803 687 806 14 255 687 1 807 ?364 808
 809 4 810 +0 0 364 808 19 15 806 941 0 348 687 811 17 348 0 806 812 352 323 174
 349 0 0 -15 811 811 0 813 687 814 17 813 0 811 815 816 305 180 386 0 0 -15 814
 681 0 817 687 818 17 817 0 814 819 820 287 186 415 0 0 -15 818 551 0 821 687 82
2 17 821 0 818 823 824 269 192 447 0 0 -15 822 421 0 825 687 826 17 825 0 822 82
7 828 251 198 479 0 0 -15 826 291 0 829 687 830 17 829 0 826 831 832 233 204 511
 0 0 -15 830 3 0 232 687 0 17 232 0 830 230 224 212 833 550 0 834 +17 230 0 830
 227 232 228 835 552 0 836 +17 224 0 830 232 227 208 837 557 0 838 +17 833 0 839
 570 834 208 232 550 0 0 -17 834 0 839 833 561 212 579 577 0 835 -15 839 154 0 5
61 12 0 17 561 0 839 834 570 219 211 543 0 579 +17 579 0 840 564 835 219 834 577
 0 0 +17 835 0 840 579 836 212 230 552 0 0 -15 840 148 0 564 841 0 17 836 0 840
 835 564 228 576 574 0 842 -17 564 0 840 836 579 216 221 562 0 576 +17 576 0 843
 215 842 216 836 574 0 0 +17 842 0 843 576 844 228 227 555 0 0 -15 843 144 0 215
 845 0 17 844 0 843 842 215 225 573 571 0 837 -17 227 0 830 224 230 225 842 555
 0 844 +17 215 0 843 844 576 213 218 565 0 573 +17 573 0 846 568 837 213 844 571
 0 847 +17 837 0 846 573 838 225 224 557 0 0 -15 846 142 0 568 808 0 17 838 0 84
6 837 568 208 570 559 0 833 -17 568 0 846 838 573 209 847 553 0 570 +17 570 0 83
9 561 833 209 838 559 0 0 +17 847 0 848 218 211 213 568 553 0 0 -15 848 76 0 211
 364 0 17 218 0 848 221 847 216 215 565 0 564 -17 211 0 848 847 221 209 561 543
 0 568 -17 221 0 848 211 218 219 564 562 0 561 -14 364 75 849 ?850 687 851 4 852
 -0 0 850 687 19 81 255 1 849 2964 853 364 854 0 807 855 856 14 850 332 855 ?857
 364 858 4 859 -0 0 857 364 19 15 851 2719 0 860 364 31 50 255 852 117 0 364 810
 861 0 +0 0 0 0 0 1 1 0 0 13 19 53 0 0 0 0 0 0 8 12 14 12 155 862 ?841 0 839 4 8
63 -0 0 841 0 19 81 1 862 2966 853 12 864 0 855 865 866 14 841 149 865 ?845 12 8
40 4 867 -0 0 845 12 19 50 863 164 0 12 867 868 0 +-122464679914735e-33 -.057 .0
023 1 1224646799147352e-31 0 -1224646799147352e-31 1 0 50 867 161 0 841 869 863
 0 +.077 -.09 .0023 0 1 0 0 0 1 51 868 2161 0 870 863 871 0 +.0835 -.029 0 0 0 -
1 .001 -1 0 0 14 870 2149 872 ?873 874 875 4 868 -0 0 873 874 19 51 871 2182 0 8
73 868 876 0 +.0825 -.029 0 0 0 -1 .001 -1 0 0 14 873 2170 877 ?878 870 879 4 87
1 -0 0 878 870 19 51 876 2203 0 878 871 880 0 +.0825 -.016 0 0 0 -1 .001 -1 0 0
 14 878 2191 881 ?882 873 883 4 876 -0 0 882 873 19 51 880 2224 0 882 876 884 0
 +.0835 -.016 0 0 0 -1 .001 -1 0 0 14 882 2212 885 ?886 878 887 4 880 -0 0 886 8
78 19 51 884 2245 0 886 880 888 0 +.0175 -.029 0 0 0 -1 .001 -1 0 0 14 886 2233
 889 ?890 882 891 4 884 -0 0 890 882 19 51 888 2266 0 890 884 892 0 +.0175 -.016
 0 0 0 -1 .001 -1 0 0 14 890 2254 893 ?894 886 895 4 888 -0 0 894 886 19 51 892
 2287 0 894 888 896 0 +.0165 -.016 0 0 0 -1 .001 -1 0 0 14 894 2275 897 ?898 890
 899 4 892 -0 0 898 890 19 51 896 2308 0 898 892 900 0 +.0165 -.029 0 0 0 -1 .00
1 -1 0 0 14 898 2296 901 ?902 894 903 4 896 -0 0 902 894 19 51 900 2508 0 902 89
6 904 0 +.0605 -.0805 0 0 0 -1 .002 -1 0 0 14 902 2496 905 ?906 898 907 4 900 -0
 0 906 898 19 51 904 2529 0 906 900 15 0 +.0605 -.077 0 0 0 -1 .002 -1 0 0 14 90
6 2517 908 ?909 902 910 4 904 -0 0 909 902 19 51 15 2550 0 909 904 5 0 +.0395 -.
0805 0 0 0 -1 .002 -1 0 0 14 909 2538 911 ?14 906 912 4 15 -0 0 14 906 19 81 1 9
11 2978 853 909 913 0 908 914 915 14 14 2559 914 ?916 909 691 4 5 -0 0 916 909 1
9 15 912 2539 0 702 909 0 17 702 0 912 27 917 10 57 681 0 0 -17 27 0 912 63 702
 30 22 28 0 0 -17 917 0 912 702 63 55 659 657 0 0 -17 57 0 31 705 29 55 702 681
 0 918 +15 31 1688 0 712 364 919 17 705 0 31 69 57 52 918 703 0 920 +17 918 0 92
1 659 54 55 705 703 0 917 -15 921 1779 0 719 874 0 17 659 0 921 719 918 61 917 6
57 0 922 +17 54 0 921 918 719 52 923 660 0 705 +17 719 0 921 54 659 58 922 717 0
 923 +17 923 0 907 75 920 58 54 660 0 0 -15 907 2497 0 920 902 0 17 75 0 907 924
 923 73 60 671 0 656 -17 920 0 907 923 924 52 69 673 0 0 -17 924 0 907 920 75 67
 656 654 0 0 -17 69 0 31 712 705 67 920 673 0 925 +17 712 0 31 45 69 64 925 706
 0 926 +17 925 0 927 656 66 67 712 706 0 924 -15 927 1775 0 925 928 0 17 656 0 9
27 720 925 73 924 654 0 929 +17 66 0 927 925 720 64 930 652 0 712 +17 720 0 927
 66 656 70 929 699 0 930 +17 930 0 910 51 926 70 66 652 0 0 -15 910 2518 0 926 9
06 0 17 51 0 910 697 930 49 72 675 0 666 -17 926 0 910 930 697 64 45 677 0 0 -17
 697 0 910 926 51 43 666 664 0 0 -17 45 0 31 32 712 43 926 677 0 695 +17 32 0 31
 20 45 40 695 713 0 33 +17 695 0 694 666 42 43 32 713 0 697 -17 72 0 683 929 684
 70 51 675 0 720 +17 929 0 683 60 72 73 720 699 0 0 -17 60 0 683 922 929 58 75 6
71 0 719 +17 922 0 683 34 60 61 719 717 0 0 -17 34 0 683 685 922 30 63 679 0 26
 +17 63 0 912 917 27 61 34 679 0 659 -14 928 1772 931 ?874 696 927 4 932 -0 0 87
4 696 19 81 1 931 2980 853 928 933 0 914 934 935 14 874 1776 934 ?870 928 921 4
 936 -0 0 870 928 19 14 696 1768 937 ?928 701 694 4 938 -0 0 928 701 19 50 932 1
790 0 928 938 936 0 +.0625 -.075 0 1 0 0 0 0 -1 50 938 1791 0 696 939 932 0 +.03
75 -.075 0 -555111512312578e-30 1 0 -1 -555111512312578e-30 0 50 936 1789 0 874
 932 940 0 +.0375 -.0825 0 0 -1 0 0 0 -1 50 940 1788 0 701 936 941 0 +.0375 -.07
5 0 -1 0 0 0 0 1 14 701 1764 942 ?696 943 24 4 940 -0 0 696 943 19 50 941 1661 0
 944 940 945 0 +.0815 -.015 0 0 1 0 0 0 1 14 944 1638 946 ?947 948 949 4 941 -0
 0 947 948 19 50 945 1660 0 947 941 950 0 +.0845 -.015 0 1 0 0 0 0 -1 14 947 164
2 951 ?943 944 952 4 945 -0 0 943 944 19 50 950 1659 0 943 945 953 0 +.0815 -.03
 0 0 -1 0 0 0 -1 14 943 1646 954 ?701 947 955 4 950 -0 0 701 947 19 50 953 1658
 0 948 950 956 0 +.0815 -.015 0 -1 0 0 0 0 1 14 948 1634 957 ?944 958 959 4 953
 -0 0 944 958 19 50 956 1531 0 960 953 961 0 +.0155 -.015 0 578241158658937e-30
 1 0 -1 578241158658937e-30 0 14 960 1508 962 ?963 964 965 4 956 -0 0 963 964 19
 50 961 1530 0 963 956 966 0 +.0185 -.015 0 1 462592926927149e-30 0 -46259292692
7149e-30 1 0 14 963 1512 967 ?958 960 968 4 961 -0 0 958 960 19 50 966 1529 0 95
8 961 969 0 +.0155 -.03 0 0 -1 0 0 0 -1 14 958 1516 970 ?948 963 971 4 966 -0 0
 948 963 19 50 969 1528 0 964 966 972 0 +.0155 -.015 0 -1 1156482317317872e-31 0
 -1156482317317872e-31 -1 0 14 964 1504 973 ?960 974 975 4 969 -0 0 960 974 19 5
1 972 1363 0 974 969 976 0 +.07411 -.0635 0 0 0 1 .001 1 0 0 14 974 1350 977 ?96
4 978 979 4 972 -0 0 964 978 19 51 976 1325 0 978 972 980 0 +.02589 -.0622 0 0 0
 1 .001 1 0 0 14 978 1312 981 ?974 982 983 4 976 -0 0 974 982 19 51 980 1287 0 9
82 976 984 0 +.06903 -.0114 0 0 0 1 .001 1 0 0 14 982 1274 985 ?978 986 987 4 98
0 -0 0 978 986 19 51 984 1249 0 986 980 988 0 +.04113 -.0114 0 0 0 1 .001 1 0 0
 14 986 1236 989 ?982 990 991 4 984 -0 0 982 990 19 51 988 1211 0 990 984 992 0
 +.097 -.003 0 0 0 1 .001 1 0 0 14 990 1198 993 ?986 804 994 4 988 -0 0 986 804
 19 51 992 1173 0 804 988 995 0 +.003 -.003 0 0 0 1 .001 1 0 0 14 804 1160 996 ?
990 359 997 4 992 -0 0 990 359 19 50 995 1009 0 998 992 999 0 +.0675 -.08485 0 0
 1 0 0 0 1 14 998 986 1000 ?1001 344 1002 4 995 -0 0 1001 344 19 50 999 1008 0 1
001 995 1003 0 +.0675 -.08715 0 1 0 0 0 0 -1 14 1001 990 1004 ?359 998 1005 4 99
9 -0 0 359 998 19 50 1003 1007 0 359 999 1006 0 +.0675 -.08715 0 138777878078144
6e-30 -1 0 1 1387778780781446e-30 0 14 359 994 1007 ?804 1001 350 4 1003 -0 0 80
4 1001 19 50 1006 1006 0 344 1003 1008 0 +.0575 -.08715 0 -1 0 0 0 0 1 14 344 98
2 1009 ?998 1010 339 4 1006 -0 0 998 1010 19 50 1008 879 0 1011 1006 1012 0 +.03
25 -.08715 0 0 -1 0 0 0 -1 14 1011 856 1013 ?1014 1015 1016 4 1008 -0 0 1014 101
5 19 50 1012 878 0 1014 1008 1017 0 +.0325 -.08715 0 -1 0 0 0 0 1 14 1014 860 10
18 ?1010 1011 1019 4 1012 -0 0 1010 1011 19 50 1017 877 0 1010 1012 1020 0 +.032
5 -.08485 0 0 1 0 0 0 1 14 1010 864 1021 ?344 1014 1022 4 1017 -0 0 344 1014 19
 50 1020 876 0 1015 1017 1023 0 +.0425 -.08715 0 1 301691039300315e-29 0 -301691
039300315e-29 1 0 14 1015 852 1024 ?1011 1025 1026 4 1020 -0 0 1011 1025 19 50 1
023 749 0 1027 1020 1028 0 +.00785 -.04 0 -1 0 0 0 0 1 14 1027 726 1029 ?1030 10
31 1032 4 1023 -0 0 1030 1031 19 50 1028 748 0 1030 1023 1033 0 +.00785 -.04 0 0
 1 0 0 0 1 14 1030 730 1034 ?1025 1027 1035 4 1028 -0 0 1025 1027 19 50 1033 747
 0 1025 1028 1036 0 +.01015 -.04 0 1 693889390390723e-30 0 -693889390390723e-30
 1 0 14 1025 734 1037 ?1015 1030 1038 4 1033 -0 0 1015 1030 19 50 1036 746 0 103
1 1033 1039 0 +.00785 -.05 0 0 -1 0 0 0 -1 14 1031 722 1040 ?1027 1041 1042 4 10
36 -0 0 1027 1041 19 50 1039 619 0 1043 1036 1044 0 +.08985 -.04 0 -1 0 0 0 0 1
 14 1043 596 1045 ?1046 1047 1048 4 1039 -0 0 1046 1047 19 50 1044 618 0 1046 10
39 1049 0 +.08985 -.04 0 0 1 0 0 0 1 14 1046 600 1050 ?1041 1043 1051 4 1044 -0
 0 1041 1043 19 50 1049 617 0 1041 1044 1052 0 +.09215 -.04 0 1 0 0 0 0 -1 14 10
41 604 1053 ?1031 1046 1054 4 1049 -0 0 1031 1046 19 50 1052 616 0 1047 1049 105
5 0 +.08985 -.05 0 0 -1 0 0 0 -1 14 1047 592 1056 ?1043 1057 1058 4 1052 -0 0 10
43 1057 19 50 1055 489 0 1059 1052 1060 0 +.00785 -.02 0 0 -1 0 0 0 -1 14 1059 4
66 1061 ?1062 1063 1064 4 1055 -0 0 1062 1063 19 50 1060 488 0 1062 1055 1065 0
 +.00785 -.01 0 -1 -3469446951953615e-31 0 3469446951953615e-31 -1 0 14 1062 470
 1066 ?1057 1059 1067 4 1060 -0 0 1057 1059 19 50 1065 487 0 1057 1060 1068 0 +.
00785 -.01 0 -754227598250787e-30 1 0 -1 -754227598250787e-30 0 14 1057 474 1069
 ?1047 1062 1070 4 1065 -0 0 1047 1062 19 50 1068 486 0 1063 1065 1071 0 +.01015
 -.01 0 1 3469446951953615e-31 0 -3469446951953615e-31 1 0 14 1063 462 1072 ?105
9 1073 1074 4 1068 -0 0 1059 1073 19 50 1071 359 0 857 1068 1075 0 +.08985 -.02
 0 0 -1 0 0 0 -1 14 857 336 1076 ?1077 850 1078 4 1071 -0 0 1077 850 19 50 1075
 358 0 1077 1071 1079 0 +.08985 -.01 0 -1 1387778780781446e-30 0 -13877787807814
46e-30 -1 0 14 1077 340 1080 ?1073 857 1081 4 1075 -0 0 1073 857 19 50 1079 357
 0 1073 1075 859 0 +.08985 -.01 0 0 1 0 0 0 1 14 1073 344 1082 ?1063 1077 1083 4
 1079 -0 0 1063 1077 19 50 859 356 0 850 1079 810 0 +.09215 -.01 0 1 0 0 0 0 -1
 50 810 2 0 687 859 852 0 +0 0 .0023 0 0 1 1 0 0 81 1 1082 3020 853 1073 1084 0
 1080 1085 1086 15 1083 347 0 535 1073 0 17 535 0 1083 1087 549 240 832 533 0 10
88 +17 1087 0 1083 1089 535 205 242 546 0 524 -17 549 0 1083 535 1089 202 250 53
1 0 832 +17 832 0 826 829 1088 202 535 533 0 0 -17 1088 0 826 832 831 240 538 53
6 0 0 -17 831 0 826 1088 829 237 540 522 0 0 -17 538 0 1081 248 242 237 1088 536
 0 831 +15 1081 343 0 538 1077 0 17 248 0 1081 207 538 246 239 544 0 1090 -17 24
2 0 1081 538 207 240 1087 546 0 535 +17 207 0 1081 242 248 205 527 525 0 1087 -1
7 527 0 1091 530 524 246 207 525 0 0 +15 1091 256 0 530 364 848 17 530 0 1091 52
0 527 222 1090 528 0 0 +17 524 0 1091 527 520 205 1089 521 0 0 +17 520 0 1091 52
4 530 236 1092 518 0 0 +17 1089 0 1083 549 1087 236 524 521 0 520 -17 1092 0 858
 235 250 222 520 518 0 530 -15 858 335 0 204 850 0 17 235 0 858 204 1092 233 245
 541 0 540 +17 250 0 858 1092 204 236 549 531 0 1089 -17 204 0 858 250 235 202 8
29 511 0 549 +17 245 0 1078 1090 540 222 235 541 0 1092 -17 540 0 1078 245 239 2
33 831 522 0 829 +15 1078 339 0 540 857 0 17 239 0 1078 540 1090 237 248 544 0 5
38 +17 1090 0 1078 239 245 246 530 528 0 527 -80 255 1 853 1093 1094 9000 1 1 1
 1 1 1 1 1 0 FFFFTFTFFFFFFF1 81 1 1084 2783 1095 1073 0 1082 1096 1097 1098 81 1
 1080 3019 853 1077 1096 0 1076 1082 1099 81 1 1085 3021 853 916 1100 0 1082 110
1 1102 82 255 1 1086 264503499 14 916 2740 1085 ?0 14 1103 4 939 -0 0 0 14 19 81
 1 1100 2834 1095 916 0 1085 1104 0 1105 81 1 1101 3022 853 808 1106 0 1085 1107
 1108 82 1 1102 -1956249369 14 808 143 1101 ?687 845 846 4 861 -0 0 687 845 19 8
1 1 1106 2777 1095 808 0 1101 1109 1110 1111 81 1 1107 3023 853 845 1109 0 1101
 0 1112 82 1 1108 772800703 14 845 145 1107 ?808 841 843 4 869 -0 0 808 841 19 8
1 1 1109 2776 1095 845 0 1107 1113 1106 1114 82 1 1112 773062847 80 1 1095 0 111
5 8001 0 0 0 0 3 5 0 0 0 FFFFTFTFFFFFFF2 81 1 1113 2775 1095 841 0 865 864 1109
 1116 83 255 3 1114 .792156862745098 .819607843137255 .933333333333333 81 1 865
 2967 853 841 1113 0 862 872 1117 81 1 864 2774 1095 12 0 862 0 1113 1118 83 3 1
116 .792156862745098 .819607843137255 .933333333333333 83 3 1118 .79215686274509
8 .819607843137255 .933333333333333 81 1 872 2968 853 870 1119 0 865 877 1120 82
 1 1117 773587135 81 1 1119 2822 1095 870 0 872 1121 1122 1123 81 1 877 2969 853
 873 1122 0 872 881 1124 82 1 1120 -786628386 81 1 1122 2823 1095 873 0 877 1119
 1125 1126 81 1 881 2970 853 878 1125 0 877 885 1127 82 1 1124 -784662306 81 1 1
125 2824 1095 878 0 881 1122 1128 1129 81 1 885 2971 853 882 1128 0 881 889 1130
 82 1 1127 -782696226 81 1 1128 2825 1095 882 0 885 1125 1131 1132 81 1 889 2972
 853 886 1131 0 885 893 1133 82 1 1130 -780730146 81 1 1131 2826 1095 886 0 889
 1128 1134 1135 81 1 893 2973 853 890 1134 0 889 897 1136 82 1 1133 -778764066 8
1 1 1134 2827 1095 890 0 893 1131 1137 1138 81 1 897 2974 853 894 1137 0 893 901
 1139 82 1 1136 -776797986 81 1 1137 2828 1095 894 0 897 1134 1140 1141 81 1 901
 2975 853 898 1140 0 897 905 1142 82 1 1139 -774831906 81 1 1140 2829 1095 898 0
 901 1137 1143 1144 81 1 905 2976 853 902 1143 0 901 908 1145 82 1 1142 -7728658
26 81 1 1143 2830 1095 902 0 905 1140 1146 1147 81 1 908 2977 853 906 1146 0 905
 911 1148 82 1 1145 -736755489 81 1 1146 2831 1095 906 0 908 1143 913 1149 82 1
 1148 -734789409 81 1 913 2832 1095 909 0 911 1146 1104 1150 83 3 1149 .79215686
2745098 .819607843137255 .933333333333333 81 1 1104 2833 1095 14 0 914 913 1100
 1151 83 3 1150 .792156862745098 .819607843137255 .933333333333333 81 1 914 2979
 853 14 1104 0 911 931 1152 83 3 1151 .792156862745098 .819607843137255 .9333333
33333333 82 1 1152 -730857249 83 3 1147 .792156862745098 .819607843137255 .93333
3333333333 83 3 1144 .792156862745098 .819607843137255 .933333333333333 83 3 114
1 .792156862745098 .819607843137255 .933333333333333 83 3 1138 .792156862745098
 .819607843137255 .933333333333333 83 3 1135 .792156862745098 .819607843137255 .
933333333333333 83 3 1132 .792156862745098 .819607843137255 .933333333333333 83
 3 1129 .792156862745098 .819607843137255 .933333333333333 83 3 1126 .7921568627
45098 .819607843137255 .933333333333333 81 1 1121 2821 1095 874 0 934 933 1119 1
153 83 3 1123 .792156862745098 .819607843137255 .933333333333333 81 1 934 2981 8
53 874 1121 0 931 937 1154 81 1 933 2820 1095 928 0 931 1155 1121 1156 83 3 1153
 .792156862745098 .819607843137255 .933333333333333 81 1 1155 2819 1095 696 0 93
7 1157 933 1158 83 3 1156 .792156862745098 .819607843137255 .933333333333333 81
 1 937 2982 853 696 1155 0 934 942 1159 81 1 1157 2818 1095 701 0 942 1160 1155
 1161 83 3 1158 .792156862745098 .819607843137255 .933333333333333 81 1 942 2983
 853 701 1157 0 937 946 1162 81 1 1160 2817 1095 943 0 954 1163 1157 1164 83 3 1
161 .792156862745098 .819607843137255 .933333333333333 81 1 954 2986 853 943 116
0 0 951 957 1165 81 1 1163 2816 1095 947 0 951 1166 1160 1167 83 3 1164 .7921568
62745098 .819607843137255 .933333333333333 81 1 951 2985 853 947 1163 0 946 954
 1168 81 1 1166 2815 1095 944 0 946 1169 1163 1170 83 3 1167 .792156862745098 .8
19607843137255 .933333333333333 81 1 946 2984 853 944 1166 0 942 951 1171 81 1 1
169 2814 1095 948 0 957 1172 1166 1173 83 3 1170 .792156862745098 .8196078431372
55 .933333333333333 81 1 957 2987 853 948 1169 0 954 962 1174 81 1 1172 2813 109
5 958 0 970 1175 1169 1176 83 3 1173 .792156862745098 .819607843137255 .93333333
3333333 81 1 970 2990 853 958 1172 0 967 973 1177 81 1 1175 2812 1095 963 0 967
 1178 1172 1179 83 3 1176 .792156862745098 .819607843137255 .933333333333333 81
 1 967 2989 853 963 1175 0 962 970 1180 81 1 1178 2811 1095 960 0 962 1181 1175
 1182 83 3 1179 .792156862745098 .819607843137255 .933333333333333 81 1 962 2988
 853 960 1178 0 957 967 1183 81 1 1181 2810 1095 964 0 973 1184 1178 1185 83 3 1
182 .792156862745098 .819607843137255 .933333333333333 81 1 973 2991 853 964 118
1 0 970 977 1186 81 1 1184 2809 1095 974 0 977 1187 1181 1188 83 3 1185 .7921568
62745098 .819607843137255 .933333333333333 81 1 977 2992 853 974 1184 0 973 981
 1189 81 1 1187 2808 1095 978 0 981 1190 1184 1191 83 3 1188 .792156862745098 .8
19607843137255 .933333333333333 81 1 981 2993 853 978 1187 0 977 985 1192 81 1 1
190 2807 1095 982 0 985 1193 1187 1194 83 3 1191 .792156862745098 .8196078431372
55 .933333333333333 81 1 985 2994 853 982 1190 0 981 989 1195 81 1 1193 2806 109
5 986 0 989 1196 1190 1197 83 3 1194 .792156862745098 .819607843137255 .93333333
3333333 81 1 989 2995 853 986 1193 0 985 993 1198 81 1 1196 2805 1095 990 0 993
 1199 1193 1200 83 3 1197 .792156862745098 .819607843137255 .933333333333333 81
 1 993 2996 853 990 1196 0 989 996 1201 81 1 1199 2804 1095 804 0 996 1202 1196
 1203 83 3 1200 .792156862745098 .819607843137255 .933333333333333 81 1 996 2997
 853 804 1199 0 993 1000 1204 81 1 1202 2803 1095 359 0 1007 1205 1199 1206 83 3
 1203 .792156862745098 .819607843137255 .933333333333333 81 1 1007 3000 853 359
 1202 0 1004 1009 1207 81 1 1205 2802 1095 1001 0 1004 1208 1202 1209 83 3 1206
 .792156862745098 .819607843137255 .933333333333333 81 1 1004 2999 853 1001 1205
 0 1000 1007 1210 81 1 1208 2801 1095 998 0 1000 1211 1205 1212 83 3 1209 .79215
6862745098 .819607843137255 .933333333333333 81 1 1000 2998 853 998 1208 0 996 1
004 1213 81 1 1211 2800 1095 344 0 1009 1214 1208 1215 83 3 1212 .79215686274509
8 .819607843137255 .933333333333333 81 1 1009 3001 853 344 1211 0 1007 1013 1216
 81 1 1214 2799 1095 1010 0 1021 1217 1211 1218 83 3 1215 .792156862745098 .8196
07843137255 .933333333333333 81 1 1021 3004 853 1010 1214 0 1018 1024 1219 81 1
 1217 2798 1095 1014 0 1018 1220 1214 1221 83 3 1218 .792156862745098 .819607843
137255 .933333333333333 81 1 1018 3003 853 1014 1217 0 1013 1021 1222 81 1 1220
 2797 1095 1011 0 1013 1223 1217 1224 83 3 1221 .792156862745098 .81960784313725
5 .933333333333333 81 1 1013 3002 853 1011 1220 0 1009 1018 1225 81 1 1223 2796
 1095 1015 0 1024 1226 1220 1227 83 3 1224 .792156862745098 .819607843137255 .93
3333333333333 81 1 1024 3005 853 1015 1223 0 1021 1029 1228 81 1 1226 2795 1095
 1025 0 1037 1229 1223 1230 83 3 1227 .792156862745098 .819607843137255 .9333333
33333333 81 1 1037 3008 853 1025 1226 0 1034 1040 1231 81 1 1229 2794 1095 1030
 0 1034 1232 1226 1233 83 3 1230 .792156862745098 .819607843137255 .933333333333
333 81 1 1034 3007 853 1030 1229 0 1029 1037 1234 81 1 1232 2793 1095 1027 0 102
9 1235 1229 1236 83 3 1233 .792156862745098 .819607843137255 .933333333333333 81
 1 1029 3006 853 1027 1232 0 1024 1034 1237 81 1 1235 2792 1095 1031 0 1040 1238
 1232 1239 83 3 1236 .792156862745098 .819607843137255 .933333333333333 81 1 104
0 3009 853 1031 1235 0 1037 1045 1240 81 1 1238 2791 1095 1041 0 1053 1241 1235
 1242 83 3 1239 .792156862745098 .819607843137255 .933333333333333 81 1 1053 301
2 853 1041 1238 0 1050 1056 1243 81 1 1241 2790 1095 1046 0 1050 1244 1238 1245
 83 3 1242 .792156862745098 .819607843137255 .933333333333333 81 1 1050 3011 853
 1046 1241 0 1045 1053 1246 81 1 1244 2789 1095 1043 0 1045 1247 1241 1248 83 3
 1245 .792156862745098 .819607843137255 .933333333333333 81 1 1045 3010 853 1043
 1244 0 1040 1050 1249 81 1 1247 2788 1095 1047 0 1056 1250 1244 1251 83 3 1248
 .792156862745098 .819607843137255 .933333333333333 81 1 1056 3013 853 1047 1247
 0 1053 1061 1252 81 1 1250 2787 1095 1057 0 1069 1253 1247 1254 83 3 1251 .7921
56862745098 .819607843137255 .933333333333333 81 1 1069 3016 853 1057 1250 0 106
6 1072 1255 81 1 1253 2786 1095 1062 0 1066 1256 1250 1257 83 3 1254 .7921568627
45098 .819607843137255 .933333333333333 81 1 1066 3015 853 1062 1253 0 1061 1069
 1258 81 1 1256 2785 1095 1059 0 1061 1097 1253 1259 83 3 1257 .792156862745098
 .819607843137255 .933333333333333 81 1 1061 3014 853 1059 1256 0 1056 1066 1260
 81 1 1097 2784 1095 1063 0 1072 1084 1256 1261 83 3 1259 .792156862745098 .8196
07843137255 .933333333333333 81 1 1072 3017 853 1063 1097 0 1069 1076 1262 83 3
 1261 .792156862745098 .819607843137255 .933333333333333 81 1 1076 3018 853 857
 1263 0 1072 1080 1264 82 1 1262 275841227 81 1 1263 2781 1095 857 0 1076 1265 1
096 1266 82 1 1264 264241355 81 1 1265 2780 1095 850 0 855 854 1263 1267 81 1 10
96 2782 1095 1077 0 1080 1263 1084 1268 83 3 1266 .792156862745098 .819607843137
255 .933333333333333 83 3 1268 .792156862745098 .819607843137255 .93333333333333
3 81 1 855 2965 853 850 1265 0 849 862 1269 81 1 854 2779 1095 364 0 849 1110 12
65 1270 83 3 1267 .792156862745098 .819607843137255 .933333333333333 81 1 1110 2
778 1095 687 0 807 1106 854 1271 83 3 1270 .792156862745098 .819607843137255 .93
3333333333333 81 1 807 2963 853 687 1110 0 0 849 1272 83 3 1271 .792156862745098
 .819607843137255 .933333333333333 82 1 1272 1351811303 82 1 1269 264634571 82 1
 1260 275448011 82 1 1258 275579083 82 1 1255 275710155 82 1 1252 286982347 82 1
 1249 286589131 82 1 1246 286720203 82 1 1243 286851275 82 1 1240 298123467 82 1
 1237 297730251 82 1 1234 297861323 82 1 1231 297992395 82 1 1228 309264587 82 1
 1225 308871371 82 1 1222 309002443 82 1 1219 309133515 82 1 1216 320405707 82 1
 1213 320012491 82 1 1210 320143563 82 1 1207 320274635 82 1 1204 -1522007851 82
 1 1201 -1518010155 82 1 1198 -1514077995 82 1 1195 -1510145835 82 1 1192 -15062
13675 82 1 1189 -1502281515 82 1 1186 -831651618 82 1 1183 -832044834 82 1 1180
 -831913762 82 1 1177 -831782690 82 1 1174 -820444962 82 1 1171 -820838178 82 1
 1168 -820707106 82 1 1165 -820576034 82 1 1162 -809303841 82 1 1159 -809697057
 82 1 1154 -809434913 79 255 15 1115 SDL/TYSA_COLOUR50 869 159 0 845 861 867 0 +
.1 0 .0023 -1 -2434699615406045e-31 0 2434699615406045e-31 -1 0 50 861 158 0 808
 852 869 0 +0 0 .0023 0 -1 0 0 0 -1 83 3 1111 .792156862745098 .819607843137255
 .933333333333333 83 3 1105 .792156862745098 .819607843137255 .933333333333333 1
5 1103 2743 0 1273 916 1274 51 939 2758 0 916 0 938 0 +.094 -.058 -.0077 0 0 1 .
003 1 0 0 17 1273 0 1103 1273 1273 0 1275 709 0 0 +15 1274 2744 0 1276 916 0 17
 1276 0 1274 1276 1276 0 860 16 0 0 -17 860 0 851 860 860 0 1276 16 0 0 +16 16 2
733 0 ?860 690 709 6 0 0 1 16 709 2737 0 ?1273 16 0 708 0 0 1 17 1275 0 809 1275
 1275 0 1273 709 0 0 -15 809 2727 0 1275 687 683 82 1 1099 264372427 83 3 1098 .
792156862745098 .819607843137255 .933333333333333 79 14 1094 SWEntUnchanged15 10
74 465 0 198 1063 0 17 198 0 1074 268 253 196 825 479 0 517 +17 268 0 1074 1277
 198 254 517 499 0 1278 -17 253 0 1074 198 1277 251 263 509 0 508 +17 517 0 1070
 503 1278 196 268 499 0 828 +15 1070 477 0 503 1057 0 17 503 0 1070 1279 517 258
 828 501 0 1280 +17 1278 0 1070 517 1279 254 492 489 0 488 -17 828 0 822 825 128
0 196 503 501 0 0 -17 1280 0 822 828 827 258 506 504 0 0 -17 827 0 822 1280 825
 255 508 490 0 0 -17 506 0 1067 266 260 255 1280 504 0 827 +15 1067 473 0 506 10
62 0 17 266 0 1067 201 506 264 257 512 0 1281 -17 260 0 1067 506 201 258 1279 51
4 0 503 +17 201 0 1067 260 266 199 495 493 0 1279 -17 1279 0 1070 1278 503 199 2
60 514 0 492 -17 492 0 1282 495 488 199 1278 489 0 0 +15 1282 386 0 498 364 1091
 17 495 0 1282 498 492 264 201 493 0 0 +17 488 0 1282 492 498 254 1277 486 0 0 +
17 498 0 1282 488 495 243 1281 496 0 0 +17 1277 0 1074 253 268 243 488 486 0 498
 -17 1281 0 1064 257 263 264 498 496 0 495 -15 1064 469 0 508 1059 0 17 257 0 10
64 508 1281 255 266 512 0 506 +17 263 0 1064 1281 508 243 253 509 0 1277 -17 508
 0 1064 263 257 251 827 490 0 825 +15 1058 595 0 192 1047 0 17 192 0 1058 286 27
1 190 821 447 0 485 +17 286 0 1058 1283 192 272 485 467 0 1284 -17 271 0 1058 19
2 1283 269 281 477 0 476 +17 485 0 1054 471 1284 190 286 467 0 824 +15 1054 607
 0 471 1041 0 17 471 0 1054 1285 485 276 824 469 0 1286 +17 1284 0 1054 485 1285
 272 460 457 0 456 -17 824 0 818 821 1286 190 471 469 0 0 -17 1286 0 818 824 823
 276 474 472 0 0 -17 823 0 818 1286 821 273 476 458 0 0 -17 474 0 1051 284 278 2
73 1286 472 0 823 +15 1051 603 0 474 1046 0 17 284 0 1051 195 474 282 275 480 0
 1287 -17 278 0 1051 474 195 276 1285 482 0 471 +17 195 0 1051 278 284 193 463 4
61 0 1285 -17 1285 0 1054 1284 471 193 278 482 0 460 -17 460 0 1288 463 456 193
 1284 457 0 0 +15 1288 516 0 466 364 1282 17 463 0 1288 466 460 282 195 461 0 0
 +17 456 0 1288 460 466 272 1283 454 0 0 +17 466 0 1288 456 463 261 1287 464 0 0
 +17 1283 0 1058 271 286 261 456 454 0 466 -17 1287 0 1048 275 281 282 466 464 0
 463 -15 1048 599 0 476 1043 0 17 275 0 1048 476 1287 273 284 480 0 474 +17 281
 0 1048 1287 476 261 271 477 0 1283 -17 476 0 1048 281 275 269 823 458 0 821 +15
 1042 725 0 186 1031 0 17 186 0 1042 304 289 184 817 415 0 453 +17 304 0 1042 12
89 186 290 453 435 0 1290 -17 289 0 1042 186 1289 287 299 445 0 444 +17 453 0 10
38 439 1290 184 304 435 0 820 +15 1038 737 0 439 1025 0 17 439 0 1038 1291 453 2
94 820 437 0 1292 +17 1290 0 1038 453 1291 290 428 425 0 424 -17 820 0 814 817 1
292 184 439 437 0 0 -17 1292 0 814 820 819 294 442 440 0 0 -17 819 0 814 1292 81
7 291 444 426 0 0 -17 442 0 1035 302 296 291 1292 440 0 819 +15 1035 733 0 442 1
030 0 17 302 0 1035 189 442 300 293 448 0 1293 -17 296 0 1035 442 189 294 1291 4
50 0 439 +17 189 0 1035 296 302 187 431 429 0 1291 -17 1291 0 1038 1290 439 187
 296 450 0 428 -17 428 0 1294 431 424 187 1290 425 0 0 +15 1294 646 0 434 364 12
88 17 431 0 1294 434 428 300 189 429 0 0 +17 424 0 1294 428 434 290 1289 422 0 0
 +17 434 0 1294 424 431 279 1293 432 0 0 +17 1289 0 1042 289 304 279 424 422 0 4
34 -17 1293 0 1032 293 299 300 434 432 0 431 -15 1032 729 0 444 1027 0 17 293 0
 1032 444 1293 291 302 448 0 442 +17 299 0 1032 1293 444 279 289 445 0 1289 -17
 444 0 1032 299 293 287 819 426 0 817 +15 1026 855 0 180 1015 0 17 180 0 1026 32
2 307 178 813 386 0 421 +17 322 0 1026 1295 180 308 421 403 0 1296 -17 307 0 102
6 180 1295 305 317 413 0 412 +17 421 0 1022 407 1296 178 322 403 0 816 +15 1022
 867 0 407 1010 0 17 407 0 1022 1297 421 312 816 405 0 1298 +17 1296 0 1022 421
 1297 308 396 393 0 392 -17 816 0 811 813 1298 178 407 405 0 0 -17 1298 0 811 81
6 815 312 410 408 0 0 -17 815 0 811 1298 813 309 412 394 0 0 -17 410 0 1019 320
 314 309 1298 408 0 815 +15 1019 863 0 410 1014 0 17 320 0 1019 183 410 318 311
 416 0 1299 -17 314 0 1019 410 183 312 1297 418 0 407 +17 183 0 1019 314 320 181
 399 397 0 1297 -17 1297 0 1022 1296 407 181 314 418 0 396 -17 396 0 365 399 392
 181 1296 393 0 0 +15 365 776 0 402 364 1294 17 399 0 365 402 396 318 183 397 0
 0 +17 392 0 365 396 402 308 1295 390 0 0 +17 402 0 365 392 399 297 1299 400 0 0
 +17 1295 0 1026 307 322 297 392 390 0 402 -17 1299 0 1016 311 317 318 402 400 0
 399 -15 1016 859 0 412 1011 0 17 311 0 1016 412 1299 309 320 416 0 410 +17 317
 0 1016 1299 412 297 307 413 0 1295 -17 412 0 1016 317 311 305 815 394 0 813 +15
 1005 993 0 382 1001 0 17 382 0 1005 337 332 327 1300 370 0 812 +17 337 0 1005 1
77 382 335 329 387 0 366 -17 332 0 1005 382 177 330 356 353 0 351 +17 1300 0 806
 352 812 330 382 370 0 0 -17 812 0 806 1300 348 327 369 367 0 0 -17 369 0 1002 3
34 329 323 812 367 0 348 +15 1002 989 0 369 998 0 17 334 0 1002 366 369 315 325
 384 0 340 -17 329 0 1002 369 366 327 337 387 0 382 +17 366 0 1002 329 334 335 3
47 354 0 361 -17 361 0 360 347 357 335 177 362 0 0 +17 177 0 1005 332 337 175 36
1 362 0 356 -17 325 0 339 174 340 323 334 384 0 369 +17 352 0 806 348 1300 172 3
51 379 0 0 -17 351 0 350 356 341 330 352 379 0 1300 +15 997 1163 0 800 804 802 1
7 800 0 997 800 800 0 798 380 0 0 -15 994 1201 0 1301 990 1302 17 1301 0 994 130
1 1301 0 796 794 0 0 -15 1302 1202 0 797 990 0 17 797 0 1302 797 797 0 1303 791
 0 0 +17 1303 0 1304 1303 1303 0 797 791 0 0 -15 1304 1187 0 1303 687 805 17 796
 0 1305 796 796 0 1301 794 0 0 +15 1305 1180 0 796 364 799 15 799 1142 0 798 364
 360 15 991 1239 0 1306 986 1307 17 1306 0 991 1306 1306 0 790 788 0 0 -15 1307
 1240 0 793 986 0 17 793 0 1307 793 793 0 1308 785 0 0 +17 1308 0 1309 1308 1308
 0 793 785 0 0 -15 1309 1225 0 1308 687 1304 17 790 0 1310 790 790 0 1306 788 0
 0 +15 1310 1218 0 790 364 1305 15 987 1277 0 1311 982 1312 17 1311 0 987 1311 1
311 0 784 782 0 0 -15 1312 1278 0 787 982 0 17 787 0 1312 787 787 0 1313 779 0 0
 +17 1313 0 1314 1313 1313 0 787 779 0 0 -15 1314 1263 0 1313 687 1309 17 784 0
 1315 784 784 0 1311 782 0 0 +15 1315 1256 0 784 364 1310 15 983 1315 0 1316 978
 1317 17 1316 0 983 1316 1316 0 778 776 0 0 -15 1317 1316 0 781 978 0 17 781 0 1
317 781 781 0 1318 773 0 0 +17 1318 0 1319 1318 1318 0 781 773 0 0 -15 1319 1301
 0 1318 687 1314 17 778 0 1320 778 778 0 1316 776 0 0 +15 1320 1294 0 778 364 13
15 15 979 1353 0 1321 974 1322 17 1321 0 979 1321 1321 0 772 770 0 0 -15 1322 13
54 0 775 974 0 17 775 0 1322 775 775 0 1323 759 0 0 +17 1323 0 1324 1323 1323 0
 775 759 0 0 -15 1324 1339 0 1323 687 1319 17 772 0 1325 772 772 0 1321 770 0 0
 +15 1325 1332 0 772 364 1320 15 975 1507 0 1326 964 0 17 1326 0 975 619 78 79 7
48 746 0 1327 -17 619 0 975 761 1326 85 1327 617 0 1328 +17 78 0 975 1326 761 76
 1329 615 0 748 +17 748 0 1330 105 81 76 1326 746 0 1331 +17 1327 0 899 1332 87
 79 619 617 0 0 -15 899 2276 0 1332 894 0 17 1332 0 899 1333 1327 88 81 646 0 0
 -17 87 0 899 1327 1333 85 96 644 0 619 -17 1333 0 899 87 1332 94 90 610 0 0 -17
 96 0 1334 1335 1328 94 87 644 0 769 +15 1334 1463 0 1328 687 1324 17 1335 0 133
4 120 96 97 769 750 0 0 -17 1328 0 1334 96 84 85 761 735 0 0 -17 769 0 965 90 61
4 94 1335 750 0 1333 +15 965 1511 0 1336 960 0 17 90 0 965 1336 769 88 1333 610
 0 758 +17 614 0 965 769 1336 97 1337 612 0 1335 +17 1336 0 965 614 90 91 758 75
6 0 1337 -17 1337 0 895 1338 99 91 614 612 0 0 -15 895 2255 0 1338 890 0 17 1338
 0 895 1339 1337 112 93 642 0 0 -17 99 0 895 1337 1339 97 120 640 0 614 -17 1339
 0 895 99 1338 118 114 600 0 0 -17 120 0 1334 1340 1335 118 99 640 0 767 +17 134
0 0 1334 108 120 121 767 765 0 0 -17 767 0 968 114 604 118 1340 765 0 1339 +15 9
68 1515 0 1341 963 0 17 114 0 968 1341 767 112 1339 600 0 755 +17 604 0 968 767
 1341 121 1342 602 0 1340 +17 1341 0 968 604 114 115 755 753 0 1342 -17 1342 0 8
91 1343 123 115 604 602 0 0 -15 891 2234 0 1343 886 0 17 1343 0 891 1344 1342 10
0 117 638 0 0 -17 123 0 891 1342 1344 121 108 636 0 604 -17 1344 0 891 123 1343
 106 102 608 0 0 -17 108 0 1334 1345 1340 106 123 636 0 764 +17 1345 0 1334 84 1
08 109 764 762 0 0 -17 764 0 971 102 607 106 1345 762 0 1344 +15 971 1519 0 764
 958 0 17 102 0 971 1346 764 100 1344 608 0 752 +17 607 0 971 764 1346 109 1347
 605 0 1345 +17 1346 0 971 607 102 103 752 749 0 1347 -17 1347 0 903 1331 111 10
3 607 605 0 0 -15 903 2297 0 1331 898 0 17 1331 0 903 1329 1347 76 105 650 0 0 -
17 111 0 903 1347 1329 109 84 648 0 607 -17 1329 0 903 111 1331 82 78 615 0 0 -1
7 84 0 1334 1328 1345 82 111 648 0 761 +17 761 0 975 78 619 82 1328 735 0 1329 +
17 105 0 1330 752 748 103 1331 650 0 1346 +15 1330 1428 0 755 364 1325 17 752 0
 1330 117 105 100 1346 749 0 1343 +17 117 0 1330 755 752 115 1343 638 0 1341 +17
 755 0 1330 93 117 112 1341 753 0 1338 +17 93 0 1330 758 755 91 1338 642 0 1336
 +17 758 0 1330 81 93 88 1336 756 0 1332 +17 81 0 1330 748 758 79 1332 646 0 132
6 +15 959 1637 0 737 948 0 17 737 0 959 138 592 142 1348 715 0 1349 +17 138 0 95
9 1350 737 136 1349 593 0 724 +17 592 0 959 737 1350 145 1351 590 0 1348 +17 134
8 0 688 132 144 145 737 715 0 0 -17 1349 0 879 159 1352 142 138 593 0 0 -15 879
 2171 0 1352 873 0 17 159 0 879 1353 1349 157 144 624 0 587 -17 1352 0 879 1349
 1353 136 153 626 0 0 -17 1353 0 879 1352 159 151 587 585 0 0 -17 153 0 919 728
 724 151 1352 626 0 1354 +15 919 1558 0 731 364 1330 17 728 0 919 165 153 148 13
54 725 0 1355 +17 724 0 919 153 141 136 1350 722 0 1352 +17 1354 0 955 587 150 1
51 728 725 0 1353 -15 955 1649 0 740 943 0 17 587 0 955 740 1354 157 1353 585 0
 1356 +17 150 0 955 1354 740 148 1357 588 0 728 +17 740 0 955 150 587 154 1356 7
38 0 1357 +17 1357 0 875 171 1355 154 150 588 0 0 -15 875 2150 0 1355 870 0 17 1
71 0 875 1358 1357 169 156 620 0 584 -17 1355 0 875 1357 1358 148 165 622 0 0 -1
7 1358 0 875 1355 171 163 584 582 0 0 -17 165 0 919 731 728 163 1355 622 0 1359
 +17 731 0 919 129 165 160 1359 729 0 1360 +17 1359 0 952 584 162 163 731 729 0
 1358 -15 952 1645 0 1359 947 0 17 584 0 952 743 1359 169 1358 582 0 1361 +17 16
2 0 952 1359 743 160 1362 580 0 731 +17 743 0 952 162 584 166 1361 741 0 1362 +1
7 1362 0 887 135 1360 166 162 580 0 0 -15 887 2213 0 1360 882 0 17 135 0 887 136
3 1362 133 168 632 0 597 -17 1360 0 887 1362 1363 160 129 634 0 0 -17 1363 0 887
 1360 135 127 597 595 0 0 -17 129 0 919 734 731 127 1360 634 0 1364 +17 734 0 91
9 141 129 124 1364 732 0 1365 +17 1364 0 949 597 126 127 734 732 0 1363 -15 949
 1641 0 745 944 0 17 597 0 949 745 1364 133 1363 595 0 1366 +17 126 0 949 1364 7
45 124 1367 598 0 734 +17 745 0 949 126 597 130 1366 726 0 1367 +17 1367 0 883 1
47 1365 130 126 598 0 0 -15 883 2192 0 1365 878 0 17 147 0 883 1351 1367 145 132
 628 0 592 -17 1365 0 883 1367 1351 124 141 630 0 0 -17 1351 0 883 1365 147 139
 592 590 0 0 -17 141 0 919 724 734 139 1365 630 0 1350 +17 1350 0 959 592 138 13
9 724 722 0 1351 -17 132 0 688 1366 1348 130 147 628 0 745 +15 688 1593 0 1348 6
87 1334 17 1366 0 688 168 132 133 745 726 0 0 -17 168 0 688 1361 1366 166 135 63
2 0 743 +17 1361 0 688 156 168 169 743 741 0 0 -17 156 0 688 1356 1361 154 171 6
20 0 740 +17 1356 0 688 144 156 157 740 738 0 0 -17 144 0 688 1348 1356 142 159
 624 0 737 +82 1 935 -809565985 82 1 915 -732823329 82 1 866 774373567 82 1 856
 1354629351 19 13 175 0 1 0 8 4 S0 74 4 CI16 index_map_offset0 0 1 dCCZ20 11 2 0
 0 1107 1100 0 0 0 0 0 0 0 0 0 0 0 0 0 0 0 0 0 0 1 0 
